<?xml version="1.0" standalone="no"?>
<!DOCTYPE svg PUBLIC "-//W3C//DTD SVG 20010904//EN"
 "http://www.w3.org/TR/2001/REC-SVG-20010904/DTD/svg10.dtd">
<svg version="1.0" xmlns="http://www.w3.org/2000/svg"
 width="1024.000000pt" height="1024.000000pt" viewBox="0 0 1024.000000 1024.000000"
 preserveAspectRatio="xMidYMid meet">
<metadata>
Created by potrace 1.16, written by Peter Selinger 2001-2019
</metadata>
<g transform="translate(0.000000,1024.000000) scale(0.100000,-0.100000)"
fill="#000000" stroke="none">
<path d="M1285 8483 c-22 -3 -42 -8 -45 -12 -3 -5 -18 -12 -35 -18 -16 -5 -34
-19 -40 -31 -5 -12 -13 -22 -17 -22 -5 0 -8 -40 -8 -90 0 -50 4 -90 9 -90 6 0
11 -230 13 -600 2 -462 6 -602 16 -612 9 -9 12 -141 12 -589 0 -453 3 -578 13
-581 9 -4 13 -128 15 -566 2 -336 7 -562 13 -562 5 0 9 -22 9 -50 0 -27 4 -50
9 -50 5 0 11 -97 13 -222 2 -166 6 -222 16 -226 6 -2 12 -10 12 -18 0 -8 5
-14 10 -14 6 0 10 -7 10 -15 0 -8 -4 -15 -10 -15 -5 0 -10 -13 -10 -30 0 -16
-4 -30 -10 -30 -5 0 -12 -16 -16 -35 -3 -19 -10 -35 -15 -35 -5 0 -9 -7 -9
-15 0 -8 -4 -15 -10 -15 -5 0 -10 -6 -10 -14 0 -8 -6 -21 -13 -28 -7 -7 -21
-30 -30 -50 -10 -21 -22 -38 -27 -38 -6 0 -10 -9 -10 -20 0 -11 -4 -20 -9 -20
-5 0 -12 -14 -16 -30 -4 -17 -10 -30 -13 -30 -8 0 -42 -74 -42 -90 0 -6 -3
-10 -7 -10 -5 0 -17 -19 -28 -43 -11 -23 -22 -44 -25 -47 -3 -3 -14 -22 -24
-42 -11 -21 -23 -38 -28 -38 -4 0 -8 -4 -8 -9 0 -8 10 -11 93 -27 17 -4 41
-13 52 -20 11 -8 37 -14 58 -14 35 0 38 -2 31 -22 -3 -13 -7 -23 -8 -24 0 0
-17 -10 -37 -21 -45 -26 -87 -33 -185 -34 l-79 -1 -31 -51 c-17 -29 -37 -67
-45 -84 -8 -18 -17 -33 -21 -33 -5 0 -8 -7 -8 -15 0 -8 -4 -15 -8 -15 -5 0
-17 -28 -27 -62 -23 -81 -38 -118 -47 -118 -5 0 -8 -7 -8 -15 0 -8 -11 -25
-25 -36 -13 -12 -27 -34 -30 -48 -3 -15 -15 -33 -25 -41 -11 -8 -20 -19 -20
-25 -1 -5 -9 -28 -20 -50 -11 -22 -19 -46 -20 -52 0 -7 -3 -13 -8 -13 -8 0
-42 -73 -42 -90 0 -6 -4 -10 -10 -10 -5 0 -10 -7 -10 -15 0 -8 -4 -15 -10 -15
-5 0 -10 -9 -10 -20 0 -11 -7 -23 -15 -26 -8 -4 -15 -12 -15 -20 0 -8 -4 -14
-10 -14 -5 0 -10 -8 -10 -19 0 -10 -7 -24 -15 -31 -8 -7 -15 -19 -15 -26 0 -8
-4 -14 -10 -14 -5 0 -10 -5 -10 -11 0 -13 -31 -82 -41 -89 -3 -3 -10 -16 -14
-30 -4 -14 -16 -32 -26 -41 -11 -9 -22 -30 -25 -48 -4 -17 -10 -31 -15 -31 -5
0 -9 -7 -9 -15 0 -8 -4 -15 -10 -15 -5 0 -12 -16 -16 -35 -3 -19 -10 -35 -15
-35 -5 0 -9 -7 -9 -15 0 -8 -4 -15 -10 -15 -5 0 -12 -16 -16 -35 -3 -19 -10
-35 -15 -35 -5 0 -9 -7 -9 -15 0 -8 -4 -15 -10 -15 -5 0 -10 -6 -10 -14 0 -8
-6 -21 -13 -28 -15 -15 -47 -81 -47 -96 0 -6 -5 -12 -11 -14 -6 -2 -14 -26
-16 -53 -4 -41 -1 -54 17 -75 l22 -25 1396 1 c1371 0 2249 7 2260 18 3 3 578
6 1279 6 800 0 1273 4 1273 10 0 12 66 30 113 30 35 0 37 2 37 33 0 37 15 58
36 50 8 -3 14 0 14 7 0 8 9 10 25 6 19 -5 23 -3 19 9 -5 12 3 15 40 15 39 0
46 -3 46 -20 0 -13 7 -20 20 -20 11 0 20 4 20 10 0 5 8 7 18 4 13 -5 14 -4 3
4 -16 11 -7 32 15 32 8 0 14 3 14 8 0 4 19 8 41 9 23 0 49 8 57 17 15 15 13
16 -20 16 -42 0 -175 -27 -200 -41 -10 -5 -31 -9 -47 -9 -16 0 -36 -7 -45 -15
-18 -18 -26 -19 -26 -2 0 13 44 37 68 37 22 0 119 32 197 65 86 36 111 52 172
112 36 36 63 56 63 47 0 -22 25 -44 49 -44 23 0 29 -16 9 -23 -7 -2 2 -4 20
-4 39 0 43 -3 35 -31 -5 -20 -12 -22 -69 -22 -53 0 -66 -3 -70 -17 -3 -10 -10
-26 -15 -35 -17 -33 -10 -57 26 -80 43 -28 43 -35 5 -42 -16 -3 -45 -9 -62
-13 -18 -4 -38 -6 -45 -5 -7 2 -17 -7 -23 -18 -7 -14 -21 -20 -45 -20 -18 0
-37 -4 -40 -10 -4 -6 15 -10 49 -10 55 0 82 -19 29 -21 -16 0 -37 -4 -48 -9
-12 -5 107 -9 288 -9 198 -1 307 3 307 9 0 6 26 10 59 10 38 0 61 4 64 13 4 9
6 9 6 0 1 -10 47 -13 197 -13 191 0 195 0 189 20 -5 16 -2 20 14 20 14 0 21
-6 21 -20 0 -11 7 -20 15 -20 19 0 19 14 0 34 -8 8 -15 19 -15 24 0 12 38 29
83 37 33 5 38 3 49 -20 7 -15 20 -25 32 -25 12 0 30 -3 42 -6 12 -3 28 1 37
11 15 14 17 13 25 -17 5 -19 16 -34 26 -36 14 -3 17 1 11 17 -3 12 -2 21 4 21
5 0 13 -10 16 -21 7 -20 12 -21 74 -15 36 3 119 6 184 6 110 0 117 1 117 20 0
11 7 20 15 20 8 0 15 -9 15 -20 0 -19 9 -20 675 -20 371 0 675 4 675 8 0 9 68
46 85 47 5 0 10 -11 10 -25 0 -22 5 -25 39 -28 21 -2 43 1 49 7 6 6 19 11 29
11 34 0 68 48 68 96 0 26 -5 44 -11 44 -8 0 -8 4 -1 13 12 14 5 57 -8 57 -4 0
-11 16 -14 35 -4 19 -11 35 -16 35 -6 0 -10 7 -10 15 0 8 -4 15 -10 15 -5 0
-10 9 -10 19 0 24 -16 36 -23 19 -3 -7 -6 2 -6 20 -1 30 -3 33 -24 26 -12 -3
-28 -12 -36 -18 -12 -9 -13 -8 -8 7 4 10 7 21 7 23 0 2 9 4 20 4 24 0 26 13 5
34 -8 8 -15 19 -15 25 0 6 -4 11 -10 11 -5 0 -12 16 -16 35 -3 19 -10 35 -15
35 -5 0 -9 7 -9 15 0 8 -4 15 -10 15 -5 0 -12 16 -16 35 -3 19 -10 35 -15 35
-5 0 -9 7 -9 15 0 8 -4 15 -10 15 -5 0 -12 16 -16 35 -3 19 -10 35 -14 35 -4
0 -10 8 -14 18 -6 18 -27 54 -37 62 -4 3 -9 15 -13 28 -4 12 -12 22 -17 22 -5
0 -9 7 -9 15 0 8 -4 15 -10 15 -5 0 -12 16 -16 35 -3 19 -10 35 -15 35 -5 0
-9 7 -9 15 0 8 -4 15 -9 15 -5 0 -12 14 -16 30 -4 17 -15 36 -26 43 -10 6 -19
17 -19 24 0 7 -8 28 -17 47 -17 34 -21 36 -70 36 -46 0 -53 3 -53 20 0 23 18
27 26 5 4 -8 15 -15 25 -15 22 0 39 32 21 38 -7 2 -12 12 -12 23 0 10 -4 19
-9 19 -5 0 -12 13 -16 30 -4 16 -11 30 -16 30 -5 0 -9 9 -9 20 0 11 -4 20 -9
20 -5 0 -12 13 -16 30 -4 16 -11 30 -16 30 -5 0 -9 9 -9 20 0 11 -4 20 -9 20
-5 0 -12 13 -16 28 -3 15 -15 34 -25 42 -11 8 -20 18 -20 23 0 11 -31 80 -39
87 -4 3 -14 22 -23 43 -10 20 -22 37 -27 37 -5 0 -12 16 -15 35 -4 19 -11 35
-16 35 -6 0 -10 7 -10 15 0 8 -4 15 -10 15 -5 0 -12 11 -16 25 -3 14 -10 25
-15 25 -5 0 -9 9 -9 20 0 11 -4 20 -9 20 -5 0 -12 14 -16 30 -4 17 -10 30 -13
30 -8 0 -42 74 -42 90 0 6 -4 10 -10 10 -5 0 -10 7 -10 15 0 8 -4 15 -9 15 -5
0 -11 12 -14 28 -3 15 -14 36 -25 48 -11 11 -23 31 -27 45 -4 13 -16 31 -26
40 -11 9 -22 30 -25 48 -4 17 -10 31 -15 31 -5 0 -9 7 -9 15 0 8 -4 15 -9 15
-5 0 -13 9 -16 21 -4 12 -26 40 -48 62 l-42 42 -292 3 c-172 2 -293 7 -293 13
0 5 -18 9 -40 9 -23 0 -40 5 -40 11 0 8 -15 10 -45 7 -46 -6 -61 5 -25 17 11
3 20 11 20 16 0 5 7 9 15 9 14 0 385 360 385 374 0 4 11 19 25 34 14 15 25 30
25 34 0 4 14 21 30 38 16 17 30 36 30 42 0 6 8 18 19 27 10 9 21 26 25 39 4
12 12 22 17 22 5 0 9 7 9 15 0 8 4 15 9 15 5 0 13 10 17 23 4 12 10 24 13 27
10 7 41 76 41 89 0 6 3 11 8 11 8 0 42 73 42 90 0 6 3 10 8 10 10 0 32 52 39
94 3 20 10 36 14 36 5 0 9 11 9 25 0 14 4 25 9 25 5 0 12 23 16 50 4 28 11 50
16 50 5 0 9 15 9 34 0 19 4 36 9 38 13 5 25 118 12 118 -6 0 -11 -7 -11 -15 0
-20 -37 -19 -57 1 -13 13 -14 20 -5 33 7 9 21 33 32 53 11 21 26 37 32 35 7
-1 13 4 14 11 3 25 5 27 13 13 5 -8 16 -11 25 -8 12 5 16 21 16 71 0 36 5 68
10 71 12 8 14 475 2 475 -5 0 -12 44 -15 97 -4 54 -11 99 -17 101 -5 2 -10 19
-10 39 0 30 -3 34 -20 28 -11 -4 -20 -2 -20 4 0 6 5 11 10 11 6 0 10 11 10 25
0 30 -7 31 -28 4 -17 -20 -17 -20 -29 10 -9 25 -9 31 2 31 17 0 28 31 15 44
-14 14 -13 43 3 49 9 3 9 7 1 18 -6 8 -14 31 -18 52 -4 20 -11 37 -16 37 -6 0
-10 11 -10 25 0 14 -4 25 -10 25 -5 0 -13 18 -16 40 -4 22 -10 40 -15 40 -5 0
-9 9 -9 20 0 11 -4 20 -9 20 -5 0 -11 12 -13 27 -3 24 -9 29 -41 34 -21 3 -40
2 -43 -2 -9 -15 -32 2 -48 35 -8 18 -34 64 -56 102 -22 38 -40 77 -40 86 0 10
-3 18 -7 18 -5 0 -18 15 -31 33 -24 36 -25 85 -2 112 15 18 18 15 -137 171
-62 62 -114 107 -117 101 -2 -7 -5 -4 -5 6 -1 20 -31 23 -50 5 -10 -11 -15 -9
-26 5 -7 10 -16 18 -19 18 -24 -3 -28 1 -22 24 5 19 1 29 -16 42 -12 10 -40
35 -61 56 -31 31 -36 41 -26 53 9 11 8 14 -7 14 -11 0 -25 9 -32 21 -10 15
-20 19 -37 15 -17 -4 -25 -1 -29 12 -5 15 -71 52 -94 52 -4 0 -16 11 -26 25
-10 14 -27 25 -37 25 -11 0 -19 5 -19 10 0 6 -7 10 -15 10 -8 0 -15 4 -15 10
0 5 -16 12 -35 16 -19 3 -35 10 -35 15 0 5 -7 9 -15 9 -8 0 -15 4 -15 10 0 5
-16 12 -35 16 -19 3 -35 10 -35 15 0 5 -7 9 -15 9 -8 0 -15 4 -15 10 0 5 -18
13 -40 16 -22 4 -40 10 -40 15 0 5 -11 9 -25 9 -14 0 -25 4 -25 9 0 5 -22 12
-50 16 -27 4 -50 11 -50 16 0 5 -22 9 -48 9 -26 0 -52 4 -58 10 -5 5 -45 13
-87 16 -42 4 -77 11 -77 15 0 5 -16 9 -35 9 -19 0 -35 5 -35 10 0 6 -107 10
-300 10 -184 0 -300 -4 -300 -10 0 -5 24 -34 54 -65 l54 -55 74 0 c41 0 95 7
120 16 44 15 50 14 130 -9 114 -34 122 -36 213 -38 67 -1 85 -5 112 -25 17
-13 36 -24 40 -24 5 0 28 -9 51 -20 22 -11 49 -20 59 -20 35 0 89 -20 112 -42
28 -25 73 -28 96 -5 18 18 50 24 40 7 -3 -5 -26 -21 -50 -35 l-44 -26 -53 21
c-29 12 -61 26 -70 31 -10 5 -24 9 -31 9 -8 0 -52 20 -99 43 -76 38 -100 45
-195 56 -59 7 -128 19 -153 28 -27 9 -58 12 -80 8 -19 -4 -86 -6 -148 -6 -88
1 -120 6 -140 19 l-25 16 6 -57 c3 -33 14 -69 26 -86 12 -16 21 -36 21 -45 0
-9 6 -16 14 -16 8 0 21 -3 30 -6 11 -4 16 -1 16 10 0 9 -5 16 -11 16 -15 0
-39 26 -39 42 0 10 27 13 113 15 61 0 119 3 127 5 9 2 16 -6 18 -19 2 -15 10
-23 23 -23 10 0 19 -4 19 -10 0 -5 5 -10 10 -10 6 0 10 14 10 31 0 28 3 31 23
25 12 -3 31 -6 41 -6 18 0 18 -2 -5 -26 -13 -14 -25 -20 -27 -14 -3 8 -8 8
-18 -1 -19 -15 -18 -29 4 -45 35 -27 142 -8 142 25 0 12 -3 12 -12 3 -19 -19
-68 -15 -68 6 1 30 23 49 50 42 14 -4 33 -3 43 2 11 6 23 6 30 0 7 -5 30 -13
52 -16 38 -7 125 -50 125 -63 0 -3 -7 -11 -15 -17 -9 -7 -12 -16 -6 -24 7 -11
19 -12 65 -2 56 11 111 7 121 -10 8 -13 -23 -70 -41 -77 -9 -3 -19 -15 -24
-27 -8 -20 -9 -19 -22 12 -7 18 -17 31 -23 29 -20 -8 -55 13 -55 33 0 24 -18
27 -27 4 -3 -8 -12 -13 -19 -10 -8 3 -11 0 -7 -10 3 -8 -1 -21 -8 -30 -24 -30
-58 -35 -118 -20 -31 8 -81 20 -111 26 -30 7 -60 17 -67 22 -7 5 -18 6 -25 1
-33 -21 -82 -32 -95 -21 -7 6 -47 10 -88 9 -44 -1 -83 4 -94 11 -14 8 -23 9
-33 1 -14 -12 -78 -24 -148 -29 -70 -5 -124 -15 -138 -27 -7 -6 -44 -11 -83
-11 -38 -1 -69 -4 -69 -8 0 -5 -11 -8 -25 -8 -14 0 -25 -4 -25 -10 0 -5 -5
-10 -10 -10 -6 0 -45 -16 -87 -35 -41 -20 -83 -35 -91 -33 -9 2 -23 15 -32 30
-13 24 -13 31 -1 50 21 34 26 165 6 184 -8 8 -15 26 -15 40 0 28 -15 32 -24 7
-7 -23 -28 -56 -41 -66 -29 -21 -112 -66 -123 -67 -8 0 -28 -10 -45 -22 -26
-19 -30 -20 -24 -4 4 10 7 22 7 27 0 5 9 9 20 9 20 0 71 20 80 31 3 3 21 14
40 24 44 23 49 29 83 95 30 61 36 110 12 110 -8 0 -15 -4 -15 -9 0 -4 -18 -11
-40 -14 -22 -3 -47 -12 -55 -21 -9 -9 -18 -16 -20 -16 -1 0 0 38 2 84 4 56 2
85 -6 90 -6 4 -11 20 -11 37 0 16 -4 29 -10 29 -5 0 -10 9 -10 20 0 11 -6 20
-12 20 -7 0 -26 8 -43 18 -28 16 -155 17 -2195 18 -1191 0 -2183 -1 -2205 -3z
m155 -274 c73 -16 110 -56 110 -119 0 -32 -6 -53 -20 -68 -21 -22 -27 -52 -11
-52 12 0 51 -37 75 -70 17 -24 18 -20 11 125 -4 83 -9 153 -12 158 -2 4 -14 7
-25 7 -12 0 -19 2 -16 5 3 3 31 3 62 -1 46 -6 54 -9 45 -20 -14 -17 -2 -433
13 -451 6 -7 26 -13 44 -13 28 0 35 4 40 28 4 15 10 32 14 37 4 6 11 26 15 45
4 19 11 41 15 50 4 8 20 56 36 105 15 50 30 95 34 100 4 6 12 30 19 54 10 36
15 41 25 30 7 -8 18 -32 25 -54 13 -40 27 -75 52 -130 l13 -30 3 25 c2 14 9
36 15 50 48 109 73 125 198 125 47 0 105 -7 128 -14 36 -12 42 -18 42 -43 0
-35 -18 -36 -48 0 -22 26 -28 27 -110 27 -82 0 -89 -2 -119 -29 -18 -16 -33
-38 -33 -48 0 -10 -4 -18 -10 -18 -6 0 -10 -33 -10 -78 0 -63 5 -88 24 -128
28 -57 90 -124 115 -124 5 0 11 -5 13 -10 4 -13 117 -18 136 -6 17 10 17 337
0 354 -13 13 1 16 37 6 18 -4 20 -12 17 -66 -4 -67 -1 -68 51 -11 18 19 53 55
79 81 49 48 58 66 36 75 -7 3 16 5 52 5 36 0 56 -3 45 -5 -18 -5 -225 -200
-225 -212 0 -4 10 -18 23 -33 12 -14 33 -41 47 -59 35 -44 159 -169 195 -196
34 -25 20 -29 -40 -10 -42 12 -94 59 -155 137 -19 25 -52 63 -73 85 l-38 40 3
-118 3 -117 -96 4 c-99 5 -158 23 -191 60 -13 14 -18 15 -18 5 0 -8 10 -23 22
-34 25 -21 11 -32 -21 -16 -11 6 -28 11 -39 11 -15 0 -22 9 -27 36 -3 20 -10
44 -15 53 -4 9 -16 39 -25 66 -38 110 -34 106 -95 103 -55 -3 -55 -3 -66 -43
-6 -22 -13 -47 -16 -55 -25 -68 -31 -103 -20 -120 11 -18 8 -19 -56 -13 -37 3
-83 8 -102 12 -32 6 -35 9 -32 39 3 24 -1 32 -12 32 -9 0 -16 -5 -16 -11 0 -7
-10 -20 -22 -30 -23 -20 -57 -23 -154 -13 l-59 6 3 228 3 228 -27 21 -27 21
46 0 c25 0 69 -5 97 -11z m1350 -60 c13 -7 12 -8 -2 -9 -10 0 -18 -6 -18 -12
0 -17 19 -88 30 -115 18 -41 27 -67 60 -158 56 -156 75 -200 83 -188 3 5 15
36 27 69 12 32 25 68 30 79 5 11 29 74 53 140 25 66 48 128 52 137 5 13 0 19
-19 24 -42 10 -31 28 12 19 20 -4 55 -10 77 -15 30 -5 33 -8 14 -9 -22 -1 -31
-11 -53 -56 -14 -31 -26 -60 -26 -65 0 -6 -4 -18 -9 -28 -9 -18 -33 -72 -49
-112 -5 -14 -17 -41 -26 -62 -9 -20 -16 -41 -16 -47 0 -6 -4 -19 -9 -29 -21
-40 -41 -91 -41 -106 0 -9 -4 -16 -10 -16 -5 0 -10 -11 -10 -25 0 -16 -6 -25
-15 -25 -9 0 -15 9 -15 25 0 14 -4 25 -10 25 -5 0 -10 7 -10 16 0 15 -20 66
-41 106 -5 10 -9 23 -9 29 0 6 -7 26 -15 45 -8 19 -22 49 -30 68 -8 19 -15 39
-15 45 0 6 -8 25 -18 43 -10 18 -22 45 -26 61 -10 41 -53 132 -68 144 -7 6
-22 13 -33 16 -11 3 16 3 60 0 44 -3 87 -9 95 -14z m4914 -26 c-4 -16 -11 -36
-15 -45 -12 -22 -12 -175 0 -182 14 -9 80 22 107 50 14 13 31 24 39 24 8 0 15
5 15 10 0 19 29 10 48 -15 16 -20 29 -25 62 -25 34 0 41 -3 38 -17 -7 -38
-118 -6 -118 34 0 21 -27 15 -54 -12 -15 -15 -29 -43 -32 -65 -4 -22 -10 -40
-15 -40 -5 0 -9 -11 -9 -24 0 -27 24 -56 45 -56 7 0 15 -5 17 -12 3 -8 15 -6
39 8 40 23 65 48 87 89 9 18 17 25 20 17 2 -7 -2 -20 -9 -29 -8 -9 -14 -41
-13 -79 0 -53 4 -67 24 -89 37 -40 105 -31 123 18 10 27 27 20 42 -17 15 -34
31 -46 67 -46 29 0 21 -44 -9 -48 -13 -2 -23 -10 -23 -18 0 -8 -4 -14 -10 -14
-14 0 -12 -38 3 -56 49 -62 90 -92 129 -96 23 -2 34 -9 37 -23 2 -11 12 -26
22 -33 11 -7 19 -19 19 -26 0 -22 26 -26 51 -8 25 17 54 23 82 15 12 -3 17
-14 17 -38 0 -28 6 -37 30 -50 17 -9 30 -20 30 -27 0 -11 50 -58 63 -58 4 0 7
-18 7 -39 0 -22 4 -41 9 -43 4 -1 11 -12 15 -24 5 -16 -1 -24 -30 -38 -34 -16
-38 -16 -61 0 -20 13 -27 13 -33 3 -19 -30 6 -44 68 -39 25 2 31 -24 6 -34
-11 -4 -13 -10 -6 -22 11 -19 5 -50 -14 -78 -15 -22 -8 -46 14 -46 9 0 31 -14
49 -32 26 -25 33 -40 33 -70 0 -25 -5 -41 -15 -44 -22 -9 -18 -34 9 -55 27
-21 56 -101 56 -153 0 -19 5 -36 11 -38 5 -2 11 -10 13 -18 16 -94 27 -110 71
-110 39 0 80 -32 71 -56 -5 -13 -15 -15 -52 -9 -63 9 -74 14 -74 34 0 16 -93
52 -135 51 -41 0 -65 28 -65 74 0 24 -9 71 -19 104 -11 34 -23 78 -26 99 -8
46 -27 93 -37 93 -5 0 -8 6 -8 14 0 8 -6 16 -12 18 -7 3 -13 19 -14 37 -1 19
-6 36 -10 40 -13 9 -44 71 -44 87 0 8 -4 22 -9 32 -5 9 -17 35 -27 57 -11 22
-24 45 -30 51 -6 7 -17 26 -24 43 -7 17 -16 31 -20 31 -4 0 -10 8 -14 18 -8
24 -38 71 -91 143 -25 35 -45 69 -45 75 0 25 -46 83 -83 106 -56 33 -129 97
-143 123 -6 12 -21 32 -33 44 -16 16 -20 28 -15 48 7 25 5 26 -24 20 -27 -6
-33 -3 -46 25 -9 17 -16 37 -16 45 0 12 -3 12 -16 -1 -8 -9 -18 -16 -22 -16
-13 1 -42 27 -42 39 0 15 -27 14 -33 -1 -4 -9 -8 -9 -14 -3 -15 18 -52 35 -78
35 -13 0 -43 7 -65 16 -37 15 -40 19 -40 55 0 21 5 39 10 39 6 0 10 5 10 11 0
6 18 31 40 56 22 25 40 52 40 59 0 7 6 17 13 21 15 9 68 98 66 110 -3 17 2 23
16 23 12 0 14 -7 9 -27z m-4215 -70 c72 -6 73 -6 47 -22 l-26 -16 0 -227 c0
-195 2 -229 16 -243 23 -22 16 -25 -41 -16 -28 5 -44 9 -37 10 17 1 18 471 0
489 -18 18 -38 14 -38 -8 0 -11 -4 -20 -9 -20 -5 0 -11 9 -14 20 -4 17 -14 20
-71 20 l-66 0 0 -98 c0 -63 4 -102 12 -110 16 -16 115 -16 121 1 3 6 5 -8 5
-33 0 -25 -2 -38 -5 -30 -4 8 -12 20 -19 27 -16 17 -101 17 -106 1 -2 -7 -2
-62 1 -123 l6 -110 73 -3 c45 -2 72 1 72 8 0 5 5 10 11 10 6 0 9 -10 7 -22 -3
-20 -8 -21 -78 -19 -41 1 -93 4 -115 7 l-40 6 3 242 c3 223 2 245 -15 261 -17
17 -13 18 107 11 69 -3 158 -9 199 -13z m226 -23 c-3 -5 -12 -10 -20 -10 -7 0
-16 -7 -19 -16 -3 -9 -6 -112 -6 -229 0 -204 1 -215 21 -234 24 -22 111 -33
146 -18 12 5 24 19 26 31 3 11 4 3 4 -19 l-2 -40 -65 2 c-36 1 -102 5 -148 8
-80 7 -82 8 -62 25 19 16 20 29 20 247 0 228 0 231 -22 246 -22 15 -19 16 55
16 50 1 76 -3 72 -9z m418 -31 c26 -5 74 -9 107 -9 32 0 61 -4 64 -9 3 -5 18
-12 32 -15 15 -4 32 -13 39 -20 20 -20 45 -85 45 -117 0 -30 -42 -108 -66
-122 -21 -12 -17 -39 11 -69 14 -15 25 -30 25 -33 0 -12 74 -95 85 -95 6 0 9
65 8 193 -2 247 0 233 -19 251 -14 15 -9 16 53 16 64 0 66 -1 45 -16 -22 -15
-22 -18 -22 -264 0 -228 1 -249 18 -254 9 -3 -6 -4 -35 -2 -44 2 -57 8 -83 36
-17 18 -38 45 -47 61 -10 16 -21 29 -25 29 -4 0 -8 7 -8 15 0 8 -3 15 -7 15
-5 0 -15 13 -24 29 -19 33 -14 76 12 105 44 47 36 157 -15 211 -32 33 -37 35
-99 35 -55 0 -65 -3 -61 -15 4 -8 10 -15 15 -15 5 0 9 -24 9 -52 0 -45 -5 -58
-31 -88 -28 -32 -29 -35 -13 -47 21 -15 65 -57 81 -76 14 -17 15 -107 2 -107
-6 0 -7 -5 -3 -12 4 -7 3 -8 -4 -4 -7 4 -12 16 -12 27 0 20 -3 26 -35 89 -28
53 -92 95 -137 88 -22 -3 -23 -6 -26 -117 -3 -140 3 -151 86 -151 36 0 61 5
73 16 11 9 19 11 23 5 15 -24 -55 -35 -212 -32 l-63 1 21 22 c19 21 20 34 20
244 l0 222 -31 26 -30 26 93 -6 c51 -3 115 -10 141 -15z m618 -48 c66 -12 166
-21 319 -30 l115 -6 3 -37 c3 -40 -14 -54 -20 -15 -2 15 -14 26 -38 34 -43 15
-160 17 -160 3 0 -5 5 -10 10 -10 29 0 107 -90 116 -135 9 -45 27 -85 39 -85
6 0 16 5 23 12 9 9 12 3 12 -30 0 -44 -14 -57 -23 -22 -3 11 -9 20 -14 20 -8
0 -33 -69 -33 -93 0 -8 -18 -39 -40 -71 -22 -31 -40 -60 -40 -65 0 -10 70 -31
104 -31 27 0 76 39 76 60 0 5 5 10 10 10 6 0 10 -8 10 -18 0 -24 25 -46 71
-62 60 -21 112 4 137 65 18 44 -4 81 -105 183 -46 46 -83 90 -83 98 0 8 -4 14
-10 14 -5 0 -10 23 -10 50 0 28 3 50 8 50 4 0 12 10 17 22 13 28 81 52 115 39
14 -5 44 -14 68 -21 41 -13 42 -14 42 -59 l0 -46 -15 30 c-21 41 -50 63 -91
71 -51 10 -91 -11 -98 -50 -9 -49 -1 -62 90 -156 46 -47 90 -94 98 -105 17
-23 22 -135 6 -135 -5 0 -10 -6 -10 -14 0 -8 -14 -24 -30 -36 -27 -19 -40 -21
-113 -16 -105 6 -173 11 -269 21 l-76 7 -4 -118 c-3 -106 -6 -125 -31 -174
-43 -85 -119 -162 -211 -212 -51 -28 -199 -20 -155 8 18 11 77 34 107 41 12 3
22 9 22 14 0 5 6 9 13 9 18 0 111 79 116 98 4 19 53 96 64 100 4 2 7 9 7 17 0
7 7 18 15 25 8 7 15 27 15 46 0 18 5 36 10 39 6 3 10 28 10 56 l0 49 -44 0
c-25 0 -48 5 -51 10 -4 6 6 10 22 10 42 0 58 15 56 52 l-2 33 11 -27 c15 -34
26 -35 58 -3 44 43 49 53 58 108 10 61 -2 190 -18 195 -5 2 -10 9 -10 15 0 18
-50 69 -100 102 -39 25 -57 29 -132 33 l-88 4 0 -224 c0 -211 1 -225 20 -246
11 -12 33 -24 48 -28 54 -12 45 -14 -45 -11 -90 3 -119 11 -96 25 7 5 13 90
18 243 6 209 5 237 -9 252 -9 8 -16 18 -16 21 0 9 70 7 131 -3z m2084 -130
c44 -6 125 -8 181 -5 109 7 148 -3 202 -53 14 -13 34 -23 46 -23 37 0 103 -31
114 -54 9 -21 15 -22 73 -18 45 3 65 1 73 -9 6 -8 36 -27 66 -43 30 -16 78
-47 106 -68 28 -21 56 -38 62 -38 6 0 34 -22 62 -50 28 -27 56 -50 61 -50 15
0 149 -141 149 -157 1 -4 15 -19 31 -33 68 -56 89 -82 129 -162 13 -27 27 -48
32 -48 4 0 8 -10 8 -22 0 -12 7 -29 15 -38 21 -23 95 -170 95 -189 1 -24 45
-150 80 -226 5 -11 16 -56 25 -100 9 -44 20 -81 26 -83 5 -2 9 -9 9 -15 1 -28
51 -66 107 -82 34 -9 95 -75 87 -94 -3 -9 -11 -34 -16 -56 -5 -22 -13 -44 -19
-49 -5 -6 -9 -18 -9 -29 0 -24 -24 -47 -49 -47 -12 0 -21 -4 -21 -10 0 -5 -8
-10 -19 -10 -10 0 -39 -11 -65 -25 -45 -24 -116 -34 -116 -17 0 4 -16 14 -35
21 -19 7 -35 17 -35 23 0 22 -63 213 -72 216 -4 2 -8 9 -8 16 0 16 -30 77 -46
93 -7 7 -10 22 -7 33 3 11 0 20 -6 20 -13 0 -51 81 -51 110 0 14 -11 25 -34
35 -23 10 -36 23 -41 42 -3 15 -5 28 -3 28 1 0 -6 14 -18 30 -26 38 -74 138
-74 154 0 7 -7 20 -16 28 -10 10 -13 25 -10 40 5 18 -2 32 -31 61 -21 20 -38
44 -40 52 -1 8 -7 16 -12 18 -6 2 -11 8 -11 14 0 5 -18 27 -40 48 -22 21 -40
44 -40 50 0 7 -7 10 -14 7 -9 -4 -17 2 -21 14 -4 10 -11 19 -16 19 -5 0 -31
20 -57 44 -83 78 -117 106 -129 106 -7 0 -13 3 -13 8 0 4 -14 16 -30 27 -16
11 -30 26 -30 33 0 7 -10 16 -23 21 -12 5 -37 22 -54 38 -64 60 -86 69 -175
72 -30 1 -37 5 -40 23 l-3 23 -24 -25 c-20 -22 -24 -23 -34 -9 -8 13 -15 14
-38 6 -22 -9 -32 -8 -46 3 -34 28 -61 39 -80 34 -13 -4 -28 4 -44 20 -27 29
-47 33 -55 11 -4 -8 -19 -15 -34 -15 -16 0 -41 -5 -57 -11 -19 -7 -29 -7 -31
0 -5 15 -29 14 -35 -1 -4 -10 -8 -10 -15 1 -9 12 -13 13 -26 2 -9 -8 -33 -15
-54 -17 -57 -5 -146 -25 -152 -34 -3 -4 -38 -15 -79 -24 -55 -13 -76 -14 -81
-5 -10 16 -68 2 -80 -20 -7 -15 -17 -17 -53 -11 -24 3 -54 14 -67 23 -14 9
-33 17 -43 17 -26 0 -77 41 -77 62 0 13 -8 18 -25 18 -15 0 -25 6 -25 14 0 19
-25 27 -39 13 -8 -8 -11 -8 -11 0 0 6 7 16 15 23 10 9 15 9 15 1 0 -6 7 -11
15 -11 8 0 12 6 9 14 -11 29 61 76 116 76 17 0 30 5 30 10 0 6 5 10 11 10 6 0
31 17 57 38 48 39 115 65 211 82 30 6 59 14 65 19 14 11 142 31 226 34 88 3
150 0 245 -12z m-3000 -410 c100 -46 220 -105 225 -111 3 -4 13 -9 23 -13 9
-4 22 -18 27 -32 5 -14 13 -25 17 -25 5 0 22 -12 38 -26 28 -25 29 -26 5 -19
-13 4 -30 14 -38 21 -17 18 -23 18 -16 -1 3 -8 24 -28 46 -44 53 -39 33 -48
-26 -11 -26 17 -50 30 -55 30 -4 0 -19 9 -32 21 -13 11 -34 29 -47 40 -12 10
-27 19 -33 19 -5 0 -8 4 -5 9 8 13 -4 41 -18 41 -6 0 -27 11 -47 24 -54 37
-132 55 -247 59 -101 3 -102 3 -70 -13 82 -42 128 -69 154 -94 16 -14 34 -26
41 -26 7 0 13 -4 13 -8 0 -5 17 -17 38 -28 20 -10 39 -21 42 -24 10 -10 70
-41 70 -36 0 9 72 -28 132 -67 31 -20 62 -37 68 -37 5 0 18 -4 28 -9 39 -19
122 -41 156 -41 20 0 36 -4 36 -10 0 -5 -6 -10 -12 -10 -9 0 -8 -4 2 -10 22
-14 40 -12 40 5 0 18 65 31 84 16 7 -6 16 -8 19 -4 4 3 7 2 7 -4 0 -6 -9 -13
-20 -16 -11 -3 -20 -12 -20 -21 0 -9 -4 -16 -10 -16 -5 0 -10 -10 -10 -21 0
-12 -11 -32 -25 -45 -33 -31 -32 -36 6 -17 17 9 39 29 48 46 9 16 28 43 42 58
14 16 33 52 43 79 17 48 36 66 36 35 0 -8 -4 -15 -10 -15 -5 0 -10 -7 -10 -15
0 -19 -1 -20 63 13 34 16 69 45 91 72 34 43 36 48 36 128 0 45 4 82 9 82 12 0
24 -37 16 -50 -3 -5 -2 -10 3 -10 6 0 12 -21 15 -47 3 -27 9 -63 13 -81 5 -27
2 -38 -17 -58 -13 -14 -25 -20 -29 -14 -3 5 -26 -10 -49 -35 -37 -39 -110 -84
-138 -85 -4 -1 -24 -21 -43 -46 -49 -63 -78 -75 -198 -81 -83 -4 -107 -2 -127
11 -13 9 -29 16 -35 16 -12 0 -68 40 -110 78 -14 12 -28 22 -32 22 -3 0 -13 6
-20 13 -21 20 -219 137 -232 137 -7 0 -18 -6 -24 -12 -9 -9 -15 -9 -20 -2 -4
5 -23 16 -42 24 -43 16 -214 119 -218 131 -2 5 -12 9 -22 9 -10 0 -22 5 -25
10 -8 13 -62 13 -70 1 -3 -6 -38 -9 -77 -9 l-71 2 24 18 c61 48 64 51 50 56
-35 12 -123 -70 -106 -98 3 -6 -1 -10 -9 -10 -10 0 -16 9 -16 23 0 21 -1 20
-25 -8 -16 -20 -24 -43 -25 -67 0 -21 -4 -38 -10 -38 -5 0 -10 -7 -10 -15 0
-8 -4 -15 -10 -15 -5 0 -10 -12 -10 -27 l-1 -28 -17 28 c-21 34 -58 38 -47 5
18 -59 18 -68 1 -62 -10 4 -16 1 -16 -7 0 -9 -4 -7 -11 4 -10 17 -12 17 -28 2
-12 -10 -16 -24 -13 -43 5 -25 4 -26 -11 -10 -21 21 -22 84 -2 105 12 12 14
28 9 72 -5 49 -3 58 15 75 19 17 21 17 15 3 -3 -9 -10 -17 -15 -17 -14 0 -10
-43 5 -62 12 -17 14 -17 34 0 11 10 28 43 37 74 9 31 22 59 30 62 8 3 15 12
15 21 0 8 3 15 8 15 4 0 15 12 25 28 l18 27 -6 -32 c-4 -18 -4 -33 0 -33 10 0
44 43 45 57 0 21 100 43 150 33 72 -15 151 -12 170 5 26 23 94 34 205 32 80
-2 110 -7 150 -26z m-369 -257 c23 -4 34 -2 34 5 0 20 71 1 95 -25 12 -13 26
-24 30 -24 12 0 79 -72 114 -122 17 -27 36 -48 40 -48 5 0 11 -6 14 -14 9 -22
-51 1 -64 25 -5 11 -15 17 -20 13 -6 -3 -19 2 -30 12 -18 16 -19 16 -18 -2 0
-10 9 -32 20 -49 30 -47 38 -71 32 -93 -4 -18 8 -34 30 -38 4 -1 10 -2 15 -3
4 -1 0 -5 -8 -11 -8 -5 -11 -12 -6 -17 4 -4 12 0 17 10 14 25 29 21 29 -8 0
-17 -6 -25 -17 -25 -12 0 -14 -3 -6 -8 6 -4 15 -20 19 -36 6 -26 5 -27 -14
-17 -11 6 -30 31 -42 56 -12 25 -26 45 -30 45 -5 0 -12 10 -16 23 -3 12 -15
34 -25 49 -11 14 -19 31 -19 38 0 6 -7 18 -15 26 -8 9 -15 24 -15 35 0 10 -4
19 -9 19 -5 0 -13 9 -16 21 -5 14 -13 19 -26 16 -14 -4 -19 0 -19 14 0 23 -37
58 -70 66 -14 3 -27 9 -30 12 -3 4 -32 15 -65 25 -33 10 -63 23 -66 29 -4 6
-16 1 -30 -12 -25 -23 -43 -28 -37 -8 12 34 107 43 224 21z m-358 -209 c24 -9
52 -24 63 -34 22 -20 109 -51 145 -51 13 0 24 -4 24 -9 0 -5 12 -12 27 -16 14
-3 50 -26 78 -51 29 -24 56 -44 61 -44 13 0 134 -116 134 -128 0 -5 7 -15 15
-22 9 -7 13 -21 10 -30 -4 -11 1 -19 12 -22 34 -9 134 -234 138 -306 1 -29 7
-58 14 -65 14 -14 15 -47 1 -47 -5 0 -10 -6 -10 -14 0 -20 -20 -30 -33 -17
-15 15 -16 49 -1 55 13 5 8 46 -6 46 -12 0 -19 50 -8 56 5 3 0 14 -12 24 -11
9 -20 29 -20 42 0 36 -23 53 -43 33 -21 -20 -27 -19 -62 9 -27 23 -29 27 -16
47 12 20 11 24 -10 40 -13 10 -30 19 -37 19 -9 0 -11 10 -6 38 l7 37 -22 -24
c-31 -36 -83 -50 -187 -52 -68 -1 -101 3 -124 15 -18 9 -42 16 -52 16 -15 0
-17 -3 -8 -19 13 -26 13 -31 -5 -31 -20 0 -19 -17 2 -29 13 -7 16 -20 14 -52
-1 -24 -7 -49 -13 -56 -7 -9 -7 -17 0 -26 8 -10 8 -24 0 -53 -14 -46 -11 -73
8 -95 8 -9 11 -19 8 -22 -4 -4 -2 -12 3 -19 6 -7 14 -32 18 -55 4 -29 13 -44
26 -48 20 -7 26 -30 9 -40 -6 -4 -8 -11 -4 -16 3 -5 1 -15 -4 -22 -5 -7 -13
-32 -18 -57 -4 -25 -9 -37 -12 -27 -2 9 -8 17 -13 17 -5 0 -9 10 -9 23 0 13
-5 28 -10 33 -13 13 4 64 20 64 18 0 11 39 -12 65 -16 18 -24 22 -29 13 -6 -9
-10 -8 -15 5 -11 29 -34 20 -34 -13 0 -19 -5 -30 -14 -30 -22 0 -28 29 -20 97
6 60 5 63 -15 63 -12 0 -21 6 -21 15 0 13 -11 19 -32 16 -4 0 -22 6 -41 14
-45 19 -75 10 -80 -24 l-4 -26 -2 28 c-1 22 13 41 63 90 52 51 66 72 80 119
21 75 20 87 -9 94 -14 3 -25 10 -25 15 0 5 -5 9 -11 9 -7 0 -26 16 -45 35 -18
19 -37 35 -43 35 -5 0 -16 6 -23 13 -42 40 -108 45 -108 9 0 -11 -21 -26 -57
-42 -80 -35 -123 -79 -123 -124 0 -42 -15 -56 -24 -22 -12 47 14 97 89 171 60
61 93 99 130 151 11 15 30 39 43 52 12 14 22 29 22 34 0 21 111 104 150 113
17 4 32 11 35 16 9 13 33 11 83 -6z m692 -67 c17 -18 45 -62 62 -98 18 -36 35
-67 38 -70 6 -5 14 -21 56 -117 8 -17 14 -35 14 -41 0 -16 33 -24 43 -10 6 9
7 6 4 -9 -3 -12 -2 -23 2 -25 9 -4 51 -91 51 -105 0 -7 5 -13 10 -13 6 0 10
-5 10 -12 0 -6 11 -26 25 -44 17 -22 20 -32 10 -28 -8 3 -15 10 -15 15 0 5 -9
9 -19 9 -13 0 -21 9 -26 30 -4 16 -15 36 -24 42 -10 7 -21 23 -25 36 -4 12
-12 22 -17 22 -5 0 -9 7 -9 15 0 8 -4 15 -8 15 -10 0 -72 120 -72 141 0 8 -7
22 -15 33 -13 17 -14 15 -8 -20 3 -22 10 -43 14 -48 5 -6 9 -19 9 -30 0 -12 9
-34 21 -51 11 -16 31 -52 45 -79 14 -26 44 -68 67 -93 105 -111 129 -133 144
-133 9 0 24 -7 34 -16 14 -13 20 -13 38 -2 17 10 23 10 29 1 13 -21 62 -34 96
-25 38 11 62 -6 37 -25 -13 -10 -2 -12 61 -13 42 0 89 5 105 11 30 13 113 28
113 22 0 -2 -13 -9 -30 -14 -16 -6 -30 -18 -30 -26 0 -8 -4 -12 -9 -9 -5 3
-32 -1 -60 -10 -28 -8 -55 -13 -59 -10 -5 3 -27 7 -50 10 -22 3 -51 10 -63 16
-13 7 -24 8 -28 3 -3 -6 -30 -14 -60 -20 -58 -11 -96 -1 -86 24 2 7 -1 14 -8
15 -14 1 -19 2 -64 13 -25 6 -33 13 -33 29 0 16 -2 18 -9 7 -7 -11 -17 -8 -49
17 -38 30 -61 72 -40 72 5 0 -4 11 -20 25 -16 14 -33 37 -36 52 -10 38 -30 83
-37 83 -4 0 -10 16 -13 35 -4 19 -11 35 -16 35 -6 0 -10 8 -10 18 0 10 -4 22
-9 28 -13 13 -91 164 -91 175 0 5 7 9 16 9 11 0 14 6 8 23 -4 12 -10 24 -13
27 -4 3 -8 18 -9 34 -1 17 -6 32 -11 35 -10 7 -25 51 -17 51 3 0 19 -15 36
-32z m2650 -278 c41 -35 45 -36 88 -10 40 25 107 26 153 3 39 -20 49 -29 67
-63 7 -14 22 -26 35 -26 12 -1 32 -5 45 -9 17 -6 22 -4 22 11 0 33 43 71 101
89 l56 18 62 -31 62 -31 43 30 c24 16 48 29 54 29 6 0 -1 -22 -14 -50 -29 -61
-30 -72 -4 -87 63 -40 69 -180 9 -233 -11 -10 -15 -25 -12 -47 5 -28 10 -33
32 -33 39 0 81 -30 115 -84 15 -24 18 -41 13 -97 -6 -65 -5 -68 21 -85 23 -15
62 -52 62 -59 0 -2 -28 -1 -62 2 l-63 4 -21 -43 c-28 -60 -73 -88 -141 -88
-29 0 -62 5 -72 11 -14 9 -25 9 -49 -2 -29 -13 -31 -16 -26 -51 4 -20 4 -48 0
-61 -8 -33 -79 -107 -102 -107 -11 0 -35 -5 -55 -10 -32 -9 -37 -15 -48 -60
-16 -63 -36 -65 -46 -3 -9 58 -23 73 -74 73 -34 0 -48 7 -83 39 -38 37 -42 45
-46 100 -2 34 -8 61 -13 61 -4 0 -17 9 -27 20 -16 18 -23 19 -51 9 -42 -15
-115 -5 -151 21 -29 20 -60 71 -60 97 0 12 -39 19 -97 15 -27 -1 -31 14 -5 22
9 3 30 17 46 31 28 24 29 26 16 64 -11 34 -10 45 4 81 25 62 67 100 110 100
26 0 36 4 36 15 0 9 7 26 15 39 14 21 13 25 -15 56 -27 30 -30 40 -30 102 0
39 4 68 10 68 6 0 10 6 10 13 0 7 14 23 31 36 26 20 29 27 24 54 -4 18 -11 36
-16 42 -11 11 -12 45 -1 45 4 0 23 -14 42 -30z m-3890 -303 c0 -18 -5 -38 -11
-44 -6 -6 -12 -36 -13 -67 -1 -43 -7 -61 -25 -80 -35 -38 -18 -43 20 -7 31 30
72 41 84 22 3 -5 -2 -17 -11 -26 -27 -26 -8 -29 32 -5 29 19 40 21 55 12 11
-7 20 -8 24 -2 3 6 19 10 34 10 15 0 31 4 37 9 5 6 26 17 46 25 l37 16 -11
-33 c-5 -17 -13 -46 -17 -62 -9 -34 -32 -75 -43 -75 -3 0 -9 -13 -13 -28 -3
-15 -15 -34 -25 -42 -11 -8 -20 -20 -20 -27 0 -7 -6 -10 -14 -7 -18 7 -49 -37
-41 -58 4 -9 -4 -19 -20 -26 -41 -19 -29 -32 26 -28 40 3 55 0 70 -15 11 -11
19 -23 19 -28 0 -4 11 -6 25 -3 15 2 25 0 25 -7 0 -16 17 -14 40 6 27 23 26
28 -14 58 -29 22 -38 24 -55 15 -12 -6 -21 -7 -21 -3 0 16 16 30 38 36 18 4
31 -3 58 -31 19 -20 34 -41 34 -48 0 -6 16 -19 35 -30 29 -15 39 -17 55 -6 11
6 25 12 32 12 6 0 24 12 40 27 15 14 30 24 32 22 10 -10 -7 -49 -21 -49 -8 0
-21 -7 -29 -15 -9 -8 -27 -16 -42 -17 -15 0 -31 -2 -37 -3 -64 -12 -94 -20
-117 -31 -23 -12 -29 -12 -42 1 -20 21 -72 19 -81 -2 -3 -10 -1 -19 4 -21 8
-3 8 -10 1 -23 -15 -27 -30 -24 -30 6 0 16 -6 25 -15 25 -9 0 -18 7 -21 15 -8
21 -27 19 -42 -5 -10 -17 -15 -18 -33 -8 -25 16 -19 62 11 88 22 19 27 44 8
38 -7 -2 -19 -18 -27 -35 -8 -17 -22 -34 -32 -36 -11 -3 -19 -12 -19 -20 0
-14 -39 -31 -49 -22 -2 3 0 15 6 28 25 53 33 80 33 107 0 19 5 30 14 30 8 0
16 6 19 13 2 6 3 2 1 -10 -2 -11 -7 -28 -10 -37 -3 -9 -2 -16 3 -16 12 0 73
60 73 71 0 5 11 9 25 9 15 0 25 6 25 14 0 8 6 21 13 28 7 7 22 32 32 56 10 23
22 42 27 42 4 0 8 6 8 14 0 21 -27 27 -44 11 -8 -8 -24 -15 -35 -15 -17 0 -20
-7 -23 -57 l-3 -58 -13 56 c-10 44 -18 59 -38 68 -37 16 -64 14 -85 -10 -14
-16 -21 -18 -38 -10 -12 6 -30 16 -41 21 -11 6 -27 10 -35 10 -42 0 -21 65 45
140 54 60 60 68 60 75 0 4 7 13 15 21 8 9 15 26 15 40 0 13 5 24 10 24 6 0 10
-15 10 -33z m2242 -224 c-5 -10 -8 -23 -5 -29 3 -10 -60 -47 -104 -59 -13 -4
-23 -10 -23 -15 0 -5 -11 -5 -25 2 -17 7 -28 8 -37 1 -8 -6 -21 -7 -33 -2 -11
4 -39 8 -62 8 -59 1 -159 50 -134 65 5 3 40 3 77 0 132 -11 257 1 314 32 34
18 42 17 32 -3z m3928 -148 c0 -8 -4 -15 -10 -15 -5 0 -10 -9 -10 -19 0 -11
-11 -41 -25 -67 -16 -31 -25 -63 -25 -93 0 -43 3 -48 43 -72 23 -15 61 -35 85
-45 44 -19 55 -34 25 -34 -10 0 -44 -13 -75 -28 -51 -26 -55 -30 -42 -44 9 -8
20 -34 25 -58 8 -37 7 -44 -11 -60 -11 -9 -20 -26 -20 -37 0 -23 -50 -73 -73
-73 -25 0 -21 22 13 68 17 24 30 54 30 71 0 16 5 31 12 33 9 3 9 12 0 38 -11
29 -10 36 6 49 29 25 60 41 82 41 45 0 15 27 -66 59 -92 37 -109 55 -100 105
4 17 8 42 11 56 3 14 7 45 9 69 5 53 24 71 78 71 27 0 38 -4 38 -15z m-6188
-740 c-1 -49 -3 -99 -3 -109 0 -10 -7 -32 -15 -47 -7 -15 -14 -39 -14 -53 0
-13 -6 -26 -12 -29 -15 -4 -13 -187 1 -197 11 -7 9 -93 -2 -101 -5 -3 -9 -27
-9 -53 0 -37 -3 -46 -17 -46 -58 0 -109 134 -71 185 35 46 60 113 60 162 0 51
11 99 46 203 8 25 18 92 22 150 8 126 19 77 14 -65z m5674 -622 c19 -26 17
-33 -11 -33 -15 0 -25 -6 -25 -15 0 -10 -10 -14 -35 -13 -19 1 -40 -4 -48 -10
-8 -7 -17 -9 -21 -5 -3 4 -16 -4 -27 -16 -12 -12 -28 -20 -36 -17 -10 4 -18
-4 -26 -24 -7 -18 -19 -30 -29 -30 -10 0 -18 -6 -18 -14 0 -18 -29 -48 -40
-41 -4 3 -32 -18 -61 -46 -40 -38 -58 -49 -75 -45 -13 4 -31 -2 -45 -13 -14
-10 -42 -26 -63 -35 -38 -16 -39 -16 -87 14 -27 16 -53 30 -58 30 -5 0 -11 5
-13 11 -6 17 -77 29 -103 17 -36 -16 -65 -95 -65 -175 0 -54 -8 -66 -54 -77
-17 -4 -42 -16 -57 -27 -37 -26 -67 -24 -113 11 -22 17 -44 30 -50 30 -15 0
-56 -42 -56 -57 0 -7 -4 -13 -8 -13 -5 0 -14 -11 -20 -25 -10 -22 -16 -24 -66
-20 -31 2 -64 9 -75 14 -32 18 -64 12 -90 -14 -13 -14 -29 -25 -36 -25 -7 0
-16 -7 -19 -16 -5 -13 -9 -14 -21 -4 -8 7 -15 18 -15 25 0 7 -6 17 -13 23 -10
9 -17 6 -27 -8 -15 -21 -40 -27 -40 -10 0 20 -50 60 -82 67 -18 3 -47 14 -64
23 -17 10 -49 21 -72 25 -22 3 -52 17 -66 30 -17 16 -32 22 -44 18 -15 -6 -15
-5 -4 10 10 11 23 14 45 10 18 -3 68 -8 112 -10 44 -3 84 -8 89 -13 5 -5 19
-4 32 1 19 7 29 4 44 -11 32 -32 54 -23 65 28 7 32 25 45 25 17 0 -8 11 -22
25 -31 14 -9 25 -23 25 -30 0 -17 12 -18 28 -2 10 10 15 10 23 -2 8 -13 11
-13 20 3 14 23 29 22 29 -4 0 -18 3 -19 15 -9 11 9 20 8 45 -7 24 -14 33 -15
39 -5 6 10 10 10 21 -3 7 -8 17 -15 23 -15 18 0 55 53 62 88 3 19 14 43 24 54
18 19 19 19 40 -8 11 -15 21 -32 21 -39 0 -7 9 -24 21 -39 31 -39 80 -33 133
15 11 11 23 19 28 19 4 0 8 16 8 36 0 30 3 34 19 29 15 -4 20 1 25 26 9 46 7
129 -3 167 -12 40 3 42 21 2 16 -37 28 -42 63 -24 25 13 30 12 59 -8 17 -12
33 -25 36 -29 3 -3 15 -9 28 -13 12 -4 22 -12 22 -17 0 -5 11 -9 25 -9 14 0
25 4 25 9 0 5 21 12 48 16 26 4 55 14 64 22 9 8 21 12 26 9 15 -9 76 20 103
49 13 15 32 34 41 43 24 25 42 105 29 130 -21 39 16 44 53 7 27 -27 37 -30 64
-16 13 8 69 27 171 60 2 0 10 -7 17 -16z m-674 -397 c36 -19 118 -96 118 -110
0 -13 -80 -9 -94 5 -20 18 -76 9 -104 -16 -30 -28 -79 -33 -88 -10 -4 8 -3 30
0 48 5 29 15 38 69 65 72 37 65 36 99 18z m-4542 -65 c0 -5 -7 -16 -15 -24 -7
-8 -22 -33 -32 -56 -10 -22 -23 -41 -30 -41 -6 0 -13 -12 -15 -27 -2 -19 -12
-32 -31 -41 -25 -12 -29 -11 -47 10 -21 25 -26 48 -10 48 6 0 10 11 10 25 0
15 6 25 14 25 8 0 23 10 33 23 36 45 123 86 123 58z m-440 -606 c0 -26 2 -26
77 -29 11 -1 25 -4 29 -8 4 -5 18 -8 30 -8 17 0 22 -4 18 -15 -4 -8 -1 -15 5
-15 6 0 11 -3 11 -8 0 -12 -76 -32 -122 -32 -24 0 -49 -4 -55 -8 -15 -10 -43
-96 -43 -134 0 -15 -4 -30 -10 -33 -5 -3 -10 -18 -10 -33 0 -41 -12 -53 -54
-50 l-37 3 3 99 c3 90 1 100 -17 110 -32 18 -34 26 -17 72 18 50 35 55 85 27
18 -10 34 -20 37 -23 3 -3 15 -11 28 -18 25 -14 23 -19 24 71 1 31 5 57 9 57
5 0 9 -11 9 -25z m694 -257 c-25 -27 -66 -20 -74 12 -6 22 -11 25 -46 22 -21
-2 -42 -9 -46 -15 -4 -6 -10 -8 -13 -5 -13 13 7 28 36 28 16 0 29 2 29 4 0 18
-15 36 -31 36 -10 0 -19 4 -19 9 0 15 32 22 104 22 42 1 67 5 68 12 1 7 3 -14
5 -47 3 -45 0 -63 -13 -78z m207 -8 c19 -18 21 -24 11 -40 -9 -14 -8 -20 1
-24 9 -5 9 -7 0 -12 -9 -4 -10 -11 -3 -24 9 -16 15 -18 36 -10 14 6 38 10 54
10 16 0 31 4 34 9 3 5 17 11 32 14 23 4 25 2 19 -20 -5 -21 -3 -24 15 -18 26
8 50 -11 50 -40 0 -19 -7 -23 -46 -29 -26 -3 -53 -11 -60 -17 -7 -6 -21 -9
-31 -7 -15 4 -13 7 10 18 34 17 35 30 1 30 -23 0 -24 1 -10 16 9 8 16 17 16
19 0 6 -85 -17 -95 -26 -5 -5 -21 -9 -37 -9 -32 0 -57 35 -39 53 18 18 13 47
-9 47 -12 0 -20 7 -20 16 0 10 -6 14 -15 10 -24 -9 -18 21 7 38 30 21 50 20
79 -4z m-204 -164 c-3 -8 -16 -17 -29 -19 -13 -3 4 -3 37 0 33 3 62 10 63 14
2 5 15 9 28 9 38 0 18 -19 -27 -26 -21 -4 -39 -10 -39 -15 0 -5 -7 -9 -15 -9
-8 0 -15 -6 -15 -13 0 -8 -17 -22 -37 -33 -21 -10 -47 -26 -58 -36 -13 -11
-41 -18 -78 -19 -39 -2 -56 -6 -53 -14 3 -8 -4 -10 -20 -7 -28 5 -29 9 -7 34
23 26 14 29 -42 14 -32 -8 -51 -18 -53 -29 -2 -10 3 -17 12 -17 10 0 13 -6 10
-15 -4 -8 -12 -15 -19 -15 -7 0 -16 -7 -19 -16 -9 -23 -36 1 -36 32 0 20 -5
24 -32 24 -33 0 -98 -32 -98 -49 0 -4 18 -11 40 -15 22 -3 40 -11 40 -16 0 -6
7 -10 16 -10 8 0 12 -4 9 -10 -16 -26 -105 -1 -105 29 0 6 -9 16 -20 23 -25
16 -26 38 -2 38 9 0 26 11 36 25 11 15 28 25 40 24 47 -3 56 1 56 27 0 23 -3
25 -32 20 -18 -3 -26 -3 -18 1 8 3 21 15 28 25 23 31 55 19 66 -24 10 -39 32
-56 50 -38 5 5 22 10 37 10 15 0 31 5 34 10 3 6 15 10 25 10 10 0 28 14 40 30
19 27 27 31 67 29 24 -2 48 1 51 7 7 10 64 32 71 28 2 -2 1 -10 -2 -18z
m-1409 -96 l83 0 -16 -30 c-19 -36 -19 -40 0 -40 8 0 15 5 15 10 0 6 5 10 11
10 8 0 7 -5 -1 -16 -7 -8 -23 -14 -34 -13 -12 1 -33 -1 -47 -5 -20 -6 -25 -12
-22 -27 4 -14 0 -19 -16 -19 -12 0 -32 -6 -44 -14 -12 -7 -50 -19 -84 -26 -75
-15 -88 -8 -98 50 -5 28 -17 49 -43 71 -35 31 -38 31 -108 26 -60 -4 -76 -10
-98 -32 -26 -26 -35 -68 -16 -80 6 -3 10 -17 10 -30 0 -15 7 -26 20 -30 11 -3
20 -10 20 -15 0 -4 11 -11 25 -14 14 -4 25 -11 25 -17 0 -6 10 -8 23 -4 18 5
19 4 6 -4 -9 -6 -43 -17 -75 -25 -33 -8 -76 -21 -96 -30 -32 -13 -38 -14 -38
-2 0 17 -30 26 -87 26 -25 0 -43 5 -43 11 0 8 -12 10 -35 6 -30 -5 -35 -3 -35
14 0 10 -6 19 -14 19 -8 0 -16 10 -18 23 -2 16 -11 23 -33 25 -16 2 -37 13
-47 24 -33 39 -134 33 -161 -9 -4 -7 -24 -13 -43 -13 -34 0 -35 1 -32 32 4 45
34 57 175 69 65 6 126 15 137 21 10 5 43 7 77 3 40 -5 59 -3 59 4 0 7 24 11
65 11 36 0 65 4 65 9 0 5 26 12 58 15 31 4 89 11 127 16 39 4 122 6 185 4 63
-2 152 -4 198 -4z m1912 -180 c14 -11 30 -20 37 -20 11 0 114 -50 123 -60 3
-3 24 -14 48 -25 52 -23 55 -27 41 -58 -12 -27 -10 -28 -99 11 -64 28 -170
103 -170 120 0 6 -9 14 -20 17 -20 6 -25 16 -13 28 11 11 27 8 53 -13z m-2622
-521 c-12 -29 -37 -73 -56 -97 -26 -35 -31 -47 -20 -53 10 -7 10 -9 -3 -9 -21
0 -69 -23 -69 -34 0 -12 -61 -64 -83 -72 -25 -8 -36 5 -15 17 9 5 23 15 30 23
7 7 20 16 28 19 8 4 1 5 -17 2 -21 -3 -38 1 -47 10 -8 8 -19 15 -25 15 -27 0
-1 35 58 80 35 27 40 31 72 70 28 34 39 64 39 110 l0 39 63 3 62 3 3 -37 c2
-22 -6 -58 -20 -89z m2240 -36 c2 -8 -6 -13 -22 -13 -13 0 -28 -4 -31 -10 -3
-5 -15 -10 -26 -10 -10 0 -27 -9 -36 -20 -10 -11 -25 -20 -34 -20 -9 0 -24 -9
-33 -19 -17 -18 -17 -19 1 -24 13 -3 10 -5 -8 -6 -14 0 -46 -17 -70 -36 -24
-19 -55 -35 -69 -35 -14 0 -34 -7 -44 -15 -11 -8 -39 -15 -62 -15 -24 0 -46
-4 -49 -10 -8 -13 -35 -13 -35 1 0 6 -8 18 -17 27 -16 16 -16 16 -10 0 4 -12
2 -18 -8 -18 -8 0 -15 6 -15 14 0 15 65 39 135 51 22 4 67 19 100 35 33 16 80
38 105 49 25 11 68 33 97 50 70 40 122 50 131 24z m1804 -80 c22 -20 23 -33 3
-33 -8 0 -15 -6 -15 -14 0 -8 -7 -22 -16 -30 -17 -18 -11 -36 14 -37 14 0 14
-2 -2 -8 -11 -4 -41 -3 -68 2 -47 9 -48 10 -48 47 0 27 -5 40 -17 45 -15 6
-13 9 12 17 17 6 48 14 70 18 22 4 42 8 44 9 3 0 13 -6 23 -16z m-2947 -23 c3
-5 13 -10 21 -10 8 0 32 -11 54 -25 32 -20 52 -25 109 -25 67 0 101 -14 101
-40 0 -10 -85 -6 -112 5 -12 5 -20 2 -24 -9 -9 -23 -24 -20 -24 7 l0 22 -19
-25 -19 -24 -27 27 c-15 14 -52 38 -81 51 -63 29 -73 56 -20 56 19 0 38 -4 41
-10z m6840 0 c3 -5 18 -11 33 -11 25 -2 25 -2 3 -6 -19 -4 -22 -9 -18 -30 4
-23 2 -25 -24 -19 -22 4 -29 2 -29 -9 0 -24 -51 -19 -57 5 -7 25 -23 26 -23 2
0 -23 -58 -47 -108 -44 -80 4 -97 7 -94 20 1 7 -8 12 -23 12 -18 0 -25 5 -25
20 0 13 7 20 20 20 14 0 20 7 21 23 2 20 2 21 6 1 4 -18 11 -21 81 -21 42 -1
86 -5 96 -9 12 -5 21 -3 24 4 2 6 20 9 45 7 23 -2 35 -1 27 2 -17 7 -40 29
-40 37 0 10 79 6 85 -4z m-1615 -338 c36 -8 82 -16 103 -19 21 -3 41 -11 44
-19 3 -8 11 -14 18 -14 7 0 18 -7 25 -15 9 -11 9 -15 1 -15 -7 0 -21 -9 -33
-20 -12 -11 -30 -20 -40 -20 -10 0 -18 -3 -18 -8 0 -4 -38 -5 -84 -1 -66 5
-89 11 -107 28 -20 18 -51 25 -106 24 -8 0 -9 6 -1 23 6 13 18 24 26 24 8 0
22 8 31 18 22 25 54 42 66 34 5 -3 39 -12 75 -20z m-5497 -134 c22 -11 22 -22
0 -48 -15 -17 -30 -20 -113 -20 -114 0 -141 12 -123 53 7 14 22 27 35 29 38 6
182 -4 201 -14z"/>
<path d="M1389 8186 c-2 -2 -2 -44 1 -93 l5 -88 37 -9 c49 -12 70 9 76 78 4
45 1 56 -23 84 -20 24 -35 32 -59 32 -18 0 -35 -2 -37 -4z"/>
<path d="M1399 7974 c0 -5 0 -56 1 -114 1 -96 3 -107 23 -122 24 -19 87 -24
87 -8 0 6 7 10 15 10 32 0 47 87 25 145 -14 37 -67 85 -95 85 -13 0 -30 3 -39
6 -9 3 -16 2 -17 -2z"/>
<path d="M4017 7983 c-9 -8 -9 -176 -1 -197 4 -11 19 -16 46 -16 55 0 77 28
78 98 0 62 -19 97 -58 107 -15 3 -34 8 -43 11 -8 2 -18 1 -22 -3z"/>
<path d="M3480 7331 c0 -4 14 -19 32 -32 17 -13 52 -41 77 -63 24 -21 55 -43
68 -49 13 -5 23 -13 23 -16 0 -3 16 -7 37 -8 20 -1 49 -7 65 -14 16 -6 31 -9
35 -5 3 3 4 7 2 9 -91 67 -153 110 -191 130 -53 29 -148 60 -148 48z"/>
<path d="M3970 7051 c0 -5 9 -13 20 -16 11 -3 20 -11 20 -16 0 -5 4 -9 10 -9
5 0 21 -10 36 -22 14 -13 40 -26 57 -30 18 -4 55 -12 82 -18 83 -19 199 -28
213 -17 6 5 12 21 12 35 0 20 -3 23 -12 14 -14 -14 -194 -17 -202 -3 -3 5 -23
12 -43 16 -21 4 -42 10 -48 14 -5 4 -36 15 -67 26 -32 10 -58 22 -58 27 0 4
-4 8 -10 8 -5 0 -10 -4 -10 -9z"/>
<path d="M6525 6428 c7 -41 11 -51 33 -94 6 -12 14 -38 17 -58 4 -20 11 -39
16 -42 5 -3 9 -16 9 -29 0 -13 5 -27 10 -30 20 -12 10 -51 -20 -73 -16 -12
-31 -22 -33 -22 -10 0 -232 -152 -235 -161 -2 -5 78 -10 183 -11 l187 -3 13
-40 c7 -22 20 -67 30 -100 9 -33 21 -69 26 -80 5 -11 12 -38 17 -59 7 -37 32
-64 32 -34 0 16 68 237 81 260 5 10 9 27 9 38 0 20 4 21 180 18 139 -2 180 0
180 10 0 6 -5 12 -10 12 -10 0 -188 125 -200 140 -3 4 -20 15 -37 25 -32 19
-43 48 -23 60 6 3 10 13 10 20 0 8 11 38 24 67 47 103 87 210 82 216 -3 3 -6
1 -6 -5 0 -6 -11 -14 -25 -17 -14 -4 -25 -11 -25 -16 0 -6 -7 -10 -15 -10 -8
0 -15 -3 -15 -7 0 -5 -27 -24 -60 -42 -33 -19 -60 -39 -60 -43 0 -4 -5 -8 -11
-8 -6 0 -25 -11 -43 -25 -40 -31 -45 -31 -76 -2 -14 12 -63 50 -110 84 -47 33
-96 70 -109 82 -13 12 -26 21 -28 21 -3 0 -2 -19 2 -42z"/>
</g>
</svg>
