<?xml version="1.0" standalone="no"?>
<!DOCTYPE svg PUBLIC "-//W3C//DTD SVG 20010904//EN"
 "http://www.w3.org/TR/2001/REC-SVG-20010904/DTD/svg10.dtd">
<svg version="1.0" xmlns="http://www.w3.org/2000/svg"
 width="1024.000000pt" height="1024.000000pt" viewBox="0 0 1024.000000 1024.000000"
 preserveAspectRatio="xMidYMid meet">
<metadata>
Created by potrace 1.16, written by Peter Selinger 2001-2019
</metadata>
<g transform="translate(0.000000,1024.000000) scale(0.100000,-0.100000)"
fill="#000000" stroke="none">
<path d="M5720 9628 c-90 -34 -207 -67 -278 -79 -37 -6 -100 -17 -141 -25 -93
-18 -247 -17 -331 1 -36 8 -85 14 -110 14 -67 1 -233 29 -336 58 -82 22 -105
25 -220 21 -123 -5 -140 -8 -359 -72 -126 -36 -275 -75 -330 -87 -122 -25
-175 -40 -175 -50 0 -4 -26 -13 -57 -19 -70 -14 -186 -44 -270 -70 -34 -10
-143 -37 -242 -59 -99 -22 -208 -52 -241 -65 -34 -14 -90 -31 -123 -37 -87
-17 -221 -70 -366 -145 -68 -35 -129 -64 -134 -64 -17 0 -405 -189 -471 -229
-127 -78 -331 -174 -468 -221 -448 -152 -607 -218 -704 -290 -80 -61 -86 -134
-19 -277 25 -54 49 -100 53 -103 14 -9 96 -153 138 -241 23 -47 57 -110 76
-140 19 -30 70 -123 113 -206 43 -84 87 -162 97 -173 10 -11 39 -66 62 -123
24 -56 69 -163 100 -237 64 -151 89 -190 139 -214 46 -21 90 -20 217 5 58 11
155 24 215 30 61 5 135 13 165 18 30 5 99 10 152 10 58 1 150 11 225 25 261
49 322 58 345 50 13 -4 34 -8 48 -8 21 -1 26 -6 28 -36 2 -19 9 -38 15 -42 16
-10 16 -196 1 -206 -17 -11 -61 -155 -84 -272 -17 -92 -20 -145 -20 -437 0
-253 -4 -350 -15 -410 -11 -56 -15 -149 -15 -333 -1 -183 -5 -273 -15 -320
-21 -97 -21 -1119 0 -1240 22 -124 19 -196 -15 -347 -27 -121 -30 -151 -30
-311 0 -116 -5 -204 -15 -255 -10 -54 -15 -142 -15 -275 0 -109 -5 -213 -10
-232 -17 -55 -32 -375 -37 -742 -3 -322 -3 -340 16 -377 32 -61 75 -82 194
-92 56 -5 122 -13 147 -19 25 -5 153 -9 285 -10 138 0 255 -4 275 -11 19 -5
121 -14 225 -19 337 -17 509 -29 550 -39 22 -6 101 -11 177 -11 78 0 169 -6
215 -15 54 -10 146 -15 303 -15 157 -1 245 -5 290 -15 91 -20 411 -20 505 0
47 10 130 15 250 15 118 0 207 5 258 15 43 8 133 15 200 15 67 0 139 5 159 10
20 6 97 15 170 20 73 5 180 16 238 25 58 9 146 20 195 25 50 4 122 13 160 19
148 22 244 33 350 42 61 4 128 13 150 18 22 6 91 11 153 11 169 0 204 21 221
130 13 79 13 402 0 485 -5 33 -13 148 -18 255 -5 107 -14 211 -20 230 -6 20
-11 119 -11 232 0 130 -5 222 -15 273 -10 56 -15 165 -16 418 -1 333 -2 346
-30 489 -25 126 -29 172 -29 315 0 93 -5 186 -11 208 -5 22 -14 110 -19 195
-16 270 -29 433 -39 490 -6 30 -12 104 -15 163 -3 63 -10 115 -17 123 -7 9
-16 71 -20 147 -5 73 -13 150 -19 172 -5 22 -10 96 -10 165 0 71 -6 155 -15
195 -8 39 -15 119 -15 178 0 60 -7 147 -17 194 -18 91 -16 108 32 403 8 47 17
105 21 130 7 48 29 111 43 120 4 3 21 34 37 70 30 68 54 96 92 106 12 3 22 10
22 15 0 13 407 11 455 -2 22 -6 132 -15 245 -19 113 -5 243 -16 290 -25 131
-24 244 -30 280 -15 40 16 58 44 108 165 37 91 134 311 179 410 88 192 389
794 417 835 59 86 99 177 104 236 4 52 3 56 -29 86 -29 27 -191 99 -474 211
-16 7 -35 17 -42 23 -6 6 -42 19 -80 28 -154 38 -365 113 -478 168 -65 32
-178 77 -250 100 -114 36 -292 101 -350 128 -11 5 -44 19 -72 30 -29 11 -80
33 -113 50 -158 80 -373 143 -599 174 -24 4 -93 26 -155 51 -61 24 -167 58
-236 75 -69 17 -132 33 -140 37 -8 3 -85 21 -170 39 -324 68 -398 85 -485 114
-49 16 -115 34 -145 39 -30 6 -86 20 -125 31 -94 26 -203 26 -275 -2z m-916
-1787 c5 0 3 -7 -3 -15 -12 -14 -68 -163 -105 -278 -18 -60 -24 -68 -46 -68
-23 0 -29 10 -65 112 -22 62 -48 121 -58 131 -18 18 -18 19 4 43 27 29 38 30
45 7 19 -56 70 -183 74 -183 8 0 80 215 80 238 0 19 18 23 74 13z m449 -12
c-1 -7 -23 -70 -49 -139 -25 -69 -52 -145 -58 -170 -11 -40 -15 -45 -45 -47
-28 -3 -32 0 -26 15 37 86 115 316 115 338 0 18 5 21 33 20 21 -1 31 -7 30
-17z m-103 -1 c-1 -37 -16 -42 -133 -39 l-116 2 -10 -37 c-6 -21 -9 -39 -7
-41 4 -4 130 -6 141 -2 14 5 17 -6 9 -37 -6 -24 -10 -25 -73 -24 -110 2 -105
5 -124 -49 -27 -76 -31 -74 97 -70 l114 4 -12 -30 -12 -30 -147 -2 c-81 -1
-147 1 -147 4 0 4 7 14 15 23 19 21 108 287 107 318 -2 22 -1 22 148 22 113 0
150 -3 150 -12z m227 -6 c-19 -21 -112 -280 -104 -289 10 -10 181 -11 200 -1
20 10 22 1 7 -36 l-10 -26 -145 0 c-80 0 -145 2 -145 5 0 3 7 16 15 29 21 32
113 308 108 324 -3 8 9 12 43 12 44 0 46 -1 31 -18z m-261 -974 c62 0 65 -1
92 -36 15 -20 33 -41 40 -45 10 -6 10 -12 2 -22 -8 -9 -7 -33 1 -84 11 -67 11
-75 -10 -111 -18 -33 -19 -40 -7 -47 21 -12 26 -54 11 -89 -16 -38 -124 -135
-168 -151 -51 -18 -124 -16 -136 4 -9 17 -11 16 -33 -3 -13 -12 -30 -24 -38
-28 -8 -4 -2 4 15 18 26 23 28 28 17 46 -17 27 -15 38 2 14 16 -22 53 -26 109
-12 59 14 41 33 -32 32 -33 0 -61 2 -61 5 0 17 65 33 110 27 57 -8 77 9 22 18
-58 9 -87 7 -118 -9 -35 -18 -46 -8 -46 39 0 32 -4 39 -39 56 -37 19 -46 35
-48 85 -1 33 -8 81 -16 105 -5 16 -4 20 5 15 9 -6 11 2 5 32 -8 50 15 113 42
113 10 0 41 9 68 19 36 14 64 18 99 14 27 -3 77 -5 112 -5z m1811 -304 l28
-19 -44 -5 c-40 -5 -44 -8 -46 -32 0 -16 3 -28 7 -28 4 0 8 -7 8 -15 0 -18 16
-20 26 -4 4 8 9 7 15 -2 15 -25 10 -56 -13 -73 -19 -12 -19 -14 -4 -9 15 5 18
3 13 -10 -3 -9 -2 -17 3 -17 5 0 10 10 12 22 2 14 13 25 28 29 23 7 23 7 3 8
-15 1 -21 6 -17 15 3 8 13 12 24 9 27 -7 32 12 7 33 -14 12 -36 19 -60 18 -34
-1 -37 0 -23 14 31 32 114 11 135 -35 16 -35 14 -43 -11 -44 l-23 -2 23 -4
c17 -3 22 -11 22 -35 0 -17 -7 -39 -16 -49 -10 -11 -13 -23 -8 -31 22 -35 -16
-152 -51 -155 -11 -1 -40 -7 -65 -14 -64 -17 -187 -14 -218 5 -7 4 -11 55 -10
144 0 146 9 175 49 165 10 -3 19 0 19 6 0 6 -4 11 -10 11 -5 0 -10 5 -10 12 0
9 3 9 12 0 18 -18 42 -15 56 8 17 28 -9 80 -41 80 -22 1 -22 1 -2 16 28 22
144 14 182 -12z m-3417 -86 c0 -7 -10 -22 -22 -35 -17 -19 -19 -23 -5 -17 19
7 24 -11 6 -22 -8 -4 -3 -12 12 -20 34 -19 47 -17 54 6 5 16 12 19 27 14 14
-4 18 -2 14 5 -4 6 -20 11 -37 11 -16 0 -29 5 -29 10 0 14 46 12 70 -2 17 -11
22 -10 29 1 7 10 13 11 30 2 11 -7 21 -15 21 -20 0 -4 22 -31 50 -60 43 -45
48 -55 39 -73 -6 -11 -17 -58 -24 -103 -16 -96 -34 -137 -72 -162 -14 -9 -32
-31 -39 -48 -7 -16 -13 -25 -14 -18 0 25 22 59 51 75 16 9 29 22 29 28 0 12
-17 13 -24 1 -8 -13 -93 -6 -141 11 -33 12 -45 24 -70 70 -27 52 -28 58 -15
84 8 15 35 50 60 77 25 28 35 44 22 36 -25 -15 -105 -114 -115 -141 -12 -32
-24 -19 -31 33 -8 63 -1 73 18 28 20 -45 20 -30 0 38 -22 74 -15 156 15 186
18 18 23 19 30 8 8 -12 12 -12 26 2 17 18 35 15 35 -5z m2518 -22 c12 -16 23
-22 32 -16 15 10 40 -11 40 -34 0 -8 11 -36 25 -62 14 -26 25 -60 25 -75 0
-16 4 -29 8 -29 7 0 18 -36 36 -121 4 -19 1 -29 -9 -33 -8 -3 -15 -12 -15 -21
0 -8 -4 -15 -10 -15 -5 0 -10 -5 -10 -12 0 -21 -43 -58 -66 -58 -13 0 -26 -4
-29 -10 -3 -5 -30 -17 -60 -25 -43 -13 -62 -14 -95 -5 -25 7 -40 16 -37 23 2
7 0 20 -5 30 -6 13 -2 23 16 42 21 21 34 25 86 25 33 0 60 4 60 9 0 14 -100
12 -130 -4 -34 -18 -62 -54 -53 -69 3 -6 -2 -3 -12 6 -22 20 -66 152 -59 173
7 16 89 75 105 75 13 0 11 24 -3 38 -7 7 -22 12 -35 12 -38 0 -28 29 40 115
25 32 46 49 57 47 10 -2 21 2 25 8 11 18 53 11 73 -14z m-1683 -58 c-7 -24
-18 -55 -24 -70 -8 -22 -7 -27 7 -31 15 -3 15 -5 -2 -12 -13 -6 -21 -4 -24 4
-3 9 -7 9 -18 0 -11 -9 -11 -13 1 -26 8 -8 19 -11 25 -8 5 3 10 1 10 -6 0 -8
4 -8 15 1 8 7 22 9 31 6 23 -9 37 3 23 20 -7 9 -8 14 -1 14 6 0 12 -6 14 -12
3 -9 12 -8 31 5 14 9 28 17 31 17 2 0 7 -16 11 -36 4 -23 13 -38 25 -41 10 -3
21 -12 24 -20 4 -10 14 -13 31 -9 22 6 25 3 25 -23 0 -25 -3 -28 -22 -24 -22
4 -22 4 -4 -11 10 -8 23 -17 28 -18 4 -2 0 -20 -10 -40 -14 -27 -22 -34 -31
-25 -6 6 -11 7 -11 1 0 -5 -32 -11 -70 -12 -39 -2 -80 -7 -93 -13 -18 -8 -15
-9 16 -5 46 6 108 -4 101 -15 -3 -5 -20 -9 -37 -9 -18 -1 -43 -7 -57 -15 -28
-16 -28 -16 23 -19 21 -2 45 -10 54 -19 25 -25 2 -42 -58 -45 -62 -3 -143 37
-132 64 5 13 0 14 -29 9 -32 -6 -40 -3 -72 29 -39 39 -41 49 -27 105 5 20 15
62 22 94 15 68 33 77 23 11 -7 -51 9 -56 19 -6 3 15 23 50 45 77 22 28 43 61
47 75 12 39 35 80 44 80 5 0 3 -19 -4 -42z m-965 -286 c0 -16 34 -62 88 -120
23 -25 42 -49 42 -53 0 -5 16 -23 35 -40 19 -18 35 -38 35 -45 0 -33 -34 -13
-132 79 -96 89 -108 103 -108 133 0 19 5 34 10 34 6 0 10 12 10 28 0 21 2 24
10 12 5 -8 10 -21 10 -28z m3666 -100 c-6 -81 -20 -94 -134 -133 -78 -27 -91
-25 -90 11 1 17 6 30 12 30 6 0 5 4 -3 9 -7 5 -22 6 -33 3 -16 -4 -19 -11 -14
-33 6 -29 -15 -49 -72 -69 -23 -9 -24 -8 -10 2 9 7 30 20 47 30 26 14 29 20
22 45 -7 23 -13 27 -35 25 -15 -2 -34 2 -42 9 -8 6 -14 8 -14 3 0 -4 -6 0 -13
11 -10 12 -16 14 -21 7 -13 -21 -27 -13 -16 8 6 11 7 20 3 20 -4 0 -2 5 4 11
6 6 9 18 6 27 -4 10 -2 13 6 8 6 -4 9 -16 6 -27 -9 -28 49 -74 80 -63 8 4 22
1 30 -6 12 -10 13 -6 8 23 -5 34 -5 34 39 41 53 8 100 -7 92 -28 -12 -32 14
-21 56 25 27 29 54 48 67 49 19 0 21 -5 19 -38z m-1958 -4 c2 -9 -6 -18 -18
-21 -14 -4 -20 -13 -20 -32 0 -15 -30 -100 -67 -189 -71 -172 -71 -172 -77
-165 -7 7 12 86 36 151 15 44 24 55 37 51 15 -5 15 -4 0 11 -13 14 -14 27 -7
79 5 34 16 67 23 73 8 6 19 22 24 37 8 20 16 25 38 23 15 -2 29 -10 31 -18z
m-953 -29 c5 -20 36 -62 86 -114 43 -45 79 -87 79 -92 0 -5 11 -15 24 -21 18
-8 23 -17 19 -31 -6 -23 -15 -21 -120 33 -80 42 -94 52 -117 88 -16 25 -17 34
-5 98 13 76 24 88 34 39z m108 -823 c10 -68 17 -146 17 -172 0 -27 3 -59 6
-71 l6 -23 901 0 c495 0 902 -2 905 -5 3 -3 -650 -5 -1452 -5 -1313 0 -1457 2
-1463 16 -3 8 -1 20 6 27 8 8 11 5 11 -11 0 -22 3 -22 126 -22 l126 0 -3 90
c-2 49 0 92 4 96 4 4 7 -29 7 -74 0 -44 3 -87 6 -96 5 -14 51 -16 405 -16
l399 0 0 58 c0 72 -24 255 -36 273 -10 17 -12 24 -20 69 l-7 35 20 -22 c15
-17 24 -54 36 -147z m2789 -182 c25 -13 32 -14 39 -2 6 9 9 7 9 -9 0 -17 9
-25 40 -34 28 -9 40 -18 40 -31 0 -17 -22 -18 -537 -18 -295 0 -534 2 -531 5
2 3 173 5 380 6 l375 0 22 40 c27 47 41 45 17 -2 -9 -18 -16 -34 -16 -36 0 -1
22 -3 49 -3 46 0 50 2 60 31 6 18 11 40 11 50 0 23 3 23 42 3z"/>
</g>
</svg>
