<?xml version="1.0" standalone="no"?>
<!DOCTYPE svg PUBLIC "-//W3C//DTD SVG 20010904//EN"
 "http://www.w3.org/TR/2001/REC-SVG-20010904/DTD/svg10.dtd">
<svg version="1.0" xmlns="http://www.w3.org/2000/svg"
 width="1024.000000pt" height="1024.000000pt" viewBox="0 0 1024.000000 1024.000000"
 preserveAspectRatio="xMidYMid meet">

<g transform="translate(0.000000,1024.000000) scale(0.100000,-0.100000)"
fill="#000000" stroke="none">
<path d="M3875 10158 c-16 -6 -68 -34 -115 -63 -99 -60 -397 -208 -520 -258
-47 -19 -152 -65 -235 -102 -218 -97 -528 -232 -615 -266 -109 -44 -207 -95
-275 -144 -70 -50 -350 -330 -424 -424 -28 -35 -93 -108 -143 -161 -102 -107
-227 -252 -400 -463 -62 -76 -132 -162 -156 -190 -116 -141 -389 -533 -412
-591 -27 -73 -6 -111 109 -194 48 -34 141 -117 207 -183 65 -66 144 -139 174
-162 110 -83 374 -347 519 -517 42 -50 106 -103 194 -163 36 -25 49 -28 92
-24 28 3 81 19 118 37 98 44 258 100 288 100 56 0 54 33 53 -824 0 -435 -5
-1023 -12 -1306 -8 -373 -9 -738 -1 -1325 8 -677 7 -852 -5 -1065 -16 -291
-13 -1498 4 -1583 6 -26 10 -67 10 -90 0 -24 7 -53 16 -65 16 -24 70 -56 82
-49 4 3 156 7 337 11 182 3 384 11 450 17 82 8 385 9 965 4 1106 -9 2135 -11
2490 -5 294 5 447 1 921 -27 256 -14 278 -14 308 1 61 32 72 64 69 211 -1 72
-5 148 -10 170 -4 22 -8 1161 -8 2530 -1 1583 -5 2554 -12 2665 -24 406 -21
474 23 643 11 41 31 48 77 23 42 -23 207 -76 235 -76 14 0 38 5 53 10 27 11
185 143 239 200 17 18 57 53 90 78 33 26 92 76 131 113 39 36 109 92 155 124
46 32 110 84 144 114 33 31 80 71 105 88 25 17 63 50 85 73 22 23 104 93 182
156 77 62 151 126 162 143 27 38 27 100 0 154 -27 52 -138 212 -235 337 -71
92 -235 311 -416 557 -47 65 -125 165 -173 223 -47 58 -119 146 -159 195 -41
50 -168 183 -282 296 l-209 205 -146 62 c-81 34 -150 62 -154 62 -4 0 -77 33
-163 74 -87 40 -218 102 -292 136 -74 35 -191 89 -259 122 -67 32 -125 58
-127 58 -3 0 -21 10 -42 23 -20 13 -103 58 -184 100 -80 41 -182 103 -227 135
-90 67 -137 87 -184 78 -36 -7 -30 -4 -217 -107 -74 -41 -162 -87 -196 -102
-93 -41 -289 -93 -497 -132 -154 -29 -211 -35 -320 -35 -368 0 -755 112 -982
285 -116 89 -197 113 -280 83z m-323 -2859 l-4 -159 91 0 c72 0 93 3 97 15 4
8 9 15 13 15 6 0 31 -58 31 -73 0 -4 -64 -7 -142 -7 l-143 0 2 182 c1 101 2
183 3 184 0 1 12 1 28 2 l27 1 -3 -160z m601 147 c26 -1 27 -3 27 -55 l0 -54
-22 20 c-53 48 -118 57 -173 23 -32 -20 -65 -72 -65 -104 0 -62 65 -126 128
-126 42 0 104 32 129 66 26 36 36 18 15 -28 -24 -51 -65 -80 -122 -86 -65 -6
-112 12 -154 58 -59 66 -61 161 -4 226 46 53 102 76 163 68 28 -4 62 -7 78 -8z
m130 -56 c-3 -41 -2 -70 3 -70 13 0 99 89 113 118 10 18 20 22 56 22 25 0 45
-3 45 -7 0 -5 -21 -26 -46 -49 l-47 -40 18 -55 c10 -29 21 -58 25 -64 4 -5 15
-33 24 -62 10 -28 24 -57 31 -63 22 -18 9 -30 -30 -28 -24 1 -35 6 -35 17 0
21 -71 201 -79 201 -4 0 -24 -18 -45 -39 -38 -39 -38 -39 -34 -110 l4 -71 -31
0 -30 0 2 182 c1 101 2 184 3 186 0 1 13 2 29 2 l30 0 -6 -70z m472 53 c-21
-48 -98 -263 -108 -300 -11 -41 -26 -51 -64 -41 -5 1 -28 55 -52 120 -27 75
-48 118 -57 118 -11 0 -9 8 8 30 12 17 27 30 32 30 6 0 26 -39 45 -88 19 -48
37 -90 41 -95 8 -10 80 184 80 217 0 24 4 26 41 26 35 0 40 -2 34 -17z m339 8
c4 -5 2 -20 -3 -32 -8 -23 -11 -24 -124 -20 -110 3 -115 2 -121 -18 -3 -12 -9
-30 -12 -42 -6 -20 -3 -21 73 -18 43 2 79 0 81 -4 1 -4 0 -18 -4 -32 -6 -25
-8 -25 -92 -23 l-85 3 -12 -35 c-7 -19 -15 -46 -20 -59 l-7 -23 115 3 115 4
-12 -30 -12 -30 -143 -3 c-134 -2 -143 -1 -135 15 28 64 104 301 104 324 l0
29 144 0 c80 0 147 -4 150 -9z m116 -5 c0 -8 -4 -17 -9 -20 -4 -3 -20 -40 -35
-83 -15 -43 -31 -87 -36 -98 -5 -11 -18 -49 -28 -85 -18 -61 -22 -65 -51 -68
-32 -3 -38 6 -21 36 12 20 110 300 109 310 -3 18 4 22 36 22 24 0 35 -5 35
-14z m113 7 c4 -3 1 -13 -7 -22 -8 -9 -35 -76 -59 -149 -36 -105 -42 -134 -31
-139 7 -3 56 -3 109 -1 99 3 108 -1 81 -37 -12 -17 -26 -19 -147 -16 -74 1
-136 4 -138 7 -2 2 1 9 7 16 13 17 105 286 107 318 1 14 3 26 4 28 3 5 68 1
74 -5z m770 -182 l2 -181 -30 0 -30 0 0 180 0 179 25 3 c14 2 26 3 28 2 2 -1
4 -83 5 -183z m693 177 c2 -3 -3 -22 -12 -43 -13 -33 -17 -36 -25 -22 -8 14
-26 17 -104 17 l-95 0 0 -35 0 -35 85 0 85 0 0 -29 0 -29 -85 4 -85 4 0 -65 0
-65 100 0 c60 0 100 4 100 10 0 6 4 10 8 10 11 0 32 -67 24 -74 -8 -8 -287 -7
-295 1 -4 3 -2 12 4 19 7 9 10 69 7 174 -1 88 0 161 5 163 13 4 278 0 283 -5z
m-3405 -9 c29 -15 48 -66 39 -101 -7 -23 -4 -33 21 -57 16 -16 29 -38 30 -48
4 -71 -11 -102 -62 -129 -22 -11 -168 -14 -244 -5 -6 1 -10 67 -10 176 l0 175
103 0 c57 0 112 -5 123 -11z m389 -2 c0 -20 99 -289 115 -314 21 -31 20 -33
-25 -33 -35 0 -40 3 -39 23 1 25 -72 227 -82 227 -8 0 -59 -135 -59 -156 0 -9
-11 -14 -35 -14 -19 0 -35 2 -35 4 0 2 11 28 24 57 13 30 36 91 52 137 26 76
30 82 56 82 16 0 28 -5 28 -13z m1842 -17 c27 -28 30 -35 24 -71 -6 -36 -3
-45 24 -75 36 -41 39 -82 10 -129 -26 -43 -39 -48 -138 -54 -87 -6 -94 -3 -66
37 14 20 23 22 81 21 54 -2 69 1 80 16 17 25 17 45 -3 73 -14 20 -24 22 -101
22 l-86 0 6 -40 5 -40 -36 0 -37 0 0 135 0 135 103 0 c102 0 104 0 134 -30z
m350 3 c14 -16 28 -39 31 -52 9 -35 -19 -80 -59 -97 -19 -8 -34 -16 -34 -18 0
-3 20 -39 45 -80 25 -42 45 -79 45 -81 0 -3 -15 -5 -32 -4 -31 0 -35 5 -68 72
-41 85 -61 107 -95 107 -27 0 -26 5 -27 -112 l-1 -68 -31 0 -31 0 0 180 0 180
116 0 c113 0 116 -1 141 -27z m415 7 c18 -11 46 -38 63 -61 25 -34 30 -52 30
-96 0 -64 -16 -99 -64 -141 -43 -37 -80 -45 -183 -39 -61 3 -77 7 -73 18 3 8
5 87 5 177 l0 162 95 0 c77 0 101 -4 127 -20z m643 -8 l0 -28 -70 4 c-75 5
-100 -5 -100 -39 0 -24 37 -39 96 -39 62 0 98 -21 118 -70 14 -36 14 -44 1
-78 -22 -54 -58 -72 -143 -72 -43 0 -74 -5 -78 -12 -9 -14 -34 18 -34 44 0 16
10 18 82 18 70 0 85 3 105 22 54 51 15 98 -83 98 -46 0 -68 5 -87 20 -45 35
-44 91 1 143 12 14 32 17 104 17 l88 0 0 -28z m-3717 -439 c-29 -2 -77 -2
-105 0 -29 2 -6 3 52 3 58 0 81 -1 53 -3z m195 0 c-27 -2 -69 -2 -95 0 -27 2
-5 3 47 3 52 0 74 -1 48 -3z m165 0 c-18 -2 -48 -2 -65 0 -18 2 -4 4 32 4 36
0 50 -2 33 -4z m74 1 c-3 -3 -12 -4 -19 -1 -8 3 -5 6 6 6 11 1 17 -2 13 -5z
m86 -1 c-13 -2 -35 -2 -50 0 -16 2 -5 4 22 4 28 0 40 -2 28 -4z m100 0 c-7 -2
-19 -2 -25 0 -7 3 -2 5 12 5 14 0 19 -2 13 -5z m265 0 c-42 -2 -114 -2 -160 0
-46 1 -11 3 77 3 88 0 125 -2 83 -3z m635 0 c-101 -2 -265 -2 -365 0 -101 1
-19 2 182 2 201 0 283 -1 183 -2z m409 0 c-40 -2 -103 -2 -140 0 -37 2 -4 3
73 3 77 0 107 -2 67 -3z m261 0 c-35 -2 -91 -2 -125 0 -35 2 -7 3 62 3 69 0
97 -1 63 -3z m240 0 c-29 -2 -78 -2 -110 0 -32 2 -8 3 52 3 61 0 87 -1 58 -3z
m115 0 c-10 -2 -26 -2 -35 0 -10 3 -2 5 17 5 19 0 27 -2 18 -5z m170 0 c-27
-2 -69 -2 -95 0 -27 2 -5 3 47 3 52 0 74 -1 48 -3z m110 0 c-10 -2 -26 -2 -35
0 -10 3 -2 5 17 5 19 0 27 -2 18 -5z m80 0 c-10 -2 -28 -2 -40 0 -13 2 -5 4
17 4 22 1 32 -1 23 -4z m65 0 c-7 -2 -21 -2 -30 0 -10 3 -4 5 12 5 17 0 24 -2
18 -5z m115 0 c-15 -2 -42 -2 -60 0 -18 2 -6 4 27 4 33 0 48 -2 33 -4z m95 0
c-7 -2 -19 -2 -25 0 -7 3 -2 5 12 5 14 0 19 -2 13 -5z m220 0 c-34 -2 -93 -2
-130 0 -37 2 -9 3 62 3 72 0 102 -1 68 -3z m260 0 c-35 -2 -91 -2 -125 0 -35
2 -7 3 62 3 69 0 97 -1 63 -3z m94 1 c-3 -3 -12 -4 -19 -1 -8 3 -5 6 6 6 11 1
17 -2 13 -5z m-3511 -3507 c4 -4 -84 -7 -195 -7 -111 0 -200 3 -198 8 6 9 383
9 393 -1z m291 0 c3 -4 -56 -7 -133 -6 -79 1 -128 4 -114 9 30 9 237 6 247 -3z
m423 1 c0 -5 -93 -7 -207 -6 -115 1 -181 4 -148 7 88 9 355 8 355 -1z m2797
-2 c3 -3 -623 -6 -1393 -6 -769 0 -1394 4 -1387 8 14 9 2771 7 2780 -2z
m-3794 -103 c-24 -2 -62 -2 -85 0 -24 2 -5 4 42 4 47 0 66 -2 43 -4z m87 -13
c0 -11 -4 -20 -10 -20 -5 0 -7 6 -4 14 3 8 -2 16 -13 19 -14 4 -14 5 5 6 16 1
22 -5 22 -19z m40 16 c0 -3 -4 -8 -10 -11 -5 -3 -10 -1 -10 4 0 6 5 11 10 11
6 0 10 -2 10 -4z m29 -3 c0 -5 -4 -17 -9 -28 -8 -18 -9 -17 -9 8 -1 15 4 27 9
27 6 0 10 -3 9 -7z m157 -2 c-3 -5 -15 -7 -26 -4 -28 7 -25 13 6 13 14 0 23
-4 20 -9z m264 2 c0 -5 -52 -8 -115 -8 -63 0 -115 3 -115 8 0 4 52 7 115 7 63
0 115 -3 115 -7z m117 0 c-54 -4 -59 -6 -73 -36 -12 -25 -14 -27 -10 -7 3 14
6 31 6 38 0 8 19 11 68 10 l67 -2 -58 -3z m104 -10 c12 -16 12 -17 -1 -7 -8 6
-22 14 -30 17 -13 5 -12 6 1 6 9 1 23 -7 30 -16z m59 7 c0 -5 -4 -10 -10 -10
-5 0 -10 5 -10 10 0 6 5 10 10 10 6 0 10 -4 10 -10z m21 -21 c-5 -13 -10 -19
-10 -12 -1 15 10 45 15 40 3 -2 0 -15 -5 -28z m169 22 c0 -6 -5 -13 -12 -17
-7 -4 -8 -3 -4 4 4 7 1 12 -8 12 -8 0 -17 -6 -19 -12 -3 -8 -6 -6 -6 5 -1 12
7 17 24 17 14 0 25 -4 25 -9z m110 -35 c-42 -62 -56 -67 -17 -7 18 28 36 50
40 50 4 1 -6 -19 -23 -43z m114 29 c-4 -8 -8 -15 -10 -15 -2 0 -4 7 -4 15 0 8
4 15 10 15 5 0 7 -7 4 -15z m226 8 c-46 -3 -69 -9 -77 -20 -7 -9 -13 -12 -13
-7 0 24 27 34 90 32 l65 -2 -65 -3z m120 -3 c0 -5 -4 -10 -10 -10 -5 0 -10 5
-10 10 0 6 5 10 10 10 6 0 10 -4 10 -10z m194 -11 c14 -11 26 -25 26 -31 0 -6
-12 1 -26 15 -14 14 -35 28 -47 30 -22 4 -22 4 -1 6 12 0 33 -8 48 -20z m157
-10 c33 -35 34 -39 17 -39 -7 0 -21 14 -30 30 -9 17 -23 30 -30 30 -8 0 -26
-35 -42 -80 -37 -105 -45 -98 -10 9 31 93 47 101 95 50z m148 27 c-2 -2 -20
-6 -39 -10 -25 -4 -31 -3 -20 4 14 9 69 15 59 6z m51 -6 c-20 -13 -33 -13 -25
0 3 6 14 10 23 10 15 0 15 -2 2 -10z m68 3 c-10 -2 -26 -2 -35 0 -10 3 -2 5
17 5 19 0 27 -2 18 -5z m347 -23 c18 -19 35 -28 45 -25 12 5 13 4 3 -6 -10
-10 -19 -7 -46 19 -18 18 -41 32 -50 32 -20 0 -23 -30 -4 -50 6 -7 -3 -2 -21
13 -19 15 -41 27 -50 28 -10 0 -12 3 -5 5 7 3 21 0 32 -6 17 -9 21 -8 21 5 0
26 44 17 75 -15z m135 20 c0 -5 -7 -7 -15 -4 -8 4 -15 8 -15 10 0 2 7 4 15 4
8 0 15 -4 15 -10z m134 -4 c19 -8 37 -20 42 -27 7 -12 5 -12 -9 -1 -9 8 -36
20 -59 27 -24 8 -35 14 -25 14 10 1 33 -5 51 -13z m277 4 c10 0 19 -6 19 -14
0 -8 5 -16 12 -18 7 -3 8 -10 4 -17 -6 -9 -11 -6 -20 11 -7 14 -22 24 -39 26
-15 2 -27 8 -27 14 0 5 7 7 16 4 9 -3 24 -6 35 -6z m471 -12 c-7 -7 -12 -8
-12 -2 0 14 12 26 19 19 2 -3 -1 -11 -7 -17z m202 13 c3 -5 -5 -8 -19 -8 -14
0 -22 3 -19 8 3 5 11 9 19 9 8 0 16 -4 19 -9z m-2464 -45 c16 -25 30 -48 30
-52 0 -9 -45 50 -61 79 -19 33 0 17 31 -27z m344 29 c-10 -8 -23 -14 -29 -14
-5 0 -1 6 9 14 11 8 24 15 30 15 5 0 1 -7 -10 -15z m626 0 c0 -8 -4 -15 -10
-15 -5 0 -7 7 -4 15 4 8 8 15 10 15 2 0 4 -7 4 -15z m51 -4 c-13 -10 -32 -29
-42 -42 -10 -13 -19 -19 -19 -13 0 15 60 74 74 74 6 0 0 -9 -13 -19z m314 9
c-3 -5 -12 -10 -18 -10 -7 0 -6 4 3 10 19 12 23 12 15 0z m90 0 c-3 -5 -12
-10 -20 -10 -8 0 -19 -8 -24 -17 -9 -15 -10 -16 -11 -2 0 9 10 21 23 27 29 14
40 15 32 2z m529 -9 c10 -11 16 -26 13 -33 -4 -9 -6 -7 -6 4 -1 10 -13 24 -28
32 -17 9 -22 15 -12 16 9 0 24 -9 33 -19z m125 16 c-2 -2 -22 -15 -44 -31
l-40 -28 33 31 c18 17 37 31 44 31 6 0 9 -1 7 -3z m103 -19 c13 -13 17 -18 8
-11 -8 7 -27 16 -40 22 -17 6 -19 10 -8 10 9 1 27 -9 40 -21z m118 12 c0 -5
-2 -10 -4 -10 -3 0 -8 5 -11 10 -3 6 -1 10 4 10 6 0 11 -4 11 -10z m-3627 -30
c-3 -11 -7 -20 -9 -20 -2 0 -4 9 -4 20 0 11 4 20 9 20 5 0 7 -9 4 -20z m294
-2 c-3 -8 -6 -5 -6 6 -1 11 2 17 5 13 3 -3 4 -12 1 -19z m258 12 c-3 -5 -12
-7 -20 -3 -21 7 -19 13 6 13 11 0 18 -4 14 -10z m213 -10 c4 -12 2 -13 -9 -3
-8 6 -39 14 -69 16 -51 4 -50 4 9 3 48 -1 66 -5 69 -16z m712 10 c0 -5 -2 -10
-4 -10 -3 0 -8 5 -11 10 -3 6 -1 10 4 10 6 0 11 -4 11 -10z m115 5 c-23 -8
-83 -10 -79 -3 3 4 24 8 47 7 23 0 38 -2 32 -4z m190 -20 c14 -13 25 -34 25
-47 -1 -21 -2 -20 -14 7 -20 46 -41 58 -84 52 -25 -5 -32 -3 -22 3 27 17 70
11 95 -15z m615 15 c-8 -5 -19 -10 -25 -10 -5 0 -3 5 5 10 8 5 20 10 25 10 6
0 3 -5 -5 -10z m-1390 -37 c-11 -17 -11 -17 -6 0 3 10 6 24 7 30 0 9 2 9 5 0
3 -7 0 -20 -6 -30z m1736 16 c-15 -12 -32 -31 -36 -43 l-9 -21 0 22 c-1 12 11
30 27 42 36 27 52 27 18 0z m99 11 c3 -6 -1 -7 -9 -4 -18 7 -21 14 -7 14 6 0
13 -4 16 -10z m163 3 c-10 -2 -18 -12 -18 -20 0 -9 -3 -14 -6 -10 -12 11 5 37
23 36 17 -1 17 -2 1 -6z m112 -23 c0 -11 -4 -22 -10 -25 -6 -3 -7 1 -4 10 4 8
1 22 -6 30 -11 13 -10 14 4 9 9 -3 16 -14 16 -24z m140 20 c0 -5 -7 -7 -15 -4
-8 4 -15 8 -15 10 0 2 7 4 15 4 8 0 15 -4 15 -10z m170 6 c0 -2 -9 -6 -20 -9
-11 -3 -18 -1 -14 4 5 9 34 13 34 5z m-1490 -31 c9 -17 19 -24 29 -20 13 5 14
4 3 -7 -10 -10 -17 -7 -37 14 -26 29 -30 38 -17 38 5 0 15 -11 22 -25z m110
17 c0 -13 -12 -22 -22 -16 -10 6 -1 24 13 24 5 0 9 -4 9 -8z m297 -9 c-8 -10
-20 -34 -25 -53 -9 -31 -10 -32 -11 -9 -1 24 32 79 46 79 3 0 -1 -8 -10 -17z
m236 -13 c18 -16 28 -30 22 -30 -11 1 -65 46 -65 55 0 11 12 4 43 -25z m374
-2 c-3 -7 -5 -2 -5 12 0 14 2 19 5 13 2 -7 2 -19 0 -25z m562 6 c28 -35 28
-94 0 -125 l-21 -24 16 25 c26 39 21 97 -10 125 -15 14 -22 25 -16 25 6 0 20
-12 31 -26z m-2349 6 c0 -5 -5 -10 -11 -10 -5 0 -7 5 -4 10 3 6 8 10 11 10 2
0 4 -4 4 -10z m144 -35 c15 -25 27 -48 24 -50 -2 -2 -15 14 -28 35 -14 22 -28
40 -32 40 -5 0 -8 5 -8 10 0 21 16 8 44 -35z m96 41 c0 -3 -4 -8 -10 -11 -5
-3 -10 -1 -10 4 0 6 5 11 10 11 6 0 10 -2 10 -4z m29 -3 c0 -5 -4 -17 -9 -28
-8 -17 -8 -16 -7 8 1 15 5 27 9 27 4 0 8 -3 7 -7z m161 -14 c-7 -11 -14 -18
-17 -15 -3 3 0 12 7 21 18 21 23 19 10 -6z m-629 -12 c-10 -9 -11 -8 -5 6 3
10 9 15 12 12 3 -3 0 -11 -7 -18z m858 -31 c-9 -8 -10 -7 -5 7 3 10 7 26 7 35
1 9 4 6 6 -7 3 -13 -1 -28 -8 -35z m-1254 -39 c-30 -92 -31 -104 -8 -86 14 12
16 12 11 -1 -2 -8 -15 -17 -28 -18 -16 -3 -21 0 -18 10 3 7 17 50 33 96 15 46
29 82 31 80 2 -2 -8 -39 -21 -81z m60 73 c3 -5 1 -10 -4 -10 -6 0 -11 5 -11
10 0 6 2 10 4 10 3 0 8 -4 11 -10z m981 -18 c-18 -16 -18 -16 -6 6 6 13 14 21
18 18 3 -4 -2 -14 -12 -24z m933 -15 c-1 -31 -1 -31 -9 -7 -11 36 -11 52 0 45
6 -3 10 -21 9 -38z m121 3 l-8 -35 -1 31 c-1 17 2 34 6 37 11 12 12 3 3 -33z
m900 -26 c0 -22 -7 -49 -16 -60 -14 -18 -15 -18 -3 5 6 13 9 46 7 73 -3 29 -2
44 3 36 5 -7 9 -31 9 -54z m-3030 46 c0 -5 -4 -10 -9 -10 -6 0 -13 5 -16 10
-3 6 1 10 9 10 9 0 16 -4 16 -10z m173 3 c-13 -2 -33 -2 -45 0 -13 2 -3 4 22
4 25 0 35 -2 23 -4z m750 -8 c-3 -9 -8 -14 -10 -11 -3 3 -2 9 2 15 9 16 15 13
8 -4z m1557 -1 c0 -2 -9 -4 -20 -4 -11 0 -20 4 -20 9 0 5 9 7 20 4 11 -3 20
-7 20 -9z m139 -2 c-7 -3 -20 -10 -28 -16 -12 -9 -12 -8 -1 11 8 13 20 19 29
15 13 -5 13 -6 0 -10z m161 8 c0 -5 -5 -10 -11 -10 -5 0 -7 5 -4 10 3 6 8 10
11 10 2 0 4 -4 4 -10z m-2550 -5 c0 -2 -10 -9 -22 -15 -22 -11 -22 -10 -4 4
21 17 26 19 26 11z m1526 -74 c3 -13 20 -38 37 -54 24 -22 26 -27 9 -18 -35
19 -62 70 -60 116 1 32 2 34 5 10 2 -16 6 -41 9 -54z m661 -28 c-2 -21 -4 -4
-4 37 0 41 2 58 4 38 2 -21 2 -55 0 -75z m390 85 c-3 -8 -6 -5 -6 6 -1 11 2
17 5 13 3 -3 4 -12 1 -19z m330 0 c-3 -8 -6 -5 -6 6 -1 11 2 17 5 13 3 -3 4
-12 1 -19z m-2466 -35 c-9 -16 -10 -15 -11 8 0 14 3 29 8 33 12 12 14 -22 3
-41z m173 32 c-4 -8 -11 -12 -16 -9 -6 4 -5 10 3 15 19 12 19 11 13 -6z
m-1277 -17 c-3 -8 -6 -5 -6 6 -1 11 2 17 5 13 3 -3 4 -12 1 -19z m300 6 c-3
-3 -12 -4 -19 -1 -8 3 -5 6 6 6 11 1 17 -2 13 -5z m206 -14 c-3 -12 -8 -19
-11 -16 -5 6 5 36 12 36 2 0 2 -9 -1 -20z m220 0 c-3 -12 -8 -19 -11 -16 -5 6
5 36 12 36 2 0 2 -9 -1 -20z m2261 -12 c9 -17 16 -34 16 -37 0 -9 -40 53 -40
62 0 15 9 6 24 -25z m61 22 c-3 -5 -11 -10 -16 -10 -6 0 -7 5 -4 10 3 6 11 10
16 10 6 0 7 -4 4 -10z m50 -22 c13 -28 14 -30 1 -13 -9 11 -20 26 -26 33 -7 8
-7 12 -1 12 6 0 18 -15 26 -32z m35 16 c0 -8 -5 -12 -10 -9 -6 4 -8 11 -5 16
9 14 15 11 15 -7z m-2130 -14 c0 -5 -4 -10 -10 -10 -5 0 -10 5 -10 10 0 6 5
10 10 10 6 0 10 -4 10 -10z m60 0 c0 -5 -5 -10 -11 -10 -5 0 -7 5 -4 10 3 6 8
10 11 10 2 0 4 -4 4 -10z m585 -38 l-39 -37 35 41 c19 22 36 39 39 37 2 -2
-13 -20 -35 -41z m1842 26 c-3 -8 -6 -5 -6 6 -1 11 2 17 5 13 3 -3 4 -12 1
-19z m-1997 -70 c19 -15 35 -19 67 -15 24 2 40 1 37 -4 -3 -5 -25 -9 -49 -9
-55 0 -93 30 -100 80 l-5 35 13 -34 c7 -18 24 -42 37 -53z m1110 70 c0 -6 10
-22 22 -35 14 -15 17 -22 7 -18 -19 7 -54 65 -40 65 6 0 11 -5 11 -12z m359
-18 c11 -24 11 -24 -3 -6 -9 11 -16 24 -16 30 0 12 5 7 19 -24z m-1638 -11
c-5 -13 -10 -19 -10 -12 -1 15 10 45 15 40 3 -2 0 -15 -5 -28z m182 -19 c-6
-7 -23 23 -23 40 0 8 6 4 13 -10 8 -14 12 -27 10 -30z m604 28 c-3 -8 -6 -5
-6 6 -1 11 2 17 5 13 3 -3 4 -12 1 -19z m450 0 c-3 -8 -6 -5 -6 6 -1 11 2 17
5 13 3 -3 4 -12 1 -19z m214 -1 c-10 -9 -11 -8 -5 6 3 10 9 15 12 12 3 -3 0
-11 -7 -18z m-2884 -9 c-3 -8 -6 -5 -6 6 -1 11 2 17 5 13 3 -3 4 -12 1 -19z
m1360 0 c-3 -8 -6 -5 -6 6 -1 11 2 17 5 13 3 -3 4 -12 1 -19z m473 -12 c-14
-38 -13 -49 6 -42 8 3 12 2 9 -4 -3 -6 -15 -10 -27 -10 -15 0 -18 4 -13 18 4
9 12 30 17 45 6 15 12 26 14 24 3 -2 0 -16 -6 -31z m161 3 c-5 -13 -10 -19
-10 -12 -1 15 10 45 15 40 3 -2 0 -15 -5 -28z m1636 9 c-3 -8 -6 -5 -6 6 -1
11 2 17 5 13 3 -3 4 -12 1 -19z m-2460 -20 c-3 -7 -5 -2 -5 12 0 14 2 19 5 13
2 -7 2 -19 0 -25z m633 29 c0 -2 -10 -12 -21 -23 -22 -19 -22 -19 -8 4 12 19
29 30 29 19z m1560 -54 c-1 -10 -39 39 -40 51 0 5 9 -3 20 -17 11 -14 20 -29
20 -34z m-121 17 c11 -24 11 -24 -3 -6 -9 11 -16 24 -16 30 0 12 5 7 19 -24z
m136 20 c3 -5 1 -10 -4 -10 -6 0 -11 5 -11 10 0 6 2 10 4 10 3 0 8 -4 11 -10z
m225 -11 c0 -6 -4 -7 -10 -4 -5 3 -10 11 -10 16 0 6 5 7 10 4 6 -3 10 -11 10
-16z m194 9 c-13 -23 -37 -48 -46 -48 -5 0 3 13 19 30 31 32 38 37 27 18z
m-651 -34 c6 -33 -6 -30 -20 5 -8 23 -8 28 2 25 7 -3 15 -16 18 -30z m-2633
10 c0 -8 -5 -12 -10 -9 -6 4 -8 11 -5 16 9 14 15 11 15 -7z m540 8 c0 -5 -7
-17 -15 -28 -14 -18 -14 -17 -4 9 12 27 19 34 19 19z m166 -8 c-3 -9 -6 -20
-6 -25 0 -5 -4 -9 -9 -9 -4 0 -6 11 -3 25 2 14 9 25 14 25 6 0 7 -7 4 -16z
m1456 -9 c3 -14 1 -25 -3 -25 -5 0 -9 11 -9 25 0 14 2 25 4 25 2 0 6 -11 8
-25z m52 6 c17 -19 17 -19 -3 -14 -12 3 -21 12 -21 19 0 18 4 18 24 -5z m387
-26 c7 -13 3 -12 -10 5 -11 14 -21 30 -21 35 0 11 14 -7 31 -40z m-3001 14 c0
-11 -4 -18 -10 -14 -5 3 -7 12 -3 20 7 21 13 19 13 -6z m810 1 c-6 -11 -13
-20 -16 -20 -2 0 0 9 6 20 6 11 13 20 16 20 2 0 0 -9 -6 -20z m757 14 c-3 -3
-12 -4 -19 -1 -8 3 -5 6 6 6 11 1 17 -2 13 -5z m-1677 -19 c0 -9 -9 -15 -25
-15 -14 0 -25 5 -25 11 0 6 7 9 15 6 8 -4 17 -2 20 3 9 14 15 12 15 -5z m1006
-12 c-10 -10 -19 5 -10 18 6 11 8 11 12 0 2 -7 1 -15 -2 -18z m161 5 c-3 -8
-6 -5 -6 6 -1 11 2 17 5 13 3 -3 4 -12 1 -19z m832 6 c6 4 11 2 11 -3 0 -6
-11 -11 -25 -11 -24 0 -32 10 -18 23 4 4 10 2 14 -4 4 -6 12 -8 18 -5z m1637
7 c5 -5 20 -11 34 -14 l25 -4 -26 -2 c-14 0 -34 6 -45 14 -10 8 -14 15 -8 15
5 0 14 -4 20 -9z m-3366 -11 c0 -5 -4 -10 -10 -10 -5 0 -10 5 -10 10 0 6 5 10
10 10 6 0 10 -4 10 -10z m210 -4 c14 -2 -12 -4 -57 -5 -46 0 -83 2 -83 7 0 6
81 6 140 -2z m280 4 c0 -5 -4 -10 -10 -10 -5 0 -10 5 -10 10 0 6 5 10 10 10 6
0 10 -4 10 -10z m30 0 c0 -5 -5 -10 -11 -10 -5 0 -7 5 -4 10 3 6 8 10 11 10 2
0 4 -4 4 -10z m165 0 c-3 -5 -11 -10 -16 -10 -6 0 -7 5 -4 10 3 6 11 10 16 10
6 0 7 -4 4 -10z m465 0 c0 -5 -4 -10 -10 -10 -5 0 -10 5 -10 10 0 6 5 10 10
10 6 0 10 -4 10 -10z m1045 1 c-11 -11 -39 -14 -75 -11 -17 2 -10 5 20 10 25
4 49 8 55 8 6 1 6 -1 0 -7z m385 -1 c-8 -5 -19 -10 -25 -10 -5 0 -3 5 5 10 8
5 20 10 25 10 6 0 3 -5 -5 -10z m110 0 c0 -5 -5 -10 -11 -10 -5 0 -7 5 -4 10
3 6 8 10 11 10 2 0 4 -4 4 -10z m335 1 c3 -5 1 -12 -5 -16 -5 -3 -10 1 -10 9
0 18 6 21 15 7z m174 -17 c10 -9 -56 -3 -69 7 -11 7 -4 8 25 3 22 -4 42 -8 44
-10z m-3286 -111 c-57 -2 -149 -2 -205 0 -57 1 -11 3 102 3 113 0 159 -2 103
-3z m335 0 c-43 -2 -113 -2 -155 0 -43 1 -8 3 77 3 85 0 120 -2 78 -3z m135 0
c-7 -2 -21 -2 -30 0 -10 3 -4 5 12 5 17 0 24 -2 18 -5z m170 0 c-29 -2 -77 -2
-105 0 -29 2 -6 3 52 3 58 0 81 -1 53 -3z m145 0 c-15 -2 -42 -2 -60 0 -18 2
-6 4 27 4 33 0 48 -2 33 -4z m585 0 c-100 -2 -266 -2 -370 0 -103 1 -21 2 182
2 204 0 288 -1 188 -2z m1150 0 c-171 -2 -455 -2 -630 0 -175 1 -34 2 312 2
347 0 490 -1 318 -2z m415 0 c-15 -2 -42 -2 -60 0 -18 2 -6 4 27 4 33 0 48 -2
33 -4z m515 0 c-90 -2 -236 -2 -325 0 -90 1 -17 3 162 3 179 0 252 -2 163 -3z
m-1848 -285 c14 -17 31 -25 54 -26 43 -1 46 -5 26 -36 -10 -14 -15 -34 -12
-45 3 -14 -1 -18 -19 -18 -19 0 -22 2 -14 13 8 9 7 19 -5 38 -27 41 -37 31
-33 -31 l3 -56 -35 -10 c-19 -5 -41 -13 -47 -19 -10 -8 -13 -4 -13 15 0 36
-15 41 -34 12 -20 -30 -20 -39 -2 -32 10 4 13 1 9 -9 -5 -13 6 -15 68 -13 l74
2 15 -72 c12 -57 18 -69 28 -59 15 15 14 3 -3 -42 -12 -34 -13 -34 -19 -10 -3
14 -8 41 -10 61 -3 19 -9 45 -13 57 -8 22 -9 21 -27 -9 l-18 -31 23 7 c21 7
22 6 10 -9 -12 -14 -11 -19 5 -38 19 -21 19 -21 -1 -10 -30 16 -61 55 -47 60
7 2 12 9 12 16 0 7 9 22 21 35 32 34 13 39 -21 6 -17 -16 -30 -23 -30 -17 0 7
7 15 15 18 32 13 12 24 -42 24 l-58 0 25 -20 c14 -11 31 -20 38 -20 6 0 12
-10 12 -22 0 -13 -4 -18 -8 -13 -13 18 -89 75 -101 75 -6 0 -11 5 -11 10 0 6
9 10 20 10 13 0 17 5 14 14 -3 8 8 33 25 57 17 23 31 38 31 32 0 -8 67 -43 84
-43 4 0 -7 15 -26 33 -18 18 -39 30 -47 28 -15 -5 -15 -4 14 52 10 20 22 37
27 37 4 0 8 12 9 28 0 18 3 22 7 11 4 -8 16 -27 27 -41z m140 31 c-4 -13 -1
-25 8 -32 16 -13 51 -88 39 -84 -4 1 -18 -8 -32 -20 -37 -35 -51 -30 -49 20 1
23 7 51 12 61 7 15 6 18 -6 13 -12 -4 -14 -2 -10 10 5 12 1 14 -18 7 -32 -10
-60 -8 -73 7 -8 9 -6 10 9 4 11 -4 27 -7 35 -6 8 1 27 3 43 3 19 1 27 6 27 19
0 11 5 19 11 19 6 0 8 -9 4 -21z m115 -219 c0 -8 -12 2 -26 23 -14 21 -31 37
-37 34 -60 -22 -80 -17 -24 7 31 13 33 13 59 -18 15 -17 28 -38 28 -46z m-89
20 c15 -9 19 -7 19 5 0 9 5 13 10 10 6 -4 8 -11 4 -16 -3 -6 3 -13 15 -16 12
-3 21 -11 21 -18 0 -8 9 -10 25 -7 15 2 25 0 25 -7 0 -6 -7 -11 -15 -11 -8 0
-23 -8 -33 -17 -60 -57 -59 -57 -100 -19 -41 39 -53 39 -28 0 10 -14 15 -28
13 -31 -3 -2 -11 6 -18 18 l-12 23 -9 -24 c-6 -16 -5 -26 1 -28 17 -6 13 -18
-7 -19 -17 -1 -17 3 -7 55 l12 57 71 -1 c40 -1 72 3 72 7 0 5 -4 10 -10 10
-18 3 -25 5 -72 23 -27 10 -48 22 -48 27 0 9 34 -2 71 -21z m-44 -180 c-19
-16 -39 -30 -43 -30 -5 1 1 9 14 20 13 11 21 24 17 30 -4 6 5 10 20 10 l26 0
-34 -30z"/>
<path d="M3224 7386 c-3 -8 -4 -27 -2 -43 3 -27 6 -28 57 -30 30 -1 62 2 72 8
25 13 24 55 0 69 -30 16 -121 13 -127 -4z"/>
<path d="M3220 7205 l0 -56 92 3 c91 3 93 4 106 31 12 24 11 31 -2 53 -15 22
-22 24 -106 24 l-90 0 0 -55z"/>
<path d="M5444 7391 c-2 -2 -4 -22 -4 -43 l0 -38 59 0 c76 0 108 27 82 69 -8
12 -126 23 -137 12z"/>
<path d="M5798 7393 c-24 -4 -28 -9 -28 -39 l0 -34 79 0 c69 0 80 3 86 19 8
25 -4 51 -24 51 -9 0 -32 2 -51 4 -19 2 -47 2 -62 -1z"/>
<path d="M6217 7393 c-4 -3 -7 -60 -7 -125 l0 -118 33 -2 c95 -5 135 11 161
67 33 69 10 135 -57 166 -41 18 -117 26 -130 12z"/>
<path d="M5001 2676 c-14 -26 -6 -51 25 -77 16 -13 17 -11 12 21 -4 24 -1 38
10 46 9 7 12 16 7 24 -7 11 -10 9 -16 -6 -7 -17 -8 -17 -8 -1 -1 24 -15 21
-30 -7z"/>
<path d="M5087 2663 c-4 -3 -2 -12 4 -20 9 -10 15 -10 25 -2 8 6 14 15 14 20
0 10 -34 12 -43 2z"/>
<path d="M4967 2551 c4 -14 10 -18 23 -13 27 10 25 26 -4 30 -20 3 -24 0 -19
-17z"/>
<path d="M5187 2690 c-3 -8 -8 -34 -11 -58 l-6 -43 24 18 c23 16 23 19 9 31
-16 11 -16 12 0 12 21 0 21 10 3 36 -12 16 -15 16 -19 4z"/>
<path d="M5231 2482 c-52 -3 -53 -4 -35 -23 21 -24 31 -24 37 -1 4 16 5 16 6
0 0 -10 5 -18 9 -18 10 0 47 39 41 43 -2 1 -28 1 -58 -1z"/>
</g>
</svg>
