<?xml version="1.0" standalone="no"?>
<!DOCTYPE svg PUBLIC "-//W3C//DTD SVG 20010904//EN"
 "http://www.w3.org/TR/2001/REC-SVG-20010904/DTD/svg10.dtd">
<svg version="1.0" xmlns="http://www.w3.org/2000/svg"
 width="1024.000000pt" height="1024.000000pt" viewBox="0 0 1024.000000 1024.000000"
 preserveAspectRatio="xMidYMid meet">

<g transform="translate(0.000000,1024.000000) scale(0.100000,-0.100000)"
fill="#000000" stroke="none">
<path d="M5665 9617 c-215 -88 -237 -92 -555 -92 -319 1 -410 12 -608 77 -99
32 -132 39 -175 35 -51 -5 -277 -60 -297 -72 -19 -12 -1188 -308 -1285 -325
-33 -6 -89 -25 -124 -42 -35 -17 -114 -44 -175 -60 -78 -20 -160 -52 -276
-107 -91 -43 -192 -89 -225 -102 -87 -33 -290 -135 -360 -181 -123 -82 -356
-190 -570 -263 -366 -126 -515 -185 -605 -241 -109 -67 -125 -85 -125 -138 1
-67 108 -286 295 -601 26 -44 76 -134 110 -200 35 -66 82 -154 106 -195 23
-41 54 -104 67 -140 13 -36 46 -108 72 -160 26 -52 58 -123 71 -157 31 -82 78
-156 108 -173 34 -18 161 -7 296 25 58 13 130 25 162 25 31 0 92 7 135 15 43
8 128 15 188 15 67 0 133 6 170 16 149 39 236 53 344 56 l116 3 6 -60 c3 -33
10 -81 14 -107 6 -39 2 -66 -29 -167 -77 -254 -76 -248 -76 -636 0 -235 -4
-362 -11 -385 -7 -20 -15 -149 -19 -295 -4 -143 -13 -299 -19 -347 -17 -127
-10 -1300 8 -1383 13 -56 12 -69 -18 -212 -28 -137 -31 -171 -31 -330 0 -98
-5 -196 -11 -218 -5 -22 -14 -141 -19 -265 -5 -124 -14 -245 -19 -270 -6 -25
-10 -101 -11 -170 0 -69 -7 -154 -15 -190 -10 -46 -14 -134 -15 -296 0 -157
-5 -264 -16 -335 -14 -97 -13 -189 4 -215 25 -38 141 -51 582 -63 166 -5 286
-12 303 -19 16 -7 79 -12 140 -13 62 0 146 -4 187 -9 41 -5 130 -14 197 -20
67 -5 135 -15 150 -21 15 -6 127 -14 248 -18 121 -4 226 -10 233 -15 20 -12
534 -28 917 -28 360 0 846 15 866 28 7 4 74 11 150 15 75 4 147 12 159 19 12
6 74 14 138 17 110 4 251 22 352 43 25 5 86 14 135 19 241 26 294 32 340 41
28 5 160 12 295 15 135 3 253 8 263 11 42 13 47 47 47 346 0 210 -4 303 -15
361 -8 43 -15 129 -16 190 0 62 -5 144 -10 182 -6 39 -14 189 -18 335 -5 154
-13 278 -19 295 -8 20 -13 158 -16 405 -4 358 -5 380 -30 495 -22 103 -26 145
-26 295 -1 107 -6 206 -15 255 -8 44 -15 116 -15 160 0 44 -7 109 -15 145 -8
36 -15 106 -15 155 0 50 -7 126 -15 170 -8 44 -15 114 -15 155 0 41 -5 95 -11
120 -11 49 -24 211 -39 474 -5 93 -12 176 -16 185 -4 9 -11 95 -15 191 -5 96
-12 195 -15 220 -6 42 8 171 27 250 4 19 11 78 14 130 6 84 11 104 46 172 22
43 42 98 45 122 7 46 24 65 91 99 26 14 63 17 200 17 92 0 188 -5 213 -11 25
-6 131 -15 235 -19 195 -9 365 -26 515 -54 163 -30 155 -37 271 224 28 63 77
180 109 260 32 80 89 208 128 285 225 450 332 658 371 718 49 77 81 154 81
196 0 45 -52 76 -280 170 -201 82 -362 139 -570 201 -63 19 -178 67 -285 120
-127 63 -209 97 -279 115 -55 14 -141 43 -190 64 -50 21 -118 46 -150 56 -33
9 -89 31 -125 49 -36 18 -100 46 -141 61 -41 16 -84 34 -95 41 -40 25 -232 71
-350 83 -62 6 -103 18 -175 50 -96 44 -150 58 -695 181 -148 34 -299 72 -335
85 -36 13 -90 27 -120 30 -30 4 -93 23 -140 42 -63 26 -104 36 -160 39 -72 5
-80 3 -205 -49z m668 -2521 c15 -5 32 -17 38 -28 9 -17 6 -25 -20 -50 -17 -17
-31 -35 -31 -41 0 -5 -8 -16 -17 -23 -16 -13 -15 -13 7 -5 35 12 336 45 580
63 8 1 18 6 23 12 4 7 9 3 13 -11 3 -12 13 -24 23 -26 12 -3 9 -7 -12 -15 -22
-10 -26 -16 -21 -36 3 -13 1 -34 -6 -46 -6 -11 -13 -45 -14 -74 -2 -29 -8 -61
-13 -72 -6 -10 -20 -55 -31 -99 -11 -44 -26 -100 -32 -124 -8 -31 -14 -40 -20
-31 -8 13 -33 -32 -46 -87 -6 -22 -4 -23 22 -18 29 7 122 31 158 42 12 3 16 1
12 -6 -10 -15 55 -14 106 1 32 10 41 9 48 -2 6 -10 1 -18 -19 -26 -15 -6 -31
-19 -34 -28 -4 -9 -16 -16 -27 -16 -11 0 -28 -4 -38 -9 -9 -5 -38 -15 -64 -21
-26 -7 -53 -19 -59 -26 -6 -8 -16 -11 -21 -8 -6 4 -5 10 3 16 10 7 7 8 -11 4
-104 -25 -201 -45 -236 -49 -23 -3 -51 -10 -62 -16 -17 -9 -28 -7 -56 10 -20
12 -36 25 -36 30 0 5 14 21 30 36 47 42 34 58 -26 29 -16 -7 -87 -19 -158 -25
-100 -10 -136 -17 -158 -32 -24 -17 -28 -18 -28 -5 0 9 -6 16 -12 16 -41 1
-39 16 17 155 101 250 141 330 167 332 13 2 31 -3 41 -11 15 -12 16 -18 8 -35
-23 -42 -17 -44 98 -37 73 5 111 3 116 -4 3 -5 -1 -13 -10 -16 -12 -5 -13 -10
-5 -20 9 -10 3 -15 -27 -23 -21 -6 -51 -11 -66 -11 -16 0 -47 -4 -70 -9 -23
-6 -54 -12 -68 -15 -22 -5 -33 -20 -62 -88 -39 -91 -47 -124 -32 -122 42 7
275 15 275 10 0 -3 -15 -10 -32 -15 -31 -9 -30 -10 17 -8 l50 2 18 55 c9 30
15 60 13 67 -3 6 2 17 10 23 7 7 20 33 28 59 36 115 54 144 86 134 12 -4 12
-3 1 5 -7 5 -10 15 -7 21 4 6 0 14 -9 17 -21 8 -36 39 -29 58 14 36 124 44
124 9 0 -8 -14 -32 -30 -53 -17 -22 -26 -41 -21 -45 7 -4 7 -15 0 -33 -6 -15
-14 -45 -19 -67 -5 -22 -27 -92 -50 -155 -54 -150 -54 -150 -43 -150 18 0 78
24 90 35 25 26 69 213 61 267 -2 14 2 23 11 23 8 0 19 21 28 54 7 30 17 59 22
65 4 6 11 24 15 41 4 16 19 53 33 83 14 29 22 56 19 59 -3 4 -6 1 -6 -5 0 -7
-18 -15 -40 -18 -22 -4 -43 -10 -46 -15 -2 -4 -11 -6 -19 -2 -9 3 -22 -1 -31
-8 -13 -10 -17 -10 -25 2 -5 8 -9 9 -9 3 0 -6 -57 -18 -137 -28 -79 -10 -145
-24 -153 -32 -13 -11 -23 -11 -53 -2 -40 12 -51 34 -29 61 14 15 13 17 -6 17
-12 0 -25 -7 -30 -16 -9 -16 -14 -16 -76 1 -37 10 -69 21 -71 25 -4 7 65 151
77 160 10 8 99 5 131 -4z m-477 -176 c-4 -32 -3 -50 4 -50 5 0 10 -7 10 -15 0
-8 -6 -15 -12 -15 -8 0 -9 -3 -3 -8 6 -4 11 -23 11 -42 1 -19 8 -61 16 -92 8
-32 14 -59 11 -61 -3 -4 20 -115 33 -159 9 -31 33 -20 43 20 6 20 11 42 11 48
0 6 16 60 35 120 20 60 37 117 38 127 6 31 20 35 79 23 31 -6 59 -14 62 -17 4
-3 -5 -26 -18 -52 -14 -25 -36 -81 -50 -124 -42 -128 -63 -186 -82 -222 -9
-19 -20 -48 -24 -65 -4 -20 -13 -32 -25 -34 -11 -2 -29 -12 -40 -22 -23 -21
-94 -52 -96 -42 -1 4 0 17 1 29 0 12 -5 32 -13 45 -9 13 -23 70 -33 127 -10
57 -23 109 -29 115 -14 14 -65 206 -65 245 0 16 -4 32 -8 35 -5 3 -9 26 -10
51 0 34 4 48 18 55 23 12 86 28 119 29 23 1 23 -1 17 -49z m-601 0 c33 -16 66
-30 72 -30 7 0 20 -11 29 -25 14 -22 15 -30 4 -49 -10 -19 -9 -29 5 -55 9 -18
16 -45 15 -59 -3 -47 0 -63 10 -57 16 10 11 -7 -9 -29 -21 -23 -36 -76 -22
-76 5 0 3 -17 -5 -37 -7 -21 -13 -47 -14 -58 0 -19 0 -19 14 0 7 11 17 35 21
53 7 33 19 42 28 20 5 -11 8 6 7 28 -1 3 12 17 27 32 18 17 27 34 25 47 -4 17
-3 18 13 5 17 -14 17 -13 5 9 l-12 24 -17 -22 c-16 -21 -18 -21 -31 -6 -12 14
-12 18 1 26 20 12 53 11 67 -3 26 -26 14 -71 -34 -119 l-47 -48 -12 -129 c-6
-71 -15 -134 -19 -141 -11 -17 -53 -32 -71 -25 -24 9 -19 70 6 88 13 9 19 21
16 30 -3 8 -2 18 3 21 13 8 13 62 0 70 -5 3 -15 -5 -22 -19 -8 -19 -19 -26
-39 -26 -28 0 -39 -15 -39 -55 0 -21 -29 -58 -31 -39 -1 5 -2 20 -2 34 -2 23
-5 25 -47 22 l-45 -2 23 18 c31 24 58 85 65 147 3 28 3 42 1 33 -3 -10 -9 -18
-14 -18 -4 0 -3 16 3 35 9 31 11 33 23 17 7 -9 14 -25 14 -34 0 -13 8 -17 28
-15 26 2 27 5 26 50 -1 26 -3 50 -4 55 -2 4 -3 14 -4 22 -1 8 -14 21 -29 30
-23 13 -29 13 -36 1 -7 -11 -14 -4 -30 27 -23 46 -42 63 -34 31 6 -20 5 -20
-23 -6 -38 19 -65 8 -95 -39 -12 -21 -25 -32 -27 -25 -8 23 8 57 31 70 13 7
36 28 51 48 32 40 25 53 -31 53 -18 0 -33 4 -33 8 0 21 145 122 175 122 5 0
37 -14 70 -30z m150 -10 c3 -5 2 -10 -4 -10 -5 0 -13 5 -16 10 -3 6 -2 10 4
10 5 0 13 -4 16 -10z m-306 -244 c6 -4 18 -2 26 4 19 16 35 4 35 -27 0 -24 -1
-25 -23 -10 -27 18 -76 25 -95 14 -13 -9 -15 -6 -6 16 5 15 40 17 63 3z m22
-56 l24 -19 -37 6 c-24 3 -44 1 -53 -7 -12 -10 -15 -10 -15 2 0 39 45 49 81
18z m-124 -22 c-3 -7 -5 -2 -5 12 0 14 2 19 5 13 2 -7 2 -19 0 -25z m415 0
c-6 -6 -14 -9 -17 -6 -3 3 -3 13 1 22 5 12 10 14 17 7 8 -8 8 -14 -1 -23z
m-372 -108 c0 -20 5 -41 12 -48 9 -9 9 -12 1 -12 -14 0 -21 20 -28 80 -4 32
-2 41 5 30 5 -8 10 -31 10 -50z m912 -2 c-7 -7 -12 -8 -12 -2 0 14 12 26 19
19 2 -3 -1 -11 -7 -17z m-802 -32 c0 -8 -4 -18 -10 -21 -5 -3 -10 3 -10 14 0
12 5 21 10 21 6 0 10 -6 10 -14z m-940 -31 c28 -16 9 -21 -20 -5 -31 17 -34
-8 -5 -45 30 -40 25 -68 -6 -33 l-19 23 5 -30 c3 -16 2 -24 -1 -17 -3 6 -20
12 -37 12 l-30 0 23 -25 c13 -14 20 -28 15 -32 -4 -5 -10 -2 -12 5 -3 6 -12
12 -20 12 -11 0 -13 -3 -5 -12 8 -10 -2 -12 -49 -10 -32 2 -59 8 -59 13 0 5
-7 9 -15 9 -8 0 -15 5 -15 10 0 6 8 10 17 10 10 0 27 12 39 28 20 24 25 25 43
15 33 -20 35 -15 5 11 l-28 23 22 12 c12 6 22 8 22 4 0 -4 6 1 13 9 10 14 28
20 82 26 6 1 21 -5 35 -13z m890 -33 c14 1 31 6 38 11 9 7 11 6 6 -6 -9 -24
-45 -44 -82 -45 -27 -1 -31 2 -22 13 7 8 9 24 4 37 -6 22 -6 22 12 6 11 -9 31
-16 44 -16z m-140 -32 c0 -5 -10 -10 -22 -10 -21 0 -21 0 -2 -16 17 -14 17
-15 1 -10 -10 3 -23 6 -29 6 -6 0 -3 9 7 20 19 21 45 27 45 10z m-83 -15 c-17
-12 -71 -9 -63 4 3 4 22 7 43 8 33 1 35 -1 20 -12z m-617 -9 c0 -8 -7 -16 -15
-20 -8 -3 -15 -4 -15 -2 0 3 -3 11 -6 20 -4 12 0 16 15 16 12 0 21 -6 21 -14z
m859 -103 c1 -18 -3 -33 -8 -33 -23 0 -41 14 -41 32 0 15 5 18 21 13 18 -6 19
-4 11 12 -5 10 -7 25 -4 33 7 20 20 -15 21 -57z m357 28 c-13 -20 -26 -11 -26
16 0 25 1 26 16 11 9 -9 13 -21 10 -27z m1339 29 c-3 -5 -12 -10 -18 -10 -7 0
-6 4 3 10 19 12 23 12 15 0z m-1286 -87 c29 -45 51 -67 129 -129 17 -14 32
-32 32 -39 0 -7 12 -16 27 -20 21 -5 24 -8 12 -16 -7 -5 -9 -9 -4 -10 15 -1
-27 -17 -48 -18 -10 -1 -16 3 -13 8 6 10 -22 25 -40 22 -7 -1 -14 6 -18 14 -3
10 -11 13 -18 9 -7 -4 -10 -3 -5 1 4 5 0 17 -10 27 -15 17 -15 19 2 38 18 20
15 24 -17 21 -21 -2 -31 14 -35 57 -2 19 -11 45 -20 58 -8 13 -13 24 -10 24 3
0 19 -21 36 -47z m-1515 25 c-4 -6 -23 -25 -43 -42 -20 -17 -51 -46 -70 -63
-19 -18 -38 -33 -42 -33 -11 0 143 149 154 150 5 0 5 -5 1 -12z m881 -28 c-3
-5 -11 -10 -16 -10 -6 0 -7 5 -4 10 3 6 11 10 16 10 6 0 7 -4 4 -10z m200 -41
c4 -10 10 -19 15 -19 4 0 8 -6 7 -12 -3 -83 13 -126 28 -78 4 11 10 18 15 15
5 -3 10 5 12 17 2 13 10 23 18 23 18 0 26 -43 11 -58 -27 -27 -8 -28 20 -1
l31 29 15 -22 c11 -16 25 -23 49 -23 39 0 39 -1 17 -43 -28 -54 -52 -146 -41
-153 7 -4 4 -10 -6 -16 -9 -5 -16 -18 -16 -28 0 -11 -12 -27 -26 -36 -17 -12
-21 -19 -13 -24 6 -4 8 -13 5 -19 -4 -6 -2 -11 3 -11 6 0 11 -5 11 -11 0 -5
-4 -8 -9 -4 -6 3 -14 -2 -19 -11 -9 -16 -34 -20 -86 -11 -29 5 -65 41 -66 65
0 7 -4 10 -10 7 -5 -3 -10 0 -10 7 0 10 -3 9 -9 -1 -8 -12 -14 -13 -37 -3 -25
12 -26 15 -20 66 3 29 12 66 20 82 10 17 13 43 10 68 -6 41 18 152 35 169 5 5
7 16 4 23 -8 22 5 44 21 38 8 -3 18 -14 21 -25z m95 -19 c0 -5 -7 -10 -15 -10
-8 0 -15 5 -15 10 0 6 7 10 15 10 8 0 15 -4 15 -10z m-973 -86 c10 -21 9 -25
-1 -21 -17 7 -36 -12 -36 -35 0 -31 -17 -20 -23 15 -4 24 0 36 15 50 27 22 31
22 45 -9z m-377 12 c0 -2 -8 -10 -17 -17 -16 -13 -17 -12 -4 4 13 16 21 21 21
13z m990 -30 c0 -2 -7 -6 -15 -10 -8 -3 -15 -1 -15 4 0 6 7 10 15 10 8 0 15
-2 15 -4z m-52 -66 c23 -40 29 -61 13 -44 -16 16 -51 84 -43 84 4 0 17 -18 30
-40z m780 8 c-3 -7 -15 -15 -28 -16 -21 -3 -22 -2 -11 12 16 19 44 21 39 4z
m242 -23 c0 -9 -62 -36 -73 -32 -7 3 4 12 23 20 37 17 50 20 50 12z m-98 -33
c2 -10 -9 -41 -24 -70 -15 -29 -26 -54 -25 -56 1 -3 -1 -8 -5 -12 -5 -4 -8 2
-8 14 0 12 5 22 11 22 6 0 8 7 5 17 -4 9 -1 20 5 24 7 4 9 15 5 25 -6 15 -13
6 -31 -39 -22 -52 -23 -61 -10 -74 17 -16 19 -23 7 -23 -4 0 -13 9 -20 21 -11
17 -10 28 5 67 26 70 43 101 43 80 0 -10 7 -18 15 -18 17 0 20 16 5 25 -15 10
-12 25 4 19 8 -3 16 -13 18 -22z m87 -43 c12 -28 11 -49 -5 -106 -3 -13 -2
-23 3 -23 11 0 35 88 28 101 -4 5 -1 9 4 9 7 0 10 -24 9 -65 -2 -36 -7 -65
-12 -65 -4 0 -5 -11 -2 -25 7 -27 -5 -33 -23 -11 -8 10 -9 16 -1 21 6 3 7 11
4 17 -5 7 -11 6 -19 -5 -9 -13 -11 -2 -8 49 4 67 -1 79 -18 42 -13 -30 -29
-56 -56 -95 -27 -37 -29 -44 -7 -36 26 10 8 -34 -35 -86 -65 -81 -63 -79 -50
-51 7 14 21 37 32 52 12 16 17 35 14 47 -3 12 6 45 22 79 16 31 34 75 42 97
12 37 45 85 58 85 4 0 12 -14 20 -31z m-449 -3 c0 -3 -4 -8 -10 -11 -5 -3 -10
-1 -10 4 0 6 5 11 10 11 6 0 10 -2 10 -4z m35 -16 c-3 -5 -11 -10 -16 -10 -6
0 -7 5 -4 10 3 6 11 10 16 10 6 0 7 -4 4 -10z m-1 -51 c-3 -5 -10 -7 -15 -3
-5 3 -7 10 -3 15 3 5 10 7 15 3 5 -3 7 -10 3 -15z m46 11 c0 -5 -4 -10 -10
-10 -5 0 -10 5 -10 10 0 6 5 10 10 10 6 0 10 -4 10 -10z m40 -20 c0 -5 -4 -10
-9 -10 -6 0 -13 5 -16 10 -3 6 1 10 9 10 9 0 16 -4 16 -10z m-150 -14 c0 -3
-4 -8 -10 -11 -5 -3 -10 -1 -10 4 0 6 5 11 10 11 6 0 10 -2 10 -4z m40 -6 c0
-5 -5 -10 -11 -10 -5 0 -7 5 -4 10 3 6 8 10 11 10 2 0 4 -4 4 -10z m90 -10 c0
-5 -5 -10 -11 -10 -5 0 -7 5 -4 10 3 6 8 10 11 10 2 0 4 -4 4 -10z m174 -62
c-3 -5 -12 3 -20 17 -8 15 -11 31 -8 37 3 5 12 -3 20 -17 8 -15 11 -31 8 -37z
m-284 33 c0 -6 -4 -13 -10 -16 -5 -3 -10 1 -10 9 0 9 5 16 10 16 6 0 10 -4 10
-9z m40 -6 c0 -8 -4 -15 -10 -15 -5 0 -10 7 -10 15 0 8 5 15 10 15 6 0 10 -7
10 -15z m50 -5 c0 -5 -4 -10 -10 -10 -5 0 -10 5 -10 10 0 6 5 10 10 10 6 0 10
-4 10 -10z m40 -10 c0 -5 -2 -10 -4 -10 -3 0 -8 5 -11 10 -3 6 -1 10 4 10 6 0
11 -4 11 -10z m120 0 c0 -5 -5 -10 -11 -10 -5 0 -7 5 -4 10 3 6 8 10 11 10 2
0 4 -4 4 -10z m-190 -25 c0 -8 -4 -15 -10 -15 -5 0 -10 7 -10 15 0 8 5 15 10
15 6 0 10 -7 10 -15z m-95 -5 c-3 -5 -10 -10 -16 -10 -5 0 -9 5 -9 10 0 6 7
10 16 10 8 0 12 -4 9 -10z m45 0 c0 -5 -4 -10 -10 -10 -5 0 -10 5 -10 10 0 6
5 10 10 10 6 0 10 -4 10 -10z m95 0 c3 -5 -1 -10 -9 -10 -9 0 -16 5 -16 10 0
6 4 10 9 10 6 0 13 -4 16 -10z m155 -6 c0 -8 -4 -12 -10 -9 -5 3 -10 10 -10
16 0 5 5 9 10 9 6 0 10 -7 10 -16z m-800 -14 c0 -5 -4 -10 -10 -10 -5 0 -10 5
-10 10 0 6 5 10 10 10 6 0 10 -4 10 -10z m1020 -17 c0 -13 -3 -13 -15 -3 -8 7
-15 16 -15 21 0 5 7 6 15 3 8 -4 15 -13 15 -21z m-545 8 c3 -5 1 -12 -5 -16
-5 -3 -10 1 -10 9 0 18 6 21 15 7z m37 -13 c-7 -7 -12 -8 -12 -2 0 14 12 26
19 19 2 -3 -1 -11 -7 -17z m268 -10 c0 -5 -4 -8 -10 -8 -5 0 -10 10 -10 23 0
18 2 19 10 7 5 -8 10 -18 10 -22z m-1162 -25 c29 -64 20 -67 -12 -4 -15 28
-23 51 -18 51 4 0 18 -21 30 -47z m947 37 c-3 -5 -10 -10 -16 -10 -5 0 -9 5
-9 10 0 6 7 10 16 10 8 0 12 -4 9 -10z m45 0 c0 -5 -4 -10 -10 -10 -5 0 -10 5
-10 10 0 6 5 10 10 10 6 0 10 -4 10 -10z m-590 -20 c0 -5 -4 -10 -10 -10 -5 0
-10 5 -10 10 0 6 5 10 10 10 6 0 10 -4 10 -10z m730 0 c0 -5 -5 -10 -11 -10
-5 0 -7 5 -4 10 3 6 8 10 11 10 2 0 4 -4 4 -10z m258 -11 c2 -9 -4 -19 -12
-22 -11 -4 -13 -1 -9 10 3 8 0 19 -8 25 -11 7 -9 8 6 6 11 -2 21 -10 23 -19z
m-54 -29 c-4 -27 -3 -40 5 -40 6 0 11 -7 11 -15 0 -8 -4 -15 -9 -15 -9 0 -37
-84 -47 -145 -4 -22 -20 -67 -37 -100 -17 -33 -32 -64 -32 -70 -1 -5 -3 -15
-3 -22 -1 -6 -11 -9 -22 -6 -26 7 -18 37 19 69 l26 22 -29 11 c-23 9 -26 14
-16 26 7 8 9 15 4 15 -5 0 -1 7 9 15 18 13 18 14 -2 25 -24 12 -29 35 -6 26 9
-3 15 0 15 8 0 7 15 21 33 30 l32 16 -27 0 c-16 0 -28 3 -28 8 0 4 18 33 39
65 22 32 46 71 53 87 17 40 19 38 12 -10z m-504 26 c0 -3 -4 -8 -10 -11 -5 -3
-10 -1 -10 4 0 6 5 11 10 11 6 0 10 -2 10 -4z m34 -11 c-4 -8 -10 -12 -15 -9
-11 6 -2 24 11 24 5 0 7 -7 4 -15z m46 5 c0 -5 -7 -10 -15 -10 -8 0 -15 5 -15
10 0 6 7 10 15 10 8 0 15 -4 15 -10z m48 -1 c-2 -6 -8 -10 -13 -10 -5 0 -11 4
-13 10 -2 6 4 11 13 11 9 0 15 -5 13 -11z m-168 -39 c0 -5 -4 -10 -10 -10 -5
0 -10 5 -10 10 0 6 5 10 10 10 6 0 10 -4 10 -10z m32 -12 c-7 -7 -12 -8 -12
-2 0 14 12 26 19 19 2 -3 -1 -11 -7 -17z m48 12 c0 -5 -4 -10 -10 -10 -5 0
-10 5 -10 10 0 6 5 10 10 10 6 0 10 -4 10 -10z m50 0 c0 -5 -4 -10 -10 -10 -5
0 -10 5 -10 10 0 6 5 10 10 10 6 0 10 -4 10 -10z m66 -27 c-11 -11 -17 4 -9
23 7 18 8 18 11 1 2 -10 1 -21 -2 -24z m-276 -28 c7 -19 6 -36 -5 -60 -7 -19
-12 -35 -9 -35 3 0 -4 -9 -15 -21 -13 -14 -26 -19 -40 -14 -21 6 -25 17 -21
67 1 16 -5 30 -17 36 -16 9 -14 12 12 22 17 7 37 16 45 20 26 15 40 11 50 -15z
m80 11 c0 -3 -4 -8 -10 -11 -5 -3 -10 -1 -10 4 0 6 5 11 10 11 6 0 10 -2 10
-4z m40 -6 c0 -5 -4 -10 -10 -10 -5 0 -10 5 -10 10 0 6 5 10 10 10 6 0 10 -4
10 -10z m50 6 c0 -11 -19 -15 -25 -6 -3 5 1 10 9 10 9 0 16 -2 16 -4z m112
-28 c-7 -7 -12 -8 -12 -2 0 14 12 26 19 19 2 -3 -1 -11 -7 -17z m-202 -18 c0
-5 -5 -10 -11 -10 -5 0 -7 5 -4 10 3 6 8 10 11 10 2 0 4 -4 4 -10z m44 -11
c-3 -5 -10 -7 -15 -3 -5 3 -7 10 -3 15 3 5 10 7 15 3 5 -3 7 -10 3 -15z m146
-3 c0 -3 -4 -8 -10 -11 -5 -3 -10 -1 -10 4 0 6 5 11 10 11 6 0 10 -2 10 -4z
m-175 -36 c3 -5 -1 -10 -9 -10 -8 0 -18 5 -21 10 -3 6 1 10 9 10 8 0 18 -4 21
-10z m-535 -44 c0 -3 -4 -8 -10 -11 -5 -3 -10 -1 -10 4 0 6 5 11 10 11 6 0 10
-2 10 -4z m390 -96 c0 -5 -2 -10 -4 -10 -3 0 -8 5 -11 10 -3 6 -1 10 4 10 6 0
11 -4 11 -10z m141 -83 c-4 -89 -20 -126 -21 -47 0 65 10 133 19 125 3 -4 4
-39 2 -78z m-108 -31 c-6 -35 18 -123 45 -163 13 -21 13 -23 -2 -23 -18 0 -56
55 -56 82 0 9 -5 18 -12 20 -9 3 -9 17 2 61 14 61 32 79 23 23z m137 -11 c0
-8 -4 -17 -10 -20 -6 -4 -10 5 -10 20 0 15 4 24 10 20 6 -3 10 -12 10 -20z
m320 5 c0 -5 -4 -10 -10 -10 -5 0 -10 5 -10 10 0 6 5 10 10 10 6 0 10 -4 10
-10z m35 -8 c-3 -3 -11 0 -18 7 -9 10 -8 11 6 5 10 -3 15 -9 12 -12z m-618
-39 c-32 -18 -36 -16 -24 11 9 19 14 22 29 12 16 -10 16 -11 -5 -23z m643 -3
c0 -6 -9 -5 -20 2 -11 7 -20 16 -20 21 0 4 9 3 20 -3 11 -6 20 -15 20 -20z
m-21 -28 c10 -10 11 -16 2 -25 -8 -8 -11 -7 -11 5 0 8 -10 23 -22 32 -20 13
-20 15 -3 9 11 -4 26 -13 34 -21z m-1464 -16 c66 -44 80 -120 31 -178 -17 -20
-39 -48 -49 -62 -27 -39 -97 -29 -97 14 0 23 -18 26 -44 7 -17 -12 -131 -15
-142 -4 -5 5 15 113 29 162 15 48 55 74 130 84 59 8 107 0 142 -23z m735 10
c0 -3 -4 -8 -10 -11 -5 -3 -10 -1 -10 4 0 6 5 11 10 11 6 0 10 -2 10 -4z m707
-21 c13 -9 20 -22 17 -30 -9 -23 -21 -18 -38 15 -16 34 -11 37 21 15z m-632
-25 c3 -5 -1 -10 -9 -10 -8 0 -20 -8 -25 -17 -14 -24 -14 -7 -1 18 12 21 25
25 35 9z m623 -29 c3 -8 -1 -12 -9 -9 -7 2 -15 10 -17 17 -3 8 1 12 9 9 7 -2
15 -10 17 -17z m-545 -16 c-3 -8 -12 -15 -19 -15 -12 0 -12 4 -4 20 12 23 32
18 23 -5z m34 3 c-3 -8 -6 -5 -6 6 -1 11 2 17 5 13 3 -3 4 -12 1 -19z m502
-12 c9 -10 7 -19 -9 -37 -17 -20 -21 -22 -30 -9 -7 11 -5 16 6 18 10 2 13 10
9 23 -7 22 7 25 24 5z m-643 -27 c3 -5 -2 -12 -11 -16 -15 -5 -34 10 -35 29 0
9 39 -2 46 -13z m156 4 c19 -17 24 -43 9 -43 -5 0 -11 10 -15 23 -5 18 -8 20
-16 7 -8 -12 -10 -11 -10 8 0 26 7 28 32 5z m455 -49 c-3 -3 -12 -4 -19 -1 -8
3 -5 6 6 6 11 1 17 -2 13 -5z m-657 -24 c0 -5 -2 -10 -4 -10 -3 0 -8 5 -11 10
-3 6 -1 10 4 10 6 0 11 -4 11 -10z m650 0 c0 -16 -48 -108 -60 -115 -5 -3 -10
-15 -10 -25 0 -18 -17 -37 -25 -28 -10 10 20 78 34 78 14 0 14 2 1 10 -12 8
-11 11 8 16 15 4 19 9 12 14 -15 10 5 60 25 60 8 0 15 -5 15 -10z m-363 -92
c-3 -7 -5 -2 -5 12 0 14 2 19 5 13 2 -7 2 -19 0 -25z m263 -113 c0 -7 -7 -15
-15 -19 -8 -3 -15 -12 -15 -20 0 -8 -5 -18 -11 -22 -16 -9 -1 36 19 59 9 11
11 17 4 17 -7 0 -12 5 -12 11 0 8 5 8 15 -1 8 -7 15 -18 15 -25z m-65 -105 c3
-5 1 -10 -4 -10 -6 0 -11 5 -11 10 0 6 2 10 4 10 3 0 8 -4 11 -10z m-545 -140
c9 -4 25 -7 43 -8 11 -1 15 -7 11 -14 -5 -8 -2 -9 11 -4 11 4 22 2 27 -6 14
-22 9 -29 -17 -22 -15 4 -25 2 -25 -5 0 -6 -7 -11 -16 -11 -14 0 -14 3 -4 15
8 9 9 15 2 15 -6 0 -14 -5 -17 -10 -4 -6 -15 -8 -26 -5 -11 4 -19 2 -19 -4 0
-6 -7 -11 -16 -11 -12 0 -14 7 -9 30 4 19 3 30 -4 30 -6 0 -11 5 -11 11 0 8
49 8 70 -1z m112 -92 c-7 -7 -12 -8 -12 -2 0 6 3 14 7 17 3 4 9 5 12 2 2 -3
-1 -11 -7 -17z m29 -41 c-10 -9 -11 -8 -5 6 3 10 9 15 12 12 3 -3 0 -11 -7
-18z m53 -37 c-5 -5 -26 -16 -46 -25 -34 -13 -38 -14 -38 0 0 16 1 16 38 20
13 1 28 7 34 13 7 7 14 9 17 7 2 -3 0 -10 -5 -15z m156 -24 c0 -9 -4 -16 -8
-16 -16 0 -30 22 -25 40 4 17 7 17 19 5 8 -7 14 -21 14 -29z m-23 -38 c-2 -7
-9 -12 -15 -11 -6 2 -9 -4 -6 -12 7 -16 -11 -21 -20 -6 -10 16 6 41 26 41 11
0 18 -5 15 -12z m-137 -7 c0 -6 -4 -13 -10 -16 -5 -3 -10 1 -10 9 0 9 5 16 10
16 6 0 10 -4 10 -9z m135 -113 c19 -40 35 -79 34 -88 0 -12 -79 143 -79 156 0
17 16 -7 45 -68z m74 -148 c24 -46 25 -50 12 -50 -9 0 -41 61 -41 79 0 19 8
12 29 -29z m41 -80 c7 -13 7 -20 1 -20 -6 0 -15 9 -21 20 -7 13 -7 20 -1 20 6
0 15 -9 21 -20z"/>
<path d="M6448 6943 c6 -2 18 -2 25 0 6 3 1 5 -13 5 -14 0 -19 -2 -12 -5z"/>
<path d="M6117 6433 c-4 -3 -7 -13 -7 -22 1 -13 3 -13 11 2 11 19 8 33 -4 20z"/>
<path d="M5144 6813 c-37 -27 3 -63 85 -77 19 -3 39 -14 46 -23 7 -9 19 -14
29 -10 22 9 16 59 -12 97 -20 26 -27 29 -77 27 -30 -1 -62 -7 -71 -14z"/>
<path d="M5590 6065 c0 -16 1 -17 42 -19 26 -2 26 -1 11 16 -20 22 -53 24 -53
3z"/>
<path d="M5667 5999 c7 -7 15 -10 18 -7 3 3 -2 9 -12 12 -14 6 -15 5 -6 -5z"/>
<path d="M5010 5784 c0 -8 5 -12 10 -9 6 4 8 11 5 16 -9 14 -15 11 -15 -7z"/>
<path d="M5157 5779 c7 -7 15 -10 18 -7 3 3 -2 9 -12 12 -14 6 -15 5 -6 -5z"/>
<path d="M5208 5763 c6 -2 18 -2 25 0 6 3 1 5 -13 5 -14 0 -19 -2 -12 -5z"/>
<path d="M3990 4955 c0 -17 22 -45 35 -45 23 0 18 16 -10 34 -14 9 -25 14 -25
11z"/>
<path d="M4017 4884 c-8 -8 1 -24 14 -24 5 0 9 7 9 15 0 15 -12 20 -23 9z"/>
</g>
</svg>
