<?xml version="1.0" standalone="no"?>
<!DOCTYPE svg PUBLIC "-//W3C//DTD SVG 20010904//EN"
 "http://www.w3.org/TR/2001/REC-SVG-20010904/DTD/svg10.dtd">
<svg version="1.0" xmlns="http://www.w3.org/2000/svg"
 width="1024.000000pt" height="1024.000000pt" viewBox="0 0 1024.000000 1024.000000"
 preserveAspectRatio="xMidYMid meet">
<metadata>
Created by potrace 1.16, written by Peter Selinger 2001-2019
</metadata>
<g transform="translate(0.000000,1024.000000) scale(0.100000,-0.100000)"
fill="#000000" stroke="none">
<path d="M5705 9619 c-166 -55 -281 -77 -440 -85 -169 -9 -157 -9 -320 0 -147
8 -296 30 -432 62 -167 39 -330 27 -505 -40 -71 -27 -269 -78 -455 -117 -62
-13 -113 -26 -113 -30 0 -4 -24 -12 -52 -18 -29 -7 -138 -35 -243 -65 -104
-29 -230 -61 -280 -70 -49 -10 -131 -33 -182 -52 -50 -19 -115 -39 -145 -44
-96 -18 -157 -40 -281 -100 -67 -33 -127 -64 -134 -70 -7 -5 -18 -10 -25 -10
-19 0 -586 -278 -663 -325 -38 -24 -92 -54 -120 -67 -27 -13 -52 -26 -55 -29
-3 -3 -106 -40 -230 -82 -348 -117 -440 -152 -558 -211 -116 -58 -146 -85
-162 -146 -8 -29 -6 -48 9 -91 21 -61 69 -161 82 -169 5 -3 40 -72 79 -152 38
-81 109 -211 157 -290 47 -78 109 -190 136 -248 28 -58 54 -107 57 -110 17
-12 125 -241 170 -361 60 -160 70 -176 128 -201 l46 -21 131 23 c71 13 175 27
230 31 55 5 125 13 155 18 30 5 96 10 145 10 50 1 106 5 125 10 19 5 89 16
155 26 66 9 161 23 210 31 57 9 108 11 140 6 l50 -7 3 -45 c2 -25 9 -48 15
-52 16 -10 16 -190 1 -209 -18 -23 -62 -166 -84 -276 -18 -89 -20 -139 -20
-421 0 -243 -4 -339 -15 -399 -11 -56 -15 -149 -15 -333 -1 -183 -5 -273 -15
-320 -21 -97 -21 -1119 0 -1240 21 -122 19 -185 -15 -360 -26 -132 -30 -179
-30 -315 0 -101 -6 -189 -15 -238 -10 -54 -15 -142 -15 -275 0 -109 -5 -213
-10 -232 -17 -57 -33 -413 -34 -757 l-1 -321 31 -39 c45 -55 103 -81 209 -93
50 -6 113 -14 140 -20 28 -5 151 -9 275 -9 129 -1 240 -6 260 -12 19 -6 134
-14 255 -19 274 -12 457 -25 515 -39 25 -6 115 -11 200 -11 97 0 181 -6 225
-15 49 -11 134 -15 285 -15 148 -1 235 -5 280 -15 91 -20 428 -20 533 0 48 9
137 15 225 15 89 0 178 6 225 15 43 8 127 15 185 15 59 0 125 5 147 10 22 6
105 15 185 20 80 5 199 16 265 25 66 9 161 20 210 24 89 9 162 20 304 47 40 8
117 14 170 14 53 1 125 7 161 15 36 8 110 15 165 15 136 1 174 18 210 95 25
51 27 68 32 223 3 101 0 201 -7 252 -6 47 -15 177 -20 290 -4 113 -13 221 -19
240 -6 20 -11 117 -11 231 0 129 -5 224 -15 275 -10 56 -15 185 -19 434 -4
327 -6 361 -26 430 -19 64 -23 110 -29 325 -3 138 -10 256 -15 263 -4 8 -12
84 -17 170 -13 248 -27 432 -38 492 -6 30 -12 104 -15 163 -3 60 -10 115 -16
123 -7 7 -16 60 -21 116 -5 57 -13 121 -19 143 -5 22 -10 99 -10 170 0 73 -7
158 -15 195 -9 40 -14 124 -15 219 0 101 -6 182 -16 233 -15 73 -15 87 0 168
9 48 16 106 16 128 0 84 55 314 80 332 4 3 20 34 36 70 30 68 54 96 92 106 12
3 22 10 22 15 0 13 436 11 485 -2 22 -6 126 -14 230 -19 105 -5 228 -16 275
-24 165 -30 201 -31 248 -7 54 27 111 101 147 187 15 38 43 103 61 144 18 41
46 110 63 152 17 43 35 86 40 95 5 10 78 160 161 333 139 288 229 457 286 535
36 49 84 158 84 191 0 56 -37 95 -125 132 -165 70 -420 172 -432 172 -7 0 -13
4 -13 10 0 5 -91 39 -202 75 -227 74 -347 120 -458 175 -41 21 -115 50 -165
65 -82 25 -243 85 -320 119 -16 8 -46 17 -65 21 -19 3 -101 38 -182 77 -146
68 -152 70 -385 117 -168 34 -263 58 -323 83 -115 48 -232 85 -309 98 -35 6
-71 15 -80 20 -9 5 -68 18 -131 30 -142 27 -370 81 -510 120 -200 56 -352 90
-398 90 -26 -1 -87 -14 -137 -31z m799 -2783 c-20 -67 -34 -88 -51 -80 -10 5
-97 10 -193 12 l-176 3 -22 -64 c-12 -36 -22 -67 -22 -71 0 -10 240 -7 260 4
28 15 32 -2 11 -61 l-18 -54 -104 4 c-57 2 -122 4 -143 5 l-39 1 -34 -99 c-19
-54 -31 -101 -28 -105 4 -3 77 -7 162 -8 123 -2 162 0 186 12 17 8 32 13 35
10 3 -2 -4 -28 -15 -57 l-20 -53 -252 -3 c-138 -1 -251 1 -251 5 0 4 11 18 24
32 15 17 46 92 85 211 76 227 72 218 78 203 5 -13 -114 -383 -128 -397 -5 -6
-9 -16 -9 -23 0 -10 46 -13 220 -13 l220 0 10 26 c6 14 10 26 10 27 0 1 -66 2
-148 1 -182 -1 -232 4 -232 21 0 16 57 193 69 215 7 13 33 14 155 12 80 -2
146 0 146 5 0 4 3 18 6 31 7 23 7 23 -97 22 -181 -2 -179 -2 -179 20 0 10 4
29 9 42 5 13 17 45 26 71 l17 48 199 -3 c206 -3 209 -3 209 38 0 11 -16 14
-67 14 -41 0 -63 4 -57 9 12 12 57 17 112 12 38 -3 42 -5 36 -25z m209 27 c4
-3 -2 -17 -14 -29 -32 -34 -212 -532 -207 -574 3 -24 0 -25 -51 -28 -76 -4
-90 2 -64 31 11 12 40 78 63 147 23 69 65 188 92 265 27 78 46 149 44 161 -3
12 -3 24 1 28 8 8 128 8 136 -1z m-3178 -43 c53 -50 68 -110 44 -180 -12 -32
-10 -34 30 -67 23 -20 48 -48 56 -64 17 -33 20 -115 4 -156 -15 -41 -67 -91
-108 -104 -36 -12 -427 -16 -439 -5 -2 3 0 12 7 20 13 16 12 550 -2 576 -6 13
17 14 187 10 190 -5 195 -6 221 -30z m289 18 c-5 -17 -9 -401 -5 -505 1 -23 2
-23 156 -23 l156 0 17 29 16 29 23 -55 c40 -99 58 -92 -224 -86 -137 3 -249 6
-251 8 -2 2 1 12 7 23 14 27 15 568 1 577 -25 15 -5 25 51 25 57 0 60 -1 53
-22z m3066 -6 c-19 -26 -184 -501 -177 -509 2 -2 73 -5 158 -7 114 -3 163 0
187 10 l34 14 -7 -33 c-4 -17 -14 -44 -21 -59 l-15 -28 -244 0 c-134 0 -246 4
-249 9 -3 4 4 17 15 27 27 25 37 48 129 324 51 149 77 243 74 258 -6 21 -4 22
65 22 l72 0 -21 -28z m-2775 -12 c-4 -6 10 -10 34 -10 22 0 43 -5 46 -11 8
-13 141 -377 161 -440 7 -25 25 -63 39 -83 14 -20 25 -39 25 -41 0 -3 -29 -5
-65 -5 l-65 0 1 38 c0 20 -11 66 -26 102 -22 55 -97 257 -110 298 -3 6 -8 12
-12 12 -14 0 -105 -261 -100 -286 4 -23 2 -24 -49 -24 -29 0 -60 3 -69 6 -14
6 -14 9 3 28 18 19 35 64 122 309 15 42 33 83 39 91 6 7 8 16 4 19 -3 4 1 7
11 7 9 0 14 -4 11 -10z m401 -105 c17 -13 17 -14 2 -15 -10 0 -18 -7 -18 -15
0 -9 -7 -30 -16 -47 -20 -39 -20 -135 1 -184 48 -116 215 -160 331 -88 27 16
64 50 82 74 43 56 52 60 52 20 0 -101 -140 -220 -259 -220 -130 1 -256 86
-296 201 -37 103 -8 271 48 282 42 8 53 7 73 -8z m935 -28 c9 -7 26 -43 39
-81 13 -39 39 -111 60 -160 20 -50 43 -112 50 -138 13 -44 17 -48 45 -48 29 0
32 3 53 68 31 98 85 244 99 267 6 11 14 17 18 14 5 -6 -57 -186 -92 -267 -8
-18 -17 -49 -20 -68 -6 -34 -6 -34 -59 -34 -47 0 -54 3 -54 19 0 11 -27 95
-61 188 -34 92 -66 180 -71 196 -6 16 -17 27 -29 27 -19 0 -25 11 -12 23 9 10
15 8 34 -6z m-82 -159 c35 -90 68 -176 74 -193 5 -16 21 -44 34 -62 26 -35 22
-41 -22 -37 -16 1 -45 3 -63 3 -30 1 -32 3 -26 26 6 24 -1 43 -56 170 -38 87
-60 159 -60 198 0 45 5 52 46 56 6 0 39 -72 73 -161z m-331 130 c9 -16 9 -33
3 -55 -6 -21 -6 -35 0 -39 5 -3 7 -14 4 -25 -4 -11 -2 -19 4 -19 6 0 11 13 11
29 0 43 11 91 22 91 10 0 5 -81 -6 -99 -4 -6 -2 -19 5 -27 10 -12 9 -13 -4 -8
-14 5 -16 -1 -13 -33 3 -39 -10 -83 -26 -83 -13 0 -9 18 5 23 9 3 9 7 0 17 -9
10 -13 8 -17 -11 -8 -37 -2 -84 12 -101 10 -13 9 -18 -4 -29 -9 -7 -14 -22
-11 -36 3 -19 0 -23 -19 -23 -22 0 -23 2 -11 28 6 15 16 30 22 35 6 4 6 10 -3
15 -16 11 -16 209 0 260 7 23 6 37 -2 46 -11 14 -4 66 9 66 4 0 13 -10 19 -22z
m1358 -531 c4 -4 -5 -38 -20 -76 l-27 -69 -29 29 -28 29 -209 0 c-149 0 -212
-3 -221 -12 -18 -18 -16 -162 3 -178 11 -9 61 -11 195 -7 l180 4 0 -59 0 -60
-27 8 c-41 11 -325 13 -346 2 -16 -8 -17 -24 -15 -161 l3 -152 227 -3 226 -2
21 26 c12 15 23 25 25 23 4 -6 56 -138 56 -144 0 -3 -156 -5 -347 -5 l-346 0
19 21 c18 20 19 43 22 375 2 303 1 358 -13 384 l-15 29 132 3 c230 5 527 2
534 -5z m-2788 -18 c52 -14 118 -84 128 -135 8 -42 -2 -100 -24 -138 -17 -28
-17 -29 13 -50 92 -66 131 -140 123 -239 -6 -77 -35 -135 -86 -176 -59 -46
-81 -51 -243 -51 -89 0 -159 -4 -171 -11 -30 -16 -33 -5 -12 53 l19 53 157 1
c146 1 159 3 188 24 40 28 60 75 60 136 0 42 -5 51 -42 89 l-43 42 -110 6
c-60 3 -153 4 -205 4 l-95 -2 1 -70 c0 -38 4 -80 8 -92 8 -23 7 -23 -79 -23
l-86 0 20 26 c20 25 21 39 21 278 0 141 -4 258 -10 266 -6 11 -5 16 5 20 28
10 420 0 463 -11z m833 -3 c41 -17 94 -70 108 -109 13 -35 14 -107 2 -140 -24
-62 -123 -137 -181 -137 -38 0 -43 -26 -14 -77 81 -141 149 -252 175 -285 16
-20 29 -39 29 -42 0 -10 -107 -7 -134 4 -17 6 -26 17 -26 32 -1 13 -43 100
-94 193 l-93 170 -79 3 c-44 1 -84 -1 -91 -6 -17 -11 -21 -339 -4 -369 12 -23
11 -23 -63 -23 l-74 0 13 28 c11 22 14 98 12 387 -1 198 -6 368 -11 378 -8 17
4 17 241 13 186 -4 258 -9 284 -20z m362 2 c-10 -29 -10 -746 0 -773 8 -19 5
-20 -58 -17 -63 4 -65 5 -58 25 11 32 4 747 -8 769 -9 17 -4 18 61 18 70 0 71
-1 63 -22z m562 8 c84 -22 122 -43 174 -91 126 -117 168 -266 121 -427 -29
-101 -158 -234 -254 -263 -71 -21 -175 -20 -192 3 -13 16 -15 16 -25 0 -21
-36 -87 -10 -72 28 6 16 7 16 14 -2 7 -18 7 -18 14 0 5 11 3 21 -6 26 -23 15
-6 20 82 25 120 7 148 13 202 43 75 40 133 126 151 224 11 62 -12 164 -48 211
-47 62 -128 114 -196 128 -52 10 -58 14 -62 38 -10 73 5 82 97 57z m1590 -41
c2 -64 0 -66 -33 -49 -19 10 -64 14 -157 14 -163 0 -194 -12 -211 -80 -10 -38
-9 -50 5 -75 22 -39 75 -53 210 -54 129 -1 172 -14 226 -67 56 -54 80 -129 71
-217 -7 -69 -31 -112 -89 -162 -56 -48 -89 -55 -259 -55 -145 0 -148 0 -171
-26 l-24 -25 -26 61 c-43 99 -52 94 141 88 197 -6 243 3 291 57 17 20 34 47
37 61 9 37 -2 90 -26 124 -38 53 -70 63 -230 68 -178 5 -205 16 -244 94 -15
30 -26 69 -26 92 0 75 63 167 131 192 23 9 91 12 209 11 l174 -2 1 -50z
m-1925 -12 c1 -5 5 -28 9 -52 6 -31 5 -51 -5 -69 -8 -16 -10 -30 -4 -37 5 -6
11 -27 13 -47 2 -20 8 -43 13 -50 6 -7 9 -51 8 -98 -2 -114 -2 -110 -21 -104
-15 5 -15 3 2 -11 17 -14 20 -26 17 -86 -2 -44 2 -76 9 -85 9 -11 8 -18 -5
-32 -9 -10 -16 -25 -15 -33 0 -8 4 -4 10 9 8 21 10 22 24 8 24 -24 -1 -56 -42
-56 l-33 0 0 55 c0 48 -3 57 -22 64 l-23 8 23 7 c12 4 20 11 17 16 -3 5 -13 7
-23 4 -11 -4 -13 -3 -5 3 6 4 14 22 17 38 3 17 3 24 0 18 -3 -7 -10 -13 -15
-13 -6 0 -5 9 1 21 9 16 14 18 26 8 8 -6 14 -7 14 -1 0 12 -31 39 -38 32 -3
-3 -7 13 -9 34 -3 34 -2 38 11 27 14 -12 15 -4 13 70 -2 54 -7 84 -15 87 -9 3
-12 40 -12 133 0 90 3 128 11 124 6 -4 8 -13 5 -21 -3 -7 -1 -16 5 -19 5 -4 7
-11 4 -16 -4 -5 -1 -9 5 -9 6 0 10 6 9 13 -4 31 2 67 11 67 6 0 10 -3 10 -7z"/>
<path d="M6605 6842 c-3 -3 -5 -15 -5 -27 0 -11 -4 -25 -9 -30 -5 -6 -44 -113
-86 -240 -43 -126 -84 -242 -91 -257 -19 -37 -19 -38 21 -38 28 0 35 4 35 19
0 16 87 275 125 371 7 19 26 69 42 110 15 41 29 78 31 81 3 8 -56 18 -63 11z"/>
<path d="M3244 6757 c-3 -8 -4 -41 -2 -73 l3 -59 112 -3 c104 -2 113 -1 132
20 26 27 27 69 2 99 -18 22 -28 24 -130 27 -90 3 -112 1 -117 -11z"/>
<path d="M3238 6450 c-5 -143 -20 -130 147 -130 138 0 145 1 173 25 38 32 49
83 27 125 -27 52 -47 58 -202 62 l-142 3 -3 -85z"/>
<path d="M6726 6597 c-44 -133 -90 -266 -103 -295 -13 -29 -23 -55 -23 -57 0
-3 96 -5 213 -5 218 0 237 3 237 39 0 14 -22 16 -177 13 -97 -2 -179 1 -183 5
-4 4 32 127 81 273 49 146 89 266 89 268 0 1 -12 2 -27 2 -28 0 -29 -5 -107
-243z"/>
<path d="M3270 6016 c-5 -5 -10 -49 -10 -98 0 -76 2 -89 19 -98 26 -13 259
-13 299 1 40 14 62 48 62 96 0 47 -22 81 -64 98 -38 16 -290 17 -306 1z"/>
<path d="M4051 6021 c-15 -10 -21 -166 -7 -189 10 -17 325 -17 361 0 31 14 55
56 55 95 0 36 -37 81 -75 92 -41 11 -317 13 -334 2z"/>
</g>
</svg>
