<?xml version="1.0" standalone="no"?>
<!DOCTYPE svg PUBLIC "-//W3C//DTD SVG 20010904//EN"
 "http://www.w3.org/TR/2001/REC-SVG-20010904/DTD/svg10.dtd">
<svg version="1.0" xmlns="http://www.w3.org/2000/svg"
 width="1024.000000pt" height="1023.000000pt" viewBox="0 0 1024.000000 1023.000000"
 preserveAspectRatio="xMidYMid meet">

<g transform="translate(0.000000,1023.000000) scale(0.100000,-0.100000)"
fill="#000000" stroke="none">
<path d="M5125 10214 c-46 -7 -175 -48 -175 -56 0 -5 -9 -8 -19 -8 -11 0 -23
-4 -26 -10 -3 -5 -14 -10 -24 -10 -9 0 -27 -9 -39 -20 -12 -11 -26 -20 -31
-20 -6 0 -14 -8 -20 -17 -5 -10 -13 -15 -17 -11 -4 4 -19 -1 -34 -12 -16 -11
-38 -20 -49 -20 -12 0 -21 -4 -21 -10 0 -5 -13 -10 -30 -10 -16 0 -30 -4 -30
-10 0 -5 -22 -10 -50 -10 -27 0 -50 -4 -50 -10 0 -5 -18 -10 -39 -10 -22 0
-43 -4 -46 -10 -3 -5 -21 -10 -40 -10 -19 0 -37 -4 -40 -10 -3 -5 -19 -10 -35
-10 -16 0 -32 -4 -35 -10 -3 -5 -17 -10 -31 -10 -13 0 -24 -4 -24 -10 0 -5 -9
-10 -19 -10 -11 0 -23 -4 -26 -10 -3 -5 -15 -10 -26 -10 -10 0 -19 -3 -19 -7
0 -9 -49 -33 -67 -33 -7 0 -13 -4 -13 -10 0 -5 -9 -10 -20 -10 -11 0 -20 -4
-20 -10 0 -5 -9 -10 -20 -10 -11 0 -20 -3 -20 -8 0 -4 -15 -13 -32 -20 -69
-28 -84 -35 -100 -43 -10 -5 -29 -9 -43 -9 -14 0 -25 -4 -25 -10 0 -5 -11 -10
-24 -10 -14 0 -28 -4 -31 -10 -3 -5 -17 -10 -31 -10 -13 0 -24 -4 -24 -10 0
-5 -9 -10 -20 -10 -11 0 -20 -4 -20 -10 0 -5 -9 -10 -20 -10 -11 0 -20 -4 -20
-10 0 -5 -9 -10 -20 -10 -11 0 -20 -4 -20 -10 0 -5 -9 -10 -20 -10 -11 0 -20
-4 -20 -10 0 -5 -6 -10 -13 -10 -7 0 -23 -9 -35 -20 -12 -11 -28 -20 -37 -20
-8 0 -15 -4 -15 -8 0 -5 -12 -15 -27 -23 -16 -8 -35 -22 -44 -31 -9 -10 -23
-18 -30 -18 -8 0 -21 -9 -29 -20 -8 -11 -19 -20 -25 -20 -6 0 -31 -18 -55 -40
-25 -22 -48 -40 -53 -40 -4 0 -21 -13 -39 -30 -17 -16 -35 -30 -40 -30 -5 0
-27 -18 -48 -40 -21 -22 -42 -40 -47 -40 -5 0 -29 -18 -53 -40 -24 -22 -48
-40 -52 -40 -5 0 -38 -29 -73 -65 -36 -36 -70 -65 -75 -65 -5 0 -20 -11 -34
-25 -14 -14 -29 -25 -34 -25 -5 0 -23 -13 -40 -30 -18 -16 -36 -30 -40 -30 -5
0 -22 -12 -38 -27 -16 -16 -49 -44 -74 -63 -58 -45 -368 -356 -406 -406 -16
-22 -31 -41 -34 -44 -3 -3 -17 -21 -30 -40 -13 -19 -32 -42 -42 -51 -10 -9
-18 -21 -18 -28 0 -6 -4 -11 -10 -11 -5 0 -10 -4 -10 -10 0 -9 -19 -35 -47
-65 -7 -8 -13 -16 -13 -19 0 -4 -26 -46 -57 -94 -32 -48 -65 -101 -73 -117 -8
-17 -23 -39 -32 -49 -10 -11 -18 -23 -18 -27 0 -4 -18 -37 -40 -73 -22 -36
-40 -70 -40 -76 0 -5 -4 -10 -8 -10 -5 0 -15 -12 -23 -27 -8 -16 -34 -64 -59
-108 -56 -98 -90 -170 -90 -190 0 -8 -4 -15 -10 -15 -5 0 -10 -11 -10 -24 0
-14 -4 -28 -10 -31 -5 -3 -10 -15 -10 -26 0 -10 -4 -19 -8 -19 -5 0 -15 -22
-22 -50 -7 -27 -18 -50 -22 -50 -5 0 -7 -8 -3 -19 3 -10 -1 -24 -10 -31 -8 -7
-15 -21 -15 -31 0 -11 -4 -19 -8 -19 -5 0 -15 -23 -22 -51 -8 -27 -18 -52 -22
-55 -4 -3 -8 -16 -8 -30 0 -13 -4 -24 -10 -24 -5 0 -10 -13 -10 -30 0 -16 -4
-30 -10 -30 -5 0 -10 -13 -10 -30 0 -16 -4 -30 -9 -30 -5 0 -12 -25 -16 -55
-3 -30 -11 -57 -16 -60 -5 -4 -9 -24 -9 -45 0 -21 -4 -41 -9 -44 -5 -3 -12
-23 -15 -43 -23 -132 -35 -191 -45 -218 -18 -45 -31 -93 -31 -113 0 -11 -4
-24 -10 -27 -5 -3 -10 -43 -10 -89 0 -45 -4 -86 -9 -91 -5 -6 -12 -30 -15 -55
-16 -112 -26 -179 -36 -225 -6 -27 -15 -72 -20 -100 -5 -27 -14 -72 -20 -100
-6 -27 -15 -72 -20 -100 -5 -27 -14 -75 -20 -105 -6 -30 -14 -84 -20 -120 -5
-36 -14 -94 -20 -130 -6 -36 -15 -96 -20 -135 -12 -93 -26 -173 -60 -360 -5
-27 -12 -68 -15 -90 -4 -22 -10 -49 -15 -60 -5 -11 -11 -38 -14 -60 -3 -22
-11 -62 -17 -90 -6 -27 -14 -79 -19 -115 -5 -36 -12 -79 -15 -97 -7 -32 -64
-103 -84 -103 -6 0 -11 -4 -11 -10 0 -5 -5 -10 -11 -10 -15 0 -79 -70 -79 -87
0 -7 -4 -13 -10 -13 -5 0 -10 -11 -10 -24 0 -14 -5 -28 -10 -31 -6 -3 -10 -19
-10 -36 0 -16 -4 -29 -9 -29 -8 0 -15 -68 -27 -250 -3 -47 -9 -94 -14 -105 -5
-11 -11 -72 -14 -135 -8 -179 -18 -290 -27 -290 -4 0 -10 -51 -13 -112 -8
-162 -17 -238 -26 -238 -5 0 -11 -64 -14 -142 -4 -153 -12 -221 -26 -253 -5
-11 -12 -69 -14 -130 -6 -137 -15 -215 -26 -215 -5 0 -11 -42 -14 -93 -6 -121
-16 -187 -27 -187 -5 0 -9 -47 -9 -104 0 -59 -4 -108 -10 -111 -5 -3 -10 -28
-10 -56 0 -27 -4 -49 -10 -49 -6 0 -10 -41 -10 -104 0 -59 -4 -108 -10 -111
-6 -3 -10 -26 -10 -50 0 -24 -4 -47 -10 -50 -6 -3 -10 -50 -10 -105 0 -55 -4
-102 -10 -105 -13 -8 -13 -195 0 -195 6 0 10 -16 10 -35 0 -19 4 -43 9 -53 5
-9 15 -30 22 -47 35 -75 126 -135 205 -135 24 0 45 -4 48 -9 8 -13 72 -21 231
-31 77 -4 167 -14 200 -20 33 -7 128 -15 210 -20 83 -4 175 -13 205 -20 33 -8
191 -16 390 -20 342 -8 438 -15 455 -31 5 -5 183 -9 410 -9 227 0 405 -4 410
-9 19 -18 124 -23 519 -27 265 -3 403 -1 410 6 5 5 33 10 61 10 28 0 55 4 61
10 6 6 373 11 1024 14 970 3 1103 6 1125 27 5 5 107 9 226 9 135 0 220 4 224
10 3 5 23 10 44 10 20 0 41 4 47 10 5 5 176 11 424 13 298 3 429 7 465 17 28
7 118 14 200 17 83 2 159 7 170 13 29 13 91 20 250 30 77 4 167 13 200 20 33
6 121 15 195 20 74 5 162 13 195 20 33 6 114 15 180 20 66 5 147 14 180 20 33
7 168 14 300 17 131 2 244 8 250 13 5 5 83 14 173 21 89 7 162 16 162 20 0 3
13 9 30 12 35 7 110 81 110 108 0 11 5 19 10 19 6 0 10 77 10 210 0 133 -4
210 -10 210 -5 0 -10 23 -10 50 0 28 -4 50 -9 50 -6 0 -12 62 -14 142 -3 79
-10 168 -17 198 -7 30 -14 107 -16 170 -3 63 -9 124 -14 135 -14 30 -21 97
-26 233 -3 67 -9 122 -14 122 -10 0 -20 81 -26 225 -2 61 -9 119 -14 130 -12
27 -20 112 -26 283 -3 78 -9 142 -13 142 -8 0 -15 70 -27 280 -3 52 -9 104
-14 115 -5 11 -11 65 -14 120 -3 55 -10 129 -16 165 -6 36 -15 108 -20 160
-14 145 -21 190 -31 190 -5 0 -9 9 -9 20 0 11 -4 20 -8 20 -5 0 -15 12 -23 28
-8 15 -34 47 -59 72 -25 25 -51 57 -59 73 -8 15 -18 27 -23 27 -4 0 -8 9 -8
20 0 11 -4 20 -10 20 -5 0 -10 14 -10 30 0 17 -4 30 -10 30 -5 0 -10 18 -10
39 0 22 -4 43 -10 46 -5 3 -10 35 -10 71 0 35 -4 64 -9 64 -10 0 -19 64 -27
197 -3 46 -9 83 -14 83 -8 0 -11 24 -25 190 -3 36 -10 74 -15 85 -5 11 -12 49
-14 85 -11 130 -18 180 -27 180 -5 0 -9 29 -9 64 0 36 -4 68 -10 71 -5 3 -10
28 -10 55 0 27 -4 52 -10 55 -5 3 -10 39 -10 80 0 41 -4 77 -10 80 -5 3 -10
28 -10 55 0 27 -4 52 -10 55 -5 3 -10 35 -10 70 0 35 -4 67 -10 70 -5 3 -10
26 -10 50 0 24 -4 47 -10 50 -5 3 -10 35 -10 70 0 35 -4 67 -10 70 -5 3 -10
22 -10 41 0 19 -4 34 -10 34 -5 0 -10 13 -10 29 0 17 -4 33 -10 36 -5 3 -10
21 -10 40 0 19 -4 37 -10 40 -5 3 -10 21 -10 40 0 19 -4 36 -9 39 -5 3 -11 23
-15 43 -13 90 -19 113 -27 113 -5 0 -9 13 -9 29 0 17 -4 33 -10 36 -5 3 -10
17 -10 30 0 13 -4 27 -10 30 -5 3 -10 15 -10 26 0 10 -4 27 -9 37 -13 26 -31
86 -31 105 0 10 -4 25 -9 35 -5 9 -15 37 -22 62 -7 25 -16 47 -19 50 -3 3 -11
23 -18 45 -21 62 -40 104 -100 221 -18 34 -32 71 -32 82 0 12 -4 24 -10 27 -5
3 -10 13 -10 21 0 8 -9 34 -20 56 -11 23 -20 48 -20 55 0 7 -4 13 -10 13 -5 0
-10 9 -10 20 0 11 -4 20 -10 20 -5 0 -10 9 -10 20 0 11 -4 20 -10 20 -5 0 -10
9 -10 20 0 11 -4 20 -9 20 -5 0 -11 8 -14 18 -6 17 -37 72 -47 82 -9 9 -41 65
-58 103 -9 20 -20 37 -24 37 -5 0 -8 9 -8 20 0 11 -4 20 -10 20 -5 0 -10 8
-10 17 0 22 -61 143 -72 143 -4 0 -8 5 -8 11 0 7 -16 34 -35 60 -19 27 -35 56
-35 64 0 8 -4 15 -8 15 -4 0 -16 14 -26 30 -9 17 -27 41 -39 53 -12 13 -33 38
-47 57 -66 93 -197 220 -227 220 -7 0 -13 4 -13 9 0 5 -13 14 -30 21 -16 7
-30 16 -30 21 0 5 -6 9 -12 9 -7 0 -26 12 -43 26 -16 14 -42 33 -57 42 -16 9
-28 20 -28 24 0 4 -9 8 -20 8 -11 0 -20 4 -20 9 0 5 -9 13 -20 16 -11 3 -26
12 -32 18 -7 7 -34 23 -60 36 -27 13 -48 28 -48 33 0 4 -9 8 -20 8 -11 0 -20
5 -20 10 0 6 -9 10 -20 10 -11 0 -20 4 -20 8 0 5 -12 15 -27 23 -16 8 -37 22
-47 32 -11 9 -24 17 -28 17 -5 0 -18 9 -30 20 -12 11 -28 20 -35 20 -7 0 -13
5 -13 10 0 6 -6 10 -13 10 -7 0 -23 9 -35 20 -12 11 -28 20 -37 20 -8 0 -15 5
-15 10 0 6 -8 10 -18 10 -10 0 -24 9 -32 20 -8 11 -20 20 -28 20 -7 0 -22 9
-34 20 -12 11 -28 20 -35 20 -7 0 -13 5 -13 10 0 6 -9 10 -20 10 -11 0 -20 5
-20 10 0 6 -9 10 -20 10 -11 0 -20 5 -20 10 0 6 -9 10 -20 10 -11 0 -20 5 -20
10 0 6 -9 10 -20 10 -11 0 -20 5 -20 10 0 6 -9 10 -20 10 -11 0 -20 4 -20 8 0
5 -12 15 -27 23 -16 8 -71 57 -123 109 -52 53 -111 106 -130 120 -19 14 -48
37 -64 52 -16 16 -33 28 -38 28 -4 0 -22 14 -40 30 -17 17 -36 30 -42 30 -6 0
-18 9 -26 20 -8 11 -22 20 -32 20 -10 0 -18 5 -18 10 0 6 -6 10 -13 10 -7 0
-23 9 -35 20 -12 11 -26 20 -32 20 -6 0 -20 9 -32 20 -12 11 -28 20 -35 20 -7
0 -13 5 -13 10 0 6 -9 10 -20 10 -11 0 -20 5 -20 10 0 6 -9 10 -20 10 -11 0
-20 5 -20 10 0 6 -9 10 -20 10 -11 0 -20 5 -20 10 0 6 -9 10 -20 10 -11 0 -20
5 -20 10 0 6 -9 10 -20 10 -20 0 -29 4 -77 28 -13 7 -32 12 -43 12 -11 0 -20
5 -20 10 0 6 -9 10 -20 10 -11 0 -28 4 -38 9 -16 8 -31 15 -99 43 -18 7 -33
16 -33 20 0 5 -9 8 -19 8 -11 0 -23 5 -26 10 -3 6 -17 10 -31 10 -13 0 -24 5
-24 10 0 6 -9 10 -19 10 -11 0 -23 5 -26 10 -3 6 -15 10 -25 10 -11 0 -35 9
-55 20 -20 11 -44 20 -55 20 -10 0 -22 5 -25 10 -3 6 -16 10 -29 10 -12 0 -26
4 -31 9 -11 10 -193 21 -240 15z"/>
</g>
</svg>
