<?xml version="1.0" standalone="no"?>
<!DOCTYPE svg PUBLIC "-//W3C//DTD SVG 20010904//EN"
 "http://www.w3.org/TR/2001/REC-SVG-20010904/DTD/svg10.dtd">
<svg version="1.0" xmlns="http://www.w3.org/2000/svg"
 width="1024.000000pt" height="1024.000000pt" viewBox="0 0 1024.000000 1024.000000"
 preserveAspectRatio="xMidYMid meet">

<g transform="translate(0.000000,1024.000000) scale(0.100000,-0.100000)"
fill="#000000" stroke="none">
<path d="M115 10228 c-57 -19 -78 -33 -96 -63 -17 -28 -18 -281 -18 -5045 0
-4764 1 -5017 18 -5045 19 -32 43 -47 106 -65 58 -16 9954 -9 10009 7 49 15
74 40 89 89 9 29 12 1282 14 5031 3 4825 2 4993 -15 5025 -19 34 -40 48 -103
67 -47 15 -9959 14 -10004 -1z m7725 -2398 c0 -5 7 -10 15 -10 14 0 14 -3 0
-30 -8 -16 -15 -36 -15 -45 0 -10 -10 -31 -22 -47 -19 -28 -20 -35 -10 -87 6
-31 14 -65 17 -77 5 -17 -1 -25 -29 -42 -20 -12 -36 -25 -36 -30 0 -5 37 -17
83 -27 45 -10 87 -22 92 -26 6 -4 31 -10 58 -14 26 -4 50 -11 53 -16 3 -5 20
-9 38 -9 19 0 39 -7 46 -15 12 -14 0 -15 -111 -9 -68 4 -132 11 -141 15 -9 5
-30 9 -46 9 -26 0 -30 -4 -35 -37 -4 -24 -16 -45 -32 -57 -87 -65 -92 -91 -24
-124 34 -17 46 -18 77 -9 20 6 40 15 43 19 3 5 39 5 80 0 50 -6 76 -6 81 1 4
7 12 6 22 -2 13 -11 25 -9 73 14 71 34 85 39 148 55 94 24 103 24 138 -3 l32
-24 33 22 c17 12 48 38 67 58 27 28 37 33 41 22 5 -13 10 -13 35 1 16 8 29 18
29 23 0 12 60 32 72 25 5 -3 4 -12 -3 -20 -6 -7 -9 -20 -5 -29 3 -9 -3 -19
-15 -26 -24 -13 -90 -83 -103 -110 -6 -12 -19 -19 -36 -19 -15 0 -39 -12 -56
-28 -16 -15 -41 -36 -56 -45 -16 -10 -28 -22 -28 -27 0 -5 12 -13 28 -16 15
-4 38 -17 51 -28 13 -12 39 -34 57 -51 59 -52 63 -55 74 -55 5 0 10 -10 10
-21 0 -22 45 -69 66 -69 16 0 55 -36 47 -44 -3 -3 -19 -6 -35 -6 -15 0 -28 -4
-28 -9 0 -5 -22 -24 -50 -42 -27 -19 -50 -38 -50 -43 0 -13 -63 -66 -79 -66
-9 0 -12 9 -9 32 3 18 1 45 -4 60 -8 21 -6 31 6 44 9 9 16 11 16 4 0 -7 11 -3
28 8 15 10 35 22 45 25 28 11 20 21 -42 52 -52 26 -61 35 -71 70 -21 70 -16
65 -122 117 -10 4 -29 8 -43 8 -28 0 -44 25 -27 42 6 6 8 17 5 25 -4 9 5 18
26 26 43 16 42 41 -1 32 -18 -4 -37 -11 -42 -16 -6 -5 -18 -9 -27 -9 -16 0
-49 -63 -49 -93 0 -7 -18 -31 -40 -55 -22 -23 -40 -51 -40 -61 0 -11 -5 -23
-10 -26 -6 -4 -10 -37 -9 -78 2 -40 -1 -96 -5 -124 -7 -49 -6 -53 12 -53 12 0
22 -9 26 -22 10 -39 7 -58 -10 -58 -8 0 -22 -7 -30 -15 -31 -30 -94 20 -94 75
0 20 4 40 9 45 5 6 12 43 16 84 l7 74 -26 -30 c-14 -17 -26 -36 -26 -42 0 -6
-7 -11 -15 -11 -8 0 -15 -4 -15 -8 0 -4 -18 -27 -40 -51 -41 -44 -50 -44 -25
-1 8 14 14 42 15 63 0 20 4 37 10 37 5 0 12 17 15 38 9 56 27 112 37 112 4 0
8 -7 8 -17 0 -12 7 -8 25 13 14 16 25 32 25 36 0 4 6 13 14 20 19 19 29 55 17
62 -10 7 -84 7 -226 2 -103 -3 -150 -20 -180 -66 -11 -16 -23 -30 -27 -30 -5
0 -8 21 -8 46 0 45 -1 46 -27 40 -40 -10 -66 -44 -57 -75 4 -14 7 -50 8 -79 1
-35 6 -56 16 -62 10 -7 -3 -10 -43 -10 l-59 0 7 74 7 74 -31 18 c-41 24 -40
53 4 98 26 27 43 36 68 36 18 0 37 -4 43 -9 5 -5 19 -5 32 0 18 7 22 16 22 52
0 24 5 48 11 54 13 13 4 33 -15 33 -7 0 -33 22 -58 49 -38 41 -44 53 -40 80 2
19 0 31 -7 31 -7 0 -11 -20 -11 -49 0 -28 -4 -53 -10 -56 -5 -3 -10 -46 -10
-96 0 -72 -3 -89 -15 -89 -9 0 -15 9 -15 23 0 25 -21 77 -32 77 -18 0 -98 -41
-116 -60 -11 -12 -25 -19 -31 -16 -6 4 -40 -7 -77 -24 -36 -16 -70 -30 -75
-30 -5 0 -17 -4 -27 -9 -9 -5 -24 -12 -32 -15 -8 -3 -23 -12 -33 -18 -15 -11
-20 -10 -27 3 -9 15 -17 13 -75 -17 -68 -35 -95 -42 -95 -24 0 13 -47 13 -54
1 -4 -5 -44 -12 -91 -16 -47 -4 -88 -11 -91 -16 -9 -16 -101 -11 -108 6 -4 11
1 15 19 15 13 0 36 5 50 12 26 12 34 28 13 28 -9 0 -9 3 0 12 10 10 14 10 21
0 6 -10 22 -9 77 4 38 8 77 20 86 25 10 5 30 9 46 9 15 0 37 7 48 15 10 8 29
15 42 15 12 0 22 4 22 8 0 4 16 14 35 21 19 7 35 18 35 25 0 7 11 18 25 24 16
8 25 8 25 1 0 -5 11 -2 25 8 36 26 33 60 -6 68 -58 13 -189 -20 -189 -47 0 -5
-10 -8 -22 -8 -25 0 -58 -47 -58 -81 0 -10 -4 -19 -9 -19 -17 0 -26 26 -26 73
1 39 -2 47 -17 47 -10 0 -18 -4 -18 -9 0 -5 -29 -11 -64 -13 -73 -3 -77 7 -13
36 23 11 44 22 47 25 3 3 27 17 55 31 47 24 58 38 83 100 24 59 24 60 -13 60
-19 0 -58 -9 -87 -20 -28 -11 -54 -17 -57 -14 -11 10 95 96 149 121 30 14 58
30 62 36 7 12 32 13 148 3 47 -4 96 -13 110 -21 24 -13 25 -12 37 33 7 26 12
63 13 83 0 40 24 69 41 52 6 -6 10 -46 10 -89 0 -49 4 -81 11 -85 9 -6 9 -17
0 -46 -17 -56 -22 -183 -8 -183 14 0 46 52 46 74 0 9 4 24 9 34 9 18 28 90 42
162 16 78 122 156 154 114 8 -11 15 -30 15 -43 0 -13 5 -52 12 -86 8 -46 15
-62 25 -58 7 3 13 10 13 17 0 7 19 33 43 59 41 46 103 77 152 77 19 0 31 16
65 85 38 76 60 104 60 75z m293 -191 c-14 -13 -191 -99 -205 -99 -7 0 -19 9
-26 21 -11 17 -10 23 10 39 13 11 35 19 50 20 15 0 30 5 33 10 3 6 17 10 29
10 13 0 39 6 57 14 25 10 38 11 47 4 7 -6 9 -15 5 -19z m-4693 -195 c0 -12 -7
-24 -15 -28 -8 -3 -15 -11 -15 -18 0 -14 96 -9 308 16 86 10 105 10 114 -2 9
-10 9 -16 -1 -22 -13 -7 -24 -60 -22 -105 0 -11 -5 -33 -13 -50 -18 -40 -36
-98 -36 -117 0 -8 -11 -32 -25 -52 -14 -20 -25 -46 -25 -57 0 -21 12 -20 89 3
25 8 35 7 41 -3 7 -10 16 -10 49 1 23 7 44 11 47 7 10 -10 -33 -45 -72 -57
-22 -7 -48 -16 -59 -21 -18 -7 -97 -21 -200 -36 -22 -3 -43 -10 -46 -16 -8
-12 -69 13 -69 28 0 6 9 17 20 25 11 8 20 18 20 22 0 4 -9 8 -20 8 -11 0 -20
-4 -20 -9 0 -4 -38 -11 -84 -14 -47 -3 -99 -13 -115 -22 -18 -9 -31 -11 -31
-5 0 5 -6 10 -14 10 -25 0 -27 17 -6 55 11 19 20 40 20 46 0 6 7 26 15 45 8
19 22 49 30 68 8 19 15 39 15 45 0 6 5 11 10 11 6 0 10 8 10 18 1 30 26 55 50
47 18 -6 20 -12 15 -36 l-7 -30 76 2 c42 1 80 -1 84 -5 13 -13 -42 -46 -78
-46 -78 -1 -109 -11 -125 -43 -8 -16 -15 -36 -15 -44 0 -7 -4 -13 -10 -13 -5
0 -10 -11 -10 -25 l0 -25 110 1 c99 1 110 3 110 20 0 10 5 21 10 24 6 3 10 15
10 25 0 17 8 39 44 120 6 14 15 28 21 32 6 5 5 12 -3 20 -31 31 10 91 52 75
20 -8 21 -41 1 -61 -8 -8 -15 -24 -15 -36 0 -23 -43 -165 -66 -218 -18 -42
-18 -52 1 -52 8 0 15 3 15 8 0 4 10 12 21 17 25 12 44 62 54 142 4 31 11 63
15 72 23 44 40 91 40 109 0 11 4 22 9 24 4 2 12 13 15 26 5 16 3 22 -8 22 -8
0 -17 -4 -20 -9 -3 -4 -38 -11 -77 -15 -95 -9 -199 -29 -199 -38 0 -14 -47 -9
-60 7 -6 8 -9 23 -5 35 7 23 -12 28 -21 5 -5 -12 -15 -14 -43 -9 -60 11 -65
22 -34 82 23 43 32 52 50 49 12 -2 27 -1 33 3 19 12 60 -13 60 -36z m-348 -91
c1 -21 1 -53 0 -72 -1 -19 3 -40 8 -46 6 -7 12 -34 16 -61 7 -62 25 -134 33
-134 7 0 71 199 71 222 0 8 4 18 10 24 14 14 80 5 87 -12 3 -7 -7 -37 -21 -66
-14 -28 -26 -59 -26 -67 0 -9 -7 -29 -15 -45 -8 -15 -15 -36 -15 -45 0 -9 -4
-21 -9 -26 -5 -6 -14 -27 -21 -48 -6 -20 -21 -42 -33 -49 -12 -6 -24 -14 -27
-17 -6 -7 -48 -31 -55 -31 -3 0 -5 10 -5 23 0 13 -4 27 -9 33 -4 5 -14 44 -21
86 -7 43 -19 83 -26 89 -8 6 -14 21 -14 33 0 11 -6 39 -14 61 -7 22 -14 68
-15 102 -2 69 9 82 67 83 30 0 32 -2 34 -37z m-418 8 c3 -5 18 -12 33 -16 35
-8 43 -21 43 -67 0 -20 5 -40 11 -44 6 -3 8 -17 5 -29 -7 -26 1 -55 15 -55 5
0 9 7 9 15 0 18 31 20 48 3 19 -19 14 -37 -15 -66 -32 -31 -52 -95 -53 -168 0
-45 -3 -52 -26 -63 -14 -6 -30 -9 -35 -6 -12 8 -12 38 0 51 5 5 13 27 17 49 7
37 6 39 -10 22 -10 -9 -24 -17 -32 -17 -8 0 -14 -9 -14 -21 0 -11 -6 -27 -14
-35 -13 -12 -15 -11 -18 8 -2 19 -12 25 -50 32 -47 9 -48 10 -47 45 1 20 4 27
6 16 2 -11 15 -25 28 -31 33 -16 45 1 54 76 7 58 21 94 21 53 0 -25 25 -49 35
-33 4 6 4 28 0 50 -5 28 -13 41 -28 46 -12 4 -33 15 -46 25 -33 27 -52 24 -84
-12 -27 -32 -34 -55 -18 -61 5 -1 12 -21 15 -43 3 -22 3 -31 -1 -20 -3 11 -10
23 -17 27 -6 4 -11 30 -11 57 0 45 3 53 40 85 33 29 37 37 25 46 -8 5 -23 10
-32 10 -11 0 -15 5 -12 15 4 8 10 15 16 15 5 0 21 11 36 25 27 25 94 35 106
16z m-54 -193 c0 -14 -45 -38 -71 -38 -12 0 -16 8 -15 25 1 23 5 25 44 25 27
0 42 -4 42 -12z m4655 -108 c3 -5 14 -10 24 -10 10 0 36 -20 58 -44 36 -41 39
-47 37 -102 -2 -73 -19 -141 -41 -162 -15 -15 -16 -12 -9 46 9 82 -12 151 -52
170 -36 18 -112 26 -156 18 -30 -6 -42 -17 -71 -62 -19 -30 -35 -61 -35 -69 0
-8 -7 -15 -15 -15 -8 0 -15 9 -15 20 0 11 5 20 12 20 6 0 9 3 5 6 -10 10 -67
-7 -67 -21 0 -8 -7 -11 -20 -8 -11 3 -20 0 -20 -6 0 -15 -70 -44 -103 -42 -26
1 -128 -45 -135 -61 -2 -5 -8 -8 -13 -8 -17 0 -8 25 21 59 17 18 30 38 30 44
0 14 81 87 97 87 7 0 13 6 13 13 0 17 56 34 139 42 37 4 76 14 90 24 31 22
116 51 147 51 13 0 26 5 29 10 3 6 15 10 25 10 10 0 22 -4 25 -10z m-5295 -51
c0 -5 -7 -9 -15 -9 -8 0 -15 7 -15 15 0 9 6 12 15 9 8 -4 15 -10 15 -15z m-50
-7 c0 -19 38 -48 58 -44 6 2 12 -4 12 -13 0 -17 -21 -20 -35 -6 -6 5 -23 7
-38 4 -21 -4 -26 -10 -22 -24 6 -17 1 -19 -43 -19 -36 0 -52 4 -56 15 -3 9 1
18 9 21 8 4 15 10 15 16 0 5 12 22 28 38 31 33 72 40 72 12z m560 -42 c0 -14
-31 -20 -71 -14 -57 9 -48 22 16 22 30 0 55 -4 55 -8z m5309 -17 c53 -39 72
-64 69 -88 -3 -20 -7 -21 -71 -8 -15 3 -34 0 -42 -7 -20 -17 -19 -49 3 -56 9
-3 25 -10 34 -15 10 -5 27 -9 37 -9 28 0 36 -18 17 -38 -8 -10 -21 -35 -28
-57 -14 -42 -47 -61 -49 -28 0 10 -3 13 -6 6 -6 -15 -43 -17 -43 -3 0 6 5 10
10 10 15 0 12 19 -4 36 -17 16 -66 19 -66 4 0 -5 6 -10 14 -10 7 0 19 -7 26
-15 10 -13 9 -15 -9 -15 -11 0 -21 -4 -21 -10 0 -5 10 -10 23 -10 12 0 29 -5
37 -10 25 -17 -8 -32 -56 -26 -23 3 -44 3 -48 -1 -3 -3 10 -21 29 -39 37 -34
43 -50 23 -56 -6 -2 -8 -10 -4 -17 6 -9 13 -8 28 6 21 18 21 18 16 -9 -6 -35
-5 -35 26 -1 30 32 44 24 49 -26 2 -18 10 -37 17 -41 10 -6 10 -16 -4 -49 -9
-25 -16 -70 -16 -111 0 -40 -4 -70 -10 -70 -5 0 -10 -19 -10 -42 0 -24 -7 -51
-14 -60 -16 -22 -30 -23 -22 -3 3 10 1 15 -7 14 -18 -4 -80 12 -94 23 -7 6
-13 32 -13 58 0 25 -3 50 -7 53 -7 8 -16 61 -15 92 4 167 1 308 -8 340 -21 73
-22 91 -7 141 37 117 47 133 107 161 40 19 71 15 109 -14z m-5212 -77 c-4 -9
-11 -16 -17 -16 -15 0 -26 33 -12 38 7 2 12 11 13 20 0 13 3 12 11 -5 6 -12 8
-29 5 -37z m243 33 c0 -5 -4 -9 -10 -9 -5 0 -10 7 -10 16 0 8 5 12 10 9 6 -3
10 -10 10 -16z m-1025 -49 c-16 -16 -32 -30 -37 -30 -4 0 4 14 19 30 14 17 31
30 37 30 5 0 -3 -13 -19 -30z m625 10 c0 -5 -5 -10 -11 -10 -5 0 -7 5 -4 10 3
6 8 10 11 10 2 0 4 -4 4 -10z m5875 -10 l20 -8 -20 -7 c-11 -4 -26 -9 -32 -11
-7 -2 -13 -13 -13 -24 0 -29 70 -29 88 0 20 33 29 16 36 -76 6 -89 1 -110 -40
-151 -15 -15 -104 -18 -104 -3 0 5 -10 19 -23 32 -25 25 -59 106 -51 119 3 5
11 9 18 9 19 0 46 44 37 59 -5 8 -18 10 -34 5 -25 -6 -27 -4 -27 26 0 25 3 30
13 23 6 -6 24 -12 38 -15 22 -4 25 -1 21 14 -3 14 1 18 24 17 16 0 38 -4 49
-9z m-5735 -16 c8 -8 16 -30 19 -49 4 -25 10 -32 19 -26 7 4 14 17 15 29 1 16
4 18 14 10 7 -6 13 -17 13 -25 0 -9 6 -13 15 -10 8 4 17 2 20 -3 4 -6 17 -10
31 -10 17 0 24 -5 24 -19 0 -11 -4 -22 -8 -25 -5 -3 -17 -39 -27 -81 -9 -41
-21 -75 -26 -75 -5 0 -9 -9 -9 -21 0 -48 -63 -60 -107 -20 -10 9 -31 22 -47
29 -27 12 -28 15 -22 58 3 25 9 50 12 56 4 6 8 38 10 71 2 33 8 65 13 70 6 6
11 21 11 34 0 27 12 30 30 7z m320 1 c0 -8 9 -19 21 -25 12 -7 18 -18 15 -26
-4 -12 -1 -14 14 -9 15 5 23 0 32 -19 6 -14 17 -26 24 -26 8 0 11 -6 8 -15 -8
-19 -25 -19 -69 2 -22 11 -38 26 -42 42 -3 14 -15 34 -25 45 -24 26 -23 46 2
46 11 0 20 -7 20 -15z m4356 -7 c6 -21 -9 -40 -40 -51 -20 -8 2 -19 38 -19
l35 0 -6 -51 c-3 -29 -7 -54 -9 -56 -8 -9 -34 23 -34 40 0 21 -8 23 -29 10
-12 -8 -12 -12 -2 -25 7 -8 10 -20 6 -26 -5 -7 2 -9 20 -4 21 5 26 3 23 -6 -8
-26 -34 -34 -66 -21 -24 10 -35 24 -47 62 -18 53 -14 69 16 69 21 0 26 26 7
33 -7 2 -11 6 -8 9 34 29 73 58 80 58 5 0 12 -10 16 -22z m-5276 -63 c0 -3 -7
-17 -17 -31 -18 -27 -34 -16 -26 17 5 16 43 29 43 14z m5500 -45 c0 -5 11 -12
24 -16 33 -8 52 -47 38 -78 -9 -19 -8 -25 4 -30 19 -7 18 -46 -2 -46 -10 0
-13 -6 -9 -19 4 -13 -2 -23 -19 -35 -29 -18 -56 -21 -56 -5 0 11 -48 79 -63
90 -9 7 13 49 25 49 17 0 6 18 -18 28 -22 11 -24 14 -10 27 8 8 23 15 34 15
11 0 22 7 26 15 6 17 26 21 26 5z m-4580 -20 c0 -13 -7 -20 -20 -20 -23 0 -26
10 -8 28 18 18 28 15 28 -8z m4170 -33 c0 -7 12 -20 28 -29 25 -16 25 -17 6
-18 -27 0 -46 -22 -38 -43 3 -9 19 -20 35 -26 29 -10 35 -27 20 -64 -6 -17 -8
-17 -20 -3 -15 18 -51 22 -51 6 0 -5 6 -10 14 -10 13 0 26 -20 26 -41 0 -5 -6
-9 -14 -9 -8 0 -16 -7 -20 -15 -4 -10 1 -14 16 -12 33 3 31 -17 -3 -32 -24
-10 -36 -11 -55 -2 -56 26 -104 43 -104 36 0 -5 36 -41 82 -81 19 -17 38 -42
41 -56 4 -14 16 -28 28 -31 15 -4 20 -11 15 -22 -4 -12 0 -18 13 -22 11 -3 22
-11 25 -19 10 -25 -59 -16 -109 13 -25 16 -45 31 -45 35 0 5 -16 25 -35 45
-19 20 -35 43 -35 50 0 7 -4 13 -10 13 -12 0 -13 90 -1 109 5 8 23 14 40 14
30 0 31 2 25 34 -7 36 15 73 43 73 16 0 43 24 43 38 0 5 -9 12 -20 15 -28 7
-25 29 8 49 33 20 52 22 52 5z m-4091 -47 c-20 -36 -49 -54 -49 -32 0 25 34
72 51 72 20 0 20 -1 -2 -40z m101 -60 c0 -51 -19 -110 -35 -110 -10 0 -15 -10
-15 -29 0 -16 -7 -45 -15 -64 -8 -20 -15 -48 -15 -63 0 -14 -9 -38 -19 -53
-11 -15 -23 -39 -26 -54 -4 -15 -13 -27 -21 -27 -18 0 -18 15 1 34 16 16 20
36 6 36 -4 0 -8 18 -8 40 0 22 4 40 8 40 5 0 9 7 9 15 0 15 76 145 91 155 4 3
3 27 -3 54 l-10 48 -19 -28 c-10 -16 -19 -35 -19 -42 0 -25 -31 -80 -48 -87
-14 -5 -15 -4 -4 6 6 7 12 23 12 36 0 13 4 31 10 41 5 9 21 44 36 77 14 33 31
63 37 67 16 10 46 -49 47 -92z m4263 61 c21 -35 21 -41 4 -41 -21 0 -50 37
-44 55 9 22 21 18 40 -14z m-553 -41 c0 -16 7 -35 15 -42 57 -47 80 -79 58
-78 -15 1 -43 27 -43 40 0 7 -3 11 -6 7 -4 -3 -2 -19 4 -36 12 -35 5 -71 -14
-71 -9 0 -14 11 -14 29 0 17 -5 33 -11 37 -6 3 -9 15 -6 25 6 23 -6 25 -26 5
-11 -11 -17 -12 -26 -3 -8 8 -11 8 -11 -1 0 -7 -9 -12 -20 -12 -12 0 -34 -7
-50 -15 -17 -9 -30 -12 -30 -8 0 12 153 153 167 153 8 0 13 -12 13 -30z
m-3960 -10 c0 -4 -6 -10 -14 -13 -10 -4 -12 0 -9 14 5 18 23 18 23 -1z m4368
-27 l23 -36 -23 7 c-13 3 -26 6 -30 6 -5 0 -8 14 -8 30 0 39 10 37 38 -7z
m-4265 -3 c-3 -10 -12 -25 -21 -32 -13 -11 -14 -10 -7 12 6 20 21 39 32 40 0
0 -1 -9 -4 -20z m-33 -60 c0 -5 -5 -10 -11 -10 -5 0 -7 5 -4 10 3 6 8 10 11
10 2 0 4 -4 4 -10z m-803 -22 c-3 -8 -6 -5 -6 6 -1 11 2 17 5 13 3 -3 4 -12 1
-19z m6233 -18 c0 -5 -6 -15 -13 -22 -7 -7 -18 -25 -24 -40 -7 -16 -17 -28
-21 -28 -14 0 -1 52 21 82 19 25 37 29 37 8z m-758 -39 c-5 -3 -12 -13 -15
-21 -4 -12 -6 -11 -6 3 -1 10 4 28 11 40 11 20 12 21 16 3 2 -10 0 -21 -6 -25z
m378 4 c0 -9 -6 -12 -15 -9 -8 4 -12 10 -9 15 8 14 24 10 24 -6z m-5353 -21
c8 -21 -17 -92 -35 -99 -20 -7 -23 -3 -33 47 -6 35 -5 45 9 56 22 17 51 15 59
-4z m5305 -16 c-6 -6 -15 -8 -19 -4 -4 4 -1 11 7 16 19 12 27 3 12 -12z m168
-7 c0 -11 -4 -23 -10 -26 -5 -3 -10 -17 -10 -31 0 -14 -4 -22 -10 -19 -14 9
-13 68 2 83 17 17 28 15 28 -7z m-5290 -1 c0 -5 -5 -10 -11 -10 -5 0 -7 5 -4
10 3 6 8 10 11 10 2 0 4 -4 4 -10z m4698 -31 c1 -32 -21 -50 -40 -31 -9 9 -8
18 2 37 18 34 37 32 38 -6z m1136 9 c9 -34 8 -38 -9 -38 -8 0 -15 -2 -15 -4 0
-2 -3 -11 -6 -20 -4 -11 -1 -16 10 -16 23 0 20 -21 -4 -27 -25 -7 -25 -11 3
-34 12 -10 16 -18 10 -19 -7 0 -13 -7 -13 -15 0 -18 -16 -20 -26 -3 -26 42 3
196 37 198 4 0 9 -10 13 -22z m-1244 -28 c9 0 24 -50 17 -57 -11 -11 -37 32
-36 60 1 18 3 24 6 15 2 -10 8 -18 13 -18z m-605 -47 c-33 -43 -73 -73 -99
-73 -6 0 -24 -7 -39 -15 -23 -11 -32 -12 -48 -2 -24 15 -24 27 0 27 11 0 26 7
35 15 8 8 19 15 25 15 5 0 18 10 28 23 16 20 60 45 103 59 31 10 29 -4 -5 -49z
m-105 7 c0 -5 -7 -10 -15 -10 -8 0 -15 5 -15 10 0 6 7 10 15 10 8 0 15 -4 15
-10z m260 -44 c0 -16 -3 -18 -9 -7 -6 9 -10 10 -16 2 -4 -7 -1 -18 5 -26 18
-22 -4 -18 -24 4 -9 10 -14 25 -10 35 4 10 1 16 -9 16 -8 0 -17 -6 -20 -12 -2
-7 -8 -10 -12 -6 -11 11 4 28 25 28 10 0 22 5 25 11 10 15 45 -20 45 -45z
m1130 4 c0 -16 -4 -30 -9 -30 -5 0 -12 -12 -14 -27 -2 -16 -5 -6 -6 23 0 28 2
54 6 57 14 15 23 6 23 -23z m-5379 -70 c14 0 11 -20 -6 -36 -13 -14 -15 -8
-13 48 1 42 3 50 5 26 2 -21 8 -38 14 -38z m4889 55 c0 -9 -6 -12 -15 -9 -8 4
-15 10 -15 15 0 5 7 9 15 9 8 0 15 -7 15 -15z m-26 -40 c3 -8 2 -15 -3 -15 -5
0 -14 7 -21 15 -10 12 -10 15 3 15 8 0 17 -7 21 -15z m-4947 -36 c0 -22 5 -45
12 -52 6 -6 11 -19 11 -28 0 -10 6 -20 13 -23 6 -3 3 -5 -7 -3 -22 2 -54 51
-55 85 -1 17 17 62 25 62 1 0 1 -18 1 -41z m-80 -14 c-4 -8 -11 -15 -17 -15
-14 0 -13 27 3 33 16 6 21 1 14 -18z m423 9 c0 -8 -4 -12 -10 -9 -5 3 -10 10
-10 16 0 5 5 9 10 9 6 0 10 -7 10 -16z m4036 -9 c-16 -17 -36 -20 -36 -6 0 8
17 16 43 20 5 0 2 -6 -7 -14z m-5058 -32 c15 -10 33 -23 40 -30 19 -18 15 -77
-8 -98 -11 -10 -22 -26 -25 -36 -7 -22 -63 -27 -71 -6 -3 9 -23 12 -70 9 -61
-4 -66 -3 -61 14 3 11 9 40 12 65 8 58 12 64 55 82 47 21 95 21 128 0z m5622
1 c0 -8 -4 -12 -10 -9 -5 3 -10 10 -10 16 0 5 5 9 10 9 6 0 10 -7 10 -16z
m-4617 -41 c-10 -21 -25 -50 -35 -65 -10 -14 -18 -33 -18 -42 0 -22 -52 -104
-57 -90 -2 6 9 37 25 70 16 32 40 82 53 111 13 29 30 52 36 53 9 0 8 -10 -4
-37z m4052 21 c-9 -9 -19 -13 -23 -10 -3 4 0 11 8 16 24 15 33 11 15 -6z
m1655 -25 c0 -12 -5 -16 -15 -13 -8 4 -15 17 -15 31 0 22 2 24 15 13 8 -7 15
-21 15 -31z m-6147 6 c-5 -16 -16 -19 -26 -9 -7 8 16 33 25 28 4 -3 5 -11 1
-19z m5237 -16 c0 -23 5 -32 20 -36 33 -9 37 -55 13 -155 -13 -54 -14 -72 -5
-93 23 -50 13 -79 -24 -69 -17 5 -19 13 -16 94 3 67 0 94 -11 110 -16 24 -12
56 11 83 14 15 13 17 -6 17 -23 0 -27 15 -16 58 9 34 34 28 34 -9z m-5130 -51
c0 -10 -12 -10 -28 0 -7 5 -10 16 -6 26 6 15 7 15 20 -1 7 -10 14 -21 14 -25z
m-120 11 c0 -5 -7 -9 -15 -9 -8 0 -15 7 -15 15 0 9 6 12 15 9 8 -4 15 -10 15
-15z m340 -172 c0 -15 -29 -57 -30 -42 0 6 3 20 6 33 7 24 24 31 24 9z m-381
-185 c19 -9 37 -23 39 -31 3 -8 0 -11 -7 -7 -6 4 -33 7 -61 8 -46 0 -50 2 -50
24 0 29 28 31 79 6z m81 -117 c-14 -16 -40 -20 -40 -6 0 10 17 19 39 20 11 1
11 -2 1 -14z m130 5 c0 -10 -8 -22 -38 -55 -11 -12 -10 -20 5 -47 10 -18 21
-34 26 -36 11 -5 9 -42 -3 -42 -5 0 -13 12 -16 28 -4 15 -16 40 -27 56 -15 21
-17 31 -9 34 7 2 12 12 12 23 0 10 5 19 10 19 6 0 10 7 10 15 0 8 7 15 15 15
8 0 15 -5 15 -10z m5240 -54 c0 -3 -4 -8 -10 -11 -5 -3 -10 -1 -10 4 0 6 5 11
10 11 6 0 10 -2 10 -4z m-5196 -193 c19 -37 20 -43 6 -43 -10 0 -50 72 -50 90
0 17 24 -10 44 -47z m2384 -1697 c-5 -22 -7 -53 -4 -69 3 -16 1 -38 -5 -50
-10 -17 -30 -94 -54 -204 -3 -13 -1 -23 5 -23 5 0 10 4 10 9 0 5 8 12 19 16
10 3 26 26 36 50 9 25 20 45 25 45 4 0 11 11 14 25 4 14 18 50 31 80 14 29 25
63 25 74 0 12 5 21 10 21 6 0 10 9 10 20 0 10 10 25 23 31 12 6 32 20 43 31
16 14 33 18 65 16 l44 -3 -1 -107 c-1 -71 -5 -113 -14 -123 -24 -29 25 -17 51
13 55 60 112 102 140 102 15 0 31 5 34 11 4 6 19 10 33 9 57 -4 71 0 78 23 4
12 10 24 14 27 4 3 23 31 43 63 36 56 57 72 57 42 0 -9 6 -12 15 -9 21 8 19
-8 -5 -34 -11 -12 -20 -24 -20 -28 0 -3 -6 -20 -14 -37 -19 -42 -46 -132 -46
-151 0 -10 26 0 89 35 49 27 103 52 121 54 17 2 46 15 64 29 33 25 76 26 76 2
0 -6 -32 -30 -70 -54 -38 -24 -86 -59 -106 -78 -20 -18 -41 -34 -46 -34 -4 0
-16 -4 -26 -9 -9 -5 -35 -17 -57 -27 -22 -11 -41 -22 -43 -26 -2 -5 -9 -8 -17
-8 -7 0 -18 -6 -24 -14 -9 -10 7 -32 74 -102 47 -49 85 -94 85 -100 0 -6 41
-53 90 -105 83 -85 105 -119 80 -119 -5 0 -10 5 -10 10 0 6 -7 10 -15 10 -8 0
-15 4 -15 8 0 4 -12 15 -27 25 -16 9 -46 32 -68 52 -22 19 -43 35 -46 35 -3 0
-21 15 -40 33 -54 51 -111 97 -121 97 -5 0 -13 -11 -17 -24 -11 -27 -54 -76
-68 -76 -5 0 -18 -7 -29 -16 -18 -14 -17 -15 22 -11 31 4 43 1 52 -13 9 -15 7
-21 -11 -34 -14 -10 -18 -19 -11 -22 8 -3 6 -17 -7 -44 -11 -21 -19 -55 -19
-75 0 -21 -7 -49 -15 -63 -8 -15 -28 -66 -43 -113 -15 -47 -38 -95 -50 -107
-12 -12 -22 -28 -22 -36 0 -8 -5 -16 -12 -18 -6 -2 -9 -11 -5 -20 5 -13 13
-15 44 -7 21 5 52 9 70 9 17 0 33 6 36 13 3 9 9 8 23 -5 14 -12 31 -15 67 -11
26 3 47 10 47 14 0 15 17 10 24 -6 4 -10 -3 -20 -19 -27 -32 -14 -32 -28 -1
-28 25 0 51 -19 58 -42 3 -9 23 -3 65 20 35 18 68 29 77 26 9 -3 37 4 62 16
50 23 78 16 50 -13 -9 -9 -16 -19 -16 -24 0 -4 -13 -14 -28 -21 -16 -7 -44
-26 -62 -42 -24 -22 -39 -28 -57 -24 -12 4 -23 2 -23 -4 0 -5 -11 -13 -25 -16
-14 -4 -25 -11 -25 -16 0 -6 -11 -10 -25 -10 -27 0 -35 -27 -12 -36 8 -3 31
-28 53 -57 21 -29 47 -61 57 -71 9 -11 17 -28 17 -39 0 -10 19 -36 42 -58 41
-38 41 -39 17 -39 -29 0 -83 -24 -114 -50 -11 -9 -40 -25 -65 -35 -25 -11 -47
-22 -50 -25 -12 -14 -81 -40 -107 -40 -15 0 -39 -9 -53 -20 -25 -20 -60 -27
-60 -12 0 9 29 52 45 67 42 41 105 84 110 75 3 -6 21 0 43 14 20 12 63 31 95
41 31 10 57 21 57 24 0 4 -22 24 -50 45 -27 21 -50 43 -50 50 0 25 -93 126
-116 126 -19 0 -18 26 3 61 13 21 25 29 46 29 46 0 27 25 -22 28 -36 3 -46 -1
-70 -27 -25 -27 -71 -102 -71 -116 0 -3 29 -5 65 -5 60 0 66 -2 77 -25 6 -14
9 -27 7 -30 -3 -2 -47 -10 -99 -16 -52 -7 -100 -16 -107 -21 -14 -11 -63 -114
-63 -133 0 -19 -1 -19 60 5 30 12 74 20 108 20 53 0 57 -2 58 -24 2 -22 -5
-26 -85 -46 -105 -26 -141 -36 -161 -44 -23 -9 -51 19 -52 52 -1 29 10 61 48
139 12 24 17 43 12 43 -10 0 -68 -42 -108 -77 -14 -13 -30 -23 -37 -23 -7 0
-13 -4 -13 -9 0 -5 -8 -11 -17 -15 -10 -3 -49 -24 -88 -46 -38 -22 -77 -43
-85 -46 -64 -23 -105 -52 -110 -77 -3 -15 -13 -36 -24 -48 -21 -25 -24 -107
-6 -169 7 -25 7 -36 -3 -42 -8 -5 -14 0 -18 15 -3 12 -11 21 -17 20 -6 -2 -17
16 -23 40 -6 23 -19 62 -28 87 -8 25 -15 52 -13 60 1 8 -7 40 -18 70 -11 30
-20 63 -20 72 0 10 -4 26 -9 36 -23 46 -41 95 -41 112 0 11 -7 20 -15 20 -9 0
-15 -9 -15 -25 0 -38 -83 -114 -175 -159 -65 -32 -91 -39 -145 -41 -63 -2
-137 -15 -208 -36 -25 -8 -35 -7 -47 5 -20 20 -19 26 5 26 25 0 100 32 100 42
0 5 15 8 33 8 17 0 45 7 61 15 15 8 39 15 52 15 31 0 137 53 163 81 11 13 26
19 35 16 19 -7 56 29 56 54 0 10 -9 21 -21 24 -37 12 -125 -5 -159 -30 -18
-13 -36 -22 -41 -20 -9 6 -49 -61 -49 -83 0 -11 -3 -13 -11 -5 -5 5 -11 33
-11 62 -1 51 -6 59 -23 42 -6 -5 -31 -11 -57 -14 -37 -3 -48 -1 -48 9 0 8 7
14 15 14 8 0 15 5 15 10 0 6 7 10 15 10 14 0 61 25 75 40 9 10 50 30 60 30 16
0 90 34 90 42 0 3 13 9 28 13 28 6 102 76 102 95 0 13 -41 13 -73 1 -13 -5
-30 -23 -37 -40 -7 -19 -29 -40 -56 -55 -47 -26 -54 -20 -29 28 8 15 15 32 15
37 0 12 -67 12 -72 0 -1 -4 -20 -11 -40 -15 -32 -6 -37 -4 -32 9 3 8 9 15 13
15 4 0 21 13 37 29 17 16 50 38 75 47 24 10 50 24 58 32 15 14 79 12 140 -5
24 -6 24 -6 17 48 -15 118 -23 165 -34 192 -7 16 -12 43 -12 61 0 17 -5 37
-10 42 -6 6 -11 34 -11 63 -1 39 -7 59 -22 74 -19 19 -28 20 -186 14 -153 -6
-168 -5 -188 12 -13 11 -23 21 -23 24 0 3 25 5 55 5 34 0 64 5 79 16 18 11 48
16 101 16 41 0 75 4 75 9 0 6 21 9 48 9 64 -1 189 32 217 58 25 23 65 37 65
24 0 -5 -8 -14 -17 -19 -15 -9 -16 -10 -2 -11 16 0 89 67 89 82 0 5 -8 17 -17
26 -13 13 -36 17 -107 17 -80 0 -95 -3 -125 -24 -26 -19 -35 -21 -41 -11 -6
10 -17 -1 -39 -35 -17 -27 -31 -55 -31 -63 0 -11 -3 -11 -15 2 -17 16 -21 106
-5 106 6 0 10 6 10 13 0 18 -192 16 -198 -1 -2 -7 -8 -12 -14 -12 -6 0 -6 6 2
15 7 8 17 15 22 15 5 0 18 9 30 20 12 11 29 20 37 20 9 0 27 6 41 13 14 7 50
21 80 30 33 11 61 26 69 40 41 65 70 126 63 131 -20 12 -163 -1 -189 -17 -21
-13 -15 2 10 27 13 13 33 26 44 30 11 3 29 15 41 26 12 11 52 28 89 37 80 21
82 21 63 33 -19 12 77 1 102 -11 9 -5 28 -9 42 -9 32 0 103 -28 136 -53 l25
-19 27 59 c14 32 27 71 27 87 1 15 11 39 24 52 l22 23 6 -57 c4 -31 2 -75 -3
-96z m-808 -556 c0 -5 -7 -10 -15 -10 -8 0 -15 5 -15 10 0 6 7 10 15 10 8 0
15 -4 15 -10z"/>
<path d="M7380 7626 c0 -8 5 -18 10 -21 6 -3 10 3 10 14 0 12 -4 21 -10 21 -5
0 -10 -6 -10 -14z"/>
<path d="M7666 7589 c-14 -11 -26 -26 -26 -33 0 -7 -9 -25 -21 -40 -24 -30
-19 -32 31 -10 34 15 70 64 70 94 0 17 -26 11 -54 -11z"/>
<path d="M7383 7575 c-6 -7 -11 -27 -11 -45 1 -17 -3 -35 -9 -38 -5 -4 -12
-17 -15 -29 -9 -35 19 -29 37 8 19 36 17 125 -2 104z"/>
<path d="M6928 7476 c-10 -7 -18 -23 -18 -34 0 -11 -6 -27 -13 -34 -22 -22 -9
-41 16 -23 12 8 29 15 39 15 10 0 18 4 18 9 0 5 6 16 14 23 7 8 17 24 20 36 7
20 4 22 -26 22 -18 0 -41 -7 -50 -14z"/>
<path d="M7577 7413 c-14 -13 -6 -47 19 -80 14 -18 28 -33 32 -33 4 0 13 19
20 42 13 40 12 44 -8 60 -23 18 -51 23 -63 11z"/>
<path d="M7083 7393 c-18 -7 -16 -43 2 -43 9 0 15 9 15 25 0 14 -1 25 -2 24
-2 0 -9 -3 -15 -6z"/>
<path d="M7740 7372 c0 -10 -5 -23 -11 -29 -6 -6 -9 -19 -7 -29 3 -15 9 -11
30 20 15 22 25 43 22 48 -10 15 -34 8 -34 -10z"/>
<path d="M7370 7363 c0 -4 -20 -21 -45 -38 -47 -32 -61 -53 -46 -68 14 -14 77
-13 95 2 18 15 22 96 6 106 -5 3 -10 3 -10 -2z"/>
<path d="M7169 7245 c-1 -14 -2 -31 -3 -37 -1 -15 47 -12 52 3 2 5 10 9 18 9
23 0 16 37 -8 44 -44 11 -58 7 -59 -19z"/>
<path d="M7640 7134 c0 -8 5 -12 10 -9 6 3 10 10 10 16 0 5 -4 9 -10 9 -5 0
-10 -7 -10 -16z"/>
<path d="M2613 7283 c-33 -13 1 -53 46 -53 11 0 26 -7 35 -15 21 -22 26 -19
26 16 0 19 -7 37 -17 45 -18 13 -66 17 -90 7z"/>
<path d="M2785 7140 c-3 -5 -12 -7 -20 -3 -11 4 -15 -2 -15 -21 0 -14 4 -26 8
-26 11 0 62 43 62 53 0 10 -28 9 -35 -3z"/>
<path d="M6925 6890 c4 -6 11 -8 16 -5 14 9 11 15 -7 15 -8 0 -12 -5 -9 -10z"/>
<path d="M7634 6857 c-6 -7 -13 -22 -16 -35 -6 -20 -3 -22 32 -22 43 0 65 20
55 50 -7 23 -53 28 -71 7z"/>
<path d="M7706 6761 c-18 -7 -18 -8 4 -29 28 -26 39 -21 32 13 -5 27 -7 28
-36 16z"/>
<path d="M7668 6433 c-25 -6 -22 -23 5 -25 64 -4 77 -3 77 8 0 18 -43 27 -82
17z"/>
<path d="M8232 6688 c2 -6 12 -16 21 -22 13 -8 20 -7 27 4 16 24 12 30 -21 30
-19 0 -29 -4 -27 -12z"/>
<path d="M8273 6623 c-18 -7 -16 -23 2 -23 8 0 15 7 15 15 0 8 -1 15 -2 14 -2
0 -9 -3 -15 -6z"/>
<path d="M7440 6665 c0 -10 10 -15 30 -15 39 0 39 24 0 27 -21 2 -30 -2 -30
-12z"/>
<path d="M7443 6582 c-7 -5 -9 -13 -4 -21 7 -11 11 -9 20 8 12 21 6 27 -16 13z"/>
<path d="M7450 6520 c0 -5 4 -10 9 -10 6 0 13 5 16 10 3 6 -1 10 -9 10 -9 0
-16 -4 -16 -10z"/>
<path d="M5253 3573 c-7 -2 -9 -11 -6 -19 3 -8 -2 -25 -11 -39 -9 -13 -16 -34
-16 -45 0 -11 -11 -38 -25 -60 -32 -50 -32 -65 -3 -49 30 16 48 35 48 50 0 7
7 41 16 76 17 67 16 92 -3 86z"/>
<path d="M5545 3472 c-34 -17 -54 -40 -55 -61 0 -8 -8 -20 -17 -27 -25 -18 -8
-30 22 -16 14 7 34 12 43 12 25 0 72 65 72 100 0 14 -30 10 -65 -8z"/>
<path d="M4707 3473 c-4 -3 -7 -13 -7 -20 0 -8 -10 -27 -22 -43 -31 -43 -13
-54 42 -25 25 13 53 27 63 31 9 3 17 15 17 25 0 11 7 19 16 19 8 0 12 5 9 10
-7 11 -108 14 -118 3z"/>
<path d="M4878 3352 c-31 -19 -36 -37 -12 -46 22 -9 31 -1 36 34 3 16 4 30 4
30 -1 0 -13 -8 -28 -18z"/>
<path d="M5316 3328 c-3 -7 -9 -28 -15 -47 -6 -19 -11 -51 -11 -73 0 -25 -5
-41 -15 -44 -17 -7 -35 -64 -35 -112 0 -28 3 -32 23 -28 12 3 52 8 90 11 48 5
67 11 67 21 0 8 -5 14 -11 14 -14 0 -32 18 -60 65 -20 32 -24 52 -23 100 0 33
4 70 9 83 5 14 3 22 -4 22 -6 0 -13 -6 -15 -12z m4 -128 c0 -5 -4 -10 -10 -10
-5 0 -10 5 -10 10 0 6 5 10 10 10 6 0 10 -4 10 -10z"/>
<path d="M5414 3265 c-7 -30 1 -68 23 -101 17 -27 33 -31 33 -9 0 8 3 15 8 15
4 0 12 16 18 36 10 32 9 38 -11 60 -30 32 -63 32 -71 -1z"/>
<path d="M5178 3257 c-9 -9 -21 -17 -27 -17 -6 0 -11 -4 -11 -9 0 -4 -15 -12
-32 -17 -28 -8 -34 -15 -36 -43 -3 -26 0 -32 11 -28 8 3 19 1 24 -4 4 -4 25
-6 46 -2 42 6 50 23 45 93 -3 41 -4 43 -20 27z"/>
<path d="M5603 3223 c-7 -3 -13 -11 -13 -19 0 -8 -4 -14 -9 -14 -9 0 -25 -49
-18 -56 2 -3 22 11 43 30 34 31 37 37 24 49 -8 8 -21 13 -27 10z"/>
<path d="M4942 3173 c-5 -10 -12 -30 -16 -45 -5 -22 -3 -26 9 -22 8 4 15 12
15 19 0 25 29 39 55 27 17 -8 26 -8 31 -1 9 16 -6 27 -48 34 -29 6 -38 3 -46
-12z"/>
<path d="M5145 3070 c-3 -5 -16 -10 -28 -10 -24 -1 -57 -22 -57 -36 0 -12 102
-5 118 8 19 16 15 48 -7 48 -11 0 -23 -4 -26 -10z"/>
<path d="M5023 2987 c-31 -36 -89 -129 -112 -181 -12 -25 -25 -48 -31 -51 -5
-3 -10 -15 -10 -25 0 -18 -17 -59 -74 -185 -16 -34 -20 -52 -13 -57 16 -10 24
-2 43 40 9 20 56 118 105 218 49 99 89 188 89 197 0 9 7 20 16 25 9 5 14 17
13 26 -4 15 -7 14 -26 -7z"/>
<path d="M4835 2980 c-3 -5 -20 -10 -36 -10 -17 0 -44 -7 -61 -16 -28 -15 -32
-15 -40 0 -22 38 -75 -5 -64 -51 13 -53 27 -128 36 -203 10 -74 26 -120 42
-120 4 0 8 10 8 23 0 12 7 35 15 51 8 15 15 37 15 47 0 10 4 21 10 24 5 3 18
35 29 70 25 79 62 169 73 173 4 2 8 8 8 13 0 12 -27 12 -35 -1z"/>
<path d="M5526 2981 c-3 -4 -22 -11 -42 -14 -20 -3 -45 -16 -55 -29 -18 -20
-19 -24 -5 -34 21 -15 20 -21 -9 -48 -14 -13 -25 -32 -25 -44 0 -11 -7 -33
-15 -48 -8 -16 -15 -37 -15 -47 0 -9 -9 -39 -21 -65 -44 -101 -49 -113 -49
-128 0 -9 -7 -22 -15 -30 -8 -9 -15 -22 -15 -30 0 -16 26 -19 35 -4 3 6 17 10
31 10 24 0 26 3 54 75 8 19 21 74 35 140 4 17 17 53 31 82 13 28 24 57 24 62
0 6 5 11 10 11 6 0 10 10 10 23 0 12 14 42 30 67 16 25 30 48 30 53 0 10 -18
9 -24 -2z"/>
<path d="M5365 2955 c-5 -2 -58 -7 -117 -10 -118 -8 -123 -10 -176 -84 -49
-68 -47 -71 66 -71 54 0 101 -3 104 -6 3 -3 1 -18 -5 -35 -11 -28 -14 -29 -73
-29 -33 0 -86 -5 -118 -12 l-57 -11 -35 -74 c-19 -41 -34 -81 -34 -89 0 -13
20 -15 131 -13 98 2 133 -1 139 -11 10 -16 30 -4 30 17 0 20 19 82 31 103 5 8
12 22 15 30 25 63 35 86 60 128 15 27 16 36 6 52 -6 11 -12 25 -12 31 0 16 31
38 53 39 11 0 17 8 17 25 0 24 -4 27 -25 20z"/>
<path d="M4873 2434 c-3 -8 -1 -20 6 -27 33 -33 -7 -150 -73 -210 -42 -39 -41
-34 -11 -137 9 -30 20 -70 25 -88 17 -70 27 -59 33 38 3 41 10 89 17 105 7 17
18 57 25 90 7 33 21 81 31 106 18 45 17 46 -4 69 -12 13 -22 34 -22 47 0 26
-18 31 -27 7z"/>
<path d="M4679 2413 c-1 -5 -3 -24 -5 -43 -2 -19 -9 -36 -14 -38 -6 -2 -10
-10 -10 -18 0 -8 -3 -14 -8 -14 -4 0 -13 -9 -20 -20 -10 -17 -8 -24 21 -53 32
-33 57 -38 57 -11 0 8 6 14 14 14 12 0 33 16 94 70 35 32 30 74 -14 99 -34 20
-113 29 -115 14z"/>
<path d="M4996 2368 c-3 -18 -8 -51 -11 -73 -4 -22 -8 -58 -10 -80 -3 -37 -38
-206 -51 -247 -3 -11 0 -18 8 -18 18 0 68 47 69 65 5 55 9 81 28 175 12 58 26
119 31 136 19 59 14 74 -25 74 -31 0 -35 -3 -39 -32z"/>
<path d="M5147 2310 c-15 -34 -27 -72 -27 -85 0 -13 -4 -27 -10 -30 -5 -3 -10
-17 -10 -30 0 -13 -11 -35 -24 -48 -14 -14 -26 -41 -30 -68 -7 -43 -6 -44 11
-24 10 11 31 26 47 33 25 11 78 48 123 87 6 5 28 21 47 35 20 14 39 35 42 48
7 26 24 30 24 5 0 -12 16 -1 53 35 49 50 51 54 32 65 -22 13 -83 24 -186 33
l-65 6 -27 -62z"/>
</g>
</svg>
