<?xml version="1.0" standalone="no"?>
<!DOCTYPE svg PUBLIC "-//W3C//DTD SVG 20010904//EN"
 "http://www.w3.org/TR/2001/REC-SVG-20010904/DTD/svg10.dtd">
<svg version="1.0" xmlns="http://www.w3.org/2000/svg"
 width="1024.000000pt" height="1024.000000pt" viewBox="0 0 1024.000000 1024.000000"
 preserveAspectRatio="xMidYMid meet">

<g transform="translate(0.000000,1024.000000) scale(0.100000,-0.100000)"
fill="#000000" stroke="none">
<path d="M3313 10006 c-52 -24 -146 -86 -186 -125 -38 -35 -120 -138 -188
-235 -18 -27 -69 -99 -112 -160 -118 -169 -127 -191 -126 -311 0 -55 5 -114
12 -132 12 -31 143 -175 183 -200 18 -13 19 -13 0 -25 -10 -7 -32 -23 -50 -35
-51 -36 -119 -70 -156 -78 -60 -13 -150 -58 -303 -154 -81 -50 -180 -103 -220
-118 -39 -14 -108 -42 -152 -63 -44 -21 -91 -41 -105 -45 -77 -23 -257 -130
-341 -203 -24 -20 -62 -50 -84 -64 -49 -33 -130 -115 -180 -183 -20 -27 -81
-95 -134 -150 -97 -100 -203 -222 -294 -338 -27 -34 -104 -118 -171 -187 -68
-69 -139 -147 -159 -175 -19 -27 -50 -63 -67 -80 -18 -16 -59 -64 -91 -105
-32 -41 -75 -95 -94 -119 -19 -24 -49 -73 -67 -108 -38 -77 -42 -156 -15 -303
9 -52 21 -129 27 -170 18 -121 40 -218 76 -333 19 -59 66 -236 104 -395 39
-158 93 -357 120 -442 27 -85 59 -189 70 -230 12 -41 32 -104 45 -140 13 -36
31 -92 40 -125 24 -85 47 -125 100 -174 58 -53 100 -71 168 -71 67 0 100 20
210 128 109 107 125 137 133 248 3 49 17 130 30 180 21 80 24 114 24 260 0
150 -3 181 -27 274 -24 97 -26 120 -25 310 0 185 3 216 26 312 15 63 26 138
26 180 1 40 7 109 15 153 8 45 15 143 15 222 0 78 5 164 12 192 11 47 14 51
56 66 53 18 162 20 212 4 19 -6 46 -12 60 -13 l25 -1 -1 -455 c0 -250 -4 -690
-9 -977 l-8 -521 48 -194 c42 -169 56 -210 116 -333 50 -101 84 -158 125 -203
82 -91 108 -102 251 -102 65 0 153 7 196 15 67 13 217 15 970 14 988 0 1051
-4 1005 -56 -9 -10 -25 -39 -36 -64 -27 -62 -191 -300 -281 -408 -178 -212
-184 -223 -211 -363 -33 -171 -27 -235 62 -603 27 -115 68 -300 90 -410 64
-324 108 -500 165 -665 30 -85 65 -191 79 -235 46 -143 56 -168 90 -205 57
-63 121 -85 244 -85 88 0 113 4 155 23 93 43 113 73 158 237 16 60 42 157 58
215 l28 105 1 365 c0 207 -4 380 -10 400 -31 113 -51 843 -24 870 18 18 186
-4 234 -31 34 -19 40 -28 46 -66 8 -51 -2 -298 -15 -403 -13 -104 -13 -828 0
-910 6 -36 14 -123 19 -195 4 -71 14 -164 23 -205 32 -158 47 -257 47 -313 0
-119 73 -347 149 -464 54 -84 186 -204 247 -226 58 -20 258 -24 314 -6 35 12
790 29 1335 31 259 1 632 -13 712 -27 64 -11 87 -1 168 76 84 80 102 117 129
261 9 48 34 145 56 216 48 156 80 335 80 447 0 46 7 119 15 162 8 43 15 114
15 158 1 44 7 109 15 145 11 52 14 179 15 639 0 403 3 585 12 612 9 32 18 41
55 55 91 35 238 -14 267 -90 15 -38 4 -1427 -12 -1521 -5 -33 -13 -113 -16
-177 l-7 -118 40 -42 40 -43 223 -5 c283 -6 314 -3 373 45 73 60 97 123 190
501 46 186 100 386 120 444 20 58 54 177 76 265 40 156 41 164 37 300 -4 168
2 153 -185 437 -135 204 -145 218 -264 368 -41 52 -107 140 -146 195 -105 147
-149 205 -197 255 -23 25 -118 140 -210 255 -209 261 -314 370 -426 439 -160
100 -382 247 -444 294 -68 53 -174 110 -315 171 -107 46 -154 79 -176 121 -32
62 -55 216 -55 369 0 139 -7 198 -46 411 -28 149 -44 203 -86 290 -42 87 -109
163 -369 421 -102 101 -146 119 -324 128 -104 6 -138 11 -170 28 -49 26 -202
182 -272 278 -28 39 -94 109 -146 157 -84 78 -220 219 -480 502 -48 52 -108
123 -133 156 -110 149 -487 474 -634 546 -36 18 -109 53 -163 78 -77 37 -104
55 -127 88 -17 22 -30 49 -30 58 0 10 -7 23 -15 30 -19 16 -19 47 0 57 8 5 33
44 56 88 l41 80 -4 150 -4 150 -41 85 c-62 127 -167 243 -338 373 -161 121
-347 242 -455 295 l-75 37 -220 2 c-171 2 -227 0 -252 -11z m-803 -2356 c5 0
12 5 15 11 5 7 13 5 25 -6 14 -13 42 -16 148 -16 l130 1 48 -39 c60 -47 82
-55 102 -39 13 11 15 10 9 -4 -8 -23 8 -32 34 -18 35 19 33 3 -4 -30 l-35 -31
4 -80 c3 -52 11 -90 21 -106 16 -24 16 -26 -5 -42 -15 -11 -20 -24 -17 -46 2
-23 -3 -35 -23 -52 -33 -26 -24 -41 9 -15 13 11 35 23 49 27 22 7 23 6 11 -9
-7 -9 -18 -16 -23 -16 -12 0 -38 -26 -38 -37 0 -15 -53 -61 -85 -73 -35 -13
-251 -11 -279 3 -12 6 -21 5 -25 -1 -3 -6 -68 -10 -160 -11 l-153 0 4 35 c3
25 1 33 -9 30 -15 -6 -18 10 -3 19 7 5 9 70 4 201 -5 157 -4 197 7 211 9 11
10 14 2 9 -10 -5 -12 7 -10 51 l2 58 68 3 c53 2 68 0 73 -13 8 -19 34 -20 34
0 0 8 7 15 15 15 8 0 15 9 15 19 0 25 24 33 28 9 2 -10 7 -18 12 -18z m80 30
c0 -5 -4 -10 -10 -10 -5 0 -10 5 -10 10 0 6 5 10 10 10 6 0 10 -4 10 -10z
m1922 -57 c26 -30 29 -76 7 -112 -23 -38 -23 -41 -4 -41 23 0 18 -16 -15 -43
-16 -14 -30 -30 -30 -36 0 -6 -11 -11 -24 -11 -14 0 -27 -4 -31 -9 -3 -5 -19
-12 -35 -16 -17 -4 -30 -10 -30 -15 0 -10 40 -1 57 13 7 5 21 7 32 4 12 -3 23
4 35 24 9 16 28 32 42 35 13 3 24 10 24 15 0 5 8 9 17 9 14 0 13 3 -5 16 -26
18 -27 34 -7 74 9 18 11 31 5 35 -6 3 -10 17 -10 31 0 13 -4 24 -10 24 -5 0
-10 5 -10 11 0 10 262 12 306 2 29 -6 40 -56 36 -153 -3 -74 -4 -76 -40 -99
l-36 -24 26 -22 c44 -38 50 -58 38 -128 -15 -81 -44 -148 -63 -142 -7 3 -19
22 -26 41 -12 33 -11 37 8 55 27 26 28 53 1 44 -15 -5 -21 0 -26 20 -9 37 9
52 26 20 14 -27 25 -31 35 -15 3 5 -5 21 -19 35 -29 29 -32 40 -22 78 6 19 3
35 -8 52 -19 28 -38 32 -56 10 -7 -8 -16 -13 -20 -10 -4 3 -15 -6 -23 -19 -14
-21 -14 -26 -1 -42 13 -18 14 -17 9 7 -5 20 -1 27 20 37 14 7 27 12 28 12 1 0
2 -27 1 -60 0 -77 -14 -92 -48 -54 -14 16 -26 24 -26 19 0 -6 11 -22 24 -36
17 -18 22 -34 19 -51 -3 -18 2 -32 17 -46 21 -19 22 -24 10 -52 -7 -17 -21
-35 -31 -41 -11 -5 -19 -19 -19 -30 0 -17 -6 -19 -55 -17 -44 2 -54 5 -50 18
2 8 0 22 -6 30 -9 12 -10 11 -6 -6 8 -39 -27 -44 -274 -43 -242 1 -245 2 -214
46 14 20 14 26 0 59 -11 27 -12 40 -4 50 6 8 9 21 5 29 -8 21 20 19 34 -2 8
-15 9 -13 4 8 -3 15 -1 30 5 33 6 4 8 20 4 36 -6 34 1 38 25 14 15 -15 18 -14
39 12 18 22 23 25 23 12 0 -10 5 -18 11 -18 7 0 9 10 5 25 -4 14 -2 25 4 25 5
0 10 7 10 15 0 8 16 30 35 49 19 20 35 41 35 48 0 18 58 54 99 62 92 17 77 92
-17 84 -23 -2 -36 -8 -34 -15 4 -22 -14 -14 -36 17 l-23 30 109 0 c91 0 111
-3 124 -17z m-1092 -21 c0 -15 -11 -21 -27 -15 -12 5 -12 7 -1 14 17 11 28 11
28 1z m90 -23 c0 -6 7 -8 16 -5 25 10 144 -53 155 -82 8 -20 12 -23 22 -13 9
9 9 14 -3 22 -11 8 -7 9 15 4 38 -8 43 -14 25 -25 -12 -7 -12 -12 -2 -22 20
-20 14 -33 -7 -14 -12 11 -21 13 -25 7 -5 -7 -15 -7 -33 0 -14 5 -43 9 -64 7
-20 -1 -45 4 -54 12 -15 12 -16 12 -13 -5 2 -15 -5 -20 -33 -25 -19 -4 -54
-21 -76 -39 -38 -31 -40 -35 -38 -84 1 -29 -2 -55 -7 -58 -5 -3 -2 -12 7 -19
12 -10 15 -10 15 4 0 9 5 16 11 16 7 0 9 -9 6 -22 -4 -14 0 -29 10 -40 9 -10
13 -18 9 -18 -4 0 3 -15 15 -32 12 -18 16 -27 9 -20 -26 23 -34 12 -10 -13
l24 -25 -23 -16 c-14 -10 -20 -22 -16 -31 4 -13 3 -14 -10 -3 -8 7 -15 21 -15
31 0 10 -4 20 -10 24 -5 3 -7 12 -3 20 3 9 -1 16 -11 17 -9 0 -22 1 -28 2 -13
1 -88 93 -88 108 0 4 -4 8 -9 8 -6 0 -6 -12 0 -32 5 -18 9 -34 9 -36 0 -2 -10
0 -22 3 -18 6 -20 4 -13 -11 5 -11 9 -32 10 -49 3 -45 15 -68 29 -55 9 7 19 1
35 -20 l22 -30 -31 3 c-31 4 -81 51 -74 71 2 6 -8 19 -21 29 -14 10 -25 13
-25 7 0 -6 -4 -9 -10 -5 -11 7 -8 65 4 65 5 0 6 19 2 42 l-7 42 22 -20 22 -19
-15 25 c-9 14 -18 48 -21 75 -3 28 -9 59 -13 69 -6 16 -4 18 16 13 30 -8 60 9
60 33 0 27 39 21 55 -10 l12 -22 6 28 c11 52 20 58 57 39 36 -19 50 -13 33 14
-7 12 -8 23 -1 35 18 31 1 28 -22 -4 -17 -24 -25 -29 -32 -18 -7 10 -12 8 -27
-9 -19 -22 -19 -22 -24 -2 -6 22 11 69 23 69 4 0 11 -10 14 -22 6 -21 7 -22
19 -6 31 40 107 46 107 8 0 -10 5 -22 11 -26 9 -5 10 3 5 30 -6 29 -4 36 9 36
8 0 15 -5 15 -11z m730 -33 c0 -3 -4 -8 -10 -11 -5 -3 -10 -1 -10 4 0 6 5 11
10 11 6 0 10 -2 10 -4z m-990 -46 c-6 -11 -15 -20 -20 -20 -14 0 -12 27 3 33
23 10 28 7 17 -13z m-239 -43 c-13 -13 -15 1 -4 30 7 17 8 17 11 -1 2 -10 -1
-23 -7 -29z m844 34 c3 -5 1 -12 -5 -16 -5 -3 -10 1 -10 9 0 18 6 21 15 7z
m45 0 c0 -6 -4 -13 -10 -16 -5 -3 -10 1 -10 9 0 9 5 16 10 16 6 0 10 -4 10 -9z
m-110 -11 c0 -5 8 -10 18 -10 18 -1 58 -47 48 -57 -13 -13 -56 -11 -56 3 0 9
-5 12 -10 9 -6 -3 -15 6 -20 20 -14 36 -13 45 5 45 8 0 15 -4 15 -10z m305
-10 c3 -5 1 -10 -4 -10 -6 0 -11 5 -11 10 0 6 2 10 4 10 3 0 8 -4 11 -10z
m185 -15 c0 -8 -7 -15 -16 -15 -14 0 -14 3 -4 15 7 8 14 15 16 15 2 0 4 -7 4
-15z m-170 -29 c0 -11 -19 -15 -25 -6 -3 5 1 10 9 10 9 0 16 -2 16 -4z m-950
-61 c0 -8 -4 -15 -10 -15 -5 0 -10 7 -10 15 0 8 5 15 10 15 6 0 10 -7 10 -15z
m401 5 c26 -15 24 -30 -5 -30 -49 0 -76 23 -38 33 9 3 18 5 20 6 2 0 12 -4 23
-9z m486 -6 c-3 -3 -12 -4 -19 -1 -8 3 -5 6 6 6 11 1 17 -2 13 -5z m53 -24 c0
-5 -2 -10 -4 -10 -3 0 -8 5 -11 10 -3 6 -1 10 4 10 6 0 11 -4 11 -10z m-997
-90 c6 -53 6 -54 -8 -25 -8 17 -14 50 -14 75 0 58 14 28 22 -50z m32 80 c3 -5
1 -10 -4 -10 -6 0 -11 5 -11 10 0 6 2 10 4 10 3 0 8 -4 11 -10z m630 -20 c-3
-5 -10 -10 -16 -10 -5 0 -9 5 -9 10 0 6 7 10 16 10 8 0 12 -4 9 -10z m1135 0
c0 -5 -4 -10 -10 -10 -5 0 -10 5 -10 10 0 6 5 10 10 10 6 0 10 -4 10 -10z
m-1733 -32 c-3 -8 -6 -5 -6 6 -1 11 2 17 5 13 3 -3 4 -12 1 -19z m363 -10 c0
-13 -23 -5 -28 10 -2 7 2 10 12 6 9 -3 16 -11 16 -16z m248 2 c3 -7 0 -10 -6
-6 -6 3 -13 2 -16 -3 -4 -5 3 -12 14 -16 11 -3 25 -15 31 -26 9 -18 8 -19 -18
-13 -15 4 -32 11 -37 15 -6 5 -18 9 -28 9 -25 0 -22 11 10 37 29 24 43 25 50
3z m-609 -53 c0 -21 -1 -21 -9 -2 -12 28 -12 37 0 30 6 -3 10 -16 9 -28z
m-149 14 c0 -6 -4 -13 -10 -16 -5 -3 -10 1 -10 9 0 9 5 16 10 16 6 0 10 -4 10
-9z m700 -14 c0 4 5 2 11 -4 13 -13 20 -105 10 -120 -3 -5 -17 -9 -31 -9 -86
0 -109 -4 -103 -20 4 -11 14 -14 32 -11 26 6 81 -16 65 -25 -20 -12 -104 -6
-104 7 0 14 -46 9 -56 -6 -3 -5 -16 -9 -30 -9 -31 0 -31 23 1 44 18 12 25 25
25 47 0 17 4 28 8 25 10 -6 72 48 72 62 0 15 63 30 83 20 9 -5 17 -5 17 -1z
m77 -64 c-9 -9 -23 -13 -31 -10 -14 5 -14 10 -4 26 9 16 16 17 31 9 17 -9 18
-11 4 -25z m180 7 c1 -11 -2 -20 -8 -20 -5 0 -9 9 -9 20 0 11 4 20 8 20 4 0 8
-9 9 -20z m-627 -60 c0 -32 -27 -23 -32 9 -4 26 -2 29 14 20 10 -5 18 -19 18
-29z m554 31 c3 -5 15 -7 25 -4 25 6 35 -12 16 -30 -10 -11 -11 -17 -3 -19 14
-5 -19 -58 -37 -58 -18 0 -26 39 -12 62 9 16 9 22 0 25 -15 5 -18 33 -4 33 6
0 12 -4 15 -9z m-902 -39 c-35 -56 -51 -74 -62 -70 -7 2 -3 13 11 28 11 14 28
35 36 48 22 32 36 27 15 -6z m809 18 c5 0 9 -6 9 -13 0 -15 -67 -40 -75 -28
-8 14 27 53 42 47 8 -3 19 -6 24 -6z m209 -19 c0 -12 -20 -25 -27 -18 -7 7 6
27 18 27 5 0 9 -4 9 -9z m1597 -422 c15 -6 38 -20 50 -31 32 -30 71 -158 83
-274 5 -54 18 -135 27 -179 22 -102 21 -236 -2 -395 -14 -95 -19 -206 -22
-458 l-4 -334 -42 -40 c-96 -91 -208 -155 -287 -165 -30 -3 -56 -13 -66 -24
-10 -11 -23 -19 -31 -19 -20 0 -18 420 2 527 12 60 15 158 15 421 0 333 -1
348 -29 515 -18 105 -31 225 -34 308 l-4 136 41 10 c56 14 268 15 303 2z m568
-2524 c2 -5 4 -14 6 -20 2 -5 -4 -24 -13 -41 -16 -29 -16 -31 3 -47 15 -13 19
-30 19 -79 0 -63 -17 -98 -48 -98 -8 0 -29 -9 -48 -20 l-33 -21 -38 21 c-21
11 -46 20 -57 20 -29 0 -56 -29 -56 -60 0 -27 -22 -46 -41 -34 -5 3 -9 18 -9
34 0 73 128 128 195 84 23 -15 27 -15 50 0 16 11 25 26 25 42 0 22 2 25 15 14
9 -7 15 -8 15 -2 0 5 -7 12 -15 16 -9 3 -15 18 -15 34 0 16 -7 35 -14 42 -13
10 -13 16 1 45 16 33 15 35 -11 76 l-28 42 28 22 28 23 20 -42 c10 -22 20 -45
21 -51z m1401 -22 c6 -43 26 -159 44 -258 60 -341 65 -377 56 -401 -13 -34
-35 20 -52 123 -8 54 -21 130 -29 168 -15 74 -55 313 -59 352 -2 13 -6 26 -9
30 -9 8 -9 56 -1 78 13 33 37 -12 50 -92z m203 -105 c-21 -131 -24 -138 -46
-138 -27 0 -28 6 -8 98 8 39 19 101 25 138 6 38 19 80 28 94 l17 25 3 -39 c2
-22 -7 -102 -19 -178z m-1780 188 c9 -6 8 -14 -6 -34 -14 -21 -19 -54 -23
-142 -5 -108 -6 -115 -25 -111 -11 2 -35 3 -52 3 -41 -1 -42 12 -2 49 34 32
31 52 -7 43 -38 -10 -28 41 11 56 15 6 26 21 30 42 4 18 11 38 16 43 9 12 -50
13 -68 2 -20 -12 -25 13 -9 37 13 21 22 24 69 22 29 -2 59 -6 66 -10z m55
-101 c-26 -150 -35 -185 -48 -185 -9 0 -11 25 -9 98 5 120 8 137 34 163 32 32
38 11 23 -76z m1943 3 c-3 -7 -5 -2 -5 12 0 14 2 19 5 13 2 -7 2 -19 0 -25z
m-514 -113 c-25 -44 -51 -88 -57 -97 -6 -10 -23 -18 -38 -18 l-27 0 61 103
c33 56 67 113 76 127 l16 25 8 -30 c6 -25 1 -42 -39 -110z m383 53 c26 -46 58
-102 71 -125 l22 -43 -24 0 c-19 0 -32 12 -55 48 -63 100 -83 147 -76 175 3
15 8 27 10 27 2 0 25 -37 52 -82z m-1156 -78 c0 -5 -4 -10 -10 -10 -5 0 -10 5
-10 10 0 6 5 10 10 10 6 0 10 -4 10 -10z m-288 -70 c30 -36 42 -126 29 -204
-12 -71 -46 -146 -68 -154 -15 -4 -18 34 -4 43 5 3 15 21 21 41 17 51 0 82
-41 76 -16 -2 -29 0 -29 5 0 18 24 33 52 33 24 0 28 4 28 27 0 28 -37 113 -49
113 -4 0 -16 -7 -27 -15 -10 -8 -22 -15 -26 -15 -16 0 -7 35 14 58 27 28 73
24 100 -8z m204 22 c22 -15 36 -73 32 -127 -6 -69 -67 -196 -109 -226 -24 -17
-37 -20 -61 -13 -40 12 -36 29 8 29 37 0 46 11 89 109 19 43 25 160 9 176 -7
7 -21 6 -46 -4 -33 -14 -48 -13 -48 5 0 4 12 12 28 18 15 7 38 18 52 26 29 17
31 17 46 7z m942 -84 c3 -16 -8 -18 -130 -18 -101 0 -139 4 -154 14 -20 15
-18 17 23 28 7 2 68 1 135 -2 107 -4 123 -7 126 -22z m442 16 c0 -7 11 -9 28
-6 21 3 24 2 15 -8 -6 -7 -33 -14 -60 -17 -36 -3 -44 -2 -33 6 13 9 13 11 -2
11 -9 0 -20 -4 -23 -10 -4 -6 -65 -10 -151 -10 -143 0 -144 0 -144 23 l0 22
185 0 c129 0 185 -3 185 -11z m-542 -90 c105 -86 129 -111 135 -143 4 -17 3
-31 -1 -31 -4 0 -25 17 -47 39 -22 21 -74 66 -115 101 -41 34 -76 66 -78 71
-2 5 8 9 22 9 16 0 48 -18 84 -46z m261 -19 c-5 -27 -14 -82 -21 -122 -6 -40
-14 -70 -18 -68 -28 17 -11 241 19 248 26 6 30 -5 20 -58z m240 56 c0 -3 -36
-35 -81 -71 -44 -36 -98 -82 -119 -102 -22 -21 -42 -38 -44 -38 -3 0 -5 11 -5
23 0 29 13 44 111 128 59 51 82 66 107 66 18 0 32 -3 31 -6z m-1879 -47 c0
-20 -4 -25 -16 -20 -12 5 -15 2 -10 -10 5 -12 2 -15 -10 -10 -8 3 -18 6 -20 6
-2 0 -4 9 -4 19 0 16 15 27 58 40 1 1 2 -11 2 -25z m800 -44 c0 -5 -4 -10 -10
-10 -5 0 -10 5 -10 10 0 6 5 10 10 10 6 0 10 -4 10 -10z m-10 -62 c0 -5 -7
-22 -15 -37 -9 -19 -15 -63 -16 -129 -1 -107 -15 -149 -40 -124 -7 6 -26 12
-41 12 -36 0 -37 24 -3 46 35 23 32 44 -5 44 -16 0 -30 4 -30 10 0 11 40 50
52 50 4 0 8 6 8 13 0 6 6 24 14 39 13 25 13 26 -13 31 -14 3 -32 0 -39 -6 -20
-16 -33 10 -19 40 7 16 19 23 39 23 15 0 28 -4 28 -9 0 -6 12 -4 26 4 27 14
54 10 54 -7z m150 -20 c32 -52 34 -74 11 -105 l-22 -27 23 -14 c20 -12 24 -23
25 -75 1 -34 -3 -67 -9 -75 -7 -7 -38 -27 -70 -43 -59 -30 -59 -30 -86 -11
-30 21 -89 27 -109 10 -7 -6 -13 -26 -13 -45 0 -36 -25 -57 -41 -32 -16 25
-10 57 16 88 21 24 36 31 82 37 36 4 68 2 89 -5 40 -15 74 -1 74 30 0 16 -4
19 -20 14 -15 -5 -20 -2 -20 10 0 13 6 16 21 12 28 -7 34 15 15 54 -20 40 -20
48 0 70 14 16 13 21 -10 58 -36 56 -34 81 6 81 10 0 27 -15 38 -32z m-95 -20
c-3 -18 -12 -71 -19 -118 -22 -149 -55 -175 -49 -38 5 116 10 141 34 166 29
32 43 28 34 -10z m-295 -99 c0 -11 -27 -12 -34 0 -3 4 -3 11 0 14 8 8 34 -3
34 -14z m1461 -62 c84 -64 84 -61 87 -414 l2 -313 -27 0 c-57 0 -73 32 -73
147 1 75 3 85 14 71 7 -10 16 -15 19 -12 8 8 -18 34 -33 34 -6 0 -8 5 -5 11 4
6 6 74 6 151 -2 102 -6 149 -17 169 -19 37 -25 36 -48 -6 -17 -31 -19 -57 -17
-265 l2 -230 -46 -20 c-26 -11 -51 -18 -56 -14 -15 9 -11 100 6 114 8 7 15 18
14 24 0 7 -2 6 -6 -1 -2 -7 -9 -13 -14 -13 -7 0 -9 62 -8 165 3 153 2 167 -18
192 l-20 28 -22 -35 c-20 -33 -21 -49 -22 -260 -1 -124 -2 -232 -3 -240 -1
-12 -84 -45 -93 -36 -2 2 -3 112 -3 245 l0 241 35 77 c45 97 62 118 84 100 14
-10 14 -10 3 5 -11 13 -11 20 0 37 17 27 21 27 74 -9 l44 -31 17 28 c30 47 66
93 74 93 4 0 27 -15 50 -33z m-2071 -118 c0 -6 -4 -7 -10 -4 -5 3 -10 11 -10
16 0 6 5 7 10 4 6 -3 10 -11 10 -16z m1565 -83 c56 -58 80 -120 53 -137 -11
-7 -6 -12 12 -11 3 0 3 -66 0 -146 -5 -133 -8 -153 -32 -204 -33 -71 -83 -145
-106 -157 -25 -13 -99 46 -130 102 -21 39 -23 51 -20 207 3 163 3 166 36 234
38 80 100 166 120 166 8 0 38 -24 67 -54z m-1276 18 c3 -3 -5 -7 -17 -11 -17
-4 -22 -13 -23 -42 -1 -33 1 -117 5 -181 1 -16 -5 -26 -16 -28 -16 -3 -18 8
-18 121 0 105 -3 126 -16 131 -30 12 -34 6 -34 -49 0 -30 -4 -55 -10 -55 -5 0
-13 -1 -17 -2 -5 -2 -10 22 -13 52 -4 47 -8 55 -25 55 -19 0 -20 -8 -23 -128
l-3 -127 -27 6 c-41 10 -42 12 -42 65 0 32 4 49 13 50 10 0 10 2 0 6 -7 2 -13
20 -13 40 0 26 5 36 20 40 13 3 20 14 20 29 0 17 -4 22 -15 18 -8 -4 -15 -1
-15 4 0 6 17 13 38 15 44 5 224 -2 231 -9z m144 -57 c70 -48 48 -133 -40 -161
-17 -6 -23 -3 -23 8 0 20 -10 20 -39 0 -19 -14 -25 -14 -32 -3 -15 24 -10 45
16 67 31 27 32 40 3 44 -15 2 -23 10 -23 23 0 16 8 21 43 23 29 2 42 8 42 18
0 16 6 14 53 -19z m-464 -92 c0 -51 -4 -85 -10 -85 -5 0 -24 7 -42 16 -87 44
-102 98 -40 150 34 28 38 30 64 17 26 -13 27 -16 28 -98z m1339 28 l-3 -56
-42 -15 -43 -14 0 -246 c0 -136 -3 -257 -6 -269 -4 -15 -20 -27 -50 -37 l-44
-15 -1 217 c0 119 -1 238 -1 265 1 26 -3 47 -7 47 -5 0 -25 -7 -45 -15 -43
-18 -49 -12 -44 56 l3 44 80 28 c44 16 103 37 130 47 76 28 76 28 73 -37z
m-1138 -98 c0 -38 -3 -45 -20 -45 -17 0 -20 7 -20 45 0 38 3 45 20 45 17 0 20
-7 20 -45z m734 0 c40 -32 52 -50 47 -77 0 -5 5 -8 13 -8 8 0 16 -6 19 -14 9
-23 8 -478 -1 -510 -11 -40 -39 -57 -56 -33 -7 9 -18 17 -25 17 -13 0 -12 -15
-13 235 0 156 -4 207 -15 233 -19 41 -30 40 -48 -2 -11 -25 -15 -93 -17 -266
l-3 -232 -48 -18 c-44 -17 -66 -13 -52 10 3 5 -1 20 -9 32 -12 16 -13 26 -4
42 15 28 18 398 3 409 -6 6 -4 7 6 4 11 -4 20 6 29 31 19 54 104 182 120 182
4 0 28 -16 54 -35z m-122 -17 c-7 -7 -12 -8 -12 -2 0 14 12 26 19 19 2 -3 -1
-11 -7 -17z m-244 -82 c38 -20 78 -65 96 -108 23 -54 22 -177 -1 -194 -16 -12
-16 -13 -1 -14 14 0 16 -17 16 -149 l-1 -150 -39 -15 c-68 -28 -69 -27 -67 80
1 52 -1 97 -3 100 -3 2 -21 -3 -41 -11 l-37 -15 0 -103 0 -103 -50 -16 -50
-16 0 244 c0 234 1 247 24 303 26 65 101 181 117 181 5 0 22 -6 37 -14z m72
-12 c0 -8 -4 -12 -10 -9 -5 3 -10 10 -10 16 0 5 5 9 10 9 6 0 10 -7 10 -16z
m-310 -398 c0 -275 -2 -325 -15 -336 -11 -9 -15 -9 -15 -1 0 8 -7 7 -22 -3
-45 -32 -48 -25 -48 114 0 117 -2 130 -17 130 -28 0 -98 -46 -81 -52 11 -5 13
-26 11 -99 -1 -52 -3 -104 -3 -117 0 -22 -17 -33 -76 -48 l-25 -6 2 235 c1
129 0 239 -3 243 -2 5 -2 44 1 88 l6 78 48 19 47 19 0 -130 c0 -111 -2 -129
-15 -124 -8 4 -12 11 -8 18 4 6 -1 5 -11 -3 -31 -26 -2 -35 61 -20 l58 14 3
137 3 137 42 14 c23 9 45 16 50 16 4 1 7 -145 7 -323z m-359 204 c5 0 9 -8 9
-17 0 -15 -2 -15 -20 3 -15 14 -18 26 -13 40 7 18 8 18 11 -3 2 -13 8 -23 13
-23z m1319 10 c0 -5 -4 -10 -10 -10 -5 0 -10 5 -10 10 0 6 5 10 10 10 6 0 10
-4 10 -10z m-1362 -55 c12 -9 34 -36 48 -61 23 -38 26 -53 22 -107 -5 -79 -54
-186 -126 -276 l-52 -64 0 -139 c0 -133 -1 -138 -21 -138 -28 0 -56 17 -70 42
-15 28 -21 156 -8 179 5 11 6 19 2 19 -5 0 -9 112 -10 249 l-1 249 81 30 c98
35 106 36 135 17z m2080 -61 c2 -41 -24 -98 -40 -88 -5 4 -14 0 -19 -7 -8 -11
-12 -10 -24 5 -17 22 -20 66 -5 66 6 0 10 -11 10 -25 0 -14 5 -25 10 -25 6 0
10 23 10 50 0 28 5 50 10 50 6 0 10 -21 10 -46 0 -27 4 -43 10 -39 6 3 10 29
10 56 0 57 16 60 18 3z m-78 0 c0 -8 -4 -12 -10 -9 -5 3 -10 10 -10 16 0 5 5
9 10 9 6 0 10 -7 10 -16z m214 -39 c-6 -16 -24 -21 -24 -7 0 11 11 22 21 22 5
0 6 -7 3 -15z m-442 -62 c7 -49 -17 -100 -38 -82 -19 15 -18 79 2 107 20 29
31 21 36 -25z m-132 23 c0 -11 -19 -15 -25 -6 -3 5 1 10 9 10 9 0 16 -2 16 -4z
m-133 -137 c2 -57 1 -62 -12 -45 -14 19 -15 18 -24 -5 -8 -20 -10 -15 -10 29
-2 107 43 127 46 21z m-67 21 c0 -5 -2 -10 -4 -10 -3 0 -8 5 -11 10 -3 6 -1
10 4 10 6 0 11 -4 11 -10z m-193 -111 c1 -35 -1 -56 -4 -46 -6 22 -29 16 -25
-7 2 -9 -2 -16 -8 -16 -13 0 -13 96 1 121 19 37 34 15 36 -52z m671 54 c-10
-2 -26 -2 -35 0 -10 3 -2 5 17 5 19 0 27 -2 18 -5z m-398 -73 c0 -5 -2 -10 -4
-10 -3 0 -8 5 -11 10 -3 6 -1 10 4 10 6 0 11 -4 11 -10z m-530 -64 c-1 -44
-22 -82 -39 -71 -14 8 -14 90 0 116 16 31 39 5 39 -45z m-256 -42 c10 -26 7
-106 -4 -99 -5 3 -10 24 -10 46 0 24 -4 38 -10 34 -5 -3 -10 -26 -10 -51 0
-28 -4 -43 -10 -39 -5 3 -10 24 -10 46 0 24 -4 38 -10 34 -5 -3 -9 -25 -8 -48
2 -23 -2 -42 -7 -42 -15 0 -14 78 2 102 8 12 24 24 36 26 12 2 25 5 28 6 4 0
10 -6 13 -15z m877 -5 c25 -13 16 -28 -14 -23 -16 3 -15 1 6 -7 35 -14 36 -46
3 -55 -27 -6 -46 1 -46 17 0 6 9 7 20 4 11 -4 20 -2 20 4 0 6 -7 11 -15 11
-21 0 -30 27 -15 45 15 18 16 18 41 4z m191 -18 c-6 -3 -12 -20 -14 -36 -4
-40 -22 -38 -26 3 -2 17 -7 32 -13 32 -5 0 -9 4 -9 9 0 12 64 19 69 7 2 -4 -1
-11 -7 -15z m116 -20 c7 -45 -35 -66 -70 -34 -24 22 -23 49 4 67 19 13 25 14
43 2 11 -7 21 -23 23 -35z m-488 3 c0 -45 24 -42 28 4 2 18 8 32 13 32 16 0 6
-72 -12 -83 -29 -18 -49 -1 -49 43 0 22 5 40 10 40 6 0 10 -16 10 -36z m542 4
c2 -18 8 -33 13 -33 6 0 11 15 13 33 5 45 22 40 22 -7 0 -42 -17 -57 -51 -46
-14 5 -19 16 -19 46 0 47 17 52 22 7z m145 -18 l3 -45 -20 25 -20 25 -6 -22
c-9 -34 -24 -17 -24 28 0 39 1 40 33 37 30 -3 32 -5 34 -48z m-947 -10 c0 -5
-4 -10 -10 -10 -5 0 -10 5 -10 10 0 6 5 10 10 10 6 0 10 -4 10 -10z m360 -19
c0 -6 -4 -13 -10 -16 -5 -3 -10 1 -10 9 0 9 5 16 10 16 6 0 10 -4 10 -9z
m-1092 -51 c3 -48 -16 -88 -36 -76 -13 8 -16 66 -6 104 11 41 39 23 42 -28z
m842 20 c0 -5 -2 -10 -4 -10 -3 0 -8 5 -11 10 -3 6 -1 10 4 10 6 0 11 -4 11
-10z m-390 -40 c0 -5 -4 -10 -10 -10 -5 0 -10 5 -10 10 0 6 5 10 10 10 6 0 10
-4 10 -10z m681 -12 l12 -22 8 22 c5 12 15 22 24 22 11 0 15 -11 15 -43 l0
-43 -50 -1 -50 -1 0 44 c0 49 21 60 41 22z m120 0 l0 -23 16 23 c22 32 33 27
33 -15 0 -20 -3 -33 -7 -30 -3 4 -12 -1 -18 -10 -11 -14 -16 -15 -28 -5 -12
10 -16 10 -20 0 -2 -7 -7 -10 -11 -6 -9 8 14 88 26 88 4 0 8 -10 9 -22z m104
12 c5 -8 11 -7 21 1 19 16 28 5 16 -18 -7 -12 -7 -25 0 -37 12 -21 2 -34 -14
-18 -9 9 -15 9 -25 0 -20 -16 -27 -3 -11 21 10 16 10 23 0 33 -6 6 -12 16 -12
20 0 12 18 10 25 -2z m100 0 c5 -8 11 -7 21 1 19 16 30 4 15 -15 -10 -11 -10
-20 -1 -36 13 -25 5 -39 -12 -22 -9 9 -15 9 -25 0 -20 -16 -27 -3 -11 21 10
16 10 23 0 33 -6 6 -12 16 -12 20 0 12 18 10 25 -2z m100 -35 c0 -22 -5 -40
-12 -42 -9 -3 -13 9 -13 42 0 33 4 45 13 43 7 -3 12 -21 12 -43z m-1823 13
c-7 -7 -12 -36 -12 -64 0 -69 -17 -79 -19 -12 0 29 -6 55 -13 59 -9 6 -5 11
12 18 34 14 46 13 32 -1z m1192 -234 c26 -10 18 -27 -9 -20 -18 5 -27 2 -31
-9 -7 -16 -34 -21 -34 -6 0 10 39 41 51 41 4 0 14 -3 23 -6z m-1124 -14 c0 -5
-9 -10 -19 -10 -17 0 -20 -8 -23 -52 -4 -71 -28 -78 -28 -8 0 43 -3 53 -20 57
-39 10 -19 23 35 23 30 0 55 -4 55 -10z m40 -55 c0 -51 -3 -65 -15 -65 -12 0
-15 14 -15 65 0 51 3 65 15 65 12 0 15 -14 15 -65z m66 30 c3 -19 12 -39 20
-46 19 -15 18 -49 -1 -49 -8 0 -17 11 -21 25 -7 28 -24 24 -24 -6 0 -10 -4
-19 -10 -19 -18 0 -11 68 8 80 16 11 16 11 0 6 -14 -4 -18 0 -18 19 0 18 5 25
20 25 14 0 21 -9 26 -35z m84 -30 c0 -51 -3 -65 -15 -65 -10 0 -15 10 -15 30
0 19 -5 29 -12 28 -9 -2 -12 7 -9 27 4 39 8 45 32 45 17 0 19 -7 19 -65z m110
55 c0 -6 -16 -10 -36 -10 -38 0 -45 -22 -8 -28 43 -7 48 -16 14 -21 -45 -8
-49 -36 -5 -36 50 0 44 -20 -6 -23 l-47 -3 -3 38 c-2 21 -3 50 -1 64 3 24 7
27 48 27 24 1 44 -3 44 -8z m80 -55 c0 -51 -3 -65 -15 -65 -12 0 -15 14 -15
65 0 51 3 65 15 65 12 0 15 -14 15 -65z m109 51 c8 -9 8 -16 2 -20 -5 -4 -12
-2 -16 4 -3 5 -15 10 -26 10 -26 0 -20 -24 7 -29 29 -5 44 -21 44 -46 0 -36
-58 -48 -96 -21 -26 19 -10 33 20 17 23 -13 46 -9 46 8 0 5 -14 12 -31 17 -41
12 -57 36 -38 57 17 20 73 22 88 3z m151 4 c0 -5 -7 -10 -15 -10 -16 0 -19
-14 -16 -72 2 -27 -1 -38 -11 -38 -8 0 -15 8 -15 18 1 76 -3 92 -24 92 -11 0
-17 5 -14 10 3 6 26 10 51 10 24 0 44 -4 44 -10z m48 -19 c5 -30 46 -25 50 7
7 46 19 20 21 -44 1 -50 -1 -65 -11 -61 -7 2 -12 16 -10 31 2 22 -1 26 -21 26
-19 0 -26 -7 -30 -30 -11 -54 -27 -33 -27 36 0 48 3 65 13 62 6 -3 13 -15 15
-27z m192 20 c0 -6 -15 -11 -32 -13 -40 -4 -44 -22 -5 -26 40 -5 33 -18 -14
-26 -39 -6 -49 -24 -19 -34 7 -3 10 0 7 5 -3 5 9 7 29 5 21 -3 34 -10 34 -19
0 -11 -11 -13 -47 -11 l-48 3 -3 63 -3 62 51 0 c27 0 50 -4 50 -9z m139 -5 c7
-9 8 -17 3 -20 -6 -3 -12 0 -15 8 -4 9 -14 12 -27 9 -12 -3 -19 -11 -16 -18 6
-17 -10 -39 -23 -31 -12 8 -15 49 -4 59 12 13 70 7 82 -7z m191 -35 c0 -46 2
-50 27 -53 48 -6 39 -28 -11 -28 l-46 0 0 49 c0 27 3 56 6 65 12 32 24 15 24
-33z m169 30 c16 -16 18 -26 11 -57 -10 -44 -23 -54 -72 -54 l-38 0 0 65 0 65
40 0 c26 0 47 -7 59 -19z m59 -43 c-2 -37 -8 -63 -15 -65 -9 -3 -12 14 -12 61
1 51 4 66 15 66 12 0 14 -13 12 -62z m112 53 c0 -6 -15 -11 -32 -13 -38 -4
-40 -22 -3 -26 33 -4 32 -20 -2 -24 -39 -4 -37 -33 1 -33 16 0 31 -6 33 -12 3
-9 -9 -13 -40 -13 l-45 0 -4 61 c-1 33 -1 63 1 65 9 8 91 4 91 -5z m111 2 c1
-5 3 -34 5 -65 2 -44 0 -58 -11 -58 -7 0 -15 10 -17 23 -2 14 -10 22 -23 22
-13 0 -21 -8 -23 -22 -3 -23 -18 -31 -24 -13 -1 5 -1 35 0 65 l4 55 44 0 c24
0 44 -3 45 -7z m-495 -40 c21 -82 -97 -117 -121 -35 -4 16 -2 22 8 22 8 0 17
-9 20 -20 3 -11 13 -23 22 -27 23 -8 48 24 41 53 -6 21 0 34 15 34 5 0 12 -12
15 -27z m-1306 7 c0 -5 -4 -10 -10 -10 -5 0 -10 5 -10 10 0 6 5 10 10 10 6 0
10 -4 10 -10z m1164 -33 c16 -25 -5 -51 -43 -55 -23 -2 -31 1 -31 13 0 12 6
15 19 10 22 -7 40 14 21 25 -15 9 -4 33 13 27 6 -2 15 -11 21 -20z m-84 -27
c0 -5 -2 -10 -4 -10 -3 0 -8 5 -11 10 -3 6 -1 10 4 10 6 0 11 -4 11 -10z m-70
-60 c0 -5 -4 -10 -9 -10 -6 0 -13 5 -16 10 -3 6 1 10 9 10 9 0 16 -4 16 -10z
m-1143 -69 c5 -21 43 -25 43 -4 0 14 19 28 27 19 4 -3 -4 -17 -17 -31 -21 -23
-22 -26 -8 -42 9 -10 21 -28 27 -40 19 -37 -16 -30 -37 7 -22 38 -32 38 -32 0
0 -20 -5 -30 -15 -30 -12 0 -15 14 -15 70 0 44 4 70 11 70 6 0 13 -9 16 -19z
m193 4 c0 -10 -11 -15 -35 -15 -32 0 -52 -18 -22 -21 6 -1 18 -2 26 -3 30 -3
23 -26 -8 -26 -24 0 -31 -4 -31 -20 0 -16 7 -20 35 -20 19 0 35 -4 35 -10 0
-11 -59 -14 -84 -4 -12 5 -16 20 -16 63 0 32 3 61 7 64 3 4 26 7 50 7 32 0 43
-4 43 -15z m115 0 c0 -5 -15 -10 -33 -11 -18 -1 -36 -5 -40 -8 -9 -10 20 -26
40 -23 31 4 24 -18 -7 -23 -44 -8 -39 -34 8 -38 58 -5 44 -23 -15 -20 l-53 3
-2 55 c-1 30 0 61 2 68 6 15 100 13 100 -3z m102 0 c13 -9 20 -23 18 -35 -6
-33 -15 -40 -46 -40 -25 0 -29 -4 -29 -26 0 -16 -5 -24 -12 -22 -13 5 -24 99
-14 124 7 19 56 18 83 -1z m103 -4 c5 -11 10 -29 10 -40 0 -35 17 -24 27 17 6
27 14 37 28 37 18 0 20 -8 23 -67 2 -55 0 -68 -12 -68 -9 0 -16 12 -19 33 l-3
32 -9 -33 c-9 -37 -37 -41 -43 -7 -7 36 -22 41 -22 7 0 -18 -4 -32 -10 -32 -6
0 -10 30 -10 70 0 55 3 70 15 70 8 0 19 -9 25 -19z m191 -36 c21 -55 24 -85 9
-85 -5 0 -10 4 -10 9 0 20 -41 23 -61 5 -26 -23 -36 -11 -15 21 9 14 14 29 12
34 -3 5 -1 23 5 40 16 45 37 36 60 -24z m127 43 c14 -19 13 -130 -1 -125 -7 2
-13 13 -15 25 -4 29 -40 29 -44 0 -2 -12 -9 -23 -15 -26 -10 -3 -13 13 -13 57
0 54 -2 61 -20 61 -11 0 -20 5 -20 10 0 15 116 12 128 -2z m126 -7 c13 -15 14
-21 5 -27 -7 -4 -15 -2 -17 4 -5 17 -37 15 -52 -3 -17 -21 -3 -75 20 -75 9 0
23 7 30 15 9 11 16 13 24 5 15 -15 -16 -42 -49 -42 -37 0 -59 25 -59 66 0 64
60 99 98 57z m56 -5 c0 -24 23 -41 41 -30 5 3 9 17 9 30 0 16 5 24 13 22 7 -3
13 -29 15 -71 3 -69 -5 -81 -34 -52 -9 8 -11 15 -5 15 6 0 11 7 11 15 0 9 -9
15 -25 15 -21 0 -25 -5 -25 -30 0 -20 -5 -30 -15 -30 -13 0 -15 12 -14 63 1
34 4 65 6 70 9 16 23 6 23 -17z m128 -49 c3 -55 1 -67 -12 -67 -13 0 -16 13
-16 71 0 52 3 70 13 67 7 -3 13 -29 15 -71z m50 61 c15 -15 16 -55 1 -64 -6
-4 -9 -19 -5 -36 5 -24 3 -29 -12 -26 -13 2 -18 15 -20 57 -4 76 7 98 36 69z
m72 -48 c0 -33 0 -63 1 -67 1 -22 -28 -9 -44 18 -19 34 -14 57 9 38 12 -9 14
-5 14 30 0 22 5 41 10 41 6 0 10 -27 10 -60z m124 38 c13 -21 0 -36 -16 -20
-19 19 -48 14 -57 -10 -11 -29 7 -68 30 -68 27 0 34 19 13 35 -18 13 -17 14
14 15 30 0 32 -2 32 -33 0 -34 0 -34 -50 -36 -40 -1 -51 2 -60 18 -15 30 -12
82 7 103 21 23 71 21 87 -4z m167 0 c13 -20 0 -28 -26 -16 -36 16 -57 4 -53
-33 4 -42 30 -59 53 -36 9 10 21 15 26 12 14 -9 11 -25 -6 -25 -8 0 -15 -4
-15 -10 0 -20 -59 -10 -74 12 -38 54 -2 126 57 114 17 -4 34 -12 38 -18z m51
-43 c3 -46 5 -50 31 -53 44 -5 31 -22 -18 -22 l-45 0 0 63 c0 35 3 67 7 71 13
12 22 -9 25 -59z m168 45 c41 -41 14 -120 -40 -120 -38 0 -60 24 -60 64 0 65
58 98 100 56z m120 5 c18 -21 4 -32 -21 -17 -19 12 -39 9 -39 -7 0 -4 15 -13
34 -19 41 -15 50 -33 30 -61 -18 -25 -66 -28 -84 -6 -18 22 -4 31 24 16 24
-13 46 -8 46 9 0 5 -14 11 -30 15 -17 4 -35 16 -41 27 -22 41 51 79 81 43z
m130 -6 c0 -5 -16 -9 -35 -9 -41 0 -47 -17 -8 -22 39 -5 42 -28 3 -28 -45 0
-38 -34 8 -38 51 -5 37 -22 -18 -22 l-51 0 2 65 c2 70 6 74 67 67 17 -2 32 -8
32 -13z m104 9 c18 -19 18 -128 0 -128 -8 0 -14 10 -14 24 0 14 -5 28 -10 31
-17 10 -41 -16 -35 -36 4 -13 1 -19 -9 -19 -13 0 -16 12 -16 63 0 35 3 67 7
70 11 12 64 8 77 -5z"/>
<path d="M2410 7530 c0 -19 3 -21 12 -12 9 9 9 15 0 24 -9 9 -12 7 -12 -12z"/>
<path d="M2901 7504 c0 -11 3 -14 6 -6 3 7 2 16 -1 19 -3 4 -6 -2 -5 -13z"/>
<path d="M2414 7416 c0 -24 4 -47 8 -51 4 -4 4 -13 2 -20 -3 -7 0 -16 5 -20 6
-3 9 -11 5 -16 -3 -5 0 -26 6 -45 9 -26 15 -32 21 -23 4 7 3 19 -2 26 -6 7 -9
16 -6 20 5 8 -9 125 -19 156 -10 32 -21 17 -20 -27z"/>
<path d="M2920 7346 c0 -2 7 -7 16 -10 8 -3 12 -2 9 4 -6 10 -25 14 -25 6z"/>
<path d="M2920 7320 c0 -5 5 -10 11 -10 5 0 7 5 4 10 -3 6 -8 10 -11 10 -2 0
-4 -4 -4 -10z"/>
<path d="M2642 7274 c3 -17 21 -21 26 -6 1 5 -4 12 -13 16 -11 4 -15 1 -13
-10z"/>
<path d="M2901 7234 c0 -11 3 -14 6 -6 3 7 2 16 -1 19 -3 4 -6 -2 -5 -13z"/>
<path d="M2520 7226 c0 -4 7 -18 16 -31 9 -14 14 -31 11 -40 -4 -8 -2 -17 3
-20 6 -4 10 -15 10 -26 0 -11 7 -19 17 -19 10 0 26 -10 38 -23 11 -13 16 -16
10 -7 -5 8 -22 27 -37 42 -17 16 -28 37 -28 53 0 15 -9 38 -20 52 -11 14 -20
23 -20 19z"/>
<path d="M2452 7179 c2 -7 10 -15 17 -17 8 -3 12 1 9 9 -2 7 -10 15 -17 17 -8
3 -12 -1 -9 -9z"/>
<path d="M2870 7165 c0 -8 4 -15 10 -15 5 0 7 7 4 15 -4 8 -8 15 -10 15 -2 0
-4 -7 -4 -15z"/>
<path d="M2490 7096 c0 -8 4 -17 9 -20 10 -7 23 19 14 28 -11 11 -23 6 -23 -8z"/>
<path d="M4792 7498 c-9 -33 -7 -48 6 -48 4 0 7 18 7 40 0 22 -1 40 -2 40 -1
0 -6 -15 -11 -32z"/>
<path d="M4680 7491 c0 -6 4 -13 10 -16 6 -3 7 1 4 9 -7 18 -14 21 -14 7z"/>
<path d="M4825 7450 c3 -5 10 -10 16 -10 5 0 9 5 9 10 0 6 -7 10 -16 10 -8 0
-12 -4 -9 -10z"/>
<path d="M4767 7443 c-4 -3 -7 -11 -7 -17 0 -6 5 -5 12 2 6 6 9 14 7 17 -3 3
-9 2 -12 -2z"/>
<path d="M4588 7433 c7 -3 16 -2 19 1 4 3 -2 6 -13 5 -11 0 -14 -3 -6 -6z"/>
<path d="M4605 7410 c-3 -5 -1 -10 4 -10 6 0 11 5 11 10 0 6 -2 10 -4 10 -3 0
-8 -4 -11 -10z"/>
<path d="M4580 7365 c0 -16 16 -20 24 -6 3 5 -1 11 -9 15 -9 3 -15 0 -15 -9z"/>
<path d="M4601 7334 c-15 -15 -18 -24 -9 -24 12 0 43 38 36 45 -2 2 -14 -7
-27 -21z"/>
<path d="M4470 7340 c0 -5 14 -10 32 -10 36 0 35 4 -4 14 -17 4 -28 2 -28 -4z"/>
<path d="M4320 7320 c-6 -12 -9 -24 -7 -27 3 -2 11 5 17 17 6 12 9 24 7 27 -3
2 -11 -5 -17 -17z"/>
<path d="M4525 7310 c-3 -5 3 -10 14 -10 12 0 21 5 21 10 0 6 -6 10 -14 10 -8
0 -18 -4 -21 -10z"/>
<path d="M4266 7294 c-5 -14 -4 -15 9 -4 17 14 19 20 6 20 -5 0 -12 -7 -15
-16z"/>
<path d="M4453 7283 c-7 -3 -13 -8 -13 -13 0 -11 39 -20 45 -10 7 11 -17 28
-32 23z"/>
<path d="M4293 7247 c-2 -23 0 -28 7 -17 12 18 13 50 3 50 -5 0 -9 -15 -10
-33z"/>
<path d="M4505 7270 c-3 -5 -1 -10 4 -10 6 0 11 5 11 10 0 6 -2 10 -4 10 -3 0
-8 -4 -11 -10z"/>
<path d="M4570 7270 c-13 -8 -12 -10 3 -10 9 0 17 5 17 10 0 12 -1 12 -20 0z"/>
<path d="M4150 7256 c0 -8 7 -16 15 -20 17 -6 18 -4 9 18 -8 20 -24 21 -24 2z"/>
<path d="M4185 7260 c-3 -5 -1 -10 4 -10 6 0 11 5 11 10 0 6 -2 10 -4 10 -3 0
-8 -4 -11 -10z"/>
<path d="M4190 7230 c0 -5 5 -10 10 -10 6 0 10 5 10 10 0 6 -4 10 -10 10 -5 0
-10 -4 -10 -10z"/>
<path d="M4457 7223 c-32 -17 -24 -36 11 -27 13 4 22 14 22 25 0 11 -1 19 -2
18 -2 -1 -16 -8 -31 -16z"/>
<path d="M4335 7200 c3 -5 8 -10 11 -10 2 0 4 5 4 10 0 6 -5 10 -11 10 -5 0
-7 -4 -4 -10z"/>
<path d="M4289 7181 c-13 -11 -21 -22 -17 -26 3 -4 16 3 28 15 28 28 20 36
-11 11z"/>
<path d="M4350 7150 c0 -5 5 -10 10 -10 6 0 10 5 10 10 0 6 -4 10 -10 10 -5 0
-10 -4 -10 -10z"/>
<path d="M4257 7118 c-9 -31 -2 -33 11 -3 6 14 8 25 3 25 -5 0 -11 -10 -14
-22z"/>
<path d="M4546 7122 c-2 -4 -1 -14 5 -22 7 -12 9 -10 9 8 0 23 -5 28 -14 14z"/>
<path d="M3350 7430 c-7 -16 -16 -27 -22 -24 -5 3 -6 -5 -2 -20 4 -16 2 -26
-5 -26 -6 0 -11 -5 -11 -11 0 -8 4 -9 13 0 8 6 18 7 22 3 5 -4 5 -1 1 5 -4 7
2 33 13 58 11 25 16 45 12 45 -5 0 -14 -13 -21 -30z"/>
<path d="M3230 7362 c0 -18 12 -42 21 -42 14 0 10 26 -6 40 -9 8 -15 8 -15 2z"/>
<path d="M3281 7340 c-1 -27 14 -58 24 -48 3 3 -1 21 -9 39 -13 31 -14 32 -15
9z"/>
<path d="M3350 7321 c0 -5 7 -14 15 -21 13 -10 15 -9 15 9 0 12 -6 21 -15 21
-8 0 -15 -4 -15 -9z"/>
<path d="M3217 7224 c-8 -8 1 -24 14 -24 5 0 9 7 9 15 0 15 -12 20 -23 9z"/>
<path d="M3359 7203 c-13 -16 -12 -17 4 -4 9 7 17 15 17 17 0 8 -8 3 -21 -13z"/>
<path d="M3661 7163 c-19 -12 -42 -23 -52 -23 -11 0 -19 -7 -19 -15 0 -19 34
-20 50 -1 6 8 17 13 24 10 14 -5 51 42 38 49 -4 2 -22 -7 -41 -20z"/>
<path d="M3720 7179 c0 -5 5 -7 10 -4 6 3 10 8 10 11 0 2 -4 4 -10 4 -5 0 -10
-5 -10 -11z"/>
<path d="M6125 4190 c3 -5 8 -10 11 -10 2 0 4 5 4 10 0 6 -5 10 -11 10 -5 0
-7 -4 -4 -10z"/>
<path d="M7030 3454 c0 -8 5 -12 10 -9 6 4 8 11 5 16 -9 14 -15 11 -15 -7z"/>
<path d="M7790 2790 c0 -5 5 -10 11 -10 5 0 7 5 4 10 -3 6 -8 10 -11 10 -2 0
-4 -4 -4 -10z"/>
<path d="M7505 3099 c-11 -24 -24 -47 -30 -51 -6 -5 -5 -8 3 -8 9 0 12 -31 11
-124 -1 -101 2 -128 16 -150 22 -33 27 -33 44 4 10 25 16 28 27 19 8 -6 18
-26 23 -43 7 -22 9 -25 10 -10 1 12 -8 33 -19 47 -18 22 -20 40 -20 166 0 132
-1 141 -23 167 l-23 26 -19 -43z"/>
<path d="M7618 3053 c7 -3 16 -2 19 1 4 3 -2 6 -13 5 -11 0 -14 -3 -6 -6z"/>
<path d="M7438 2983 c7 -3 16 -2 19 1 4 3 -2 6 -13 5 -11 0 -14 -3 -6 -6z"/>
<path d="M7601 2824 c0 -11 3 -14 6 -6 3 7 2 16 -1 19 -3 4 -6 -2 -5 -13z"/>
<path d="M7500 2636 c0 -2 8 -10 18 -17 15 -13 16 -12 3 4 -13 16 -21 21 -21
13z"/>
<path d="M7205 2990 c3 -5 8 -10 11 -10 2 0 4 5 4 10 0 6 -5 10 -11 10 -5 0
-7 -4 -4 -10z"/>
<path d="M6954 2564 c3 -9 6 -22 6 -30 0 -8 7 -14 15 -14 18 0 19 19 1 43 -16
21 -30 22 -22 1z"/>
<path d="M6787 2523 c-4 -3 -7 -11 -7 -17 0 -6 5 -5 12 2 6 6 9 14 7 17 -3 3
-9 2 -12 -2z"/>
<path d="M6791 2464 c0 -11 3 -14 6 -6 3 7 2 16 -1 19 -3 4 -6 -2 -5 -13z"/>
<path d="M6751 2424 c0 -11 3 -14 6 -6 3 7 2 16 -1 19 -3 4 -6 -2 -5 -13z"/>
<path d="M6521 2770 c-14 -31 -21 -67 -21 -113 0 -64 1 -68 20 -63 11 3 29 9
40 12 18 5 20 14 20 77 0 55 -5 79 -20 102 l-19 29 -20 -44z"/>
<path d="M6459 2443 c-13 -15 -12 -15 9 -4 23 12 28 21 13 21 -5 0 -15 -7 -22
-17z"/>
<path d="M6625 2420 c3 -5 8 -10 11 -10 2 0 4 5 4 10 0 6 -5 10 -11 10 -5 0
-7 -4 -4 -10z"/>
<path d="M6310 2510 c0 -5 5 -10 10 -10 6 0 10 5 10 10 0 6 -4 10 -10 10 -5 0
-10 -4 -10 -10z"/>
<path d="M6140 2500 c-12 -8 -11 -10 8 -10 13 0 22 -6 22 -15 0 -8 7 -15 15
-15 21 0 19 12 -5 33 -24 20 -21 19 -40 7z"/>
<path d="M5843 2573 c-15 -5 -19 -223 -5 -223 13 0 72 120 72 147 0 27 -17 64
-34 75 -12 9 -16 9 -33 1z"/>
<path d="M5755 2480 c-3 -5 1 -10 10 -10 9 0 13 5 10 10 -3 6 -8 10 -10 10 -2
0 -7 -4 -10 -10z"/>
<path d="M5810 2230 c0 -5 5 -10 10 -10 6 0 10 5 10 10 0 6 -4 10 -10 10 -5 0
-10 -4 -10 -10z"/>
<path d="M7680 2510 c0 -25 4 -39 10 -35 6 3 10 19 10 35 0 16 -4 32 -10 35
-6 4 -10 -10 -10 -35z"/>
<path d="M7414 2445 c-9 -22 1 -29 15 -11 8 10 9 16 1 21 -5 3 -13 -1 -16 -10z"/>
<path d="M7160 2351 c0 -25 6 -27 13 -6 4 8 2 17 -3 20 -6 4 -10 -3 -10 -14z"/>
<path d="M6897 2274 c-10 -10 -9 -62 2 -68 5 -3 11 2 13 12 6 23 -5 65 -15 56z"/>
<path d="M7800 2155 c0 -20 4 -26 18 -23 9 2 17 12 17 23 0 11 -8 21 -17 23
-14 3 -18 -3 -18 -23z"/>
<path d="M8018 2173 c7 -3 16 -2 19 1 4 3 -2 6 -13 5 -11 0 -14 -3 -6 -6z"/>
<path d="M6347 2083 c-11 -10 -8 -63 3 -63 6 0 10 16 10 35 0 36 -2 40 -13 28z"/>
<path d="M7499 1768 c-8 -20 -3 -78 7 -82 16 -6 44 19 44 39 0 21 -44 58 -51
43z"/>
<path d="M7780 1756 c0 -10 9 -16 21 -16 24 0 21 23 -4 28 -10 2 -17 -3 -17
-12z"/>
<path d="M6262 1533 c5 -26 38 -29 38 -4 0 15 -6 21 -21 21 -14 0 -19 -5 -17
-17z"/>
<path d="M6565 1520 c-4 -6 -3 -16 3 -22 13 -13 23 4 13 21 -7 10 -10 10 -16
1z"/>
<path d="M6680 1535 c0 -11 7 -15 23 -13 12 2 22 8 22 13 0 6 -10 11 -22 13
-16 2 -23 -2 -23 -13z"/>
<path d="M7615 1537 c-20 -31 -6 -77 24 -77 30 0 45 34 29 67 -18 36 -34 39
-53 10z"/>
<path d="M7998 1552 c-23 -4 -23 -28 -2 -36 21 -8 27 -3 22 21 -2 11 -10 17
-20 15z"/>
</g>
</svg>
