<?xml version="1.0" standalone="no"?>
<!DOCTYPE svg PUBLIC "-//W3C//DTD SVG 20010904//EN"
 "http://www.w3.org/TR/2001/REC-SVG-20010904/DTD/svg10.dtd">
<svg version="1.0" xmlns="http://www.w3.org/2000/svg"
 width="1024.000000pt" height="1024.000000pt" viewBox="0 0 1024.000000 1024.000000"
 preserveAspectRatio="xMidYMid meet">
<metadata>
Created by potrace 1.16, written by Peter Selinger 2001-2019
</metadata>
<g transform="translate(0.000000,1024.000000) scale(0.100000,-0.100000)"
fill="#000000" stroke="none">
<path d="M4410 7980 c0 -5 -25 -10 -55 -10 -30 0 -55 -4 -55 -10 0 -6 -132
-10 -375 -10 -223 0 -375 -4 -375 -9 0 -6 -95 -10 -226 -10 -161 0 -230 -4
-241 -12 -10 -9 -77 -14 -206 -17 -106 -2 -197 -8 -202 -12 -6 -5 -105 -6
-221 -4 -193 5 -212 4 -218 -12 -6 -15 -19 -16 -140 -10 -90 5 -136 4 -141 -3
-3 -7 -45 -11 -101 -11 -77 0 -94 -3 -94 -15 0 -8 -9 -15 -20 -15 -11 0 -20
-4 -20 -10 0 -5 -6 -10 -13 -10 -37 0 -38 -17 -35 -1072 3 -975 2 -1027 -15
-1022 -11 3 -17 0 -17 -9 0 -12 -11 -14 -60 -10 -41 4 -60 2 -60 -6 0 -6 -13
-11 -30 -11 -16 0 -30 -4 -30 -10 0 -6 -26 -10 -59 -10 -33 0 -63 -4 -66 -10
-3 -5 -29 -10 -56 -10 -35 0 -51 -4 -55 -15 -5 -12 -25 -15 -90 -15 -49 0 -84
-4 -84 -10 0 -5 -25 -10 -55 -10 -30 0 -55 -4 -55 -10 0 -5 -25 -10 -55 -10
-30 0 -55 -4 -55 -10 0 -6 -35 -10 -85 -10 -50 0 -85 -4 -85 -10 0 -5 -22 -10
-49 -10 -28 0 -53 -4 -56 -10 -3 -5 -24 -10 -46 -10 -28 0 -39 -4 -39 -15 0
-8 -9 -15 -20 -15 -29 0 -70 -44 -70 -75 0 -14 -4 -25 -10 -25 -5 0 -10 -16
-10 -35 0 -19 -4 -35 -10 -35 -5 0 -10 -25 -10 -55 0 -42 -3 -55 -15 -55 -11
0 -15 -12 -15 -49 0 -28 -5 -53 -10 -56 -6 -3 -10 -33 -10 -65 0 -32 -5 -62
-10 -65 -6 -3 -10 -28 -10 -55 0 -27 -5 -52 -10 -55 -6 -3 -10 -46 -10 -96 0
-53 -4 -89 -10 -89 -5 0 -10 -20 -10 -45 0 -25 -4 -45 -10 -45 -5 0 -10 -25
-10 -56 0 -46 -3 -55 -15 -50 -13 4 -15 -8 -15 -74 0 -43 -4 -82 -10 -85 -5
-3 -10 -33 -10 -66 0 -33 -4 -59 -10 -59 -6 0 -10 -38 -10 -94 0 -53 -4 -98
-10 -101 -5 -3 -10 -28 -10 -55 0 -27 -4 -52 -10 -55 -5 -3 -10 -28 -10 -56 0
-27 -4 -49 -10 -49 -6 0 -10 -42 -10 -105 0 -63 -4 -105 -10 -105 -5 0 -10
-23 -10 -51 0 -31 -6 -56 -15 -65 -11 -12 -15 -39 -15 -104 0 -53 -4 -90 -11
-92 -6 -2 -11 -51 -11 -129 -2 -136 6 -159 51 -159 12 0 21 -6 21 -15 0 -13
69 -15 568 -14 312 1 559 3 550 6 -42 11 -12 21 65 22 45 1 84 6 85 11 2 6
128 10 333 10 213 0 329 4 329 10 0 7 152 10 435 10 283 0 435 3 435 10 0 6
30 10 70 10 40 0 70 4 70 10 0 6 43 10 110 10 67 0 110 4 110 10 0 6 22 10 49
10 28 0 53 5 56 10 3 5 44 10 91 10 68 0 84 3 84 15 0 12 17 15 90 15 53 0 90
4 90 10 0 6 23 10 50 10 28 0 50 5 50 10 0 6 87 10 240 10 153 0 240 4 240 10
0 6 27 10 60 10 34 0 60 4 60 10 0 7 104 9 318 6 321 -4 422 -11 422 -27 0 -5
16 -9 35 -9 19 0 35 -4 35 -10 0 -5 9 -10 20 -10 11 0 20 -4 20 -10 0 -5 16
-10 35 -10 24 0 35 -5 35 -15 0 -10 10 -15 29 -15 17 0 33 -4 36 -10 3 -5 24
-10 46 -10 21 0 39 -4 39 -10 0 -5 9 -10 20 -10 11 0 20 -4 20 -10 0 -5 14
-10 30 -10 17 0 30 -4 30 -10 0 -5 11 -10 25 -10 14 0 25 -4 25 -10 0 -5 14
-10 30 -10 17 0 30 -4 30 -10 0 -5 15 -10 34 -10 21 0 36 -6 40 -15 3 -8 16
-15 30 -15 14 0 28 -5 31 -10 3 -6 19 -10 36 -10 16 0 29 -4 29 -10 0 -5 13
-10 29 -10 17 0 33 -5 36 -10 3 -5 17 -10 30 -10 13 0 27 -5 30 -10 3 -5 19
-10 36 -10 16 0 29 -4 29 -10 0 -5 13 -10 29 -10 16 0 31 -6 35 -15 3 -9 18
-15 36 -15 16 0 30 -4 30 -10 0 -5 9 -10 20 -10 11 0 20 -4 20 -10 0 -5 16
-10 35 -10 19 0 35 -4 35 -10 0 -5 14 -10 30 -10 17 0 30 -4 30 -10 0 -5 16
-10 35 -10 19 0 35 -4 35 -10 0 -5 14 -10 30 -10 20 0 30 -5 30 -15 0 -10 11
-15 35 -15 19 0 35 -4 35 -10 0 -5 14 -10 30 -10 17 0 30 -4 30 -10 0 -5 14
-10 30 -10 17 0 30 -4 30 -10 0 -5 16 -10 35 -10 19 0 35 -4 35 -10 0 -5 14
-10 30 -10 17 0 30 -4 30 -10 0 -5 16 -10 35 -10 19 0 35 -4 35 -10 0 -5 9
-10 19 -10 10 0 21 -7 25 -15 3 -9 18 -15 36 -15 16 0 30 -4 30 -10 0 -5 13
-10 29 -10 17 0 33 -4 36 -10 3 -5 24 -10 46 -10 21 0 39 -4 39 -10 0 -5 14
-10 30 -10 17 0 30 -4 30 -10 0 -5 11 -10 25 -10 14 0 25 -4 25 -10 0 -5 9
-10 19 -10 10 0 21 -7 25 -15 3 -8 16 -15 30 -15 14 0 28 -4 31 -10 3 -5 24
-10 46 -10 21 0 39 -4 39 -10 0 -5 13 -10 29 -10 17 0 33 -4 36 -10 3 -5 19
-10 36 -10 16 0 29 -4 29 -10 0 -5 9 -10 20 -10 11 0 20 -4 20 -10 0 -5 16
-10 35 -10 19 0 35 -4 35 -10 0 -5 14 -10 30 -10 20 0 30 -5 30 -15 0 -8 9
-15 19 -15 11 0 23 -5 26 -10 3 -5 19 -10 36 -10 16 0 29 -4 29 -10 0 -5 9
-10 19 -10 11 0 23 -4 26 -10 3 -5 19 -10 36 -10 16 0 29 -4 29 -10 0 -5 14
-10 30 -10 17 0 30 -4 30 -10 0 -5 15 -10 34 -10 21 0 36 -6 40 -15 3 -8 16
-15 30 -15 14 0 28 -4 31 -10 3 -5 19 -10 36 -10 16 0 29 -4 29 -10 0 -5 13
-10 29 -10 17 0 33 -4 36 -10 3 -5 17 -10 30 -10 13 0 27 -4 30 -10 3 -5 19
-10 36 -10 16 0 29 -4 29 -10 0 -5 13 -10 29 -10 16 0 31 -6 35 -15 3 -8 15
-15 26 -15 11 0 20 -4 20 -10 0 -5 14 -10 30 -10 17 0 30 -4 30 -10 0 -5 16
-10 35 -10 19 0 35 -4 35 -10 0 -5 14 -10 30 -10 17 0 30 -4 30 -10 0 -6 38
-10 93 -10 81 0 94 2 107 20 8 11 18 20 23 20 14 0 56 54 57 73 0 9 5 17 10
17 6 0 10 14 10 30 0 17 5 30 10 30 6 0 10 11 10 25 0 14 5 25 10 25 6 0 10
14 10 30 0 17 5 30 10 30 6 0 10 9 10 19 0 10 7 21 15 25 8 3 15 15 15 26 0
11 5 20 10 20 6 0 10 9 10 20 0 11 5 20 10 20 6 0 10 9 10 20 0 11 5 20 10 20
6 0 10 11 10 25 0 14 5 25 10 25 6 0 10 9 10 20 0 11 5 20 10 20 6 0 10 13 10
29 0 16 6 31 15 35 8 3 15 12 15 20 0 9 9 31 20 51 11 20 20 44 20 55 0 11 5
20 10 20 6 0 10 11 10 25 0 14 5 25 10 25 6 0 10 9 10 20 0 11 5 20 10 20 6 0
10 16 10 35 0 19 5 35 10 35 6 0 10 9 10 20 0 11 7 20 15 20 8 0 15 9 15 19 0
11 5 23 10 26 6 3 10 19 10 36 0 16 5 29 10 29 6 0 10 9 10 20 0 11 5 20 10
20 6 0 10 14 10 30 0 17 5 30 10 30 6 0 10 11 10 25 0 14 5 25 10 25 6 0 10 9
10 20 0 11 7 20 15 20 8 0 15 9 15 19 0 11 5 23 10 26 6 3 10 19 10 36 0 16 5
29 10 29 6 0 10 9 10 20 0 11 5 20 10 20 6 0 10 16 10 35 0 19 5 35 10 35 6 0
10 9 10 20 0 11 5 20 10 20 6 0 10 9 10 19 0 10 7 21 15 25 8 3 15 15 15 26 0
11 5 20 10 20 6 0 10 9 10 20 0 11 5 20 10 20 6 0 10 14 10 30 0 17 5 30 10
30 6 0 10 11 10 25 0 14 5 25 10 25 6 0 10 9 10 20 0 11 5 20 10 20 6 0 10 9
10 20 0 11 5 20 10 20 6 0 10 16 10 35 0 24 5 35 15 35 8 0 15 9 15 19 0 11 5
23 10 26 5 3 10 19 10 36 0 16 5 29 10 29 6 0 10 9 10 20 0 11 5 20 10 20 6 0
10 9 10 20 0 11 5 20 10 20 6 0 10 9 10 20 0 11 5 20 10 20 6 0 10 16 10 35 0
24 5 35 15 35 8 0 15 9 15 19 0 11 5 23 10 26 6 3 10 19 10 36 0 16 5 29 10
29 6 0 10 9 10 20 0 11 5 20 10 20 6 0 10 9 10 20 0 11 5 20 10 20 6 0 10 16
10 35 0 19 5 35 10 35 6 0 10 9 10 20 0 11 5 20 10 20 6 0 10 9 10 19 0 10 7
21 15 25 8 3 15 15 15 26 0 11 5 20 10 20 6 0 10 14 10 30 0 17 5 30 10 30 6
0 10 9 10 19 0 11 5 23 10 26 6 3 10 19 10 36 0 16 5 29 10 29 6 0 10 9 10 20
0 11 5 20 10 20 6 0 10 11 10 25 0 16 6 25 15 25 8 0 15 8 15 18 0 10 6 24 13
30 8 9 12 48 12 120 0 92 -3 110 -20 130 -11 12 -27 22 -37 22 -10 0 -18 5
-18 10 0 6 -9 10 -20 10 -11 0 -20 5 -20 10 0 6 -25 10 -55 10 -30 0 -55 5
-55 10 0 6 -25 10 -55 10 -30 0 -55 5 -55 10 0 6 -32 10 -75 10 -43 0 -75 4
-75 10 0 6 -21 10 -46 10 -27 0 -51 6 -60 15 -9 9 -34 15 -59 15 -24 0 -47 5
-50 10 -3 6 -28 10 -55 10 -27 0 -52 5 -55 10 -3 6 -28 10 -56 10 -27 0 -49 5
-49 10 0 6 -32 10 -75 10 -43 0 -75 4 -75 10 0 6 -25 10 -55 10 -30 0 -55 5
-55 10 0 6 -22 10 -50 10 -27 0 -50 5 -50 10 0 6 -24 10 -54 10 -39 0 -55 4
-60 15 -4 11 -20 15 -56 15 -27 0 -50 5 -50 10 0 6 -32 10 -75 10 -43 0 -75 4
-75 10 0 6 -20 10 -45 10 -25 0 -45 5 -45 10 0 6 -18 10 -39 10 -22 0 -43 5
-46 10 -3 6 -28 10 -56 10 -27 0 -49 5 -49 10 0 6 -20 10 -45 10 -31 0 -45 4
-45 13 0 10 -14 13 -55 9 l-55 -4 0 141 c0 119 2 141 15 141 13 0 15 57 15
454 0 293 4 457 10 461 6 4 10 65 10 151 0 89 4 144 10 144 7 0 10 147 10 420
0 273 -3 420 -10 420 -5 0 -10 14 -10 31 0 30 -19 59 -39 59 -6 0 -11 4 -11 8
0 28 -105 32 -915 32 -543 0 -825 3 -825 10 0 6 -105 10 -295 10 -190 0 -295
4 -295 10 0 7 -142 10 -405 10 -263 0 -405 -3 -405 -10 0 -5 -12 -10 -26 -10
-57 0 -54 41 -55 -842 -1 -447 -4 -874 -8 -948 l-6 -134 -31 -2 c-18 -1 -37 2
-43 5 -8 6 -12 260 -13 951 -1 989 0 970 -42 970 -9 0 -16 5 -16 10 0 6 -60
10 -160 10 -100 0 -160 -4 -160 -10z m1425 -98 c187 -5 347 -11 355 -15 13 -5
161 -11 595 -23 139 -3 711 -23 855 -30 41 -2 144 -3 228 -4 144 0 152 -1 152
-20 0 -30 -28 -38 -130 -35 -52 2 -246 8 -430 13 -184 6 -377 12 -429 15 -93
4 -94 4 -70 -14 13 -10 34 -19 47 -19 12 0 22 -4 22 -10 0 -5 9 -10 20 -10 11
0 20 -4 20 -10 0 -5 9 -10 19 -10 11 0 21 -3 23 -7 4 -10 85 -63 96 -63 4 0
14 -9 22 -20 8 -11 20 -20 27 -20 7 0 13 -3 13 -7 0 -5 13 -17 29 -28 17 -11
32 -27 34 -37 3 -10 12 -18 20 -18 8 0 22 -16 31 -35 16 -34 51 -77 121 -149
17 -17 44 -49 60 -71 16 -22 32 -42 35 -45 10 -9 80 -131 80 -139 0 -5 8 -19
18 -32 10 -13 24 -44 32 -69 7 -25 17 -49 22 -55 4 -5 8 -19 8 -31 0 -13 4
-25 9 -28 5 -3 11 -20 14 -38 4 -18 11 -58 17 -88 25 -130 29 -161 28 -280 0
-69 -4 -152 -9 -185 -5 -33 -12 -78 -15 -100 -4 -22 -10 -44 -15 -49 -5 -6 -9
-25 -9 -42 0 -18 -4 -36 -10 -39 -5 -3 -10 -15 -10 -26 0 -10 -4 -27 -9 -37
-5 -9 -13 -28 -19 -42 -21 -54 -67 -140 -74 -140 -5 0 -8 -9 -8 -20 0 -11 -4
-20 -10 -20 -5 0 -10 -7 -10 -15 0 -8 -4 -15 -10 -15 -5 0 -10 -6 -10 -13 0
-7 -17 -32 -39 -55 -32 -37 -42 -42 -65 -36 -14 3 -26 8 -26 10 0 7 42 65 68
94 12 13 22 28 22 33 0 4 9 17 20 29 11 12 20 28 20 35 0 7 5 13 10 13 6 0 10
9 10 20 0 11 5 20 10 20 6 0 10 6 10 12 0 7 12 38 27 68 14 30 30 64 34 75 3
11 12 33 18 48 6 15 11 39 11 52 0 13 5 27 10 30 6 3 10 28 10 54 0 26 5 52
10 57 19 19 2 398 -20 449 -5 11 -11 34 -15 50 -14 70 -18 82 -31 112 -8 17
-14 34 -14 38 0 9 -82 178 -89 185 -4 3 -13 19 -21 35 -16 32 -18 35 -55 80
-14 17 -25 36 -25 43 0 6 -4 12 -10 12 -5 0 -10 5 -10 10 0 13 -177 190 -190
190 -6 0 -10 4 -10 8 0 4 -12 15 -27 24 -16 9 -39 26 -53 37 -40 33 -43 35
-95 61 -27 14 -51 28 -53 33 -2 4 -9 7 -15 7 -7 0 -37 12 -67 26 -30 15 -72
35 -93 45 -22 11 -52 19 -67 19 -16 0 -32 5 -35 10 -3 6 -28 10 -54 10 -26 0
-52 5 -57 10 -15 15 -376 15 -403 1 -11 -6 -35 -11 -55 -11 -19 0 -38 -4 -41
-10 -3 -5 -16 -10 -27 -10 -25 0 -75 -15 -138 -43 -25 -10 -61 -26 -80 -34
-47 -20 -101 -48 -124 -66 -6 -4 -40 -29 -76 -55 -64 -46 -210 -187 -210 -203
0 -4 -6 -14 -13 -21 -26 -27 -87 -116 -87 -127 0 -6 -4 -11 -10 -11 -5 0 -10
-9 -10 -20 0 -11 -4 -20 -10 -20 -5 0 -10 -5 -10 -11 0 -6 -13 -39 -29 -73
-36 -75 -61 -144 -61 -171 0 -12 -4 -25 -9 -30 -31 -34 -49 -503 -19 -521 4
-3 8 -27 8 -55 0 -27 5 -49 10 -49 6 0 10 -13 10 -29 0 -17 5 -33 10 -36 6 -3
10 -19 10 -36 0 -16 4 -29 8 -29 4 0 13 -13 19 -29 8 -23 8 -31 -2 -35 -16 -6
-45 35 -45 64 0 11 -4 20 -10 20 -5 0 -10 15 -10 34 0 19 -4 37 -9 40 -37 23
-60 458 -32 606 6 36 14 80 17 98 4 18 10 35 15 38 5 3 9 16 9 29 0 13 5 27
10 30 6 3 10 17 10 31 0 13 5 24 10 24 6 0 10 11 10 24 0 13 3 26 8 28 4 2 20
29 37 61 16 31 33 57 37 57 4 0 8 9 8 20 0 11 5 20 10 20 6 0 10 6 10 14 0 8
6 16 13 19 6 2 8 8 4 13 -5 5 -12 2 -17 -6 -5 -9 -22 -31 -39 -50 -17 -19 -36
-50 -43 -67 -7 -18 -16 -33 -20 -33 -4 0 -8 -9 -8 -20 0 -11 -4 -20 -10 -20
-5 0 -10 -7 -10 -15 0 -8 -4 -24 -10 -35 -5 -11 -14 -29 -20 -40 -5 -11 -10
-29 -10 -39 0 -11 -4 -23 -10 -26 -6 -4 -10 7 -10 24 0 17 5 31 10 31 6 0 10
14 10 30 0 17 5 30 10 30 6 0 10 7 10 15 0 8 4 23 9 33 5 9 15 31 22 47 8 17
17 35 22 40 16 21 57 86 57 90 0 9 44 55 52 55 4 0 8 -7 8 -15 0 -8 5 -15 10
-15 6 0 10 5 10 10 0 33 302 300 339 300 6 0 11 5 11 10 0 6 9 10 20 10 11 0
20 5 20 10 0 6 5 10 11 10 5 0 27 11 47 25 20 14 45 25 54 25 10 0 18 5 18 10
0 6 9 10 19 10 11 0 23 5 26 10 3 6 19 10 36 10 16 0 29 5 29 10 0 6 11 10 24
10 35 0 56 10 56 26 0 16 -16 19 -25 4 -3 -5 -22 -10 -41 -10 -19 0 -34 -4
-34 -10 0 -5 -13 -10 -30 -10 -16 0 -30 -4 -30 -10 0 -5 -11 -10 -25 -10 -14
0 -25 -4 -25 -10 0 -5 -9 -10 -19 -10 -11 0 -23 -4 -26 -10 -3 -5 -13 -10 -21
-10 -14 0 -24 -7 -59 -37 -7 -7 -21 -13 -29 -13 -9 0 -16 -4 -16 -10 0 -5 -7
-10 -15 -10 -8 0 -15 -4 -15 -10 0 -5 -7 -10 -16 -10 -8 0 -32 -17 -52 -38
-45 -45 -89 -75 -96 -63 -6 9 89 101 104 101 6 0 10 5 10 10 0 6 7 10 15 10 8
0 15 4 15 8 0 5 16 17 35 28 19 10 35 22 35 26 0 5 9 8 20 8 11 0 20 5 20 10
0 6 9 10 20 10 11 0 20 5 20 10 0 6 7 10 15 10 8 0 24 5 35 10 11 6 29 15 40
20 11 6 29 10 39 10 29 0 36 19 9 24 -23 5 -222 13 -583 22 -115 3 -205 10
-213 16 -6 6 -26 8 -42 4 -17 -3 -30 -1 -30 4 0 17 -51 24 -61 9 -8 -12 -11
-12 -19 1 -5 8 -10 19 -10 23 0 5 98 6 218 3 119 -3 370 -9 557 -14z m-3286
-260 c7 -13 6 -23 -1 -30 -9 -9 -8 -12 5 -12 9 0 17 5 17 11 0 5 5 7 10 4 15
-10 12 -35 -5 -35 -18 0 -20 -16 -3 -26 6 -4 14 -2 16 5 7 22 49 61 65 61 9 0
19 5 22 10 3 6 20 10 36 10 26 0 29 -3 24 -20 -6 -17 -2 -20 28 -20 20 0 37 6
40 13 3 9 9 9 28 0 13 -7 37 -14 54 -15 20 -2 34 -11 42 -27 6 -14 22 -26 35
-27 106 -13 135 -32 158 -105 12 -40 21 -53 33 -51 25 4 38 -29 21 -53 -9 -12
-17 -16 -22 -10 -4 6 -26 17 -50 25 -33 10 -48 11 -68 1 -15 -6 -34 -9 -44 -6
-9 3 -30 1 -46 -5 -22 -9 -29 -8 -36 4 -12 21 -62 5 -66 -21 -3 -18 -12 -22
-60 -27 -93 -9 -101 -11 -130 -37 -15 -14 -35 -28 -45 -32 -9 -3 -17 -12 -17
-19 0 -7 -21 -28 -45 -47 -25 -18 -45 -40 -45 -47 0 -8 -6 -14 -14 -14 -18 0
-30 -30 -16 -44 18 -18 11 -33 -20 -39 -16 -4 -30 -12 -30 -18 0 -6 7 -9 15
-6 8 4 17 2 21 -4 11 -19 -5 -23 -33 -8 -20 11 -27 11 -30 2 -3 -7 -14 -13
-25 -13 -36 0 -14 -27 37 -46 18 -6 18 -8 3 -11 -19 -5 -25 -23 -8 -23 6 0 15
-10 20 -22 6 -17 9 -19 9 -6 1 25 36 41 50 24 9 -11 9 -16 1 -21 -8 -5 -4 -14
10 -27 17 -16 24 -18 30 -8 7 11 11 10 24 -3 9 -8 16 -19 16 -23 0 -5 -5 -3
-12 4 -16 16 -28 15 -28 -2 0 -8 10 -22 22 -30 19 -14 20 -16 5 -16 -20 0 -47
-23 -47 -39 0 -6 -4 -11 -10 -11 -5 0 -10 5 -10 10 0 6 -4 10 -10 10 -5 0 -10
-9 -10 -20 0 -26 14 -25 51 1 22 15 29 17 29 6 0 -8 11 -23 25 -33 17 -13 25
-28 25 -50 0 -21 9 -39 30 -59 30 -28 39 -55 20 -55 -5 0 -10 5 -10 10 0 6 -9
10 -20 10 -13 0 -20 -7 -20 -20 0 -11 4 -20 10 -20 11 0 70 -84 70 -99 0 -6
-9 -11 -19 -11 -11 0 -21 -4 -23 -8 -5 -14 -52 -22 -68 -12 -12 8 -12 12 -2
18 19 13 3 42 -23 42 -13 0 -27 5 -30 10 -3 6 -1 10 4 10 6 0 11 11 11 25 0
22 -4 25 -34 25 -21 0 -42 9 -59 24 -27 25 -37 24 -37 -6 0 -19 3 -21 -59 32
-10 8 -21 32 -25 53 -4 23 -12 37 -22 37 -8 0 -17 7 -20 15 -9 22 -24 18 -24
-6 0 -11 -4 -17 -10 -14 -5 3 -10 22 -10 41 0 19 -4 34 -10 34 -5 0 -10 9 -10
21 0 23 -27 55 -38 45 -3 -4 -1 -16 6 -26 7 -11 12 -38 12 -59 0 -22 5 -43 10
-46 6 -3 10 -15 10 -25 0 -10 6 -20 13 -23 6 -2 -6 -4 -28 -3 -22 1 -44 7 -48
14 -7 10 -12 10 -23 1 -18 -15 -18 -38 0 -45 8 -3 18 -19 21 -35 4 -16 11 -31
16 -34 4 -3 6 -25 3 -49 -4 -29 -1 -52 10 -74 17 -33 21 -79 7 -100 -6 -10
-15 -4 -34 22 -15 19 -27 39 -27 45 0 6 -4 11 -10 11 -5 0 -10 8 -10 18 0 18
-34 62 -48 62 -4 0 -16 19 -27 41 -10 23 -26 44 -35 47 -22 8 -40 28 -40 44 0
8 -4 18 -10 24 -5 5 -10 29 -12 54 -2 25 -7 48 -11 51 -5 4 -7 17 -4 30 l4 24
8 -22 c9 -28 25 -30 25 -3 0 14 7 20 23 21 12 0 16 3 10 6 -7 2 -13 14 -13 25
0 11 -8 28 -18 37 -39 34 -57 90 -22 69 11 -7 20 -16 20 -21 0 -7 9 -19 68
-83 12 -14 22 -29 22 -34 0 -6 5 -10 10 -10 6 0 10 -16 10 -36 0 -43 23 -72
43 -52 6 7 13 25 14 41 1 20 -4 27 -18 27 -12 0 -19 7 -19 19 0 11 -8 22 -17
25 -10 3 -27 19 -38 36 -11 16 -23 30 -27 30 -5 0 -8 10 -8 23 0 13 -4 27 -9
33 -15 15 -24 91 -12 99 14 8 14 45 0 45 -30 0 -54 69 -29 85 7 4 6 13 -1 27
-9 16 -8 23 2 29 18 11 27 11 71 -5 41 -15 54 -11 37 11 -16 19 5 17 25 -2 20
-20 26 -19 26 6 0 14 5 19 14 16 10 -4 12 0 9 14 -3 10 -2 26 1 35 5 13 9 14
21 4 13 -10 15 -9 15 9 0 13 10 26 25 33 14 6 25 15 25 20 0 4 5 8 10 8 6 0
10 -7 10 -15 0 -8 5 -15 10 -15 6 0 10 -8 10 -17 1 -22 23 -53 39 -53 6 0 11
18 11 45 0 34 4 45 16 45 10 0 13 6 10 18 -7 21 28 82 48 82 20 0 39 63 31
100 -5 23 -3 30 8 30 9 0 17 4 19 10 5 14 102 119 110 120 4 0 12 -8 17 -18z
m3600 -89 c6 -16 21 -44 33 -63 12 -19 26 -59 31 -90 7 -52 13 -89 37 -225 5
-33 14 -87 19 -120 5 -33 20 -117 33 -187 17 -90 21 -128 13 -128 -16 0 -49
-30 -64 -59 -18 -33 -33 -14 -43 56 -5 32 -13 85 -18 118 -5 33 -21 121 -35
195 -15 74 -29 160 -32 190 -3 30 -9 59 -14 65 -5 5 -9 31 -9 57 0 27 -6 57
-12 68 -10 15 -10 22 0 32 6 6 12 30 12 53 0 63 30 85 49 38z m670 -27 c14
-48 10 -149 -9 -251 -6 -33 -15 -85 -20 -115 -5 -30 -14 -80 -19 -110 -5 -30
-14 -82 -20 -115 -20 -122 -47 -255 -53 -261 -4 -3 -27 16 -53 42 -38 40 -45
53 -40 74 3 14 8 48 11 75 3 28 9 59 14 70 5 11 11 40 14 65 3 25 10 72 16
105 6 33 15 87 20 120 21 146 42 232 66 267 13 21 24 40 24 43 0 8 23 34 30
35 3 0 11 -20 19 -44z m-735 -248 c19 -122 18 -136 -3 -167 -12 -16 -21 -32
-21 -35 0 -4 -5 -12 -10 -19 -17 -20 -80 -129 -80 -138 0 -5 -4 -9 -10 -9 -5
0 -10 -9 -10 -20 0 -11 -4 -20 -8 -20 -5 0 -14 -16 -22 -35 -8 -19 -16 -35
-20 -35 -3 0 -14 -17 -25 -37 -46 -90 -52 -94 -114 -91 -67 4 -68 11 -15 93
19 30 34 59 34 65 0 5 5 10 10 10 6 0 10 9 10 20 0 11 5 20 10 20 6 0 10 7 10
15 0 8 5 15 10 15 6 0 10 9 10 20 0 11 5 20 10 20 6 0 10 4 10 9 0 13 73 135
82 139 5 2 8 12 8 23 0 10 3 19 8 19 4 0 13 15 21 33 8 17 17 34 21 37 4 3 19
29 35 58 15 28 31 52 36 52 4 0 10 -19 13 -42z m802 -10 c9 -18 22 -43 28 -55
6 -13 14 -23 19 -23 4 0 7 -9 7 -20 0 -11 5 -20 10 -20 6 0 10 -5 10 -10 0 -6
16 -36 35 -66 19 -30 35 -59 35 -64 0 -6 5 -10 10 -10 6 0 10 -7 10 -16 0 -9
8 -28 18 -42 29 -45 41 -65 59 -102 9 -19 20 -37 23 -40 11 -8 90 -157 90
-169 0 -16 -118 -4 -136 14 -8 7 -14 17 -14 22 0 4 -9 19 -20 33 -11 14 -20
33 -20 43 0 9 -4 17 -10 17 -5 0 -10 5 -10 10 0 6 -16 36 -35 66 -19 30 -35
59 -35 64 0 6 -4 10 -10 10 -5 0 -10 9 -10 20 0 11 -4 20 -10 20 -5 0 -10 6
-10 13 0 6 -9 23 -20 37 -11 14 -20 31 -20 38 0 12 -8 24 -40 59 -25 28 -8
203 20 203 5 0 16 -15 26 -32z m-3586 -362 c0 -14 8 -31 18 -38 24 -17 37 -88
16 -88 -8 0 -14 -4 -14 -10 0 -5 -9 -10 -19 -10 -10 0 -21 -7 -25 -15 -3 -8
-12 -15 -21 -15 -8 0 -15 -4 -15 -10 0 -5 -7 -10 -15 -10 -8 0 -15 -4 -15 -10
0 -17 44 -11 70 10 26 20 80 27 80 10 0 -5 10 -19 22 -30 18 -16 20 -24 12
-38 -6 -9 -22 -19 -35 -20 -28 -5 -59 -34 -59 -58 0 -12 7 -15 31 -12 24 4 34
-1 51 -25 19 -27 19 -30 4 -45 -13 -13 -19 -14 -24 -4 -6 9 -13 7 -30 -8 -28
-27 -88 -27 -97 -1 -8 25 -34 35 -42 15 -4 -10 -16 -14 -36 -12 -26 3 -32 -1
-37 -22 -5 -20 -13 -26 -42 -28 -23 -2 -41 3 -53 14 -14 14 -18 15 -25 3 -5
-8 -17 -14 -27 -14 -10 0 -18 -6 -17 -12 1 -7 2 -23 3 -34 1 -18 3 -19 16 -9
8 7 15 9 15 6 0 -4 -7 -14 -15 -22 -8 -9 -15 -11 -15 -5 0 17 -21 13 -40 -9
-16 -19 -71 -23 -98 -6 -5 3 -17 3 -26 0 -25 -10 -20 31 7 53 12 10 28 26 36
36 12 15 12 19 -5 31 -15 12 -16 16 -5 30 11 13 11 19 1 31 -8 9 -8 15 -2 15
6 0 12 -6 14 -12 4 -12 68 42 68 57 0 4 29 36 65 72 36 35 65 69 65 74 0 5 4
9 9 9 5 0 11 9 14 20 3 13 14 20 29 20 22 1 58 21 58 33 0 16 100 97 120 97 5
0 10 5 10 10 0 6 5 10 10 10 6 0 10 -11 10 -24z m2556 -438 c20 -18 60 -55 88
-83 29 -27 95 -88 146 -135 52 -47 120 -111 151 -142 54 -54 57 -60 67 -129 6
-40 8 -77 5 -82 -3 -5 -24 10 -47 34 -23 24 -77 76 -121 114 -44 39 -117 107
-162 153 -46 45 -85 82 -88 82 -4 0 -48 41 -192 177 -18 17 -33 34 -33 37 0 3
34 6 75 6 70 0 77 -2 111 -32z m1399 -64 c-16 -14 -49 -41 -72 -61 -23 -19
-54 -45 -69 -57 -15 -11 -36 -30 -48 -41 -12 -11 -39 -33 -61 -50 -22 -16 -51
-40 -65 -53 -14 -13 -37 -31 -52 -40 -16 -9 -28 -20 -28 -24 0 -4 -4 -8 -10
-8 -5 0 -19 -10 -32 -22 -13 -13 -41 -36 -62 -53 -38 -29 -78 -64 -123 -105
-31 -28 -36 -25 -29 18 3 20 9 58 12 85 4 26 10 47 15 47 5 0 9 6 9 13 0 7 18
23 40 37 22 14 40 28 40 32 0 5 5 8 10 8 6 0 21 10 34 23 45 43 97 87 102 87
3 0 15 10 28 23 12 12 58 49 100 82 43 33 83 65 90 72 7 8 45 12 106 12 l95 0
-30 -25z m-4140 -24 c3 -5 22 -10 41 -10 38 0 42 -7 17 -26 -17 -13 -17 -13 1
-14 13 0 17 -5 13 -20 -5 -18 -1 -19 36 -14 23 3 48 7 55 10 17 5 43 -6 36
-17 -3 -5 -16 -9 -29 -9 -13 0 -26 -4 -29 -8 -7 -12 7 -27 24 -27 8 0 17 -11
18 -24 2 -13 10 -31 18 -39 12 -12 11 -17 -8 -37 -20 -21 -25 -22 -39 -9 -22
20 -39 17 -39 -6 0 -24 -6 -25 -26 -5 -9 8 -20 15 -25 15 -5 0 -9 -7 -9 -15 0
-22 -41 -19 -47 4 -4 17 -9 18 -34 9 -16 -5 -29 -14 -29 -19 0 -5 -9 -9 -20
-9 -11 0 -20 -5 -20 -11 0 -6 -9 -9 -20 -6 -10 3 -24 -1 -31 -9 -6 -8 -18 -14
-25 -14 -8 0 -14 -4 -14 -10 0 -5 -9 -10 -20 -10 -11 0 -20 3 -20 6 0 15 61
54 84 54 14 0 31 29 22 37 -2 3 -15 -2 -28 -10 -30 -19 -78 -30 -78 -18 0 5 6
11 13 14 6 2 8 8 4 13 -4 5 -12 2 -17 -5 -4 -8 -15 -11 -24 -8 -21 8 -10 36
20 47 17 7 22 16 22 40 -1 23 9 40 45 76 26 25 47 50 47 55 0 5 14 12 30 16
17 3 30 9 30 14 0 12 47 11 55 -1z m3201 -85 c4 -8 15 -15 25 -15 10 0 19 -4
19 -10 0 -5 8 -10 18 -10 28 0 40 -33 62 -170 12 -69 25 -150 30 -180 28 -159
32 -189 32 -240 0 -65 -11 -140 -21 -140 -4 0 -12 8 -19 18 -63 92 -66 98 -83
205 -5 31 -13 84 -19 117 -5 33 -14 86 -19 118 -5 31 -18 106 -30 166 -12 60
-21 120 -21 133 0 26 17 31 26 8z m324 -23 c0 -4 -4 -12 -9 -17 -5 -6 -12 -32
-15 -60 -7 -70 -22 -157 -41 -245 -10 -41 -20 -102 -24 -135 l-6 -60 -17 35
c-9 19 -19 58 -22 85 -4 42 -15 108 -27 175 -4 20 9 105 23 151 11 37 40 59
78 59 11 0 20 5 20 10 0 6 9 10 20 10 11 0 20 -4 20 -8z m-3213 -588 c32 -3
63 -23 63 -41 0 -4 -23 -20 -50 -36 -37 -20 -55 -38 -66 -65 -9 -20 -20 -45
-25 -54 -5 -10 -9 -20 -9 -23 0 -11 63 -4 76 9 16 17 19 36 4 36 -14 0 -12 36
3 48 6 6 29 10 50 9 23 -1 42 5 48 13 17 24 5 -2 -16 -37 -11 -18 -25 -33 -30
-33 -13 0 -39 -29 -48 -53 -4 -10 -17 -17 -32 -17 -14 0 -25 -4 -25 -10 0 -5
-7 -10 -15 -10 -8 0 -15 -4 -15 -10 0 -9 14 -14 65 -23 18 -3 15 -8 -19 -40
-45 -42 -54 -44 -63 -19 -4 9 -9 19 -12 22 -14 12 -31 64 -31 95 0 26 8 43 31
65 27 26 29 31 14 36 -10 4 -21 1 -25 -7 -16 -24 -24 1 -12 34 7 19 12 42 12
53 1 25 23 54 43 54 9 0 19 5 22 10 4 6 11 7 17 4 6 -4 26 -8 45 -10z m933
-14 c11 -7 7 -10 -17 -10 -18 0 -33 -4 -33 -9 0 -5 -13 -22 -30 -38 -16 -15
-30 -34 -30 -41 0 -7 -7 -20 -15 -28 -21 -22 -19 -31 12 -39 l27 -6 -28 -22
c-38 -31 -27 -57 25 -57 28 0 39 -4 39 -15 0 -9 -8 -18 -17 -21 -10 -3 -26
-10 -36 -15 -11 -6 -20 -9 -22 -7 -13 16 -25 52 -25 76 0 16 -7 35 -15 42 -24
20 -18 47 20 84 37 37 44 56 21 56 -8 0 -16 7 -20 15 -11 30 107 59 144 35z
m-1546 -305 c11 -8 33 -15 48 -15 l29 0 -21 -22 c-11 -12 -26 -42 -33 -67 -15
-51 -9 -60 33 -61 24 -1 23 -1 -6 -14 -43 -19 -50 -34 -21 -45 14 -6 28 -14
31 -20 11 -17 -13 -51 -34 -51 -35 0 -21 -29 23 -49 50 -23 74 -55 56 -77 -6
-7 -8 -21 -5 -30 6 -16 8 -15 21 2 12 16 17 17 35 6 19 -12 22 -11 27 7 3 12
10 21 15 21 15 0 1 -50 -22 -82 -11 -15 -20 -32 -20 -38 0 -5 -4 -10 -10 -10
-5 0 -10 -5 -10 -10 0 -6 -10 -21 -22 -33 -13 -13 -30 -34 -39 -47 l-17 -25
-16 40 c-10 24 -15 52 -12 69 4 18 -4 68 -19 123 -14 52 -25 102 -23 111 1 10
-7 31 -18 47 -22 31 -32 66 -41 149 -5 44 -3 48 14 42 18 -6 63 21 63 38 0 10
-48 7 -55 -4 -10 -17 -25 -11 -25 9 0 11 9 23 20 26 11 3 20 11 20 16 0 13 12
11 34 -6z m616 -81 c-13 -33 -13 -34 4 -34 8 0 16 6 19 13 2 7 8 8 13 3 5 -5
4 -11 -3 -13 -21 -8 -16 -64 6 -70 17 -4 19 -17 23 -146 3 -125 2 -144 -14
-159 -19 -20 -48 -24 -48 -8 0 6 5 10 10 10 6 0 10 14 10 30 0 17 5 30 10 30
6 0 10 7 10 15 0 8 -3 15 -7 15 -9 0 -33 -49 -33 -67 0 -25 -32 -10 -43 20 -3
9 -13 17 -22 17 -13 0 -15 10 -9 68 4 37 11 75 16 85 6 12 6 23 0 30 -8 10
-17 130 -13 173 1 7 19 12 41 12 38 1 39 0 30 -24z m970 16 c0 -5 -5 -10 -11
-10 -16 0 -41 -29 -34 -40 3 -5 19 -7 35 -3 34 6 41 -12 13 -32 -18 -13 -10
-35 13 -35 26 0 65 53 78 103 3 15 13 27 21 27 17 0 20 -16 5 -25 -5 -3 -10
-17 -10 -31 0 -14 -7 -27 -15 -30 -8 -4 -15 -14 -15 -24 0 -10 -6 -20 -12 -23
-9 -3 -7 -9 7 -20 14 -11 24 -12 32 -5 10 8 12 3 6 -23 l-6 -33 23 22 c26 24
40 28 40 12 0 -5 -4 -10 -10 -10 -5 0 -10 -6 -10 -12 0 -7 -11 -35 -24 -63
-14 -27 -35 -72 -47 -100 -13 -27 -25 -52 -26 -54 -2 -3 -10 4 -18 15 -8 11
-15 14 -15 7 0 -7 -4 -13 -10 -13 -15 0 -12 67 3 73 9 4 8 8 -3 17 -11 9 -12
13 -2 17 6 2 12 14 12 25 0 15 5 18 23 13 16 -5 18 -4 8 4 -13 8 -13 12 0 27
11 13 11 18 2 21 -7 3 -13 11 -13 20 0 17 -24 43 -39 43 -6 0 -11 5 -11 10 0
6 -8 10 -19 10 -28 0 -41 22 -48 79 l-6 51 42 0 c22 0 41 -4 41 -10z m-2287
-100 c-11 -12 -30 -20 -50 -20 -18 0 -33 -4 -33 -10 0 -5 -6 -10 -13 -10 -16
0 -37 -41 -37 -70 0 -11 -9 -25 -20 -32 -31 -20 -24 -28 26 -28 l47 0 -6 34
c-9 55 1 76 34 76 16 0 29 -5 29 -11 0 -7 12 -10 30 -7 17 3 30 1 30 -4 0 -5
-13 -22 -30 -38 -16 -16 -30 -38 -30 -48 0 -21 -22 -72 -32 -72 -4 0 -13 7
-22 15 -13 14 -68 18 -89 8 -16 -9 24 -33 50 -31 16 1 34 -2 41 -6 28 -17 -69
-63 -105 -49 -7 3 -13 13 -13 23 0 11 -4 22 -10 25 -19 12 -12 115 10 146 12
15 26 42 31 59 7 19 18 30 30 30 10 0 19 4 19 9 0 10 62 28 102 30 27 1 27 0
11 -19z m-127 -351 c4 -8 9 -8 17 0 14 14 47 14 47 0 0 -6 -5 -19 -10 -30 -9
-16 -7 -19 10 -19 11 0 20 -7 20 -15 0 -24 29 -17 55 13 28 31 33 16 10 -29
-9 -16 -13 -34 -10 -40 14 -22 -18 -39 -74 -39 -75 0 -111 28 -111 89 0 57 27
99 46 70z m6378 -14 c3 -10 16 -15 34 -13 34 2 92 -20 92 -36 0 -6 14 -17 31
-23 24 -9 30 -16 25 -29 -4 -10 -1 -21 6 -25 7 -4 9 -11 5 -16 -4 -4 -17 -2
-27 5 -11 7 -33 12 -50 12 -16 0 -30 4 -30 8 0 9 -123 7 -165 -3 -16 -4 -40
-18 -53 -31 -13 -13 -30 -24 -38 -24 -8 0 -12 -4 -9 -10 3 -5 8 -23 10 -39 2
-17 6 -39 10 -50 3 -11 1 -22 -5 -26 -5 -3 -10 -19 -10 -36 0 -22 -5 -29 -20
-29 -13 0 -20 7 -20 18 0 11 -9 27 -21 38 -12 10 -28 36 -37 58 -13 34 -17 37
-27 22 -17 -23 -25 -20 -25 9 0 14 -4 25 -10 25 -5 0 -10 -22 -10 -50 0 -27
-4 -50 -9 -50 -5 0 -11 -10 -13 -22 -4 -30 -21 -20 -23 12 -1 14 -5 37 -9 52
-8 27 4 45 52 78 12 8 22 22 22 32 0 9 5 20 10 23 6 3 10 17 10 31 0 29 9 30
37 4 21 -19 22 -19 28 -1 8 25 52 33 65 12 8 -14 11 -14 19 -2 6 9 28 15 58
15 42 1 48 4 51 24 2 12 8 22 13 22 5 0 9 7 9 15 0 19 16 19 24 0z m161 -314
c-4 -19 -13 -31 -23 -31 -15 -1 -15 -2 1 -11 22 -13 22 -25 -2 -32 -14 -3 -17
-11 -14 -31 3 -14 1 -26 -4 -26 -20 0 -73 22 -73 31 0 4 -40 6 -90 3 -55 -3
-90 -1 -90 5 0 6 11 22 24 36 17 19 31 25 44 21 11 -4 26 -1 33 6 22 21 62 36
115 43 27 4 56 11 64 15 20 11 23 6 15 -29z m-763 -543 c22 1 35 -8 60 -45 18
-25 50 -64 71 -86 29 -31 35 -43 26 -54 -7 -7 -20 -11 -29 -8 -10 3 -25 -1
-33 -10 -18 -17 -37 -20 -37 -5 0 6 -13 10 -30 10 -16 0 -30 -4 -30 -9 0 -15
-59 -19 -64 -4 -3 7 -15 13 -26 13 -11 0 -20 7 -20 15 0 21 -27 19 -39 -2 -8
-15 -12 -16 -22 -5 -11 10 -10 12 4 12 29 0 19 20 -10 21 -16 0 -37 4 -48 8
-18 7 -17 9 13 25 18 9 38 14 44 9 13 -7 85 -22 126 -26 13 -1 29 -10 36 -19
14 -20 51 -24 61 -8 3 6 0 10 -7 10 -20 0 -48 37 -48 64 0 28 -25 40 -62 31
-29 -6 -67 20 -51 36 21 21 58 37 73 31 8 -3 27 -5 42 -4z"/>
<path d="M2467 7543 c-4 -3 -7 -21 -7 -39 0 -20 -10 -44 -25 -62 -14 -17 -25
-33 -25 -37 0 -10 -41 -45 -52 -45 -4 0 -8 -9 -8 -20 0 -11 4 -20 8 -20 4 0
14 9 22 20 8 11 19 20 25 20 6 0 17 -9 25 -20 17 -23 55 -26 76 -6 18 19 18
63 0 73 -15 9 -11 63 5 63 5 0 9 11 9 24 0 13 6 27 13 29 6 3 2 6 -10 6 -13 1
-23 6 -23 11 0 11 -23 14 -33 3z"/>
<path d="M3148 6673 c-19 -3 -28 -10 -28 -22 0 -10 -12 -24 -27 -32 -16 -8
-30 -16 -33 -20 -3 -3 -21 -15 -41 -27 -31 -19 -38 -20 -43 -7 -7 20 -26 19
-26 -1 0 -9 -10 -24 -22 -35 l-23 -19 23 -6 c12 -3 22 -10 22 -15 0 -13 37
-11 63 3 30 16 47 34 47 51 0 22 32 31 46 13 6 -9 19 -16 28 -16 24 0 20 39
-5 48 -19 7 -17 10 20 27 23 10 41 24 41 32 0 7 0 16 1 20 1 10 -9 11 -43 6z"/>
</g>
</svg>
