<?xml version="1.0" standalone="no"?>
<!DOCTYPE svg PUBLIC "-//W3C//DTD SVG 20010904//EN"
 "http://www.w3.org/TR/2001/REC-SVG-20010904/DTD/svg10.dtd">
<svg version="1.0" xmlns="http://www.w3.org/2000/svg"
 width="1024.000000pt" height="1024.000000pt" viewBox="0 0 1024.000000 1024.000000"
 preserveAspectRatio="xMidYMid meet">
<metadata>
Created by potrace 1.16, written by Peter Selinger 2001-2019
</metadata>
<g transform="translate(0.000000,1024.000000) scale(0.100000,-0.100000)"
fill="#000000" stroke="none">
<path d="M3300 8941 c0 -5 9 -12 19 -16 11 -3 24 -19 30 -35 5 -17 14 -30 19
-30 9 0 42 -69 42 -91 0 -8 7 -23 15 -33 8 -11 15 -27 15 -37 0 -9 7 -22 15
-29 8 -7 15 -23 15 -36 0 -12 4 -26 10 -29 5 -3 14 -24 20 -45 6 -22 15 -40
20 -40 6 0 10 -8 10 -18 0 -10 11 -42 25 -70 14 -29 25 -54 25 -57 0 -7 37
-94 50 -117 6 -10 10 -26 10 -37 0 -10 7 -24 15 -31 8 -7 15 -19 15 -26 0 -8
6 -14 13 -14 13 1 47 66 47 92 0 9 7 21 15 28 8 7 15 20 15 30 0 10 7 31 15
46 8 16 15 37 15 47 0 9 5 17 10 17 6 0 10 6 10 13 0 6 6 24 14 39 8 15 17 40
21 57 4 17 11 31 16 31 5 0 9 9 9 19 0 11 7 26 15 35 8 8 15 23 15 33 0 10 7
27 15 37 8 11 15 30 15 42 0 12 7 27 15 34 8 7 15 23 15 36 0 13 4 24 9 24 5
0 12 11 15 25 4 14 11 25 17 25 5 0 15 13 20 30 6 16 19 32 30 35 45 14 12 25
-76 25 -57 0 -95 -4 -95 -10 0 -5 7 -10 15 -10 9 0 20 -11 26 -24 9 -19 8 -29
-5 -47 -9 -13 -16 -34 -16 -47 0 -12 -7 -25 -15 -28 -8 -4 -15 -18 -15 -34 0
-15 -7 -33 -15 -40 -8 -7 -15 -25 -15 -41 0 -16 -4 -29 -9 -29 -5 0 -12 -14
-16 -31 -4 -17 -13 -42 -21 -57 -8 -15 -14 -35 -14 -44 0 -10 -4 -18 -10 -18
-5 0 -10 -10 -10 -23 0 -13 -5 -28 -11 -34 -6 -6 -14 -26 -18 -45 -12 -59 -61
-47 -61 15 0 15 -4 27 -9 27 -5 0 -12 10 -16 23 -17 63 -40 127 -46 127 -4 0
-10 15 -13 34 -6 31 -23 75 -47 118 -5 10 -9 26 -9 37 0 10 -7 24 -15 31 -8 7
-15 22 -15 34 0 11 -4 27 -9 35 -10 15 6 61 21 61 4 0 8 5 8 10 0 6 -43 10
-110 10 -61 0 -110 -4 -110 -9z"/>
<path d="M1374 8874 c3 -9 6 -18 6 -20 0 -3 11 -9 25 -14 l25 -10 0 -291 c0
-260 -2 -293 -17 -304 -9 -7 -13 -17 -9 -23 9 -15 263 -17 299 -3 14 5 41 26
61 47 l36 37 0 -31 c0 -17 -5 -32 -12 -34 -6 -2 -8 -10 -4 -16 5 -8 53 -12
161 -12 152 0 183 6 156 33 -15 15 -14 47 4 81 8 15 15 38 15 50 0 12 7 31 15
42 8 10 15 28 15 39 0 11 8 35 18 54 16 33 19 35 77 36 68 2 105 -15 105 -49
0 -12 7 -31 15 -42 8 -10 15 -28 15 -39 0 -11 7 -29 15 -39 8 -11 15 -32 15
-47 0 -15 5 -29 11 -31 6 -2 14 -22 18 -43 l6 -40 54 -3 c33 -2 66 3 86 12 29
14 36 14 63 1 24 -12 61 -15 173 -13 l142 3 -2 153 c-1 83 1 152 6 152 11 -1
43 -26 43 -33 0 -11 245 -254 267 -266 23 -12 101 -15 127 -5 21 8 20 24 -1
24 -31 0 -125 71 -215 163 -49 49 -88 93 -88 98 0 5 -5 9 -10 9 -6 0 -23 14
-38 32 -24 26 -27 35 -18 54 6 13 17 24 24 24 6 0 12 7 12 15 0 8 6 15 13 15
7 0 21 14 30 30 10 17 21 30 25 30 12 0 72 58 72 69 0 6 7 11 15 11 8 0 15 7
15 15 0 8 7 15 15 15 8 0 15 7 15 15 0 8 9 15 20 15 17 0 40 26 40 45 0 3 -28
5 -61 3 -61 -3 -62 -4 -64 -33 -2 -23 -24 -51 -99 -125 -53 -52 -96 -101 -96
-107 0 -7 -4 -13 -9 -13 -5 0 -17 -3 -26 -6 -14 -6 -16 2 -14 66 2 77 -5 90
-44 83 -22 -4 -22 -5 -19 -219 2 -118 1 -225 -2 -238 -7 -28 -49 -39 -136 -37
-64 1 -150 29 -150 48 0 7 -5 13 -11 13 -16 0 -68 61 -89 105 -26 57 -34 141
-20 224 6 39 15 71 18 71 4 0 13 13 20 30 7 16 22 32 33 35 10 4 19 11 19 16
0 5 8 9 19 9 10 0 24 7 31 15 9 11 35 15 105 15 70 0 96 -4 105 -15 7 -8 20
-15 30 -15 10 0 21 -7 24 -16 4 -10 15 -14 33 -12 21 2 29 9 31 28 4 39 -10
51 -74 61 -96 17 -244 23 -244 10 0 -6 -9 -11 -21 -11 -45 0 -159 -77 -159
-108 0 -6 -3 -12 -7 -14 -14 -5 -43 -69 -43 -91 0 -22 -16 -56 -22 -47 -18 29
-38 75 -38 91 0 10 -4 19 -9 19 -5 0 -13 14 -16 32 -4 18 -11 39 -15 48 -4 8
-13 27 -19 43 -15 39 -47 36 -56 -5 -4 -18 -11 -37 -15 -43 -4 -5 -11 -25 -15
-42 -3 -18 -11 -33 -16 -33 -5 0 -9 -10 -9 -23 0 -13 -7 -32 -15 -43 -8 -10
-15 -30 -15 -44 0 -14 -7 -34 -15 -44 -8 -11 -15 -29 -15 -41 0 -12 -4 -25 -8
-30 -5 -6 -20 -39 -32 -75 -13 -36 -30 -76 -37 -90 -7 -14 -13 -32 -13 -40 -1
-29 -27 -50 -63 -50 -29 0 -38 6 -55 34 -18 31 -20 54 -21 293 l-2 260 26 17
c14 9 25 23 25 31 0 12 -18 15 -95 15 -52 0 -95 -2 -95 -5 0 -3 11 -16 24 -28
23 -22 24 -28 27 -184 2 -89 1 -164 -2 -168 -4 -3 -25 12 -47 35 -23 22 -46
40 -52 40 -15 0 -12 30 3 30 37 1 64 162 32 194 -8 8 -15 19 -15 25 0 6 -7 11
-15 11 -8 0 -15 4 -15 10 0 5 -11 12 -25 16 -14 3 -25 10 -25 15 0 5 -61 9
-136 9 -120 0 -135 -2 -130 -16z m256 -48 c0 -8 6 -16 14 -19 17 -7 28 -75 20
-125 -10 -61 -27 -76 -87 -77 l-52 0 -3 118 -3 117 56 0 c40 0 55 -4 55 -14z
m45 -316 c60 -61 76 -124 53 -200 -9 -28 -19 -41 -38 -45 -13 -4 -27 -11 -31
-16 -9 -15 -93 -13 -117 2 -21 13 -22 21 -22 156 l0 143 58 0 c54 0 60 -2 97
-40z"/>
<path d="M4048 8569 c3 -290 2 -323 -13 -339 -16 -18 -16 -19 6 -25 45 -11
492 -1 496 11 2 6 -5 14 -17 17 -20 5 -20 12 -20 306 0 261 2 301 15 301 8 0
15 5 15 10 0 16 33 11 56 -8 20 -17 21 -27 23 -286 2 -284 -3 -319 -44 -331
-48 -15 26 -24 203 -24 198 -1 190 -4 194 58 3 37 -17 55 -29 24 -14 -37 -30
-43 -113 -43 -122 0 -115 -20 -114 312 l1 278 26 23 c15 12 27 26 27 30 0 4
-161 7 -357 7 l-358 0 3 -321z m352 5 c-2 -329 -2 -322 -7 -301 -6 23 -15 22
-49 -10 -26 -25 -36 -28 -101 -28 -102 0 -109 11 -104 164 4 129 10 142 69
146 35 3 92 -21 92 -37 0 -4 7 -8 16 -8 12 0 14 9 12 41 l-3 41 -90 2 -90 1 0
125 0 125 74 3 c63 3 76 0 92 -17 11 -11 19 -25 19 -31 0 -5 7 -10 15 -10 10
0 15 10 15 28 0 36 10 46 28 29 11 -12 13 -63 12 -263z"/>
<path d="M5000 8883 c1 -14 27 -43 39 -43 8 0 11 -83 11 -305 0 -264 -2 -305
-15 -305 -8 0 -15 -7 -15 -15 0 -15 41 -18 225 -17 72 1 145 25 145 50 0 6 7
12 15 12 8 0 15 5 15 11 0 7 7 17 16 23 24 18 23 153 -2 194 -10 18 -24 32
-31 32 -7 0 -13 7 -13 15 0 8 -6 15 -13 15 -8 0 -23 11 -35 23 l-22 24 22 25
c13 14 29 35 36 46 16 29 15 112 -3 136 -22 29 -10 36 59 36 76 0 108 -21 137
-87 20 -47 26 -128 10 -138 -5 -3 -12 -19 -16 -35 -4 -17 -13 -30 -20 -30 -7
0 -15 -7 -19 -15 -3 -8 -15 -15 -26 -15 -25 0 -27 -32 -2 -59 33 -37 58 -66
92 -111 18 -25 46 -57 62 -72 15 -15 28 -32 28 -37 0 -6 6 -11 14 -11 8 0 16
-6 19 -14 5 -12 37 -15 174 -16 356 -1 830 -10 871 -16 46 -7 152 19 152 37 0
5 6 9 13 9 7 0 27 22 45 49 27 42 32 59 32 109 0 41 -5 63 -15 72 -8 7 -15 17
-15 23 0 9 -85 97 -94 97 -3 0 -24 18 -47 40 -23 22 -46 40 -51 40 -4 0 -8 6
-8 14 0 8 -7 16 -15 20 -10 4 -15 20 -15 52 0 64 28 94 90 94 37 -1 50 -6 76
-33 17 -18 34 -45 38 -61 l7 -29 20 21 c22 25 23 32 7 83 -9 33 -16 40 -45 45
-18 3 -36 10 -39 15 -9 16 -111 10 -145 -8 -44 -24 -52 -32 -72 -72 -24 -48
-22 -116 5 -154 12 -18 68 -77 125 -132 l103 -100 0 -58 c0 -57 -14 -87 -40
-87 -6 0 -13 -7 -16 -15 -4 -10 -20 -15 -50 -15 -57 0 -121 40 -126 78 -2 19
-10 28 -25 30 -19 3 -23 -1 -23 -25 0 -15 -4 -34 -9 -41 -25 -41 -142 -58
-166 -25 -13 18 -13 19 45 90 5 6 12 23 16 37 3 14 10 26 15 26 5 0 9 25 9 55
0 51 2 55 24 55 13 0 26 -7 30 -15 12 -33 26 -12 26 40 0 54 -1 55 -25 49 -32
-8 -55 11 -55 44 0 30 -37 112 -51 112 -5 0 -9 6 -9 13 0 6 -14 21 -30 32 -50
33 -39 45 43 45 78 0 88 -4 106 -38 16 -30 31 -19 31 23 0 70 38 65 -481 65
-384 0 -469 -2 -469 -13 0 -8 11 -20 25 -27 l25 -13 0 -259 c0 -165 -4 -258
-10 -258 -5 0 -10 7 -10 15 0 8 -7 15 -15 15 -8 0 -15 5 -15 11 0 5 -13 24
-30 42 -16 18 -30 37 -30 43 0 7 -7 14 -15 18 -22 8 -18 43 7 79 12 18 25 34
28 37 20 19 40 75 40 115 0 54 -20 102 -58 140 -51 52 -73 55 -358 55 -145 0
-264 -3 -264 -7z m910 -33 c0 -5 7 -10 15 -10 13 0 15 -40 15 -299 0 -328 3
-311 -60 -311 -59 0 -60 4 -60 314 0 283 0 284 23 299 25 18 67 22 67 7z
m-647 -30 c9 -11 17 -25 17 -30 0 -6 5 -10 10 -10 6 0 10 -30 10 -70 0 -40 -4
-70 -10 -70 -5 0 -10 -7 -10 -15 0 -8 -9 -16 -20 -16 -68 -5 -86 -5 -96 -1
-12 3 -19 181 -8 215 8 26 84 24 107 -3z m982 3 c11 -5 36 -18 56 -27 34 -17
82 -57 104 -88 52 -73 71 -206 41 -294 -15 -47 -74 -124 -95 -124 -5 0 -11 -3
-13 -7 -1 -5 -21 -17 -42 -28 -58 -29 -193 -28 -226 3 -22 21 -23 22 -21 284
0 145 1 271 1 282 0 17 7 18 88 14 48 -2 96 -9 107 -15z m-933 -324 c51 -55
67 -107 54 -171 -15 -72 -142 -116 -194 -68 -20 19 -22 30 -22 149 0 70 3 131
7 134 3 4 29 7 57 7 48 0 53 -2 98 -51z"/>
<path d="M4324 7115 c-41 -40 -72 -91 -93 -153 -11 -34 -21 -68 -21 -76 0 -12
-29 -31 -35 -24 -5 5 -35 129 -35 143 0 8 -4 25 -9 39 -9 23 -12 24 -39 14
-28 -11 -33 -9 -65 25 -19 20 -41 37 -48 37 -19 0 -39 -60 -49 -150 -5 -41
-14 -76 -19 -78 -6 -2 -11 -30 -11 -62 0 -37 -5 -64 -14 -73 -8 -8 -18 -31
-21 -51 -4 -20 -13 -36 -20 -36 -18 0 -82 -137 -88 -189 -3 -24 -11 -47 -18
-51 -8 -6 -10 -23 -5 -61 13 -96 14 -161 2 -184 -12 -23 -68 -75 -81 -75 -4 0
-23 -13 -42 -30 -18 -16 -40 -30 -48 -30 -8 0 -15 -4 -15 -9 0 -5 -25 -17 -56
-27 l-56 -17 5 -41 c3 -22 11 -42 16 -44 16 -5 13 -99 -3 -147 -31 -89 -40
-155 -28 -201 17 -63 15 -101 -5 -113 -14 -7 -18 -21 -16 -58 1 -26 -2 -52 -6
-58 -5 -5 -11 -71 -14 -145 -4 -106 -2 -141 10 -163 15 -29 9 -131 -17 -299
-7 -49 -7 -75 2 -95 15 -38 11 -53 -22 -83 l-29 -25 -6 -247 c-3 -135 -10
-261 -15 -280 -15 -52 -12 -151 6 -187 9 -18 18 -49 21 -70 6 -43 -14 -151
-28 -151 -5 0 -9 -7 -9 -15 0 -8 -6 -15 -13 -15 -18 0 -47 -32 -47 -52 0 -9
-7 -21 -15 -28 -8 -7 -15 -23 -15 -36 0 -23 -19 -74 -31 -84 -17 -14 -29 -53
-29 -93 0 -46 9 -61 83 -139 51 -54 45 -57 -120 -67 -29 -2 -33 -38 -10 -81
16 -31 19 -44 10 -47 -7 -3 -13 -9 -13 -14 0 -14 33 -49 47 -49 7 0 13 -7 13
-15 0 -11 -12 -15 -47 -15 -64 0 -109 -34 -99 -73 4 -17 15 -29 31 -33 14 -3
25 -13 25 -23 0 -17 52 -71 69 -71 6 0 27 -17 48 -39 43 -44 114 -85 164 -96
19 -4 41 -12 49 -19 31 -24 79 -46 99 -46 11 0 24 -8 30 -17 8 -15 25 -18 120
-18 103 -1 110 1 115 20 9 36 -4 65 -29 65 -23 0 -65 45 -65 70 0 6 16 27 36
46 26 24 40 31 49 24 6 -5 15 -7 18 -3 11 11 8 73 -4 73 -22 0 7 240 31 260 7
6 31 117 37 179 4 36 30 81 47 81 3 0 17 11 32 25 15 14 34 25 44 25 9 0 25 7
36 15 10 8 26 15 36 15 19 0 68 55 68 76 0 8 6 14 14 14 23 0 36 -111 17 -148
-5 -9 -15 -37 -22 -62 -7 -25 -18 -56 -25 -70 -7 -14 -16 -34 -19 -45 -5 -13
-9 -15 -12 -7 -7 19 -29 14 -39 -8 -8 -19 -11 -19 -31 -5 -17 12 -23 26 -23
53 0 46 -12 65 -36 60 -14 -2 -20 -13 -22 -43 -2 -22 -9 -54 -17 -72 -8 -17
-15 -42 -15 -55 0 -13 -5 -29 -12 -36 -6 -6 -15 -30 -19 -54 -5 -24 -13 -67
-18 -95 -12 -63 -6 -204 8 -232 17 -30 13 -112 -5 -132 -15 -16 -14 -20 2 -47
17 -29 64 -49 85 -36 11 7 11 3 -1 -74 -9 -54 -8 -65 6 -79 9 -9 14 -26 11
-40 -3 -16 2 -27 14 -34 17 -8 19 -22 19 -105 0 -65 -4 -102 -14 -117 -11 -16
-14 -46 -12 -112 2 -49 4 -92 5 -95 2 -8 41 74 41 86 0 6 6 17 14 23 8 7 17
38 21 69 6 59 31 150 46 167 5 5 9 20 9 35 0 14 7 38 15 54 8 15 15 37 15 47
0 10 6 22 13 26 17 11 47 74 51 107 3 25 19 45 39 46 4 0 7 -20 7 -44 0 -34 5
-47 25 -62 18 -14 25 -28 25 -54 0 -19 9 -51 20 -70 10 -19 22 -43 26 -52 3
-10 11 -18 18 -18 6 0 5 -4 -3 -9 -24 -15 -34 -211 -15 -296 2 -11 11 -29 19
-40 14 -17 17 -18 25 -5 5 8 10 27 10 43 0 15 4 27 9 27 12 0 19 50 26 165 9
156 30 295 45 295 5 0 16 18 26 39 16 36 21 40 63 45 25 3 55 5 66 3 18 -2 20
4 20 65 1 37 4 70 7 73 4 4 35 7 69 8 40 1 64 7 67 15 2 6 10 12 17 12 7 0 15
4 17 9 3 11 119 37 209 47 44 5 62 12 70 25 9 17 4 22 -36 39 -48 21 -61 50
-22 50 24 1 109 29 144 48 12 7 39 12 60 12 21 0 47 6 58 14 12 8 48 14 93 14
40 0 76 2 79 5 11 12 -10 27 -38 27 -27 0 -30 3 -23 22 4 13 14 28 22 34 8 6
14 25 14 45 -1 19 -2 46 -2 62 -1 15 -4 27 -9 27 -4 0 -15 16 -24 35 -9 19
-21 35 -26 35 -5 0 -15 16 -21 36 -7 19 -18 38 -26 41 -17 6 -18 33 -2 85 9
29 9 41 0 50 -7 7 -12 22 -12 33 0 12 -16 39 -35 61 -20 21 -38 50 -41 64 -6
28 -46 110 -54 110 -15 0 -30 67 -35 159 -2 57 -7 118 -10 135 -9 48 13 407
26 422 8 9 9 40 4 96 -10 112 -10 395 0 436 5 21 3 37 -5 47 -9 10 -16 71 -21
173 -7 142 -17 215 -47 337 -21 85 -32 148 -32 189 0 23 -7 51 -15 62 -8 10
-15 33 -15 50 0 18 -7 45 -15 60 -8 16 -15 49 -15 74 0 25 -7 72 -15 103 -8
32 -15 78 -15 103 0 79 -61 200 -143 283 -102 102 -112 111 -125 111 -6 0 -12
4 -12 8 0 5 -13 22 -30 38 -16 16 -30 34 -30 40 0 6 -6 17 -14 23 -7 6 -16 30
-20 52 -4 23 -15 57 -26 78 -10 20 -28 56 -38 81 -11 25 -27 61 -36 82 -9 20
-16 41 -16 47 0 6 -4 11 -10 11 -5 0 -10 9 -10 20 0 10 -4 29 -9 42 -15 37
-48 150 -55 188 -8 47 -34 62 -62 35z m-224 -400 c0 -26 -6 -39 -25 -51 -14
-9 -25 -22 -25 -28 0 -7 -24 -38 -53 -70 -57 -61 -82 -66 -93 -20 -8 30 22
142 45 170 21 26 28 29 96 31 l55 2 0 -34z m-50 -3903 c14 -16 31 -31 37 -33
6 -2 13 -26 15 -54 l3 -49 -45 -8 c-78 -14 -84 -8 -76 79 3 41 8 79 12 84 10
16 29 9 54 -19z"/>
<path d="M278 6443 c-8 -21 -18 -46 -21 -55 -4 -10 -11 -18 -17 -18 -6 0 -10
-32 -10 -80 0 -43 -4 -89 -9 -102 -26 -64 -51 -167 -51 -211 0 -61 -29 -157
-47 -157 -7 0 -13 -4 -13 -10 0 -5 -6 -10 -13 -10 -8 0 -20 -12 -28 -27 -8
-16 -20 -33 -27 -38 -19 -15 -13 -436 6 -443 6 -2 12 -12 12 -23 0 -13 7 -19
22 -19 12 0 28 -7 37 -15 9 -7 31 -27 48 -43 41 -36 42 -52 3 -52 -16 0 -30
-4 -30 -10 0 -5 -9 -10 -19 -10 -11 0 -23 5 -26 10 -10 15 -35 12 -35 -5 0 -8
-5 -15 -11 -15 -19 0 -5 -120 19 -172 12 -26 22 -51 22 -57 0 -38 24 -111 36
-111 8 0 14 6 14 14 0 19 20 32 29 18 3 -5 31 -18 61 -28 30 -9 57 -20 60 -23
3 -3 14 -11 25 -17 11 -6 24 -20 29 -31 17 -37 76 -61 134 -54 8 1 12 19 12
55 l0 53 -51 7 c-39 5 -57 14 -79 37 -27 30 -47 98 -32 109 7 4 23 54 39 117
4 17 -5 29 -46 59 -31 23 -47 42 -42 47 5 5 67 9 137 8 99 0 131 -4 144 -16 9
-8 26 -15 37 -15 11 0 26 -7 33 -15 7 -8 18 -15 26 -15 7 0 19 -6 26 -12 19
-18 79 -38 115 -38 17 0 33 6 36 13 3 9 9 9 25 0 13 -8 23 -9 27 -3 3 6 17 10
31 10 13 0 24 5 24 10 0 6 7 10 15 10 10 0 15 -10 15 -30 0 -16 -3 -30 -7 -30
-10 0 -43 -58 -43 -75 0 -7 -11 -16 -25 -19 -64 -16 -91 -101 -40 -124 14 -6
31 -9 39 -6 7 3 32 -13 55 -35 24 -23 47 -41 52 -41 5 0 9 -3 9 -8 0 -4 18
-18 40 -32 22 -14 40 -30 40 -37 0 -7 6 -13 14 -13 8 0 16 -7 20 -15 3 -8 13
-15 21 -15 9 0 23 -7 32 -16 17 -16 79 -17 100 -1 14 10 109 -9 119 -24 9 -15
80 -10 94 6 7 8 24 15 39 15 14 0 37 10 51 23 14 13 40 32 57 42 49 29 59 10
28 -54 -14 -28 -23 -56 -20 -62 9 -14 31 -11 45 6 7 8 23 15 36 15 13 0 24 4
24 9 0 4 28 11 63 15 101 11 167 40 167 73 0 7 5 13 10 13 6 0 10 -6 10 -13 0
-15 37 -51 62 -60 15 -5 84 22 143 55 14 8 20 8 23 -1 2 -6 12 -11 22 -11 11
0 40 -7 64 -15 43 -15 46 -15 66 5 12 12 24 38 27 57 4 24 12 37 25 41 15 3
18 10 14 28 -5 19 -2 24 14 24 11 0 20 3 20 8 0 4 11 19 24 33 13 14 27 36 31
50 4 13 21 52 38 87 21 44 33 59 38 50 7 -10 9 -10 9 2 0 9 3 11 8 5 4 -5 18
-11 32 -13 14 -2 31 -11 38 -20 7 -9 12 -11 12 -4 0 7 8 12 19 12 10 0 33 13
51 28 30 27 33 34 35 95 3 90 -6 100 -83 99 -34 0 -62 3 -62 8 0 4 -13 13 -30
20 -16 7 -30 16 -30 21 0 5 -7 9 -15 9 -8 0 -15 7 -15 15 0 8 -7 15 -15 15 -9
0 -18 7 -21 15 -4 8 -12 15 -20 15 -8 0 -14 6 -14 14 0 8 -10 16 -22 18 -14 2
-24 11 -26 24 -3 19 -61 57 -102 66 -24 5 -71 56 -69 75 0 10 1 23 0 29 -2 16
-37 54 -50 54 -6 0 -11 8 -11 18 -1 16 -1 16 -14 0 -7 -10 -18 -18 -25 -18 -6
0 -11 -15 -11 -35 0 -37 -28 -75 -54 -75 -10 0 -17 -15 -20 -45 -3 -25 -9 -66
-12 -92 -3 -27 -9 -52 -12 -58 -20 -30 -35 -153 -41 -335 -6 -159 -11 -213
-24 -242 -10 -21 -21 -38 -25 -38 -17 0 -45 135 -54 260 -19 286 -30 351 -65
388 -8 8 -13 41 -13 81 0 75 -13 98 -50 86 -21 -7 -60 21 -60 43 0 5 -12 21
-26 35 -15 16 -26 38 -26 56 -1 17 -5 31 -9 31 -4 0 -6 21 -3 48 5 40 2 51
-19 75 -18 22 -26 45 -30 95 -4 36 -11 70 -16 75 -6 6 -5 16 2 28 16 25 -1 39
-19 15 -21 -30 -27 -14 -27 74 0 59 -3 80 -13 80 -9 0 -12 -15 -11 -53 2 -63
-15 -87 -62 -87 -23 0 -31 5 -31 18 0 9 -7 30 -15 46 -8 16 -15 54 -15 88 0
37 -4 57 -10 53 -5 -3 -10 -16 -10 -28 0 -12 -7 -31 -15 -41 -9 -11 -15 -42
-15 -70 -1 -28 -7 -69 -15 -91 -9 -24 -15 -78 -15 -136 0 -68 -4 -101 -15
-115 -8 -10 -15 -27 -15 -37 0 -9 -23 -39 -51 -66 -44 -42 -59 -50 -98 -53
-25 -3 -53 -8 -62 -12 -10 -4 -28 5 -53 29 -21 19 -42 35 -47 35 -12 0 -12 37
1 45 6 4 8 11 5 16 -4 5 -2 16 3 25 6 11 5 26 -4 43 -8 14 -14 36 -14 49 0 13
-6 22 -15 22 -9 0 -20 10 -24 23 -7 17 -3 28 17 50 17 18 26 38 26 61 0 34
-31 116 -44 116 -4 0 -10 -23 -13 -51 -8 -61 -20 -79 -58 -79 -27 0 -28 1 -35
70 l-7 71 -19 -32 c-17 -28 -35 -144 -36 -224 0 -11 -3 -35 -7 -52 -5 -22 -4
-33 4 -33 6 0 11 9 11 20 0 11 6 20 14 20 7 0 16 10 19 22 5 18 8 19 22 8 11
-9 15 -24 13 -42 -3 -15 0 -29 6 -31 17 -6 -28 -57 -45 -51 -9 2 -32 7 -50 10
-99 15 -114 20 -117 39 -2 11 -16 31 -31 45 -38 35 -61 75 -61 106 0 59 -32
240 -46 255 -8 8 -14 29 -14 46 0 17 -7 36 -15 43 -8 7 -17 27 -21 46 -3 19
-9 34 -13 34 -4 0 -7 13 -7 29 0 15 -9 55 -19 87 -16 52 -20 56 -26 34 -3 -14
-4 -53 -1 -86 2 -34 1 -87 -2 -118 -7 -50 -10 -56 -31 -56 -46 0 -68 65 -66
193 1 48 -2 87 -7 87 -4 0 -15 -17 -24 -37z"/>
<path d="M8030 6142 c0 -16 -3 -32 -7 -36 -5 -4 -13 -24 -18 -44 -7 -23 -18
-38 -29 -40 -22 -5 -66 42 -66 70 0 10 -4 18 -10 18 -5 0 -10 7 -10 15 0 8 -6
15 -13 15 -7 0 -21 -28 -31 -62 -9 -35 -24 -77 -32 -95 -8 -17 -14 -40 -14
-52 0 -14 -6 -21 -20 -21 -22 0 -31 -17 -50 -92 -7 -26 -21 -55 -31 -64 -11
-9 -19 -23 -19 -31 0 -7 -4 -13 -9 -13 -5 0 -11 -23 -15 -51 -4 -28 -11 -58
-16 -67 -23 -45 -40 -132 -40 -202 0 -58 -4 -79 -14 -83 -8 -3 -16 -22 -18
-43 -5 -57 -28 -56 -28 0 0 25 -4 46 -10 46 -9 0 -12 -8 -15 -51 -1 -19 -53
-69 -71 -69 -9 0 -14 -12 -14 -35 0 -22 -6 -38 -15 -41 -8 -4 -15 -11 -15 -16
0 -16 -42 -80 -48 -74 -3 3 -8 36 -13 73 -11 93 -32 184 -63 270 -14 40 -26
86 -26 102 0 40 -30 90 -58 97 -12 4 -31 17 -41 30 -10 13 -22 24 -26 24 -18
0 -44 48 -45 82 0 20 -4 39 -9 43 -5 3 -13 20 -17 37 -7 34 -31 77 -49 90 -5
4 -22 8 -37 8 -17 0 -28 5 -28 14 0 9 -17 16 -45 20 -25 4 -45 13 -45 19 0 7
-11 -1 -25 -17 -14 -16 -25 -41 -25 -56 0 -17 -9 -34 -25 -46 -13 -10 -27 -31
-30 -46 -4 -15 -11 -28 -15 -28 -5 0 -12 -17 -15 -37 -6 -40 -32 -99 -52 -120
-14 -16 -75 -17 -90 -2 -6 6 -21 9 -34 7 -20 -2 -25 -10 -27 -40 -2 -21 -8
-38 -14 -38 -6 0 -17 -8 -24 -17 -13 -17 -13 -17 -14 0 0 14 -9 17 -45 17 -25
0 -45 -4 -45 -10 0 -5 -9 -19 -20 -30 -23 -23 -70 -27 -70 -6 0 8 -3 16 -7 18
-5 2 -26 26 -47 53 -22 28 -50 60 -63 71 -13 12 -23 26 -23 33 0 6 -4 11 -10
11 -5 0 -25 15 -45 34 -24 24 -35 43 -35 64 0 16 -9 58 -20 92 -11 34 -20 69
-20 76 0 21 -12 17 -58 -18 -43 -33 -54 -64 -27 -74 8 -4 15 -15 15 -25 0 -22
-29 -59 -47 -59 -7 0 -13 -7 -13 -15 0 -8 -4 -15 -10 -15 -5 0 -10 -13 -10
-30 0 -32 -30 -70 -55 -70 -8 0 -24 -9 -35 -20 -11 -11 -27 -20 -35 -20 -8 0
-15 -4 -15 -10 0 -5 -6 -7 -14 -4 -8 3 -16 -4 -20 -20 -3 -14 -12 -26 -19 -26
-7 0 -23 -24 -35 -53 -17 -38 -33 -58 -58 -72 -24 -13 -34 -25 -34 -42 0 -29
-25 -91 -47 -115 -25 -28 -23 -163 2 -182 17 -12 16 -16 -20 -55 -21 -22 -46
-41 -57 -41 -11 0 -18 -7 -18 -19 0 -30 11 -51 26 -51 18 0 17 2 18 -165 1
-104 -2 -143 -12 -150 -7 -6 -11 -17 -7 -25 9 -24 95 -60 141 -60 33 0 45 -5
58 -25 17 -25 22 -65 8 -65 -10 0 -32 -60 -32 -88 0 -12 5 -22 10 -22 6 0 10
-7 10 -15 0 -15 22 -20 131 -30 61 -6 68 -4 96 19 44 37 75 34 104 -11 13 -21
39 -45 58 -54 26 -12 30 -17 17 -22 -50 -20 34 -51 133 -50 80 1 99 11 103 54
1 17 8 26 18 25 9 -1 32 5 52 13 28 11 38 22 47 51 13 43 33 58 109 85 28 11
52 25 52 32 0 7 5 13 11 13 6 0 23 12 38 26 15 14 38 31 51 37 12 7 28 21 34
32 12 21 14 23 64 78 17 20 32 41 32 47 0 5 5 10 12 10 13 0 98 86 98 99 0 16
73 39 96 31 12 -5 54 -12 93 -16 39 -3 71 -8 71 -9 0 -1 -7 -22 -15 -45 -8
-23 -15 -69 -15 -102 0 -43 4 -60 15 -64 8 -4 15 -12 15 -20 0 -21 72 -18 166
6 110 28 146 41 162 57 7 7 27 13 43 13 16 0 29 5 29 10 0 6 6 10 14 10 8 0
16 5 18 12 2 6 32 13 69 16 35 2 68 8 73 13 6 5 17 9 25 9 31 0 -31 -42 -70
-47 -22 -3 -42 -10 -45 -14 -3 -5 -15 -9 -28 -9 -27 0 -92 -45 -156 -109 -25
-25 -62 -59 -82 -75 -47 -38 -93 -126 -84 -161 4 -14 13 -28 20 -31 23 -9 130
40 141 64 12 27 33 36 51 21 19 -15 18 -48 -1 -55 -19 -8 -19 -48 -1 -63 11
-9 20 -10 35 -1 12 6 21 14 21 19 0 4 50 11 111 14 78 5 114 11 125 22 22 21
59 29 82 16 10 -6 38 -8 62 -5 23 3 47 1 53 -4 7 -5 56 -12 110 -14 116 -6
132 2 124 64 -5 39 9 61 24 37 18 -31 24 13 26 204 4 352 21 951 28 973 6 19
15 22 58 23 29 0 115 5 192 11 77 6 192 13 255 17 72 3 122 11 135 19 11 8 30
14 43 14 21 0 116 28 185 54 15 6 27 18 27 27 0 20 20 29 60 29 16 0 35 7 44
15 8 8 19 15 25 15 6 0 11 7 11 15 0 8 -7 15 -15 15 -8 0 -15 5 -15 10 0 6 7
13 15 16 8 4 15 12 15 20 0 16 26 19 34 5 4 -5 30 2 58 16 29 14 64 26 78 27
14 0 37 13 52 29 31 31 38 33 38 12 0 -9 9 -15 25 -15 26 0 34 15 13 23 -8 3
-6 6 5 6 10 1 17 9 17 21 0 11 5 20 10 20 6 0 10 -4 10 -10 0 -5 20 -10 45
-10 33 0 45 4 45 15 0 10 10 15 30 15 17 0 30 -4 30 -10 0 -18 22 -11 46 15
22 24 64 35 64 16 0 -5 9 -7 20 -4 12 3 20 14 20 25 0 16 -5 19 -21 15 -18 -5
-19 -2 -14 22 15 67 -76 84 -174 32 -38 -19 -82 -21 -148 -6 -23 5 -44 2 -75
-13 -24 -12 -85 -26 -135 -33 -51 -6 -93 -16 -93 -20 0 -5 -26 -9 -58 -9 -36
0 -66 -6 -78 -15 -11 -9 -43 -15 -79 -15 -33 0 -87 -7 -120 -15 -33 -8 -81
-15 -107 -15 -27 0 -48 -4 -48 -8 0 -5 -51 -19 -112 -32 -62 -12 -118 -26
-124 -31 -5 -4 -41 -12 -80 -18 -38 -5 -98 -18 -134 -28 -58 -18 -66 -23 -70
-49 -4 -24 -11 -30 -37 -32 -42 -4 -70 27 -78 89 -4 27 -10 49 -15 49 -4 0
-10 19 -14 43 -14 87 -64 235 -87 258 -25 25 -29 24 -29 -9z"/>
<path d="M1023 3723 c-7 -2 -13 -13 -13 -24 0 -12 -9 -21 -27 -25 -16 -4 -34
-11 -41 -17 -7 -5 -75 -9 -158 -9 -82 1 -157 -4 -172 -10 -15 -6 -42 -12 -61
-14 -18 -2 -36 -6 -39 -9 -24 -24 119 -33 172 -11 25 10 68 16 125 16 100 0
230 23 272 47 36 21 37 31 4 39 -14 3 -25 10 -25 15 0 10 -17 11 -37 2z"/>
<path d="M1465 3222 c-10 -11 -5 -61 8 -69 8 -4 16 -16 20 -26 4 -9 18 -22 32
-27 14 -5 25 -14 25 -20 0 -5 13 -10 29 -10 17 0 32 -4 35 -9 3 -5 22 -12 41
-15 19 -4 35 -11 35 -16 0 -17 24 -11 53 14 39 33 76 40 127 22 24 -8 46 -13
49 -11 4 2 26 -1 51 -6 25 -5 59 -11 75 -13 17 -2 40 -7 53 -11 14 -5 22 -3
22 4 0 6 -11 11 -25 11 -18 0 -26 7 -31 25 -3 13 -15 27 -27 31 -11 3 -30 17
-42 30 -26 28 -117 62 -123 45 -2 -6 -11 -11 -21 -11 -9 0 -26 -7 -37 -15 -24
-18 -58 -19 -73 -1 -15 18 -88 31 -104 19 -7 -5 -36 -7 -64 -5 -46 3 -53 7
-53 25 0 21 -42 51 -55 39z"/>
<path d="M1482 2994 c-24 -10 -32 -19 -28 -30 3 -9 6 -20 6 -25 0 -5 42 -9 94
-9 71 0 97 4 106 15 16 19 30 10 30 -21 0 -13 6 -24 13 -24 7 0 27 -15 45 -33
26 -26 32 -41 32 -74 0 -24 -7 -48 -15 -57 -27 -26 -18 -37 28 -34 42 3 42 3
42 43 0 36 3 40 28 43 15 2 27 8 27 13 0 5 7 9 16 9 25 0 12 -33 -19 -48 -15
-7 -27 -17 -27 -23 0 -12 127 -12 134 0 9 13 -102 129 -126 133 -12 2 -23 9
-26 16 -3 8 12 12 52 12 31 0 56 -4 56 -10 0 -5 6 -10 14 -10 7 0 16 -9 19
-21 6 -23 27 -17 27 8 0 32 -43 63 -88 63 -29 0 -45 5 -48 15 -5 11 -22 15
-63 15 -65 0 -164 23 -169 39 -5 16 -121 12 -160 -5z"/>
<path d="M1350 2971 c0 -6 -11 -11 -24 -11 -31 0 -44 -20 -22 -32 16 -9 23
-53 9 -60 -5 -1 -21 -29 -37 -61 -16 -31 -33 -60 -37 -63 -5 -3 -9 -13 -9 -23
0 -11 -15 -26 -37 -37 -21 -10 -40 -20 -42 -22 -14 -8 40 -39 69 -39 43 0 57
13 66 63 4 21 13 48 20 59 8 11 14 28 14 38 0 24 48 87 67 87 11 0 13 12 11
53 -3 45 -6 52 -25 55 -13 2 -23 -1 -23 -7z"/>
<path d="M1434 2745 c-4 -8 -12 -15 -20 -15 -8 0 -14 -7 -14 -15 0 -9 -9 -15
-25 -15 -16 0 -25 -6 -25 -15 0 -8 9 -15 20 -15 11 0 23 7 26 15 9 22 51 18
64 -5 9 -17 14 -18 31 -9 27 14 48 -3 41 -36 -4 -21 -10 -25 -38 -25 -19 0
-34 -4 -34 -10 0 -5 -11 -10 -24 -10 -31 0 -86 -20 -86 -31 0 -5 -5 -9 -11 -9
-5 0 -23 -14 -38 -31 -21 -22 -34 -29 -48 -25 -11 4 -28 4 -37 0 -16 -6 -15
-8 3 -25 10 -10 31 -21 45 -25 14 -3 26 -11 26 -18 0 -11 74 -46 98 -46 6 0
12 -4 12 -9 0 -5 14 -12 30 -16 17 -4 30 -12 30 -18 0 -17 48 -37 86 -37 18 0
39 -6 47 -14 7 -8 38 -16 68 -19 60 -6 157 -28 176 -40 6 -4 14 -3 18 3 3 5
34 10 68 10 79 0 92 8 83 51 -9 46 -9 58 -1 102 6 27 4 42 -7 55 -23 25 -30
100 -11 111 13 7 13 11 2 29 -16 26 -46 33 -122 28 -60 -3 -87 9 -87 40 0 8
-7 14 -15 14 -8 0 -15 7 -15 15 0 8 -7 15 -15 15 -8 0 -15 7 -15 15 0 11 -11
15 -40 15 -27 0 -43 -5 -46 -15 -8 -19 -38 -19 -54 0 -7 8 -27 17 -46 21 -19
3 -34 10 -34 15 0 16 -60 10 -66 -6z"/>
<path d="M6370 2722 c0 -13 -47 -32 -80 -32 -28 0 -30 -3 -36 -50 -5 -40 -10
-50 -26 -50 -10 0 -35 -12 -54 -27 -29 -24 -34 -34 -34 -70 0 -42 25 -83 50
-83 6 0 10 -3 10 -8 0 -4 10 -12 22 -17 12 -6 25 -21 28 -35 6 -23 11 -25 57
-25 41 1 54 5 74 26 13 15 35 30 49 34 31 10 49 33 50 63 0 19 5 22 40 22 27
0 43 5 46 15 4 8 14 15 24 15 10 0 23 7 30 15 7 8 22 15 34 15 12 0 31 6 42
14 11 8 30 16 43 18 14 1 26 8 28 15 5 14 -113 9 -131 -6 -6 -4 -23 -11 -38
-15 -16 -3 -28 -11 -28 -16 0 -6 -11 -10 -25 -10 -14 0 -34 -9 -45 -20 -23
-23 -40 -26 -40 -6 0 8 -5 27 -11 43 -7 15 -13 37 -14 48 -8 60 -20 100 -34
117 -16 19 -31 24 -31 10z"/>
<path d="M7643 2683 c-17 -6 -16 -31 2 -49 8 -9 15 -29 15 -45 0 -19 -5 -29
-15 -29 -8 0 -15 -7 -15 -15 0 -12 14 -15 65 -15 79 0 85 9 62 84 -14 44 -22
54 -50 64 -35 13 -44 13 -64 5z"/>
<path d="M2236 2655 c-3 -8 -17 -15 -31 -15 -14 0 -25 -5 -25 -10 0 -6 -12
-15 -27 -21 -22 -8 -24 -12 -13 -19 22 -14 51 -12 83 5 25 13 31 13 53 -1 13
-9 24 -21 24 -26 0 -5 6 -16 14 -24 18 -18 146 -20 164 -2 20 20 14 37 -15 44
-16 3 -37 9 -48 14 -11 5 -37 11 -57 15 -21 3 -38 9 -38 13 0 9 -54 42 -68 42
-5 0 -12 -7 -16 -15z"/>
<path d="M2138 2538 c-27 -20 -29 -98 -3 -98 8 0 15 -7 15 -15 0 -8 7 -15 15
-15 8 0 15 -4 15 -10 0 -5 7 -10 15 -10 8 0 15 -9 15 -20 0 -11 3 -20 8 -20
11 0 46 -69 39 -77 -4 -4 -20 6 -35 20 -16 15 -38 27 -51 27 -20 0 -22 -4 -17
-25 5 -18 2 -25 -9 -25 -8 0 -15 -7 -15 -15 0 -20 30 -19 45 2 16 21 35 9 35
-23 0 -22 -4 -25 -27 -22 -24 3 -28 -1 -31 -23 -2 -20 2 -28 20 -33 15 -3 27
0 34 9 15 20 43 19 65 -1 12 -11 27 -14 48 -9 26 5 30 11 33 43 l3 37 84 3
c47 1 87 5 90 8 3 3 4 21 2 40 -1 19 2 34 8 34 16 0 13 32 -4 54 -20 27 -19
63 3 75 13 8 3 10 -40 11 -32 0 -58 -4 -58 -10 0 -5 7 -10 15 -10 23 0 18 -16
-12 -35 -18 -12 -28 -14 -31 -7 -2 7 -10 12 -18 12 -23 0 -16 27 9 34 l22 7
-27 21 c-18 14 -45 23 -75 25 -26 1 -52 9 -58 16 -5 8 -24 17 -40 20 -17 3
-39 8 -50 12 -11 3 -28 0 -37 -7z"/>
<path d="M1124 2393 c-3 -10 -10 -26 -15 -35 -5 -11 -5 -19 1 -23 6 -3 10 -25
10 -47 0 -31 6 -46 25 -64 14 -13 25 -26 25 -30 0 -13 35 -33 60 -34 14 0 36
-7 48 -16 15 -11 27 -13 35 -6 7 5 27 13 45 17 18 4 38 15 45 26 22 36 57 19
57 -29 1 -21 61 -52 101 -52 34 0 42 14 43 74 l1 41 -59 -3 -58 -4 7 31 c6 27
4 31 -14 31 -12 0 -21 6 -21 15 0 9 -9 15 -25 15 -14 0 -25 4 -25 9 0 5 -24
12 -54 15 -30 4 -60 14 -67 22 -6 8 -18 14 -25 14 -8 0 -32 11 -54 25 -46 29
-78 32 -86 8z"/>
<path d="M3016 2353 c-9 -10 -7 -53 3 -53 5 0 12 -12 16 -27 3 -15 10 -30 15
-33 5 -3 12 -18 16 -34 10 -43 -16 -29 -41 22 -11 22 -26 41 -32 42 -7 0 -13
6 -13 13 0 7 -9 18 -20 24 -16 11 -23 9 -46 -12 -15 -14 -37 -25 -49 -25 -17
0 -25 -10 -38 -54 -17 -51 -15 -86 4 -86 10 0 12 -33 3 -42 -3 -3 -19 1 -36 9
-23 12 -48 14 -105 9 -68 -5 -76 -4 -96 17 -34 34 -95 63 -108 50 -7 -7 -17
-9 -23 -7 -7 3 -24 -6 -39 -20 -14 -13 -46 -32 -72 -41 -25 -10 -48 -22 -51
-26 -7 -12 -61 -11 -69 1 -9 15 -25 2 -25 -21 0 -12 7 -19 19 -19 10 0 24 -7
31 -15 7 -8 17 -15 23 -15 14 0 36 -32 37 -53 0 -9 12 -23 28 -30 15 -6 33
-17 40 -24 7 -7 36 -13 63 -13 41 0 49 -3 49 -19 0 -23 19 -31 71 -31 26 0 42
-5 45 -15 4 -10 20 -15 49 -15 45 0 68 -14 37 -22 -10 -3 -64 -5 -121 -4 -86
1 -104 4 -112 19 -14 24 -65 23 -79 -3 -8 -15 -21 -20 -51 -20 -60 0 -93 -25
-127 -94 -17 -34 -27 -65 -25 -70 8 -12 233 0 246 13 6 6 24 11 40 11 36 0 31
24 -6 28 -16 2 -27 10 -27 18 0 13 11 14 68 8 37 -3 77 -11 90 -15 45 -17 93
-10 117 15 33 36 59 37 63 4 2 -17 11 -28 25 -31 28 -7 105 7 120 22 6 6 22
11 35 11 30 0 24 22 -9 30 l-24 6 25 8 c61 18 90 40 90 68 0 16 -4 28 -10 28
-10 0 -50 36 -50 44 0 3 14 7 30 11 17 4 30 11 30 16 0 15 57 10 70 -6 8 -10
30 -15 61 -15 32 0 64 -8 96 -25 59 -32 87 -30 91 8 2 19 -1 27 -12 27 -9 0
-16 5 -16 10 0 6 7 10 15 10 8 0 15 -4 15 -9 0 -16 155 -24 186 -9 46 22 116
138 84 138 -12 0 -42 24 -95 77 -37 38 -45 42 -77 37 -32 -6 -37 -3 -58 31
-14 23 -28 34 -37 31 -8 -3 -20 -6 -26 -6 -7 0 -18 -12 -24 -27 -7 -16 -26
-42 -43 -60 -16 -18 -30 -37 -30 -42 0 -6 -7 -11 -15 -11 -8 0 -15 -7 -15 -15
0 -8 -6 -15 -14 -15 -8 0 -16 -6 -19 -12 -2 -7 -8 -10 -12 -6 -5 4 4 19 18 32
19 18 27 35 27 59 0 29 4 36 25 41 14 4 29 14 32 24 4 9 15 23 25 30 24 18 23
53 -2 59 -11 3 -20 12 -20 19 0 8 -10 14 -25 14 -25 0 -36 -25 -13 -32 6 -2 8
-10 4 -17 -6 -9 -13 -9 -32 3 -13 9 -39 16 -59 16 -22 0 -38 6 -41 15 -4 8
-12 15 -20 15 -8 0 -14 6 -14 13 -1 15 -45 48 -54 40z"/>
<path d="M47 2252 c-23 -25 -25 -182 -3 -182 8 0 16 -4 18 -10 2 -5 34 -13 73
-17 63 -7 71 -11 83 -35 7 -16 20 -28 28 -28 7 0 14 -4 14 -9 0 -5 14 -11 32
-15 48 -9 107 -39 108 -53 0 -19 84 -17 100 2 7 8 18 15 25 15 6 0 22 14 35
30 28 36 45 37 85 5 28 -24 29 -25 8 -25 -14 0 -23 -6 -23 -15 0 -16 -43 -31
-60 -20 -15 9 -45 -23 -54 -58 -5 -20 -3 -27 9 -27 8 0 15 -7 15 -16 0 -14
-16 -15 -137 -10 -109 4 -138 8 -145 21 -5 8 -19 15 -30 15 -21 0 -21 1 -3 13
35 26 7 37 -96 37 l-99 0 0 -61 c0 -40 5 -65 15 -75 8 -9 15 -20 15 -25 0 -5
-7 -9 -15 -9 -10 0 -15 -10 -15 -34 0 -40 21 -50 78 -34 20 6 118 12 217 13
184 3 230 6 242 18 3 4 14 7 24 7 10 0 26 11 35 25 11 17 20 22 28 16 16 -14
97 -41 123 -41 12 0 25 -4 28 -10 9 -15 22 -12 29 8 7 21 24 48 55 84 24 28
25 28 147 28 88 0 130 4 150 15 16 8 43 15 59 15 30 0 118 25 145 41 8 5 23
12 33 16 14 4 17 14 15 42 -3 38 -21 48 -26 15 -2 -10 -14 -27 -25 -36 -25
-20 -82 -24 -93 -7 -3 6 -28 9 -58 8 -102 -6 -133 26 -90 91 15 22 24 43 21
46 -8 9 -109 -16 -127 -31 -26 -22 -57 -27 -64 -10 -3 8 -3 22 0 30 4 9 0 15
-7 16 -8 0 -59 2 -114 3 -55 2 -109 6 -120 10 -14 5 -28 1 -44 -13 -25 -22
-46 -27 -55 -13 -7 12 28 40 59 48 14 3 25 12 25 20 0 8 9 14 19 14 11 0 22 4
25 9 4 5 -22 13 -56 18 -51 6 -65 12 -73 31 -9 20 -17 22 -77 22 -37 0 -70 -4
-73 -10 -3 -5 -21 -10 -38 -10 -18 0 -43 -6 -57 -13 -43 -22 -170 -6 -170 22
0 5 -15 7 -32 4 -30 -4 -34 -2 -45 26 -6 18 -22 35 -37 41 -14 5 -26 14 -26
20 0 16 -15 12 -33 -8z"/>
<path d="M6502 2213 c-28 -34 -25 -57 8 -62 14 -1 28 -8 31 -13 8 -12 79 -13
88 -1 11 16 63 34 82 28 20 -7 79 20 79 35 0 6 -4 10 -10 10 -5 0 -10 7 -10
15 0 12 -15 15 -74 15 -50 0 -76 -4 -79 -12 -3 -10 -9 -10 -26 0 -34 20 -65
14 -89 -15z"/>
<path d="M1689 2053 c-5 -14 -7 -34 -4 -44 11 -32 183 -69 259 -55 34 7 51 26
22 26 -7 0 -19 7 -26 15 -7 8 -20 15 -30 15 -9 0 -25 9 -35 20 -14 16 -26 19
-52 14 -20 -4 -39 -2 -47 5 -8 7 -28 16 -45 21 -29 8 -33 6 -42 -17z"/>
<path d="M7127 1913 c-4 -3 -46 -12 -94 -20 -197 -31 -178 -24 -181 -61 -2
-21 4 -41 17 -58 12 -15 21 -41 21 -61 0 -52 32 -103 64 -103 9 0 16 -4 16
-10 0 -5 25 -10 55 -10 30 0 55 5 55 10 0 6 -7 10 -15 10 -8 0 -15 4 -15 9 0
9 71 21 121 21 16 0 29 5 29 10 0 13 43 13 57 -1 8 -8 19 -6 41 5 17 9 40 16
51 16 10 0 21 4 23 8 6 14 162 65 213 69 127 10 124 33 -5 33 -115 0 -120 2
-120 55 0 48 -13 64 -36 44 -12 -9 -23 -9 -54 1 -21 7 -60 11 -87 8 -37 -4
-52 0 -67 14 -19 17 -76 25 -89 11z"/>
<path d="M6415 1723 c-11 -2 -38 -8 -60 -14 -22 -5 -76 -14 -120 -19 -96 -10
-129 -19 -172 -45 -37 -23 -38 -23 -17 -50 12 -16 18 -18 34 -7 26 16 27 15
33 -8 3 -13 -1 -21 -14 -25 -25 -8 -24 -16 5 -37 34 -25 428 -28 496 -4 25 9
57 16 73 16 15 0 36 5 47 12 15 10 24 9 44 -1 21 -12 30 -11 58 3 44 21 68 41
68 55 0 6 -6 11 -14 11 -8 0 -16 7 -20 15 -3 8 -17 15 -31 15 -16 0 -25 6 -25
15 0 20 -20 19 -34 0 -10 -14 -16 -12 -44 16 l-33 32 -27 -24 c-37 -33 -42
-41 -42 -66 0 -13 -6 -23 -12 -23 -9 0 -14 21 -16 62 -1 34 -3 62 -5 63 -6 5
-154 12 -172 8z"/>
<path d="M216 1594 c-9 -8 -16 -22 -16 -30 0 -11 -16 -14 -70 -14 -40 0 -70
-4 -70 -10 0 -5 -7 -10 -15 -10 -10 0 -15 -10 -15 -30 0 -25 4 -30 36 -36 28
-5 40 -2 58 15 12 11 27 21 33 21 6 0 17 7 24 16 11 13 26 15 75 11 86 -6 114
0 114 27 -1 41 -23 56 -83 56 -37 0 -61 -5 -71 -16z"/>
<path d="M4368 1463 c-10 -2 -18 -9 -18 -14 0 -5 -16 -9 -35 -9 -31 0 -35 -3
-35 -25 0 -34 -31 -45 -131 -45 -46 0 -79 -4 -79 -10 0 -5 6 -10 14 -10 8 0
17 -11 20 -25 4 -16 13 -25 26 -25 26 0 33 -15 25 -57 l-6 -35 -16 23 c-9 13
-18 26 -20 28 -2 3 -10 -4 -17 -15 -12 -16 -18 -17 -44 -8 -22 8 -33 9 -41 1
-8 -8 -14 -8 -22 0 -6 6 -28 9 -50 6 -37 -5 -39 -4 -39 20 0 14 -8 31 -17 37
-13 8 -14 13 -5 16 16 7 16 31 -1 37 -22 8 -71 -4 -84 -21 -7 -9 -13 -28 -13
-44 0 -15 -3 -28 -8 -28 -4 0 -13 -9 -20 -21 -11 -17 -10 -23 10 -40 20 -17
37 -19 146 -17 139 1 153 -5 166 -74 6 -35 5 -37 -26 -43 -35 -8 -88 -50 -88
-71 0 -7 18 -15 40 -19 22 -4 40 -11 40 -16 0 -5 58 -9 130 -9 109 0 130 2
130 15 0 8 7 15 15 15 8 0 15 -7 15 -15 0 -8 5 -15 10 -15 6 0 10 7 10 15 0 8
6 15 14 15 8 0 18 5 21 10 9 14 -4 52 -16 45 -15 -10 -10 42 9 77 9 18 20 35
25 36 4 2 7 10 7 18 0 8 7 14 15 14 8 0 15 5 15 11 0 7 11 9 30 6 16 -4 32 -2
35 3 3 6 24 10 45 10 21 0 41 4 45 9 3 6 17 6 34 1 30 -8 51 3 51 27 0 7 5 13
10 13 6 0 10 9 10 20 0 11 -4 20 -9 20 -5 0 -11 10 -13 23 -3 19 -10 22 -50
25 -26 2 -55 -1 -64 -6 -11 -6 -26 -5 -43 4 -14 8 -38 14 -53 14 -34 0 -63 40
-60 81 2 29 -3 32 -40 22z"/>
<path d="M545 1273 c-14 -15 -25 -33 -25 -40 0 -7 -10 -18 -22 -24 -38 -20
-53 -59 -23 -59 8 0 15 -4 15 -10 0 -12 73 -13 86 -1 5 5 61 11 124 13 83 4
124 10 148 22 35 19 38 26 20 44 -9 9 -8 12 5 12 9 0 17 -4 17 -10 0 -14 83
-13 114 1 35 16 42 39 11 39 -13 0 -27 -4 -30 -10 -9 -14 -63 -12 -67 3 -3 8
-30 12 -85 12 -64 0 -83 -4 -98 -18 -11 -12 -26 -16 -39 -13 -12 3 -24 6 -28
6 -5 0 -8 6 -8 13 0 11 -60 47 -80 47 -5 0 -21 -12 -35 -27z"/>
</g>
</svg>
