<?xml version="1.0" standalone="no"?>
<!DOCTYPE svg PUBLIC "-//W3C//DTD SVG 20010904//EN"
 "http://www.w3.org/TR/2001/REC-SVG-20010904/DTD/svg10.dtd">
<svg version="1.0" xmlns="http://www.w3.org/2000/svg"
 width="1024.000000pt" height="1024.000000pt" viewBox="0 0 1024.000000 1024.000000"
 preserveAspectRatio="xMidYMid meet">
<metadata>
Created by potrace 1.16, written by Peter Selinger 2001-2019
</metadata>
<g transform="translate(0.000000,1024.000000) scale(0.100000,-0.100000)"
fill="#000000" stroke="none">
<path d="M53 10233 c-7 -3 -13 -11 -13 -19 0 -8 -6 -14 -14 -14 -18 0 -25 -20
-15 -45 10 -26 10 -6984 0 -7010 -12 -29 7 -75 30 -75 10 0 19 -4 19 -10 0 -7
521 -10 1544 -10 1409 0 1544 -1 1550 -16 5 -13 14 -15 44 -10 20 4 53 8 72 9
32 2 35 -1 43 -35 5 -21 13 -38 19 -38 6 0 9 -25 6 -62 -2 -42 1 -62 10 -65 8
-3 12 10 12 45 0 55 7 82 21 82 12 0 32 -49 31 -75 -1 -11 5 -30 13 -42 8 -12
15 -31 15 -43 0 -11 7 -20 15 -20 12 0 15 13 15 59 0 33 5 63 10 66 5 3 10 19
10 34 0 38 52 76 102 74 21 -1 40 2 43 8 7 11 205 12 205 1 0 -5 12 -13 28
-19 25 -9 25 -11 7 -17 -11 -4 -28 -12 -37 -17 -10 -5 -24 -9 -32 -9 -8 0 -17
-4 -20 -9 -10 -16 5 -41 24 -41 33 0 31 -18 -6 -39 -19 -12 -32 -26 -29 -31 3
-6 35 -10 70 -10 48 0 64 -4 69 -16 5 -14 17 -15 79 -9 77 8 90 17 82 52 -5
23 8 32 20 13 8 -13 112 -13 120 0 3 6 21 10 40 10 25 0 39 7 55 27 l21 27 31
-18 c28 -17 31 -17 40 -2 5 9 17 16 26 16 19 0 52 -51 52 -81 0 -12 7 -19 19
-19 23 0 36 16 21 25 -16 10 -1 25 26 25 13 0 24 4 24 9 0 11 40 22 52 15 5
-3 3 -13 -4 -22 -10 -12 -10 -16 0 -19 6 -3 12 -11 12 -19 0 -8 5 -14 10 -14
6 0 10 -10 10 -22 0 -30 8 -41 48 -63 17 -11 32 -27 32 -37 0 -10 5 -18 10
-18 6 0 10 -7 10 -15 0 -8 7 -15 15 -15 9 0 15 -9 15 -25 0 -14 3 -25 8 -25 7
0 21 -29 36 -73 3 -9 15 -17 26 -17 17 0 20 -4 15 -20 -4 -11 -2 -20 4 -20 17
0 13 -21 -6 -36 -10 -7 -28 -14 -40 -14 -13 0 -23 -6 -23 -13 0 -7 -10 -17
-22 -22 -18 -8 -24 -20 -26 -50 -2 -35 1 -42 25 -53 50 -24 53 -24 53 -8 0 12
9 16 34 16 19 0 38 -4 41 -10 10 -17 25 -11 25 10 0 22 26 28 33 8 3 -10 9
-10 26 0 26 15 41 8 41 -19 0 -10 5 -19 10 -19 6 0 10 -8 10 -17 -1 -17 -2
-17 -15 1 -15 19 -35 14 -35 -9 0 -12 -4 -12 -27 1 -35 18 -43 18 -43 -1 0 -8
-7 -15 -15 -15 -8 0 -15 -7 -15 -15 0 -8 -9 -15 -20 -15 -14 0 -21 -9 -26 -35
-7 -37 -13 -42 -32 -23 -9 9 -12 6 -12 -14 0 -18 7 -28 23 -33 l22 -8 -22 -4
c-12 -2 -27 -11 -33 -19 -7 -8 -19 -14 -26 -14 -8 0 -16 -11 -20 -25 -9 -38
-45 -33 -68 9 -10 19 -27 36 -37 39 -10 3 -22 13 -26 24 -8 22 -35 43 -46 36
-5 -3 -16 2 -26 11 -15 14 -19 14 -24 3 -7 -19 27 -47 58 -47 16 0 25 -6 25
-15 0 -8 -5 -15 -11 -15 -6 0 -8 -8 -4 -19 3 -10 1 -30 -4 -44 -8 -20 -7 -27
5 -31 24 -9 24 -9 24 34 0 29 4 40 15 40 8 0 15 -8 15 -18 0 -10 8 -25 18 -33
18 -17 66 -74 82 -99 9 -13 13 -12 28 6 25 32 62 48 75 35 18 -18 27 -13 27
17 0 26 40 66 47 46 4 -13 83 -4 84 10 1 6 5 -5 9 -24 8 -33 2 -59 -7 -32 -5
12 -53 18 -53 6 0 -4 7 -12 17 -19 9 -7 14 -19 10 -29 -7 -17 -37 -23 -37 -6
0 21 -17 9 -35 -24 -10 -18 -31 -41 -46 -50 -52 -31 -90 -77 -93 -112 -1 -19
-4 -35 -7 -37 -26 -19 -61 -37 -74 -37 -8 0 -15 -7 -15 -15 0 -8 -7 -15 -15
-15 -8 0 -15 -4 -15 -9 0 -5 -10 -13 -22 -17 -26 -8 -40 -21 -56 -50 -6 -12
-25 -24 -41 -27 -17 -4 -32 -14 -36 -27 -3 -11 -12 -20 -20 -20 -7 0 -28 -13
-47 -30 -18 -16 -55 -43 -81 -60 l-47 -30 0 31 c0 28 -2 31 -24 25 -19 -5 -26
-1 -31 13 -7 24 -24 30 -59 24 -19 -4 -25 -10 -22 -20 3 -8 6 -19 6 -24 0 -5
11 -9 25 -9 31 0 31 -7 -1 -45 -15 -16 -23 -24 -19 -16 6 10 4 12 -4 7 -13 -8
8 -49 38 -74 12 -10 13 -15 4 -18 -15 -6 -18 -44 -4 -44 5 0 11 5 13 12 2 6 9
8 16 4 12 -7 5 -66 -8 -76 -10 -7 -22 -60 -13 -59 31 5 55 -2 49 -16 -3 -9 0
-15 9 -15 8 0 15 -5 15 -10 0 -6 23 2 52 17 53 29 108 75 108 92 0 5 7 11 15
15 8 3 15 13 15 23 0 10 11 31 25 47 14 16 25 33 25 37 0 16 34 49 50 49 8 0
21 9 28 20 7 11 19 20 27 20 8 0 15 4 15 9 0 4 24 33 52 64 29 30 62 66 73 79
22 26 56 48 75 48 6 0 8 -5 5 -10 -4 -6 -11 -8 -16 -5 -5 4 -9 -1 -9 -9 0 -9
6 -16 13 -16 19 0 37 21 37 42 0 16 5 18 38 12 20 -4 40 -12 44 -18 4 -6 10
-7 14 -3 4 3 -4 16 -17 27 -16 15 -20 23 -11 26 6 3 12 12 12 20 0 8 5 14 10
14 15 0 12 -11 -7 -32 -13 -14 -13 -18 -2 -18 19 0 40 35 33 55 -4 8 -1 29 6
45 10 25 18 30 46 30 34 0 49 23 21 33 -9 3 -7 9 6 24 9 11 17 25 17 31 0 7 5
12 10 12 6 0 10 -7 10 -16 0 -8 4 -12 10 -9 6 3 10 13 10 21 0 9 7 22 15 30 9
9 15 34 15 60 0 44 0 44 35 44 31 0 35 -3 35 -25 0 -30 19 -32 48 -5 22 21 29
16 13 -8 -4 -8 -12 -13 -17 -13 -20 2 -7 -24 14 -27 15 -2 22 2 22 12 0 9 6
16 13 16 25 0 27 -12 7 -40 -11 -16 -20 -40 -20 -54 0 -15 -7 -43 -15 -63 -23
-55 -19 -72 18 -88 19 -8 39 -21 47 -29 7 -9 19 -16 27 -16 10 0 13 -6 9 -16
-5 -14 42 -74 58 -74 3 0 6 16 6 35 0 19 5 35 10 35 6 0 10 -16 10 -35 0 -19
-4 -35 -10 -35 -5 0 -10 -7 -10 -15 0 -9 9 -15 25 -15 14 0 25 -4 25 -10 0 -5
7 -10 15 -10 8 0 15 -7 15 -15 0 -8 -7 -15 -15 -15 -9 0 -14 -8 -12 -22 1 -14
-3 -23 -12 -23 -21 0 -24 20 -6 38 22 23 18 37 -10 37 -22 0 -25 -4 -25 -37 0
-45 7 -58 38 -67 22 -7 32 -49 14 -60 -15 -9 -52 6 -52 21 0 23 -25 9 -28 -15
-3 -17 -10 -22 -33 -22 -24 0 -29 4 -29 25 0 18 5 25 20 25 11 0 20 5 20 10 0
6 -13 10 -30 10 -16 0 -30 5 -30 11 0 15 -102 7 -108 -8 -2 -7 3 -13 12 -13
13 0 16 -12 16 -59 0 -33 -5 -63 -10 -66 -13 -8 -89 27 -90 41 0 19 -54 11
-58 -8 -2 -11 3 -18 11 -18 17 0 29 -48 14 -57 -5 -3 -7 -1 -3 5 3 6 2 13 -3
16 -7 5 -8 -12 -2 -31 1 -1 12 2 26 7 19 7 26 6 34 -8 12 -21 20 -13 23 21 2
28 18 38 18 12 0 -9 9 -15 24 -15 20 0 23 4 18 22 -3 14 -1 19 6 14 7 -4 10
-2 7 6 -4 11 8 14 52 13 32 0 64 4 70 9 8 5 13 4 13 -2 0 -6 8 -13 18 -16 22
-7 24 -35 4 -55 -12 -12 -15 -12 -23 0 -5 8 -9 21 -9 30 0 17 -28 34 -38 24
-3 -3 0 -5 6 -5 14 0 4 -29 -17 -50 -13 -13 -14 -13 -9 2 5 11 0 18 -13 21
-13 4 -19 0 -19 -13 0 -20 18 -30 58 -31 27 0 27 0 5 -11 -13 -6 -23 -16 -23
-22 0 -6 -10 -17 -21 -25 -18 -11 -23 -11 -30 1 -5 7 -7 23 -4 35 2 13 1 22
-3 22 -4 -1 -9 0 -12 1 -15 6 -60 4 -60 -2 0 -4 9 -8 20 -8 14 0 20 -7 21 -22
1 -22 1 -22 10 2 8 23 8 9 -4 -130 -1 -14 -10 -34 -19 -44 -17 -19 -18 -19
-35 1 -20 23 -113 39 -113 19 1 -15 30 -53 30 -39 0 12 58 29 67 19 4 -3 -1
-14 -10 -24 -19 -20 -23 -52 -7 -52 6 0 10 -5 10 -11 0 -5 -4 -8 -9 -4 -6 3
-13 0 -18 -7 -7 -12 -68 -38 -86 -38 -4 0 -7 11 -7 25 0 18 5 25 20 25 29 0
41 31 19 52 -10 9 -19 13 -21 8 -2 -4 -12 -10 -23 -12 -11 -1 -23 -7 -27 -13
-4 -5 -22 -10 -40 -11 -28 0 -33 -4 -33 -24 0 -19 10 -30 43 -46 61 -30 107
-84 72 -84 -5 0 -10 -6 -10 -13 0 -14 -31 -47 -43 -47 -4 0 -7 7 -7 15 0 8 5
15 10 15 6 0 10 7 10 15 0 18 -16 20 -24 3 -5 -10 -7 -10 -12 0 -3 6 -13 12
-22 13 -11 0 -12 2 -4 6 13 5 17 43 5 43 -27 -1 -47 -42 -30 -59 9 -9 6 -13
-11 -17 -12 -4 -22 -13 -22 -20 0 -18 46 -19 54 -1 5 9 7 9 12 0 3 -7 10 -13
16 -13 5 0 16 -7 25 -16 12 -11 13 -18 4 -27 -14 -14 -14 -27 -1 -27 6 0 10 7
10 15 0 8 7 15 15 15 8 0 15 -9 15 -20 0 -24 42 -70 48 -52 2 7 10 12 18 12 8
0 14 5 14 10 0 6 7 10 15 10 11 0 12 -5 5 -26 -22 -56 17 -60 44 -4 11 22 23
40 27 40 5 0 11 16 15 35 3 19 10 38 15 41 5 3 9 18 9 35 0 34 35 77 44 53 8
-21 26 -17 26 5 0 11 6 22 13 24 6 3 2 6 -10 6 -13 1 -23 7 -23 16 0 18 1 18
35 5 19 -7 25 -15 20 -29 -7 -22 10 -71 25 -71 5 0 10 11 10 25 0 14 5 25 10
25 6 0 10 17 10 38 0 21 5 43 10 48 6 6 13 28 15 49 3 21 7 41 10 43 2 2 21 0
42 -6 21 -5 30 -10 21 -11 -24 -1 -55 -34 -50 -51 3 -7 0 -10 -7 -6 -6 4 -11
2 -11 -3 0 -6 3 -11 8 -12 4 0 16 -2 27 -4 11 -2 23 1 27 8 5 8 8 4 8 -10 0
-12 -4 -25 -10 -28 -6 -3 -10 -22 -10 -41 0 -31 -2 -34 -31 -34 -30 0 -31 -1
-24 -40 5 -31 4 -40 -7 -40 -8 0 -31 -16 -51 -35 -20 -19 -42 -35 -47 -35 -6
0 -10 -10 -10 -23 0 -12 -7 -33 -16 -46 -19 -26 -14 -105 7 -139 16 -25 5 -52
-21 -52 -11 0 -20 -7 -20 -16 0 -11 6 -14 21 -9 15 5 22 2 26 -14 4 -16 11
-19 29 -15 18 5 24 2 24 -11 0 -15 6 -17 41 -11 38 6 41 5 36 -13 -4 -17 -1
-19 29 -14 28 5 34 2 34 -12 0 -15 6 -17 40 -12 29 4 40 2 40 -8 0 -8 -8 -16
-17 -19 -10 -3 8 -3 40 0 48 5 57 3 57 -10 0 -13 8 -15 42 -10 39 7 41 6 35
-16 -6 -22 -4 -22 39 -16 36 4 46 2 51 -10 5 -13 15 -15 54 -10 44 6 49 5 49
-12 0 -15 7 -19 28 -17 15 1 44 3 65 3 25 2 37 7 37 17 0 12 -14 15 -65 15
-37 0 -65 4 -65 10 0 6 -18 10 -40 10 -27 0 -43 5 -46 15 -4 11 -21 15 -55 15
-27 0 -49 4 -49 9 0 5 -18 12 -40 16 -22 4 -42 11 -46 16 -3 5 -16 9 -29 9
-13 0 -26 4 -29 9 -3 4 -24 11 -46 15 -22 3 -40 11 -40 16 0 6 -12 10 -27 10
-35 1 -83 38 -64 49 7 5 11 17 9 27 -2 13 4 20 18 22 23 3 44 40 44 77 0 22 5
25 34 25 19 0 38 5 41 10 3 6 0 10 -8 10 -23 0 -42 30 -42 66 0 28 4 34 26 39
15 3 43 24 64 46 l36 40 -23 19 c-26 21 -19 26 42 33 31 4 32 5 13 12 -23 7
-32 35 -13 35 6 0 10 9 10 20 0 11 5 20 10 20 6 0 10 17 10 38 0 30 5 39 27
50 15 6 35 12 44 12 10 0 22 6 26 13 4 6 17 17 28 23 14 8 22 27 28 63 4 29
12 61 17 71 26 49 -4 140 -46 140 -12 0 -24 -6 -27 -12 -3 -10 -9 -10 -30 1
-27 14 -63 8 -52 -9 10 -16 -5 -50 -21 -50 -8 0 -24 11 -36 25 -14 16 -28 23
-40 19 -22 -7 -24 9 -3 26 17 14 20 57 5 94 -9 24 -8 26 21 26 22 0 30 -4 26
-14 -4 -10 0 -12 14 -9 20 6 27 33 8 33 -6 0 -8 9 -4 20 5 15 2 20 -13 20 -11
0 -22 7 -26 15 -3 8 -15 15 -26 15 -15 0 -20 7 -20 25 0 14 4 25 10 25 5 0 13
24 17 53 l7 52 7 -50 c3 -27 2 -51 -3 -53 -4 -2 -8 -7 -8 -11 0 -4 23 -3 50 3
38 8 50 14 50 29 0 10 5 15 11 11 6 -3 9 -17 6 -30 -3 -20 0 -24 21 -24 14 0
45 12 69 26 46 26 76 26 87 -3 9 -21 -22 -53 -51 -53 -23 0 -31 -14 -13 -25 6
-3 6 -13 1 -23 -26 -51 -31 -69 -28 -92 3 -17 10 -24 21 -22 9 2 16 -2 16 -8
0 -18 45 -11 63 10 9 11 17 23 17 26 0 3 7 20 15 37 8 18 15 52 17 77 3 43 5
45 36 48 24 2 32 -1 32 -12 0 -13 12 -16 53 -16 30 -1 60 -7 71 -15 11 -8 35
-15 53 -15 18 0 33 -4 33 -10 0 -5 16 -10 36 -10 39 0 44 -23 6 -28 -12 -2
-22 -10 -22 -18 0 -8 -4 -14 -10 -14 -20 0 -9 -27 15 -38 14 -6 25 -20 25 -30
0 -14 9 -18 39 -19 34 -2 40 2 44 20 l4 22 2 -22 c1 -17 7 -23 26 -23 25 0 33
-14 15 -25 -17 -10 -11 -23 13 -31 21 -7 20 -8 -8 -14 -16 -3 -32 -2 -35 2 -8
11 -135 -5 -135 -17 0 -5 16 -11 35 -13 19 -2 40 -10 47 -19 11 -14 14 -14 30
5 12 15 22 19 32 13 16 -10 6 -31 -14 -31 -22 0 -55 -32 -55 -52 0 -21 31 -24
60 -6 16 10 24 10 40 1 12 -8 21 -9 25 -3 10 16 21 12 35 -15 7 -14 20 -25 27
-25 7 0 16 -7 19 -15 4 -8 10 -15 16 -15 15 0 38 -27 38 -44 0 -19 16 -22 18
-3 11 81 13 177 4 177 -5 0 -13 11 -16 24 -3 14 -15 28 -26 31 -23 7 -27 25
-6 25 8 0 18 5 21 10 4 7 -7 10 -32 8 -28 -2 -38 1 -38 12 0 12 12 15 55 14
95 -1 128 -7 122 -23 -4 -11 -1 -13 13 -7 52 19 100 22 192 11 96 -12 92 3
108 -337 6 -111 4 -130 -10 -144 -12 -13 -19 -14 -28 -5 -6 6 -19 11 -29 11
-10 0 -18 7 -18 15 0 9 -11 26 -25 39 -14 13 -25 29 -25 35 0 7 -22 21 -49 32
-44 19 -50 25 -65 71 -9 28 -16 57 -16 64 0 8 -4 14 -10 14 -5 0 -10 6 -10 14
0 23 -19 29 -27 9 -4 -10 -13 -24 -20 -31 -8 -8 -13 -40 -14 -80 -1 -37 -3
-83 -5 -102 -2 -19 -7 -98 -11 -175 -8 -132 -9 -140 -29 -143 -26 -4 -40 28
-49 118 -11 109 -12 114 -20 145 -8 32 -52 85 -69 85 -6 0 -17 -4 -25 -9 -12
-8 -13 -12 -1 -26 13 -16 16 -118 4 -158 -5 -15 -7 -15 -20 -2 -11 11 -12 19
-4 34 5 11 10 43 10 71 l0 52 -30 -4 c-16 -3 -30 -1 -30 4 0 4 -3 7 -7 7 -5
-1 -15 -1 -23 0 -11 1 -11 4 -2 13 19 19 14 28 -13 28 -20 0 -25 -5 -25 -24 0
-14 4 -28 10 -31 6 -3 10 -12 9 -18 0 -9 -2 -8 -6 1 -2 6 -9 10 -14 6 -5 -3
-10 1 -11 8 -5 47 -2 74 9 83 19 14 25 95 8 95 -18 0 -30 20 -18 29 13 8 23
49 16 67 -7 19 -53 18 -53 -1 0 -8 -5 -15 -12 -15 -9 0 -9 -3 0 -12 17 -17 15
-38 -3 -38 -8 0 -15 -4 -15 -9 0 -12 -48 -23 -71 -16 -19 6 -26 35 -12 49 4 4
8 22 9 41 1 32 -1 33 -43 40 -58 9 -83 0 -83 -31 0 -13 -4 -24 -10 -24 -14 0
-12 -42 4 -63 7 -9 18 -17 25 -17 16 0 14 -79 -2 -86 -8 -3 -20 -35 -27 -71
-8 -36 -20 -72 -27 -79 -7 -7 -13 -25 -13 -41 0 -16 -4 -33 -9 -39 -5 -5 -11
-20 -13 -34 -2 -17 -10 -26 -25 -28 -22 -3 -23 -8 -23 -98 l0 -94 31 0 c50 0
72 -17 65 -51 -5 -24 -2 -29 14 -29 16 0 19 5 15 23 -4 15 -1 28 9 36 9 8 16
24 16 37 0 16 6 24 18 24 26 0 18 -90 -10 -97 -18 -5 -18 -7 -2 -24 9 -11 13
-19 7 -19 -6 0 -10 -18 -10 -40 0 -34 3 -40 21 -40 42 0 47 -12 31 -67 -10
-34 -22 -54 -35 -58 -37 -12 -23 -35 20 -35 29 0 40 -4 40 -15 0 -8 7 -15 15
-15 8 0 15 7 15 15 0 8 4 15 8 15 4 0 9 28 9 62 1 35 7 64 13 66 5 2 10 20 10
41 0 20 7 46 15 58 13 19 13 22 -1 27 -24 9 -17 134 9 160 15 14 21 16 27 6 6
-10 9 -9 13 1 4 11 7 12 18 2 7 -7 22 -13 32 -13 10 0 21 -8 24 -19 3 -10 23
-27 45 -37 34 -15 41 -16 49 -3 8 12 9 12 7 -1 -1 -8 1 -25 6 -37 4 -13 2 -31
-4 -43 -9 -16 -8 -25 0 -35 20 -24 1 -36 -46 -29 -79 12 -117 -12 -92 -59 15
-29 27 -37 61 -37 18 0 27 -5 27 -16 0 -11 -8 -14 -32 -12 -18 2 -33 -2 -35
-9 -3 -8 4 -13 16 -13 11 0 46 -8 77 -17 l56 -18 -6 -44 -6 -44 63 9 c70 10
260 9 325 -2 35 -5 42 -4 42 9 0 9 -13 23 -30 32 -33 17 -38 32 -15 41 16 7
21 34 6 34 -15 0 -19 64 -6 100 7 19 16 48 19 63 4 17 16 31 32 37 30 12 42
38 23 52 -11 7 -11 11 -1 15 6 2 12 22 12 43 0 21 5 42 11 46 7 4 9 23 6 49
-6 40 -4 43 18 49 17 4 25 13 25 28 0 19 5 16 35 -18 19 -21 35 -43 35 -48 0
-5 11 -19 25 -32 19 -17 25 -33 25 -63 0 -22 4 -42 9 -45 4 -3 11 -38 15 -78
3 -40 12 -120 19 -178 11 -97 14 -105 35 -108 13 -2 25 3 28 12 5 12 21 16 65
16 52 0 59 2 59 20 0 11 4 20 9 20 5 0 3 14 -6 30 -8 17 -13 37 -10 44 10 26
81 51 192 69 51 8 165 42 165 49 0 15 35 7 59 -13 17 -13 24 -31 25 -56 1 -20
7 -38 14 -41 7 -2 10 2 6 12 -4 11 4 17 30 21 l35 7 -22 29 c-25 35 -19 52 30
84 17 11 36 29 43 40 7 11 9 17 5 13 -3 -3 -20 -2 -36 4 -22 8 -29 16 -29 37
0 27 6 30 68 34 25 1 11 27 -20 35 -29 7 -36 5 -60 -21 -32 -33 -48 -28 -48
14 0 23 4 30 18 28 32 -3 42 1 42 15 0 8 -5 18 -10 21 -16 10 -50 -5 -50 -21
0 -19 -36 -18 -44 2 -9 24 -50 14 -54 -13 -2 -13 -8 -23 -13 -23 -5 0 -9 -7
-9 -15 0 -8 5 -15 10 -15 16 0 12 -90 -5 -106 -8 -9 -15 -26 -15 -40 0 -19 -5
-24 -24 -24 -13 0 -27 6 -29 13 -4 9 -8 8 -16 -3 -13 -19 -17 -13 -26 36 -5
36 -4 42 14 47 31 8 26 29 -6 25 -21 -2 -29 -10 -35 -36 -5 -17 -14 -32 -22
-32 -17 0 -66 -42 -66 -57 0 -12 -32 -23 -67 -23 -12 0 -30 -12 -41 -27 l-20
-28 -7 28 c-4 15 -11 27 -16 27 -5 0 -9 8 -9 19 0 10 -7 35 -15 54 -8 20 -15
50 -15 67 0 17 -4 40 -10 50 -5 10 -12 58 -15 106 -5 105 -23 204 -36 204 -5
0 -9 8 -9 18 0 20 -33 118 -43 129 -4 3 -7 13 -7 22 0 9 -7 29 -15 45 -8 15
-15 41 -15 56 0 15 -7 33 -15 40 -8 7 -15 21 -15 31 0 11 -4 19 -10 19 -5 0
-10 9 -10 21 0 18 4 20 32 14 48 -11 128 -9 141 4 6 6 32 11 58 11 39 0 51 5
68 26 11 14 25 23 31 19 7 -4 29 7 50 24 21 17 46 31 55 31 8 0 18 7 21 15 4
8 11 15 17 15 9 0 94 64 107 81 3 3 15 9 28 13 12 4 22 12 22 17 0 5 7 9 15 9
8 0 15 4 15 10 0 5 16 16 35 25 19 9 39 23 46 31 17 21 47 17 59 -7 18 -33 -5
-79 -40 -79 -35 0 -60 -41 -42 -70 7 -11 12 -33 12 -49 0 -17 4 -32 9 -35 5
-3 12 -27 15 -53 8 -56 27 -99 56 -130 17 -19 31 -23 85 -23 35 0 67 -4 70
-10 3 -5 18 -10 32 -10 25 0 25 0 18 63 -4 34 -12 65 -17 68 -6 4 -10 20 -10
35 0 16 -5 35 -10 42 -6 7 -13 45 -15 85 -4 68 -26 137 -45 137 -4 0 -8 5 -8
10 0 6 -11 23 -25 38 -31 33 -29 66 3 70 13 2 31 0 40 -4 9 -4 36 -13 59 -19
l42 -12 6 56 c10 96 22 128 58 149 17 10 58 34 90 52 31 19 57 39 57 45 0 6
14 16 31 22 28 11 34 10 50 -10 11 -12 26 -34 34 -49 9 -16 20 -28 25 -28 6 0
10 -6 10 -12 0 -7 14 -29 31 -48 63 -73 125 -143 162 -182 20 -22 37 -44 37
-49 0 -5 5 -9 10 -9 6 0 10 -5 10 -11 0 -19 86 -120 117 -137 42 -24 -31 -85
-102 -86 -18 -1 -29 -6 -27 -14 1 -6 -1 -11 -5 -11 -5 1 -16 1 -26 0 -17 -1
-17 -2 0 -25 10 -13 21 -22 24 -20 4 2 10 -3 13 -12 4 -12 2 -15 -9 -11 -8 4
-17 2 -20 -4 -4 -5 -11 -7 -16 -4 -5 4 -9 1 -9 -4 0 -6 -8 -11 -19 -11 -10 0
-21 -9 -24 -19 -3 -11 -17 -22 -36 -26 -36 -8 -42 -32 -8 -37 14 -2 23 -11 25
-25 5 -37 26 -45 53 -20 13 12 25 21 27 19 2 -2 7 0 10 4 4 4 2 4 -5 0 -6 -3
-15 -1 -19 5 -5 8 -8 8 -14 -1 -5 -8 -9 -4 -13 10 -4 15 2 28 19 43 36 31 55
31 52 -1 -4 -34 26 -42 42 -12 12 23 2 45 -20 45 -6 0 -9 5 -7 10 1 6 6 9 11
7 5 -2 6 3 3 11 -3 7 1 14 9 14 7 0 10 -5 7 -10 -4 -6 1 -8 11 -4 15 6 17 3
12 -18 -8 -30 9 -33 24 -5 6 11 16 17 25 14 9 -4 16 3 21 20 4 16 13 26 25 26
25 0 46 38 24 46 -8 4 -25 4 -36 1 -27 -7 -49 1 -49 19 0 17 36 19 46 2 5 -8
11 -6 19 5 9 13 18 15 45 7 39 -11 54 -5 47 22 -4 15 -3 17 8 8 10 -8 20 -3
44 20 17 18 31 36 31 41 0 5 5 9 11 9 16 0 38 31 39 53 0 20 23 47 39 47 6 0
11 5 11 10 0 17 -18 11 -46 -15 -31 -29 -40 -31 -48 -10 -3 8 -10 15 -16 15
-15 0 -40 25 -40 39 0 6 -3 11 -7 11 -5 0 -21 11 -37 25 -16 14 -35 25 -43 25
-7 0 -13 5 -13 10 0 6 -11 10 -24 10 -13 0 -29 7 -36 15 -7 8 -16 15 -20 15
-9 0 -70 58 -70 66 0 13 -70 79 -106 100 -23 13 -49 33 -59 44 -10 11 -24 20
-31 20 -7 0 -14 3 -16 8 -4 9 -77 56 -100 65 -10 3 -18 16 -18 27 0 12 7 20
18 20 9 0 28 12 41 26 13 14 30 23 36 20 8 -3 11 2 8 15 -5 16 0 19 30 19 20
0 39 4 42 10 3 6 14 10 24 10 10 0 28 13 40 28 15 20 37 32 74 41 31 7 60 21
72 35 11 12 39 35 62 49 23 14 44 31 47 36 4 5 20 12 36 16 17 4 30 11 30 16
0 5 18 9 40 9 29 0 58 -11 105 -40 36 -22 70 -40 75 -40 6 0 10 -4 10 -10 0
-5 11 -10 24 -10 14 0 27 -4 31 -9 3 -5 36 -24 73 -42 37 -18 69 -36 70 -41 2
-4 10 -8 17 -8 16 0 79 -32 83 -42 2 -5 12 -8 23 -8 11 0 22 -7 25 -15 4 -8
17 -15 30 -15 13 0 24 -4 24 -10 0 -5 9 -10 20 -10 11 0 23 -7 26 -15 4 -8 17
-15 30 -15 13 0 24 -4 24 -10 0 -5 9 -10 20 -10 13 0 24 -10 30 -25 5 -14 14
-25 19 -25 25 0 41 14 41 36 0 15 6 24 15 24 16 0 19 28 9 67 -4 14 -14 23
-26 23 -25 0 -72 36 -58 45 17 11 11 20 -27 40 -21 11 -47 30 -59 43 -12 12
-30 22 -40 22 -11 0 -28 7 -38 15 -11 8 -32 15 -46 15 -45 0 -85 19 -103 49
-22 37 -22 38 8 45 27 7 35 26 11 26 -8 0 -21 6 -28 13 -18 18 -60 28 -140 34
l-68 5 0 41 c0 23 7 51 15 61 8 11 15 28 15 38 0 10 8 31 17 45 l17 26 7 -24
c4 -13 7 -52 8 -86 1 -35 6 -63 11 -63 6 0 10 9 10 19 0 11 4 22 9 25 5 3 12
22 15 42 7 36 7 36 49 29 23 -4 48 -11 57 -15 20 -11 159 -40 187 -40 12 0 24
-4 27 -9 3 -4 28 -11 55 -15 28 -4 53 -11 56 -16 3 -6 21 -10 40 -10 19 0 36
-4 39 -9 6 -10 112 -20 138 -13 14 3 18 14 18 44 0 32 3 39 15 34 19 -7 20 51
1 76 -16 21 -26 13 -26 -19 0 -24 -15 -32 -22 -11 -3 8 -35 11 -106 9 -66 -1
-102 2 -102 8 0 7 -24 11 -59 11 -63 0 -75 9 -64 49 4 16 13 21 40 21 19 0 58
11 88 26 51 24 59 25 152 17 97 -8 98 -8 101 -35 2 -17 9 -28 19 -28 12 0 14
7 9 36 -6 31 -4 36 14 41 19 5 20 10 14 64 -6 51 -4 59 10 59 16 0 20 19 10
55 -4 17 -15 20 -79 23 -41 1 -76 -2 -79 -7 -3 -5 -1 -23 5 -40 10 -28 15 -31
55 -31 40 0 44 -2 44 -25 0 -29 -3 -30 -33 -11 -12 8 -51 16 -87 17 -63 2
-117 21 -133 47 -4 6 -14 12 -22 12 -25 0 -28 21 -7 50 l20 27 -21 22 c-21 21
-21 23 -4 35 9 7 17 23 17 35 0 11 5 21 10 21 6 0 10 9 10 20 0 11 7 23 15 26
18 7 20 30 3 37 -7 3 -1 6 14 6 20 1 26 -3 22 -14 -4 -8 -1 -15 5 -15 16 0 43
-69 45 -115 1 -39 2 -40 36 -40 34 0 35 1 43 50 5 28 13 58 18 67 5 10 9 25 9
33 0 8 7 15 16 15 11 0 14 -6 9 -20 -4 -11 -2 -20 4 -20 6 0 11 8 11 19 0 18
35 35 52 25 4 -3 8 -25 8 -50 0 -32 4 -44 15 -44 12 0 15 17 15 94 0 77 3 95
16 100 14 5 15 17 9 79 -3 39 -6 132 -5 205 2 116 0 132 -14 132 -9 0 -21 -11
-25 -24 -16 -39 -91 -53 -91 -17 0 26 -18 37 -26 17 -3 -9 -12 -16 -20 -16 -8
0 -14 -5 -14 -10 0 -6 3 -9 8 -8 4 2 9 -1 12 -7 8 -17 -36 -17 -49 -1 -17 21
-6 64 15 62 9 0 19 5 22 13 3 10 -2 12 -22 7 -33 -8 -37 21 -4 33 l22 8 -23 6
c-34 9 -25 51 12 52 15 1 32 -4 38 -12 6 -7 20 -13 31 -13 14 0 18 6 16 22 -2
19 2 24 25 26 18 2 27 -1 27 -11 0 -20 34 -57 53 -57 10 0 15 8 14 20 -1 13
-5 16 -11 10 -6 -6 -13 -10 -16 -10 -4 0 -4 52 -2 115 4 112 4 115 -17 115
-17 0 -21 -6 -21 -35 0 -33 -2 -35 -34 -35 -28 0 -35 4 -38 23 -2 17 -9 21
-31 19 -15 -1 -27 2 -27 7 0 6 -7 8 -15 5 -19 -8 -57 37 -45 51 6 7 -2 15 -20
22 -18 7 -32 7 -36 2 -12 -20 -21 -6 -22 36 0 49 6 55 28 26 7 -11 17 -18 22
-15 4 3 8 -4 8 -16 0 -12 4 -18 10 -15 5 3 10 1 10 -4 0 -6 9 -11 20 -11 15 0
20 7 20 29 0 16 6 34 14 41 8 6 12 18 9 26 -4 12 -8 12 -18 -3 -7 -10 -11 -21
-9 -24 2 -4 -5 -9 -17 -12 -26 -7 -33 12 -26 65 3 23 3 37 -1 32 -4 -6 -15
-13 -24 -17 -14 -5 -20 2 -28 31 -5 20 -10 56 -10 79 0 34 -3 41 -15 37 -10
-4 -15 0 -15 11 0 11 -5 15 -16 11 -26 -10 -53 12 -60 49 -7 39 -39 55 -77 38
-18 -8 -27 -5 -51 20 -39 38 -56 72 -56 108 0 29 -9 34 -53 31 -10 -1 -26 5
-34 14 -14 13 -15 21 -5 47 6 17 8 36 3 45 -6 11 -12 7 -25 -18 -16 -34 -14
-70 5 -70 13 0 7 -42 -6 -47 -6 -2 -22 8 -37 22 -15 14 -31 25 -35 25 -15 0
-60 66 -68 98 -8 37 -13 39 -31 14 -12 -15 -13 -12 -14 28 0 35 -6 50 -26 69
-19 18 -24 31 -20 50 3 14 3 20 0 14 -8 -18 -34 -16 -34 2 0 8 -5 15 -10 15
-6 0 -14 8 -17 18 -4 9 -13 28 -22 41 -24 38 -23 52 2 38 12 -7 24 -15 27 -19
3 -3 14 0 24 8 18 13 17 15 -17 47 -21 18 -37 39 -37 45 0 7 -7 12 -15 12 -8
0 -15 6 -15 13 0 8 -11 24 -25 37 -14 13 -25 27 -25 32 0 16 -75 78 -88 73 -8
-3 -25 -5 -38 -5 -13 0 -24 -4 -24 -10 0 -5 9 -10 21 -10 41 0 79 -29 79 -62
0 -20 -26 -24 -33 -5 -2 6 -7 -5 -11 -26 -4 -20 -10 -37 -14 -37 -14 0 -40 38
-39 55 1 10 -4 20 -12 23 -11 4 -12 -1 -6 -19 4 -13 8 -34 9 -46 0 -11 4 -19
7 -17 3 2 12 -8 19 -21 7 -14 22 -25 32 -25 20 0 26 -39 6 -41 -24 -2 -43 3
-49 13 -4 6 -30 11 -58 11 -52 1 -59 5 -40 24 8 8 8 13 0 17 -16 10 -13 26 4
26 8 0 15 5 15 10 0 19 -29 22 -61 6 -30 -15 -32 -15 -72 17 -64 49 -67 56
-43 85 12 13 43 35 70 49 26 13 51 33 53 44 3 10 13 19 22 19 20 1 51 24 51
39 0 6 7 11 15 11 8 0 22 11 31 25 9 14 25 25 35 25 11 0 19 5 19 10 0 6 5 10
10 10 6 0 16 5 23 10 7 6 27 24 46 40 19 17 38 30 43 30 4 0 8 7 8 15 0 8 4
15 10 15 5 0 12 11 16 25 4 16 13 25 25 25 25 0 24 12 -1 28 -20 12 -28 62
-10 62 6 0 10 5 10 12 0 6 11 26 25 44 33 44 32 54 -10 54 -34 0 -49 20 -25
35 24 15 9 32 -30 32 -34 0 -38 -2 -28 -14 9 -11 9 -16 -3 -24 -8 -5 -17 -9
-21 -9 -18 0 -141 -136 -192 -212 -39 -59 -65 -88 -77 -88 -11 0 -19 -4 -19
-10 0 -5 -6 -10 -12 -10 -7 0 -29 -19 -48 -41 -19 -22 -47 -55 -62 -72 -16
-17 -28 -34 -28 -38 0 -12 -66 -79 -79 -79 -6 0 -22 11 -35 25 -13 14 -27 25
-32 25 -5 0 -33 23 -61 50 -29 28 -57 50 -62 50 -5 0 -11 7 -15 15 -3 8 -11
15 -17 15 -7 0 -26 10 -43 23 -17 12 -48 31 -68 42 -21 11 -38 23 -38 27 0 5
-4 8 -9 8 -6 0 -22 11 -37 25 -15 14 -32 25 -39 25 -7 0 -18 7 -25 15 -7 8
-21 15 -31 15 -11 0 -19 5 -19 10 0 6 -6 10 -14 10 -8 0 -21 6 -28 13 -8 6
-23 17 -33 23 -11 6 -25 21 -31 33 -6 12 -14 21 -18 19 -3 -2 -15 12 -26 29
-13 22 -25 31 -35 27 -11 -5 -14 -2 -8 12 4 12 3 15 -5 10 -8 -5 -12 0 -12 13
0 12 -7 21 -15 21 -8 0 -15 5 -15 10 0 6 -7 10 -15 10 -8 0 -15 5 -15 12 0 6
-3 9 -6 5 -4 -3 -23 9 -43 28 -20 19 -39 35 -43 35 -5 0 -8 6 -8 13 0 7 -10
13 -21 14 -12 1 -26 6 -32 12 -15 15 0 58 23 64 12 3 20 13 20 26 0 12 4 21 9
21 6 0 20 18 32 40 17 30 27 39 41 34 26 -8 37 3 30 28 -5 21 -6 21 -13 2 -6
-15 -8 -12 -8 13 -1 27 3 34 24 38 14 3 36 7 49 10 19 4 24 13 29 47 3 23 11
44 16 46 6 2 11 15 11 28 0 15 6 24 15 24 18 0 21 -46 3 -53 -15 -5 -16 -183
-1 -198 8 -8 49 1 93 20 22 10 50 2 50 -15 0 -15 12 -19 23 -7 4 3 -2 17 -14
29 -19 21 -20 26 -9 54 13 32 30 40 30 14 0 -20 29 -49 38 -39 4 4 1 10 -5 12
-22 8 -14 30 12 35 19 4 25 1 25 -12 0 -10 9 -20 19 -23 17 -4 18 -2 9 24 -5
16 -14 29 -20 29 -5 0 -6 5 -3 10 3 6 -1 13 -9 16 -9 3 -16 13 -16 21 0 8 -6
21 -14 29 -15 14 -11 54 5 54 5 0 9 -11 9 -25 0 -18 5 -25 20 -25 24 0 28 45
5 54 -8 3 -15 15 -15 26 0 15 -7 20 -25 20 -25 0 -35 15 -14 22 23 8 -15 48
-51 55 -39 7 -60 24 -60 47 0 9 -7 16 -16 16 -11 0 -14 -5 -10 -16 4 -12 2
-15 -9 -10 -8 3 -15 1 -15 -4 0 -6 5 -10 10 -10 6 0 10 -9 10 -21 0 -11 -4
-18 -9 -14 -5 3 -12 1 -16 -5 -4 -6 -11 -7 -17 -4 -7 4 -8 2 -4 -4 4 -7 1 -12
-6 -12 -8 0 -6 -5 5 -11 20 -12 23 -29 5 -29 -7 0 -22 -18 -32 -40 -14 -30
-25 -40 -43 -40 -14 0 -23 6 -23 15 0 8 -4 15 -10 15 -5 0 -10 16 -10 35 0 24
-5 35 -14 35 -8 0 -21 3 -30 6 -11 4 -16 1 -16 -10 0 -9 -7 -16 -15 -16 -8 0
-15 -5 -15 -10 0 -6 -20 -8 -55 -4 -52 6 -55 5 -55 -15 0 -11 -6 -21 -14 -21
-8 0 -19 -12 -25 -27 -9 -24 -10 -21 -6 22 4 33 3 45 -4 36 -5 -8 -18 -12 -31
-8 -14 3 -23 0 -27 -9 -8 -21 13 -64 32 -64 10 0 15 -10 15 -30 0 -16 5 -30
10 -30 6 0 10 -4 10 -10 0 -5 -11 -10 -25 -10 -14 0 -25 5 -25 10 0 6 -9 19
-20 30 -17 17 -19 28 -14 75 5 36 11 55 20 55 8 0 11 6 8 15 -3 8 -11 13 -17
12 -7 -1 -13 15 -15 40 -2 33 2 46 23 67 14 14 32 26 40 26 24 0 17 17 -10 24
-24 6 -37 46 -15 46 6 0 10 16 10 35 0 28 5 37 30 50 33 17 90 20 90 5 0 -12
67 -13 74 -1 3 5 -8 11 -24 15 -44 8 -37 26 10 26 29 0 40 -4 40 -15 0 -11 11
-15 40 -15 22 0 40 -3 40 -8 0 -4 29 -16 65 -26 36 -10 65 -22 65 -26 0 -4 16
-10 35 -12 29 -3 35 -1 35 14 0 15 -5 17 -25 12 -19 -5 -25 -2 -25 10 0 12 -9
16 -34 16 -26 0 -35 5 -40 22 -4 18 -8 20 -18 10 -21 -21 -58 -15 -58 9 0 18
-5 21 -32 17 -22 -4 -37 1 -50 14 -15 15 -28 18 -54 13 -27 -5 -34 -3 -34 10
0 13 -9 15 -47 13 -41 -3 -48 0 -46 15 1 16 -6 18 -40 16 -64 -3 -79 0 -71 13
5 8 -10 9 -59 4 -61 -6 -67 -5 -67 12 0 16 -7 19 -50 16 l-50 -2 6 67 c4 54 2
71 -10 84 -14 14 -16 169 -16 1556 0 848 -3 1541 -8 1541 -4 0 -12 10 -17 22
l-10 22 -3520 -3 c-2180 -2 -3530 1 -3545 7 -14 5 -31 7 -37 5z m4087 -1571
c0 -4 -5 -13 -11 -19 -9 -9 -8 -16 4 -27 20 -20 37 -20 37 -1 0 8 6 15 14 15
8 0 16 4 18 8 2 5 18 12 36 15 27 6 32 4 32 -12 0 -17 8 -19 71 -19 63 0 72
-3 92 -26 15 -17 33 -26 51 -26 37 0 96 -44 96 -72 0 -11 11 -31 25 -44 14
-13 25 -30 25 -39 0 -17 -26 -21 -32 -4 -5 16 -240 17 -246 1 -2 -8 -26 -12
-63 -12 -42 0 -61 -4 -65 -14 -3 -8 -15 -17 -27 -20 -12 -3 -36 -19 -54 -36
-18 -16 -34 -30 -37 -30 -13 0 -46 -41 -46 -57 -1 -29 -25 -53 -54 -53 -19 0
-26 -5 -26 -19 0 -11 5 -23 10 -26 6 -3 10 -14 10 -24 0 -28 26 -46 44 -32 19
16 32 -5 15 -25 -9 -11 -8 -18 6 -34 24 -26 35 -25 35 2 0 17 3 19 12 10 15
-15 -16 -52 -44 -52 -10 0 -18 -7 -18 -15 0 -11 7 -13 29 -9 36 7 71 -23 71
-62 0 -14 8 -33 17 -42 16 -16 16 -17 0 -20 -21 -4 -22 -35 -2 -52 8 -7 15
-18 15 -25 0 -7 7 -15 15 -19 22 -8 18 -24 -7 -32 -13 -4 -26 -11 -29 -17 -4
-5 -15 7 -24 27 -10 20 -21 36 -26 36 -5 0 -9 11 -9 25 0 20 -5 25 -23 25 -13
0 -34 11 -47 25 -18 19 -26 22 -37 14 -10 -9 -16 -5 -26 19 -14 34 -72 102
-87 102 -14 0 -13 37 1 42 12 4 19 96 11 136 -10 49 -22 17 -22 -58 0 -64 -3
-80 -15 -80 -8 0 -15 7 -15 15 0 8 -4 15 -10 15 -5 0 -10 -7 -10 -15 0 -8 4
-15 8 -15 5 0 8 -20 8 -45 -1 -25 -4 -45 -8 -45 -5 0 -8 5 -8 10 0 6 -7 10
-15 10 -10 0 -15 10 -15 28 0 20 -13 42 -42 72 -41 41 -43 47 -41 97 1 29 -2
53 -8 53 -5 0 -9 18 -9 40 0 22 -4 40 -9 40 -13 0 -23 62 -11 74 6 6 16 4 28
-7 21 -19 72 -23 72 -6 0 6 9 9 20 6 16 -4 20 0 20 22 0 39 21 64 51 59 16 -2
25 -10 27 -25 2 -12 14 -29 28 -37 24 -16 24 -16 24 20 0 26 8 43 29 65 36 36
51 37 51 4 0 -14 -4 -25 -10 -25 -5 0 -12 -11 -16 -25 -3 -14 -10 -25 -15 -25
-5 0 -9 -11 -9 -25 0 -14 -4 -25 -10 -25 -5 0 -10 -20 -10 -45 0 -36 3 -45 18
-45 13 0 14 2 3 9 -26 17 12 83 54 94 18 4 18 5 -2 6 -22 1 -34 31 -13 31 6 0
10 11 10 25 0 14 5 25 11 25 6 0 17 7 25 15 9 8 24 15 35 15 24 0 37 29 19 40
-16 10 -18 72 -2 78 18 6 14 27 -8 47 -15 13 -17 22 -9 36 9 18 49 27 49 11z
m590 -597 c0 -14 5 -25 10 -25 6 0 10 -6 10 -14 0 -8 6 -16 13 -19 18 -6 -25
-61 -51 -65 -11 -2 -26 -10 -32 -18 -7 -8 -30 -14 -51 -14 -26 0 -42 -6 -51
-19 -8 -11 -26 -23 -41 -26 -15 -4 -30 -11 -33 -16 -3 -5 -18 -9 -34 -9 -19 0
-33 -7 -40 -19 -13 -26 -13 -31 5 -31 8 0 15 -7 15 -15 0 -9 9 -15 25 -15 14
0 25 4 25 10 0 32 60 64 75 40 12 -19 25 -10 25 18 0 35 31 62 70 62 20 0 30
5 30 15 0 23 58 19 85 -7 25 -24 22 -58 -5 -58 -32 0 -50 -11 -50 -31 0 -12 7
-19 20 -19 29 0 62 -33 54 -53 -7 -20 -16 -21 -32 -5 -9 9 -15 9 -20 3 -9 -14
-65 -14 -74 -1 -11 16 -91 9 -104 -9 -14 -19 -48 -19 -68 0 -8 8 -21 15 -30
15 -19 0 -40 -36 -32 -56 6 -17 -6 -18 -21 -3 -8 8 -17 7 -34 -5 -33 -23 -69
-21 -69 4 0 26 34 60 59 60 11 0 23 5 27 12 5 8 -2 9 -25 5 -48 -10 -54 19
-10 52 18 14 57 50 85 79 29 28 57 52 63 52 6 0 11 4 11 9 0 5 9 12 19 16 10
3 35 21 54 39 19 18 49 38 65 45 17 7 33 19 36 27 9 23 26 16 26 -11z m-1020
-22 c14 -20 25 -44 26 -52 3 -45 5 -51 19 -51 9 0 15 -9 15 -25 0 -14 5 -25
10 -25 6 0 10 -11 10 -25 0 -14 4 -25 10 -25 5 0 9 -19 9 -42 -1 -24 2 -58 6
-75 6 -27 4 -33 -9 -33 -10 0 -16 9 -16 25 0 14 -4 25 -10 25 -5 0 -10 6 -10
13 0 7 -11 24 -25 39 -14 15 -25 31 -25 37 0 5 -13 23 -30 41 -16 17 -34 49
-40 71 -10 37 -9 41 17 65 19 17 24 27 16 31 -14 5 -18 43 -5 43 4 0 18 -17
32 -37z m889 -383 c15 0 21 -6 21 -22 0 -37 14 -48 60 -51 l44 -3 2 -49 c2
-26 9 -52 15 -56 8 -5 5 -10 -8 -18 -11 -5 -23 -8 -25 -5 -3 2 -23 6 -44 7
-31 2 -39 6 -39 21 0 11 -6 21 -13 24 -7 2 -12 -6 -12 -22 0 -14 -4 -26 -10
-26 -5 0 -10 5 -10 10 0 6 -13 10 -30 10 -16 0 -30 -4 -30 -10 0 -5 -11 -10
-25 -10 -18 0 -25 5 -25 20 0 11 -4 20 -10 20 -5 0 -10 -4 -10 -10 0 -5 -7
-10 -16 -10 -19 0 -74 31 -74 42 0 12 35 9 48 -4 9 -9 12 -9 12 0 0 7 -4 12
-10 12 -24 0 -7 42 33 82 46 48 93 69 119 56 9 -4 26 -8 37 -8z m2729 -863
c14 -28 32 -28 32 -1 0 8 5 12 10 9 14 -9 12 -45 -5 -112 -8 -31 -15 -73 -15
-92 0 -19 -5 -50 -12 -68 -11 -30 -16 -33 -53 -33 -23 0 -46 -5 -52 -11 -16
-16 -25 22 -21 92 2 43 7 56 23 63 17 7 20 19 21 70 0 41 6 70 19 89 21 32 35
31 53 -6z m-3249 -333 c14 -13 34 -24 44 -24 9 0 17 -4 17 -9 0 -5 10 -11 23
-15 12 -3 44 -26 71 -51 27 -25 57 -45 65 -45 20 -1 51 -24 51 -39 0 -6 15
-11 35 -11 34 0 35 -1 35 -39 l0 -40 -35 6 c-28 4 -35 2 -35 -11 0 -21 -46
-22 -54 0 -3 8 -10 12 -16 9 -17 -10 -12 -20 20 -38 17 -10 30 -22 30 -28 0
-15 -36 -10 -50 6 -15 19 -48 11 -72 -18 -33 -38 -67 -47 -160 -46 -84 2 -90
3 -99 26 -8 23 -24 31 -31 14 -1 -4 -24 -10 -50 -13 -34 -4 -48 -2 -52 8 -9
23 -36 16 -48 -13 l-11 -28 -10 28 c-10 26 -37 38 -37 17 0 -5 -10 -10 -22 -9
-13 0 -17 3 -10 6 6 2 12 11 12 19 0 8 7 14 15 14 8 0 15 4 15 10 0 5 11 12
25 16 14 3 25 10 25 15 0 13 27 11 50 -3 16 -10 24 -10 40 0 11 7 54 12 102
12 86 0 126 12 99 29 -7 5 -10 14 -6 21 5 8 13 4 25 -15 10 -15 30 -33 45 -41
36 -19 95 -19 95 0 0 8 7 22 16 31 11 10 13 20 7 26 -11 11 -43 2 -43 -12 0
-5 -13 -9 -28 -9 -31 0 -94 58 -106 97 -5 16 -12 19 -29 15 -19 -5 -20 -4 -9
11 19 22 8 35 -24 29 -15 -3 -30 -15 -36 -31 -9 -21 -12 -23 -15 -8 -5 21 -29
23 -37 2 -8 -23 -34 -18 -63 13 -17 18 -27 23 -30 15 -3 -7 -11 -13 -19 -13
-17 0 -13 62 5 68 6 2 11 8 11 13 0 5 12 22 26 39 20 22 35 29 63 29 79 0 111
3 117 13 4 6 11 3 17 -7 5 -10 22 -29 36 -41z m3579 -944 c2 -6 12 -10 21 -10
10 0 30 -11 44 -24 15 -14 34 -26 44 -28 10 -2 19 -13 21 -26 3 -16 10 -22 28
-22 31 0 30 -5 -3 -36 -14 -13 -23 -27 -19 -31 4 -4 10 -3 14 3 12 17 39 23
69 15 l28 -8 -30 -13 c-40 -17 -115 -23 -115 -10 0 5 -9 10 -20 10 -25 0 -26
15 -2 30 13 8 6 9 -30 4 -33 -4 -48 -3 -48 5 0 6 -12 11 -27 11 -16 0 -37 7
-47 15 -11 8 -28 15 -39 15 -10 0 -15 5 -12 10 3 6 15 10 26 10 10 0 19 6 19
13 0 6 3 22 6 35 5 16 2 22 -10 22 -9 0 -16 -8 -16 -20 0 -11 -4 -20 -10 -20
-5 0 -10 16 -10 36 l0 37 58 -7 c31 -4 59 -11 60 -16z m310 -232 c-2 -18 3
-24 20 -26 13 -2 28 -14 34 -28 6 -13 15 -24 19 -24 10 0 119 -106 119 -115 0
-4 8 -14 18 -21 12 -10 13 -13 3 -14 -8 0 -29 11 -47 25 -18 14 -41 25 -52 25
-17 0 -40 18 -79 62 -21 23 -39 35 -61 42 -39 13 -25 96 16 96 8 0 12 -9 10
-22z m1182 -351 c0 -7 10 -24 23 -38 36 -40 87 -134 87 -158 0 -6 5 -11 10
-11 6 0 10 -8 10 -17 0 -10 7 -27 15 -37 19 -25 20 -76 2 -76 -8 0 -22 17 -33
38 -10 20 -22 39 -26 40 -5 2 -8 15 -8 28 0 18 -5 24 -22 24 -31 1 -58 23 -58
48 0 11 -3 22 -7 24 -5 2 -16 18 -26 37 -16 30 -16 35 -2 51 8 9 15 26 15 38
0 12 5 22 10 22 6 0 10 -6 10 -13z m-2086 -598 c5 -19 9 -56 9 -84 0 -63 -21
-197 -34 -210 -5 -5 -9 -33 -9 -63 0 -29 -5 -63 -12 -75 -6 -12 -15 -51 -19
-87 -19 -146 -26 -187 -39 -222 -13 -36 -16 -38 -57 -38 -51 0 -61 14 -43 62
11 31 18 72 39 222 4 35 12 69 16 76 8 13 19 82 33 210 4 36 13 75 20 87 7 12
12 35 12 52 0 17 4 31 9 31 5 0 12 8 15 18 26 69 45 75 60 21z m-594 11 c0
-11 7 -23 15 -26 8 -4 15 -14 15 -24 0 -11 5 -22 10 -25 6 -3 10 -23 10 -44 0
-21 7 -55 15 -74 8 -20 15 -59 15 -86 0 -27 5 -53 10 -56 6 -3 10 -30 10 -60
0 -30 5 -66 12 -82 6 -15 15 -53 19 -83 4 -30 15 -92 23 -138 16 -86 14 -107
-10 -116 -25 -10 -15 -53 20 -90 34 -37 45 -74 66 -226 13 -90 35 -212 43
-230 3 -8 8 -37 11 -65 5 -54 22 -149 36 -204 5 -19 5 -40 0 -50 -5 -9 -12
-33 -15 -53 -3 -21 -8 -38 -11 -38 -8 0 -29 23 -37 40 -4 8 -11 22 -16 30 -21
33 -35 96 -60 265 -5 33 -17 96 -26 140 -9 44 -20 108 -24 141 -5 34 -12 67
-16 74 -5 7 -12 45 -17 84 -5 39 -12 98 -16 131 -4 33 -11 66 -16 74 -8 12
-12 40 -35 217 -5 34 -12 68 -17 75 -8 14 -16 61 -32 212 -5 43 -14 83 -21 90
-12 12 -16 173 -5 201 9 24 44 20 44 -4z m660 -264 c0 -9 4 -16 8 -16 7 0 26
-31 67 -111 5 -10 13 -19 17 -19 5 0 8 -9 8 -20 0 -11 5 -20 10 -20 6 0 10 -6
10 -14 0 -8 6 -21 13 -28 18 -20 37 -50 43 -70 4 -10 10 -18 15 -18 5 0 9 -9
9 -20 0 -11 7 -23 15 -26 8 -4 15 -12 15 -20 0 -16 18 -51 38 -72 6 -7 12 -20
12 -28 0 -8 5 -14 10 -14 6 0 10 -7 10 -15 0 -11 -13 -15 -53 -15 -47 0 -56 3
-75 30 -12 16 -22 34 -22 40 0 5 -4 10 -9 10 -5 0 -12 11 -15 25 -4 14 -11 25
-16 25 -6 0 -10 7 -10 16 0 8 -11 30 -25 48 -14 18 -25 40 -25 49 0 10 -4 17
-10 17 -5 0 -12 11 -16 25 -3 14 -10 25 -14 25 -4 0 -10 8 -13 18 -3 9 -20 41
-37 71 -22 38 -28 57 -21 64 6 6 11 34 11 62 0 29 3 55 6 58 9 9 44 -37 44
-57z m-726 22 c17 -34 22 -138 6 -138 -5 0 -12 -11 -16 -25 -3 -14 -10 -25
-15 -25 -5 0 -9 -6 -9 -13 0 -7 -11 -29 -25 -49 -14 -20 -25 -44 -25 -52 0 -9
-3 -16 -8 -16 -4 0 -16 -17 -27 -37 -11 -21 -30 -52 -42 -69 -13 -17 -23 -37
-23 -44 0 -7 -11 -28 -26 -47 -22 -30 -30 -33 -75 -33 -56 0 -62 13 -28 65 11
17 22 38 25 48 4 9 10 17 15 17 5 0 9 6 9 14 0 8 6 21 13 28 6 7 26 40 42 73
17 33 33 62 36 65 9 8 58 93 65 113 4 9 9 17 13 17 4 0 15 20 25 45 11 25 22
45 26 45 4 0 11 11 14 25 8 32 11 32 30 -7z m-201 -734 c4 -8 13 -14 18 -14 6
0 23 -12 39 -27 45 -44 160 -146 181 -161 10 -7 46 -40 80 -72 34 -33 66 -60
70 -60 5 0 9 -18 9 -39 0 -22 5 -43 10 -46 6 -3 10 -22 10 -41 0 -19 -4 -34
-10 -34 -5 0 -10 7 -10 15 0 8 -4 15 -10 15 -5 0 -30 20 -55 44 -25 25 -55 48
-65 51 -11 4 -20 13 -20 21 0 8 -5 14 -11 14 -6 0 -28 17 -49 38 -21 20 -52
48 -69 62 -18 14 -43 35 -56 48 -13 12 -29 22 -35 22 -5 0 -10 7 -10 15 0 8
-4 15 -8 15 -4 0 -28 19 -52 41 -25 23 -62 53 -82 67 -62 41 -53 49 44 44 48
-3 76 -9 81 -18z m727 4 c-1 -7 -7 -31 -15 -53 -8 -22 -15 -61 -15 -87 0 -26
-4 -50 -10 -53 -5 -3 -10 -32 -10 -63 -1 -31 -7 -68 -15 -82 -8 -14 -14 -49
-15 -77 0 -29 -4 -53 -10 -53 -5 0 -11 -17 -11 -37 -1 -21 -5 -51 -9 -68 -7
-30 -7 -30 -13 -5 -6 26 -10 45 -31 172 -13 77 -6 191 15 229 5 10 9 36 9 58
0 22 5 61 12 86 l12 45 53 0 c36 0 53 -4 53 -12z m520 2 c0 -6 -8 -14 -17 -17
-10 -4 -32 -21 -50 -40 -17 -18 -36 -33 -42 -33 -6 0 -11 -6 -11 -13 0 -7 -12
-20 -27 -29 -16 -9 -42 -29 -59 -45 -84 -75 -152 -133 -179 -154 -16 -13 -45
-38 -63 -56 -18 -18 -37 -33 -42 -33 -6 0 -10 -6 -10 -13 0 -8 -11 -20 -25
-27 -14 -7 -25 -17 -25 -22 0 -4 -4 -8 -10 -8 -15 0 -12 93 5 134 8 20 19 36
23 36 4 0 27 18 51 40 23 22 45 40 48 40 2 0 20 16 39 35 18 19 36 35 38 35 2
0 17 12 33 28 46 44 82 72 93 72 6 0 10 7 10 15 0 8 4 15 9 15 5 0 19 11 32
25 22 22 32 25 102 25 46 0 77 -4 77 -10z m2115 -666 c99 -33 96 -31 93 -71
l-3 -36 -75 2 c-41 1 -76 7 -78 12 -5 13 -36 11 -51 -3 -11 -11 -12 -8 -7 17
3 17 9 45 12 63 8 38 30 41 109 16z m-4032 -1504 c6 -11 22 -20 34 -20 18 0
23 -6 23 -25 0 -18 -5 -25 -20 -25 -13 0 -20 -7 -20 -19 0 -11 -5 -23 -11 -27
-7 -4 -9 -21 -5 -45 5 -32 3 -39 -10 -39 -12 0 -15 6 -11 21 4 15 0 23 -14 26
-12 3 -19 14 -19 29 0 13 -5 24 -11 24 -5 0 -7 -5 -4 -11 9 -14 -3 -59 -16
-59 -7 0 -9 11 -4 33 3 17 9 51 12 75 7 56 33 58 33 2 0 -44 6 -49 25 -23 14
19 7 41 -26 77 -11 11 -19 23 -19 26 0 27 42 13 63 -20z m878 -460 c10 -24 -1
-40 -26 -40 -13 0 -27 -5 -30 -10 -9 -15 4 -50 20 -50 7 0 15 -7 19 -15 3 -9
0 -15 -9 -15 -8 0 -15 5 -15 11 0 5 -4 7 -10 4 -5 -3 -10 -16 -10 -28 0 -21 5
-22 61 -22 52 0 63 4 78 24 16 21 19 21 24 6 16 -39 1 -105 -17 -76 -19 30
-106 15 -106 -18 0 -12 -3 -12 -12 -3 -7 7 -27 12 -45 12 -28 0 -33 3 -33 24
0 13 5 26 11 28 6 2 13 31 16 63 2 33 8 62 13 63 6 2 10 14 10 27 0 33 49 45
61 15z"/>
<path d="M8207 6536 c-3 -8 -16 -12 -31 -11 -18 2 -30 -3 -37 -17 -6 -11 -8
-22 -5 -26 3 -3 6 1 6 9 0 11 2 11 10 -1 7 -11 10 -11 10 -2 0 7 5 10 10 7 6
-3 10 2 10 12 0 15 2 16 10 3 9 -13 10 -13 10 0 0 13 1 13 10 0 5 -8 10 -11
10 -6 0 5 7 3 16 -5 14 -11 14 -14 1 -24 -8 -6 -17 -22 -19 -35 -4 -30 -21
-29 -28 1 -3 12 -14 23 -24 25 -14 2 -16 0 -7 -9 6 -6 11 -19 11 -29 0 -9 6
-21 13 -25 6 -4 12 -14 12 -22 0 -17 37 -24 46 -9 4 6 10 1 14 -12 6 -18 9
-20 16 -9 6 10 9 8 9 -10 0 -13 3 -21 7 -18 3 4 12 2 20 -4 7 -6 13 -8 13 -4
0 5 8 -1 18 -13 20 -23 68 -36 77 -21 8 12 35 12 35 -1 0 -5 -7 -10 -15 -10
-8 0 -15 -4 -15 -10 0 -5 2 -10 4 -10 2 0 11 -3 20 -6 11 -4 16 -1 16 11 0 9
5 13 10 10 6 -3 10 -1 10 5 0 7 6 8 19 0 16 -8 20 -6 24 8 4 13 5 12 6 -5 1
-17 6 -21 28 -19 24 3 45 36 22 36 -5 0 -9 7 -9 15 0 8 5 15 10 15 6 0 10 5
10 11 0 7 -12 9 -32 7 -22 -4 -36 0 -44 10 -12 16 -44 10 -44 -8 0 -6 12 -15
26 -20 14 -6 22 -14 19 -20 -9 -15 -55 -12 -55 4 0 8 -7 16 -15 20 -21 8 -19
26 3 26 13 0 18 9 20 30 2 24 -3 33 -24 42 -21 10 -27 9 -35 -3 -7 -12 -9 -12
-9 1 0 13 -1 13 -10 0 -8 -12 -10 -9 -10 11 0 24 -22 45 -42 41 -5 -1 -8 3 -8
8 0 6 -3 9 -7 8 -16 -3 -83 36 -83 49 0 17 -26 17 -33 -1z"/>
<path d="M9500 5550 c0 -5 7 -10 15 -10 8 0 15 -7 15 -15 0 -8 7 -15 15 -15 9
0 15 -9 15 -25 0 -14 5 -25 10 -25 6 0 10 -9 10 -19 0 -10 7 -21 15 -25 8 -3
15 -10 15 -16 0 -6 11 -23 25 -38 14 -15 25 -32 25 -39 0 -7 5 -13 11 -13 7 0
9 -13 5 -37 -4 -25 -3 -33 3 -24 5 7 14 10 20 6 9 -5 9 -10 0 -21 -6 -8 -9
-18 -5 -21 4 -4 11 -1 16 7 8 12 10 12 16 -3 3 -9 1 -24 -5 -31 -8 -9 -8 -16
-2 -20 5 -4 13 -1 17 5 4 8 13 0 24 -22 9 -19 13 -38 10 -44 -4 -5 -11 -23
-15 -40 -4 -16 -10 -24 -12 -17 -3 6 -9 12 -14 12 -15 0 -49 39 -49 55 0 8 -4
15 -10 15 -5 0 -10 11 -10 25 0 13 -6 28 -12 32 -7 4 -22 26 -34 48 -12 22
-26 39 -31 38 -6 -1 -13 10 -17 25 -7 35 -44 78 -55 66 -13 -13 -24 -55 -14
-53 27 5 35 -2 29 -26 -5 -18 -2 -25 9 -25 8 0 17 -11 21 -24 3 -13 14 -26 25
-29 10 -3 22 -13 26 -24 3 -10 9 -20 12 -23 10 -9 31 -44 37 -62 4 -10 10 -18
15 -18 5 0 9 -11 9 -23 0 -19 -8 -27 -40 -37 -37 -12 -40 -16 -40 -52 0 -31
-3 -38 -20 -38 -11 0 -20 -4 -20 -9 0 -5 -3 -16 -6 -25 -5 -13 2 -16 45 -16
46 0 53 -3 61 -25 5 -14 14 -25 20 -25 5 0 10 -12 10 -26 0 -14 4 -23 10 -19
5 3 6 13 3 22 -4 11 -3 14 5 9 7 -4 15 0 19 10 4 10 2 19 -5 22 -28 9 -11 32
23 32 32 0 35 -3 41 -37 4 -21 13 -50 20 -65 15 -29 18 -67 8 -115 -5 -28 -3
-32 17 -35 16 -2 25 -11 27 -25 2 -13 11 -23 20 -24 11 0 12 -3 5 -6 -17 -6
-17 -26 -1 -21 7 3 15 15 19 29 3 13 11 23 17 22 7 -2 12 8 12 22 0 14 -4 25
-10 25 -5 0 -10 7 -10 15 0 8 -6 15 -13 15 -7 0 -14 10 -14 22 -1 13 -7 24
-13 26 -5 2 -10 12 -10 23 0 11 -7 22 -15 25 -8 4 -15 16 -15 28 0 13 -3 26
-7 30 -21 21 -43 126 -25 126 15 -1 42 -28 42 -44 0 -9 5 -16 10 -16 6 0 10
11 10 24 0 15 7 26 20 29 24 6 28 55 5 63 -8 4 -15 17 -15 30 0 13 -4 24 -10
24 -5 0 -10 9 -10 19 0 11 -4 23 -10 26 -6 3 -7 -1 -4 -9 5 -12 -1 -16 -22
-16 -25 1 -26 2 -11 11 23 13 22 25 -4 32 -17 5 -19 9 -10 26 15 27 14 31 -9
31 -16 0 -19 5 -13 30 4 23 2 30 -11 30 -9 0 -16 8 -16 20 0 11 -4 20 -10 20
-5 0 -10 7 -10 15 0 9 -6 12 -15 9 -11 -5 -15 1 -15 21 0 28 -14 47 -42 57
-11 5 -15 14 -11 27 4 15 1 21 -11 21 -9 0 -16 7 -16 15 0 8 -5 15 -11 15 -6
0 -9 6 -6 14 6 16 -24 56 -42 56 -6 0 -11 5 -11 10 0 6 -9 10 -20 10 -11 0
-20 -4 -20 -10z"/>
<path d="M3367 2823 c-3 -5 -8 -38 -12 -75 -6 -59 -5 -68 9 -68 12 0 16 -10
16 -40 0 -29 4 -40 15 -40 9 0 18 7 21 15 5 12 10 13 20 4 11 -9 18 -8 30 2
13 11 17 10 25 -4 6 -9 16 -17 24 -17 7 0 15 -6 18 -12 3 -10 9 -10 28 -1 13
7 46 14 73 17 41 3 51 8 63 30 15 30 35 32 77 11 34 -18 50 -11 36 15 -5 10
-10 28 -10 40 0 28 -48 47 -64 25 -6 -9 -27 -17 -46 -18 -19 -1 -39 -5 -45 -8
-5 -4 -27 -7 -47 -7 -28 -1 -38 3 -38 14 0 18 -23 44 -39 44 -6 0 -11 -4 -11
-10 0 -13 -76 -13 -101 1 -12 6 -20 19 -19 32 4 38 0 57 -9 57 -6 0 -12 -3
-14 -7z"/>
<path d="M3412 2578 c-19 -19 -15 -59 8 -65 17 -5 19 -11 14 -43 -5 -32 -3
-38 15 -43 22 -5 29 -41 11 -52 -17 -11 -11 -25 11 -25 19 0 21 -4 16 -34 -4
-28 -2 -35 14 -39 16 -4 18 -11 13 -31 -5 -21 -2 -26 11 -26 15 0 17 -6 12
-35 -5 -27 -2 -35 10 -35 11 0 14 -6 9 -25 -5 -21 -3 -25 15 -25 18 0 20 -4
14 -30 -6 -26 -4 -30 16 -30 18 0 20 -3 11 -12 -18 -18 -14 -45 8 -51 16 -4
19 -11 14 -36 -4 -20 -2 -31 5 -31 6 0 11 -11 11 -25 0 -16 6 -25 15 -25 9 0
15 -9 15 -25 0 -16 6 -25 15 -25 8 0 15 -4 15 -10 0 -5 7 -10 15 -10 11 0 14
-7 9 -25 -5 -21 -3 -25 15 -25 18 0 20 -4 15 -25 -5 -19 -2 -25 10 -25 9 0 16
-4 16 -10 0 -5 7 -10 15 -10 8 0 15 7 15 15 0 8 -7 15 -15 15 -9 0 -15 9 -15
25 0 14 -4 25 -10 25 -5 0 -10 11 -10 24 0 13 -6 26 -12 28 -16 6 9 33 37 41
15 5 24 -1 35 -25 8 -18 21 -34 28 -36 16 -5 4 26 -20 52 -23 25 -23 28 2 44
24 15 42 8 33 -13 -3 -8 0 -15 6 -15 6 0 11 5 11 11 0 7 9 9 24 5 23 -6 24 -4
24 47 1 89 -19 116 -85 117 -13 0 -23 5 -23 10 0 6 7 10 15 10 16 0 21 16 6
22 -13 5 -56 79 -76 131 -10 26 -22 47 -27 47 -17 0 -2 -80 22 -112 15 -21 19
-33 12 -36 -21 -7 -13 -24 9 -19 19 5 20 3 15 -29 -5 -24 -3 -34 5 -34 7 0 2
-10 -11 -22 -16 -15 -25 -18 -28 -10 -2 7 -10 19 -18 26 -8 8 -14 19 -14 25 0
6 -4 11 -10 11 -5 0 -10 -9 -10 -19 0 -11 5 -23 10 -26 6 -3 10 -13 10 -21 0
-19 -46 -18 -54 1 -3 8 -13 15 -22 15 -11 0 -14 5 -10 16 3 9 -2 28 -13 42
-28 41 -81 154 -81 174 0 10 -4 18 -8 18 -10 0 -42 88 -42 116 0 11 -11 44
-25 72 -14 29 -25 56 -25 62 0 5 -4 10 -10 10 -5 0 -9 8 -8 18 4 56 -6 74 -30
50z"/>
<path d="M4050 2429 c0 -23 5 -32 21 -36 16 -5 19 -11 14 -33 -3 -16 -1 -31 4
-35 6 -3 11 -17 11 -30 0 -12 7 -25 15 -29 8 -3 15 -15 15 -26 0 -11 3 -20 8
-20 8 0 32 -71 32 -98 0 -10 11 -25 25 -32 18 -9 25 -22 25 -42 0 -18 5 -28
15 -28 8 0 15 -8 15 -18 0 -11 9 -27 20 -37 33 -30 38 8 6 55 -28 42 -32 60
-16 60 6 0 10 9 10 20 0 18 7 20 75 20 43 0 75 4 75 10 0 6 6 10 13 10 14 0
97 57 109 75 17 23 7 45 -27 59 -19 8 -35 19 -35 24 0 22 -47 62 -73 62 -15 0
-27 5 -27 10 0 6 -7 10 -15 10 -8 0 -15 -7 -15 -15 0 -20 -16 -19 -24 1 -11
27 -31 9 -28 -24 3 -28 0 -32 -20 -32 -16 0 -27 -9 -37 -31 -13 -30 -12 -33 9
-49 l23 -18 -22 -11 c-12 -7 -26 -9 -32 -5 -6 4 -15 1 -19 -6 -11 -18 -27 -4
-35 30 -4 17 -10 30 -15 30 -13 0 -38 85 -33 112 3 14 0 29 -6 32 -6 4 -11 18
-11 31 0 21 -17 35 -41 35 -5 0 -9 -14 -9 -31z"/>
<path d="M3890 2415 c0 -8 -8 -15 -18 -15 -11 0 -27 -8 -36 -19 -14 -16 -15
-23 -4 -45 9 -22 9 -29 -1 -35 -10 -6 -10 -10 -2 -16 7 -4 17 -2 24 3 12 10
59 25 110 36 56 13 20 106 -42 106 -21 0 -31 -5 -31 -15z"/>
<path d="M8753 2023 c-19 -4 -21 -7 -12 -31 10 -27 23 -43 87 -105 35 -35 40
-47 17 -47 -42 0 16 -77 84 -112 14 -7 40 -25 56 -40 17 -16 33 -28 36 -28 3
0 23 -16 45 -35 21 -19 42 -35 46 -35 8 0 45 -29 80 -62 10 -10 24 -18 31 -18
6 0 23 -9 37 -20 14 -11 30 -20 36 -20 7 0 14 -7 18 -15 3 -8 15 -15 26 -15
11 0 23 -7 26 -15 4 -8 17 -15 30 -15 14 0 27 -7 31 -17 8 -23 39 -53 53 -53
19 0 60 52 60 75 0 16 -8 25 -25 29 -14 4 -25 11 -25 16 0 6 -7 10 -15 10 -8
0 -17 11 -21 25 -4 16 -13 25 -25 25 -10 0 -19 4 -19 9 0 5 -10 11 -22 13 -16
2 -24 11 -26 30 -3 22 -11 28 -49 40 -25 7 -48 19 -50 26 -3 6 -11 12 -19 12
-8 0 -14 5 -14 10 0 6 -5 10 -10 10 -6 0 -23 11 -38 25 -15 14 -32 25 -39 25
-7 0 -13 4 -13 9 0 5 -8 11 -17 15 -22 7 -56 28 -64 40 -4 5 -14 6 -22 3 -11
-4 -17 3 -22 24 -4 16 -13 29 -21 29 -20 0 -44 52 -26 58 6 2 12 9 12 16 0 14
-45 56 -60 56 -6 0 -10 6 -10 13 0 7 -18 20 -40 30 -39 17 -62 19 -107 10z"/>
<path d="M9220 1939 c0 -14 32 -69 40 -69 12 0 70 -57 70 -68 0 -7 3 -12 8
-12 4 0 20 -11 36 -25 16 -14 35 -25 43 -25 7 0 13 -4 13 -10 0 -5 6 -10 14
-10 8 0 21 -7 30 -15 8 -8 25 -14 38 -13 19 3 23 -1 21 -19 -2 -13 2 -23 7
-23 6 0 10 9 10 19 0 11 5 23 10 26 15 9 12 25 -5 25 -35 0 -80 53 -77 89 3
23 -4 34 -36 60 -22 17 -49 31 -61 31 -12 0 -21 5 -21 10 0 6 -10 10 -22 10
-13 0 -36 7 -52 15 -33 18 -66 20 -66 4z"/>
<path d="M3943 1832 c-10 -15 -13 -15 -22 -2 -5 8 -14 11 -18 6 -4 -5 -2 -11
5 -13 6 -3 12 -16 12 -29 0 -25 25 -34 33 -11 2 7 8 8 13 3 5 -5 4 -11 -3 -13
-14 -5 -18 -53 -5 -53 5 0 15 -11 22 -25 7 -14 19 -25 27 -25 7 0 13 -4 13 -9
0 -5 9 -11 19 -14 11 -2 22 -17 25 -34 8 -33 61 -97 75 -89 12 8 1 57 -14 63
-7 2 -19 18 -25 34 -7 16 -16 29 -21 29 -5 0 -9 6 -9 13 0 7 -11 24 -25 39
-14 15 -25 34 -25 42 0 8 -6 19 -13 23 -7 4 -19 23 -26 41 -17 41 -24 45 -38
24z"/>
<path d="M4893 1457 c-45 -44 -56 -52 -71 -52 -9 0 -18 -9 -20 -20 -3 -11 -9
-24 -16 -28 -8 -6 -8 -10 1 -13 7 -3 15 -21 19 -39 7 -39 27 -49 77 -40 29 6
35 12 45 50 8 29 16 43 25 39 9 -3 12 6 12 31 -3 67 -40 104 -72 72z"/>
<path d="M7678 1153 c-12 -25 -14 -42 -8 -54 6 -10 10 -25 10 -33 0 -22 36
-56 60 -56 11 0 20 6 20 14 0 8 7 16 15 20 15 6 22 66 7 66 -5 0 -16 18 -26
40 -23 54 -55 55 -78 3z"/>
<path d="M8320 1081 c0 -17 5 -33 10 -36 6 -3 10 -18 10 -33 0 -32 36 -60 53
-43 22 22 57 7 57 -24 0 -9 -54 -15 -63 -6 -5 5 -16 7 -23 4 -8 -3 -14 0 -14
6 0 6 -6 11 -14 11 -8 0 -27 11 -43 24 -16 13 -38 26 -48 28 -18 3 -20 -2 -17
-52 3 -80 -5 -118 -28 -125 -11 -4 -30 -28 -43 -55 -18 -40 -26 -48 -43 -44
-30 8 -84 -48 -84 -86 0 -22 -4 -28 -15 -24 -20 8 -65 -22 -65 -44 0 -11 8
-17 25 -17 20 0 23 4 18 23 -3 13 -1 22 6 22 6 0 11 -7 11 -15 0 -8 7 -15 15
-15 8 0 15 4 15 9 0 15 63 43 70 31 8 -12 43 16 53 43 5 12 17 17 46 17 22 0
46 7 55 15 8 8 22 12 30 9 23 -9 20 -41 -4 -49 -11 -3 -20 -11 -20 -16 0 -5
-11 -9 -25 -9 -14 0 -25 -4 -25 -10 0 -5 11 -10 25 -10 14 0 25 5 25 10 0 13
57 13 65 0 3 -5 -2 -10 -13 -10 -32 0 -33 -12 -2 -42 36 -34 46 -35 55 -5 4
13 8 17 12 10 2 -7 13 -13 24 -13 11 0 33 -13 51 -30 37 -35 42 -36 68 -10 18
18 18 22 4 56 -13 31 -13 41 -3 61 7 12 18 23 26 23 19 0 16 46 -4 70 -22 25
-33 25 -33 0 0 -11 5 -20 10 -20 6 0 10 -7 10 -16 0 -24 -35 -12 -38 14 -2 12
-14 34 -28 49 -28 30 -31 48 -9 57 20 7 19 26 -1 26 -11 0 -14 5 -10 16 3 9 6
21 6 27 0 7 5 4 11 -5 10 -18 59 -25 59 -9 0 5 14 14 30 20 32 11 40 38 14 48
-12 4 -14 14 -9 39 5 31 4 34 -20 34 -20 0 -25 -5 -25 -25 0 -14 -4 -25 -9
-25 -5 0 -16 -3 -25 -6 -11 -4 -16 -1 -16 10 0 9 7 16 15 16 40 0 -8 72 -70
104 -68 36 -95 35 -95 -3z"/>
<path d="M4450 1046 c0 -8 7 -16 15 -20 8 -3 15 -15 15 -26 0 -17 4 -20 20
-15 14 5 20 2 20 -9 0 -9 -4 -16 -10 -16 -5 0 -10 -4 -10 -10 0 -5 6 -10 14
-10 8 0 17 -7 20 -16 3 -8 10 -12 16 -9 6 4 8 11 5 16 -8 12 4 49 15 49 16 0
20 -33 5 -50 -26 -29 -18 -44 22 -39 3 0 10 -6 15 -15 5 -9 15 -13 25 -9 13 5
15 2 10 -11 -4 -9 -3 -15 2 -11 5 3 12 -1 15 -7 2 -7 4 -4 4 7 -2 38 2 56 11
51 5 -3 11 3 14 13 3 14 11 18 26 14 12 -3 21 -12 21 -19 0 -8 4 -13 9 -11 5
1 16 -7 24 -17 9 -12 20 -17 31 -13 21 8 21 36 -1 43 -10 3 -25 8 -33 12 -8 3
-18 4 -22 4 -5 -1 -8 7 -8 18 0 30 -46 27 -54 -2 l-6 -23 -25 28 c-13 15 -29
27 -34 27 -6 0 -18 16 -27 35 -9 19 -23 35 -30 35 -8 0 -14 5 -14 10 0 6 -13
10 -30 10 -16 0 -30 -4 -30 -10 0 -5 14 -10 30 -10 25 0 30 -4 30 -25 0 -16
-6 -25 -15 -25 -8 0 -15 4 -15 9 0 5 -9 13 -20 16 -11 3 -20 15 -20 26 0 10
-7 19 -15 19 -8 0 -15 -6 -15 -14z"/>
<path d="M7860 920 c0 -62 22 -123 55 -150 12 -10 21 -10 40 -2 14 6 31 9 39
6 10 -4 17 3 22 20 15 60 -73 186 -131 186 -24 0 -25 -2 -25 -60z"/>
<path d="M4865 842 c-11 -2 -24 -10 -28 -18 -4 -8 -13 -14 -18 -14 -12 0 -39
-25 -39 -36 0 -4 8 -13 18 -20 16 -13 16 -13 0 -14 -10 0 -18 -6 -18 -12 0
-17 -48 -40 -53 -25 -2 6 -8 7 -14 4 -12 -8 5 -57 20 -57 4 0 7 -7 7 -16 0
-11 8 -14 33 -12 21 2 31 -1 30 -9 -4 -16 13 -17 23 -1 4 6 2 14 -4 16 -15 5
-16 66 -2 93 6 11 21 19 35 19 27 0 33 -18 13 -38 -7 -7 -8 -12 -2 -12 5 0 16
9 24 20 8 11 20 20 27 20 20 0 16 23 -7 43 -14 12 -20 13 -20 4 0 -7 -13 -14
-30 -15 -38 -3 -40 18 -3 36 36 16 60 15 67 -3 8 -21 38 -19 34 2 -2 9 -16 21
-33 26 -16 6 -32 13 -35 16 -3 4 -14 5 -25 3z"/>
</g>
</svg>
