<?xml version="1.0" standalone="no"?>
<!DOCTYPE svg PUBLIC "-//W3C//DTD SVG 20010904//EN"
 "http://www.w3.org/TR/2001/REC-SVG-20010904/DTD/svg10.dtd">
<svg version="1.0" xmlns="http://www.w3.org/2000/svg"
 width="1024.000000pt" height="1024.000000pt" viewBox="0 0 1024.000000 1024.000000"
 preserveAspectRatio="xMidYMid meet">

<g transform="translate(0.000000,1024.000000) scale(0.100000,-0.100000)"
fill="#000000" stroke="none">
<path d="M4995 9481 c-6 -5 -41 -11 -80 -14 -75 -5 -164 -24 -179 -38 -6 -5
-18 -9 -28 -9 -10 0 -18 -4 -18 -8 0 -4 -22 -16 -50 -27 -27 -11 -50 -23 -50
-27 0 -4 -7 -8 -15 -8 -17 0 -355 -330 -355 -347 0 -6 -16 -28 -35 -49 -19
-21 -35 -41 -35 -45 0 -4 -6 -14 -13 -21 -7 -7 -30 -38 -52 -68 -22 -30 -43
-59 -47 -65 -23 -29 -58 -87 -58 -95 0 -6 -4 -10 -8 -10 -5 0 -17 -16 -28 -35
-10 -19 -22 -35 -26 -35 -5 0 -8 -5 -8 -10 0 -6 -5 -16 -10 -23 -21 -25 -60
-88 -60 -97 0 -6 -4 -10 -10 -10 -5 0 -10 -6 -10 -14 0 -8 -3 -16 -7 -18 -5
-1 -28 -42 -52 -90 -25 -48 -56 -100 -69 -115 -92 -106 -78 -223 36 -309 20
-16 42 -33 48 -39 6 -5 27 -21 47 -35 20 -14 37 -28 37 -32 0 -5 7 -8 15 -8 8
0 15 -3 15 -7 0 -5 20 -17 45 -28 25 -11 45 -23 45 -27 0 -5 5 -8 10 -8 6 0
23 -11 38 -25 15 -14 32 -25 38 -25 6 0 20 -10 32 -23 17 -18 19 -26 10 -35
-7 -7 -17 -12 -24 -12 -7 0 -14 -3 -16 -7 -7 -16 -89 -52 -133 -58 -25 -4 -48
-11 -51 -16 -3 -5 -16 -9 -29 -9 -13 0 -26 -4 -29 -9 -3 -5 -30 -12 -61 -16
-30 -3 -57 -11 -60 -16 -4 -5 -17 -9 -30 -9 -13 0 -27 -4 -30 -10 -3 -5 -17
-10 -30 -10 -13 0 -26 -4 -29 -9 -3 -5 -22 -12 -41 -15 -19 -4 -35 -11 -35
-16 0 -6 -9 -10 -20 -10 -11 0 -20 -4 -20 -8 0 -4 -22 -21 -50 -37 -27 -16
-50 -32 -50 -36 0 -4 -8 -10 -19 -14 -10 -3 -32 -18 -48 -33 -33 -30 -60 -49
-83 -58 -8 -3 -23 -10 -32 -15 -10 -5 -25 -9 -33 -9 -8 0 -15 -3 -15 -8 0 -8
-73 -42 -90 -42 -6 0 -10 -4 -10 -10 0 -5 -9 -10 -19 -10 -11 0 -21 -3 -23 -7
-5 -13 -77 -43 -103 -43 -13 0 -27 -4 -30 -10 -3 -5 -17 -10 -31 -10 -13 0
-24 -4 -24 -10 0 -5 -6 -10 -12 -10 -13 0 -119 -50 -128 -60 -9 -11 -78 -40
-93 -40 -9 0 -19 -4 -22 -10 -3 -5 -22 -10 -41 -10 -19 0 -34 -4 -34 -10 0 -5
-9 -10 -19 -10 -21 0 -84 -30 -89 -42 -2 -5 -10 -8 -18 -8 -8 0 -14 -4 -14 -8
0 -5 -18 -17 -40 -28 -22 -10 -40 -22 -40 -26 0 -5 -7 -8 -15 -8 -8 0 -15 -4
-15 -9 0 -5 -9 -13 -20 -16 -21 -7 -200 -179 -200 -193 0 -4 -14 -23 -30 -42
-17 -19 -33 -43 -36 -52 -3 -10 -10 -18 -15 -18 -5 0 -9 -5 -9 -11 0 -12 -15
-26 -80 -77 -69 -54 -270 -263 -270 -280 0 -4 -11 -19 -25 -34 -14 -15 -25
-30 -25 -33 0 -3 -11 -17 -25 -31 -14 -14 -25 -28 -25 -32 0 -4 -61 -70 -135
-145 -74 -76 -135 -142 -135 -147 0 -5 -43 -52 -95 -105 -52 -54 -95 -101 -95
-106 0 -4 -11 -19 -25 -33 -14 -14 -25 -29 -25 -33 -1 -4 -21 -28 -45 -53 -25
-25 -45 -50 -45 -56 0 -6 -12 -22 -27 -37 -16 -14 -37 -37 -48 -52 -11 -14
-109 -115 -218 -224 -108 -110 -197 -204 -197 -209 0 -6 -19 -30 -43 -54 -47
-50 -100 -115 -106 -132 -2 -6 -28 -34 -57 -63 -29 -28 -55 -61 -59 -72 -3
-12 -11 -21 -16 -21 -5 0 -9 -11 -9 -24 0 -14 -5 -28 -10 -31 -13 -8 -13 -105
0 -105 6 0 10 -9 10 -21 0 -11 5 -30 12 -42 6 -12 15 -55 20 -97 17 -138 20
-155 29 -164 5 -6 9 -40 9 -76 0 -37 9 -102 21 -146 12 -43 23 -90 26 -104 2
-14 8 -34 13 -45 12 -29 20 -69 32 -162 6 -46 14 -83 19 -83 5 0 9 -11 9 -24
0 -14 5 -28 10 -31 5 -3 10 -16 10 -29 0 -12 5 -27 10 -32 6 -6 13 -40 17 -77
3 -37 10 -67 14 -67 5 0 9 -15 9 -34 0 -19 4 -37 9 -41 5 -3 13 -34 16 -70 4
-36 11 -65 16 -65 5 0 9 -16 9 -35 0 -19 5 -35 10 -35 6 0 10 -15 10 -34 0
-19 4 -37 9 -40 5 -4 12 -29 16 -56 4 -27 11 -52 16 -56 5 -3 9 -18 9 -34 0
-16 5 -32 10 -35 6 -3 10 -19 10 -35 0 -16 4 -31 9 -35 6 -3 13 -26 17 -50 3
-25 10 -45 14 -45 4 0 10 -12 13 -27 3 -16 11 -46 17 -68 7 -22 17 -68 23
-102 6 -35 15 -63 19 -63 4 0 8 -16 8 -35 0 -19 4 -35 9 -35 5 0 11 -17 14
-38 7 -52 31 -139 40 -148 4 -4 7 -20 7 -35 0 -15 4 -30 9 -33 5 -3 11 -20 14
-38 10 -61 28 -133 37 -150 6 -10 10 -27 10 -37 0 -11 5 -23 10 -26 6 -3 10
-15 10 -26 0 -11 14 -50 32 -87 46 -99 57 -131 64 -195 4 -31 11 -60 15 -63 5
-3 9 -34 9 -69 0 -35 5 -67 10 -70 6 -3 10 -14 10 -23 0 -9 13 -31 28 -49 34
-38 91 -49 172 -33 30 6 71 14 90 17 19 3 37 9 40 14 3 5 96 13 205 19 204 10
245 15 245 31 0 5 7 9 15 9 18 0 47 52 58 105 5 22 11 107 14 190 2 82 8 154
13 160 4 5 11 27 15 48 4 20 11 40 16 43 5 3 9 45 9 93 0 48 4 91 9 97 18 18
23 113 24 399 0 279 -4 347 -23 390 -5 11 -11 43 -14 70 -5 62 -25 163 -36
190 -21 51 -32 136 -26 201 10 115 17 168 23 184 6 14 27 124 39 203 4 20 10
40 15 43 5 3 9 23 9 44 0 21 5 42 10 45 6 3 10 44 10 90 0 45 5 129 11 186 18
175 30 383 37 619 l7 224 25 14 c19 10 75 12 245 9 122 -2 227 -7 234 -12 11
-6 13 -79 8 -419 -3 -226 -11 -440 -17 -476 -17 -105 -7 -2262 11 -2362 8 -42
17 -80 22 -84 4 -4 7 -18 7 -31 0 -13 3 -23 8 -23 6 0 42 -72 42 -86 0 -15 81
-172 95 -184 8 -7 15 -19 15 -26 0 -8 4 -14 9 -14 5 0 12 -10 16 -22 6 -23 14
-43 33 -88 6 -14 13 -38 16 -55 20 -116 28 -150 36 -153 6 -2 10 -8 10 -13 0
-5 11 -22 26 -38 21 -24 35 -29 92 -34 37 -4 96 -2 132 3 203 30 239 36 246
43 4 4 63 7 130 7 68 0 125 4 128 8 11 17 384 27 1396 37 396 4 595 2 640 -6
36 -6 247 -13 475 -15 244 -3 411 -9 413 -15 2 -5 38 -9 80 -9 109 -1 355 -26
380 -39 11 -6 36 -11 56 -11 19 0 38 -4 41 -10 3 -5 24 -10 45 -10 21 0 41 -4
44 -9 3 -5 42 -12 86 -16 44 -4 83 -11 86 -16 7 -12 54 -11 54 1 0 6 8 10 18
10 24 0 52 35 52 65 0 13 5 27 10 30 6 3 10 21 10 40 0 19 4 36 9 39 4 3 11
23 13 44 3 22 20 68 37 103 26 52 33 81 38 157 3 51 10 95 15 98 4 3 8 15 8
28 0 12 5 27 10 32 6 6 13 42 16 80 3 38 9 78 14 89 12 27 21 92 26 200 3 50
10 94 15 99 5 6 9 60 9 120 0 61 7 179 15 261 8 84 15 256 15 391 0 153 4 244
10 250 13 13 17 955 4 975 -5 8 -12 118 -16 244 -6 226 -24 405 -40 405 -4 0
-8 24 -8 53 0 29 -4 57 -9 62 -5 6 -11 41 -13 80 l-3 70 35 12 c23 8 112 12
263 12 l227 1 30 -29 c17 -15 30 -36 30 -45 0 -9 4 -16 9 -16 5 0 12 -24 15
-52 8 -85 29 -188 38 -188 4 0 8 -18 8 -40 0 -22 5 -40 10 -40 6 0 10 -26 10
-59 0 -33 -4 -63 -10 -66 -6 -3 -10 -48 -10 -101 0 -56 4 -94 10 -94 6 0 10
-10 10 -23 0 -22 20 -57 48 -86 7 -8 18 -24 22 -37 11 -27 0 -274 -12 -274 -4
0 -8 -9 -8 -19 0 -11 -4 -23 -10 -26 -5 -3 -10 -15 -10 -26 0 -10 -4 -19 -9
-19 -5 0 -12 -26 -16 -57 -3 -32 -10 -66 -15 -75 -14 -25 -12 -92 3 -106 9
-10 13 -128 15 -505 2 -288 7 -496 13 -501 5 -6 9 -21 9 -35 0 -25 16 -82 30
-112 5 -9 11 -37 15 -63 4 -25 11 -46 16 -46 5 0 9 -11 9 -25 0 -14 5 -25 10
-25 6 0 10 -11 10 -25 0 -14 4 -25 9 -25 5 0 12 -19 16 -42 4 -23 11 -49 15
-58 4 -8 20 -42 36 -75 16 -33 32 -62 36 -63 4 -2 8 -12 8 -23 0 -10 4 -19 9
-19 11 0 19 -40 31 -149 5 -46 14 -89 20 -95 5 -5 10 -18 10 -27 0 -17 13 -44
40 -86 15 -23 18 -23 222 -23 121 0 218 4 235 11 15 5 81 13 146 16 114 6 118
7 147 36 17 17 30 37 30 44 0 7 4 13 9 13 5 0 12 29 16 65 3 36 11 67 16 70 5
4 9 17 9 31 0 13 5 24 10 24 6 0 10 11 10 24 0 14 4 27 9 30 4 3 11 23 15 45
5 34 17 63 57 143 10 21 29 90 36 136 3 18 9 35 14 38 5 3 9 21 9 40 0 19 4
34 9 34 4 0 11 46 15 102 4 56 11 109 17 119 5 10 9 40 9 66 0 27 4 53 9 59
14 14 32 162 50 404 7 85 16 163 22 172 5 10 9 60 9 111 0 56 5 98 11 104 7 7
15 88 20 215 4 112 13 235 19 273 5 39 13 126 16 195 4 69 10 127 15 130 5 3
10 127 11 276 l3 270 -25 50 c-25 48 -45 76 -105 139 -65 70 -101 111 -117
134 -9 13 -81 90 -160 171 -155 159 -183 190 -212 234 -10 17 -121 131 -245
255 -124 124 -235 240 -245 256 -11 17 -52 64 -91 105 -142 146 -185 194 -185
202 0 5 -54 63 -120 130 -66 66 -120 124 -120 127 0 4 -18 27 -40 51 -22 24
-40 47 -40 51 0 4 -35 43 -77 86 -43 44 -95 101 -116 128 -21 27 -105 118
-187 202 -83 84 -150 157 -150 161 0 15 -136 149 -158 156 -12 4 -22 12 -22
17 0 5 -9 9 -20 9 -11 0 -20 5 -20 10 0 6 -7 10 -15 10 -8 0 -15 4 -15 9 0 5
-16 12 -35 15 -19 4 -35 11 -35 16 0 6 -7 10 -15 10 -8 0 -15 3 -15 8 0 4 -17
18 -37 32 -20 14 -47 35 -59 47 -12 12 -41 30 -63 40 -23 10 -41 21 -41 25 0
5 -9 8 -20 8 -11 0 -28 4 -38 10 -15 8 -59 18 -167 36 -55 10 -100 38 -143 89
-23 27 -82 136 -82 151 0 8 -4 14 -10 14 -19 0 -10 23 18 46 15 13 30 24 34
24 4 0 29 23 56 50 27 28 52 50 56 50 11 0 106 96 106 108 0 6 6 12 13 15 17
5 17 171 -1 189 -6 6 -12 22 -12 33 0 12 -9 40 -20 63 -11 23 -23 56 -27 72
-3 17 -9 30 -14 30 -5 0 -9 11 -9 24 0 14 -4 27 -9 30 -5 4 -12 24 -16 46 -4
22 -11 42 -16 46 -5 3 -9 14 -9 25 0 10 -4 19 -10 19 -5 0 -10 7 -10 15 0 8
-4 15 -9 15 -5 0 -12 20 -15 45 -4 25 -11 45 -17 45 -5 0 -9 4 -9 10 0 16 -37
57 -180 201 -75 75 -155 148 -178 163 -23 14 -42 31 -42 36 0 6 -5 10 -10 10
-12 0 -94 52 -98 63 -2 4 -8 7 -14 7 -9 0 -67 40 -102 73 -11 9 -23 17 -27 17
-5 0 -19 11 -33 25 -14 14 -30 25 -36 25 -5 0 -10 4 -10 9 0 5 -10 13 -22 17
-20 6 -128 71 -138 83 -7 8 -39 28 -77 48 -18 9 -33 20 -33 25 0 4 -7 8 -15 8
-8 0 -15 4 -15 9 0 5 -8 12 -18 15 -10 4 -27 14 -38 24 -23 20 -92 61 -116 69
-10 3 -18 9 -18 14 0 5 -9 9 -20 9 -11 0 -20 4 -20 8 0 10 -75 31 -135 39 -22
3 -44 9 -49 14 -13 12 -179 12 -191 0z m35 -3800 c0 -5 -13 -14 -29 -21 -32
-13 -57 -39 -116 -120 -22 -30 -44 -60 -50 -67 -40 -48 -75 -99 -75 -111 0 -5
26 -29 57 -53 32 -24 67 -52 78 -62 11 -10 32 -26 48 -35 15 -9 27 -20 27 -24
0 -4 4 -8 10 -8 5 0 33 -15 62 -33 29 -18 73 -39 98 -46 25 -8 50 -15 55 -16
6 -2 -7 -4 -29 -4 -21 -1 -55 -6 -76 -12 -33 -10 -41 -9 -81 16 -24 16 -46 31
-49 35 -3 3 -23 19 -45 36 -22 16 -46 35 -53 42 -7 6 -17 12 -21 12 -5 0 -21
12 -37 28 -29 27 -79 62 -89 62 -9 0 -6 -68 4 -92 6 -13 13 -54 16 -91 6 -57
10 -70 28 -76 30 -11 9 -21 -76 -33 -139 -19 -236 -21 -278 -4 -51 20 -65 21
-49 1 7 -8 25 -15 41 -15 47 0 33 -17 -18 -24 -27 -4 -59 -9 -73 -12 -23 -4
-27 0 -39 40 -7 25 -16 46 -19 48 -6 3 -50 81 -76 135 -6 13 -14 23 -18 23 -5
0 -8 6 -8 14 0 8 -5 16 -11 18 -17 6 -127 -7 -135 -15 -15 -14 -56 -265 -47
-280 3 -5 15 -12 27 -17 27 -10 16 -14 -94 -30 -135 -18 -228 -23 -207 -10 18
12 24 70 7 70 -5 0 -10 -5 -10 -12 0 -21 -80 -88 -106 -88 -14 0 -33 -4 -42
-9 -9 -5 -62 -12 -117 -15 -55 -3 -93 -3 -85 1 30 13 32 33 10 163 -5 30 -16
109 -25 175 -29 220 -38 245 -87 245 -52 0 8 19 82 25 41 3 87 11 102 17 34
13 107 -10 141 -44 42 -42 45 -145 7 -186 -20 -21 -10 -42 19 -42 8 0 28 -10
45 -23 53 -40 55 -40 46 -5 -11 41 -40 230 -40 258 0 27 -23 50 -49 50 -12 0
-21 4 -21 9 0 4 30 11 68 15 37 3 79 9 95 12 17 4 27 2 27 -5 0 -6 -5 -11 -11
-11 -6 0 -16 -6 -24 -13 -13 -14 -10 -41 36 -337 6 -36 14 -87 18 -115 11 -74
27 -95 77 -95 46 0 40 -11 70 125 9 39 20 88 25 110 13 51 21 91 54 245 14 68
29 128 34 133 8 8 62 -72 106 -155 11 -21 23 -38 27 -38 5 0 8 -9 8 -21 0 -34
23 -16 26 21 8 81 26 129 62 168 68 72 122 91 280 99 115 6 122 5 122 -13 0
-10 3 -29 6 -41 8 -29 -6 -29 -65 -1 -33 16 -62 22 -103 21 -140 -4 -238 -99
-238 -229 0 -50 29 -164 42 -164 4 0 8 -5 8 -10 0 -6 5 -16 10 -23 6 -7 18
-21 28 -33 9 -11 40 -34 67 -49 45 -26 59 -29 135 -28 53 0 85 4 88 12 2 6 8
11 14 11 5 0 16 7 25 15 13 14 13 27 -2 128 -9 61 -20 131 -25 155 -6 23 -10
58 -10 77 0 21 -6 37 -16 43 -20 11 -11 17 39 26 35 7 37 5 29 -11 -13 -23 -3
-123 12 -123 6 0 42 44 81 98 38 53 73 99 77 100 4 2 8 9 8 15 0 6 8 19 17 30
17 18 17 19 0 32 -27 19 -21 25 31 25 26 0 54 5 62 10 19 12 50 13 50 1z
m1821 -438 c4 -20 8 -52 15 -101 6 -46 5 -52 -10 -46 -9 3 -16 17 -16 31 0 25
-20 53 -38 53 -6 0 -12 6 -14 12 -3 9 -28 13 -74 13 -91 0 -107 -14 -112 -99
-4 -59 -3 -62 29 -86 17 -14 37 -29 44 -35 14 -12 33 -24 114 -71 77 -44 138
-104 147 -142 3 -15 9 -36 13 -47 9 -23 8 -50 -3 -80 -35 -92 -42 -100 -122
-146 -32 -19 -56 -23 -136 -25 -53 -1 -105 -7 -116 -13 -12 -6 -45 -11 -76
-11 -30 0 -58 -4 -61 -10 -3 -5 -33 -10 -66 -10 -33 0 -59 -4 -59 -10 0 -5
-23 -10 -52 -10 -47 0 -139 -12 -299 -40 -30 -6 -67 -10 -82 -10 -14 0 -28 -4
-31 -9 -3 -4 -56 -12 -117 -16 -62 -4 -120 -12 -130 -18 -14 -8 -26 -7 -53 8
-20 11 -36 23 -36 27 0 5 -4 8 -10 8 -11 0 -87 69 -174 159 -33 34 -71 67 -83
72 -30 11 -29 25 0 33 34 8 73 47 82 82 17 65 6 175 -21 202 -8 7 -19 21 -26
30 -25 34 -67 52 -118 52 -27 0 -50 -4 -50 -9 0 -6 -18 -11 -41 -13 l-41 -3
22 -25 c29 -33 40 -63 40 -112 0 -40 -23 -101 -47 -126 -18 -18 -16 -32 5 -38
9 -3 26 -10 37 -17 11 -6 29 -15 40 -21 58 -30 105 -108 105 -172 0 -98 -103
-214 -190 -214 -16 0 -31 -4 -34 -9 -3 -4 -40 -11 -83 -14 -43 -4 -97 -9 -120
-13 -29 -5 -43 -3 -43 5 0 6 9 11 20 11 30 0 34 38 16 148 -8 53 -27 176 -41
272 -39 275 -48 304 -92 298 -10 -2 -19 2 -21 7 -3 12 61 23 135 24 28 1 53 5
55 10 2 5 30 11 63 15 33 3 112 14 175 25 63 11 132 21 152 21 36 0 102 -24
123 -45 32 -31 65 -85 65 -108 0 -14 4 -37 10 -51 13 -36 -11 -109 -59 -175
l-24 -34 103 -99 c56 -54 104 -98 106 -98 9 0 3 109 -6 115 -5 3 -10 31 -10
61 0 31 -4 63 -9 72 -8 15 -20 97 -23 147 -1 37 -20 150 -30 183 -8 28 -14 32
-44 32 -19 0 -34 3 -34 8 0 15 58 31 140 37 47 4 92 11 102 16 9 5 36 9 60 9
24 0 79 7 123 15 44 9 116 20 160 25 44 5 100 14 125 19 25 6 71 10 103 11 31
0 57 5 57 10 0 6 23 10 52 10 28 0 67 5 85 12 46 17 66 2 74 -53 9 -59 -6 -86
-21 -41 -15 41 -37 47 -147 38 -103 -9 -118 -13 -102 -32 6 -8 18 -14 26 -14
40 0 132 -91 167 -165 14 -31 26 -60 26 -65 0 -15 22 -12 42 7 17 15 21 15 29
3 5 -8 7 -25 4 -37 -3 -13 -1 -23 5 -23 5 0 10 -11 10 -25 0 -32 -11 -32 -39
1 -12 14 -27 24 -33 22 -5 -2 -11 -37 -13 -78 -3 -81 -17 -128 -59 -202 -14
-26 -26 -52 -26 -57 0 -16 132 -14 162 2 48 25 62 46 61 98 -1 63 20 65 37 5
10 -38 18 -47 51 -60 75 -30 134 -19 187 35 28 29 32 39 32 88 0 51 -3 60 -39
99 -21 23 -43 42 -47 42 -5 0 -21 11 -36 25 -15 14 -31 25 -37 25 -5 0 -11 3
-13 8 -1 4 -29 24 -60 45 -146 95 -159 240 -28 330 19 13 47 17 132 17 60 0
109 -3 109 -7z m-2401 -383 c-18 -16 -21 -26 -17 -57 4 -21 11 -74 17 -118 5
-44 14 -102 20 -128 5 -26 10 -64 10 -83 0 -75 33 -99 112 -83 59 12 85 30 91
63 2 11 5 0 6 -26 l1 -48 -34 0 c-19 0 -38 -4 -41 -10 -3 -5 -28 -10 -55 -10
-27 0 -60 -4 -74 -9 -13 -6 -70 -13 -125 -17 -56 -4 -101 -11 -101 -15 0 -5
-22 -9 -49 -9 -26 0 -61 -4 -77 -9 -16 -5 -60 -12 -98 -16 -65 -5 -67 -5 -51
11 14 15 16 28 10 73 -15 120 -36 266 -52 360 -6 32 -14 46 -30 52 -16 6 -23
3 -28 -9 -7 -16 -48 -171 -65 -242 -4 -19 -20 -80 -35 -135 -15 -55 -29 -116
-32 -135 -6 -39 -21 -63 -34 -54 -5 2 -16 22 -26 42 -9 20 -20 39 -23 42 -4 3
-19 26 -33 52 -14 25 -36 63 -49 85 -13 21 -30 50 -37 66 -8 15 -18 27 -23 27
-4 0 -8 6 -8 14 0 8 -6 21 -12 28 -16 17 -58 88 -65 111 -3 9 -9 17 -14 17 -5
0 -9 4 -9 10 0 22 -36 50 -65 50 l-30 0 29 15 c15 8 51 15 78 15 27 0 58 5 69
10 23 13 26 -2 4 -20 -16 -13 -21 -40 -7 -40 4 0 16 -20 27 -45 11 -25 22 -45
25 -45 3 0 14 -19 25 -43 11 -23 22 -44 25 -47 3 -3 14 -23 26 -45 88 -170 96
-179 112 -117 24 86 31 116 47 192 18 85 32 140 47 189 11 37 2 50 -37 52 -30
1 75 28 113 29 17 0 32 -4 32 -10 0 -5 -6 -10 -14 -10 -7 0 -20 -7 -27 -17
-16 -18 -3 -18 181 12 52 9 129 20 170 26 41 5 100 13 130 18 96 14 96 14 70
-9z"/>
<path d="M3380 5411 c-15 -5 -23 -14 -21 -22 2 -8 8 -45 12 -83 13 -113 18
-126 44 -126 12 0 39 7 59 15 42 18 51 42 44 117 -4 42 -11 57 -37 80 -31 28
-54 32 -101 19z"/>
<path d="M4025 5368 c-13 -78 -12 -113 5 -109 8 2 32 6 53 9 20 2 37 6 37 7 0
11 -70 130 -78 133 -5 1 -13 -17 -17 -40z"/>
<path d="M3420 5152 c-22 -7 -24 -12 -21 -57 1 -27 7 -57 12 -67 5 -9 9 -37 9
-62 0 -25 5 -57 12 -71 10 -23 17 -25 71 -25 55 0 62 3 93 36 28 29 34 43 34
79 0 24 -4 47 -10 50 -5 3 -10 13 -10 22 0 8 -18 33 -40 55 -32 32 -49 41 -83
44 -23 2 -53 0 -67 -4z"/>
<path d="M5863 5088 l-53 -10 0 -58 c0 -32 5 -62 10 -65 6 -3 10 -26 10 -51 0
-24 6 -83 14 -131 8 -49 20 -126 27 -173 7 -47 17 -91 22 -97 5 -7 7 -20 3
-28 -8 -21 3 -45 20 -45 8 0 14 -4 14 -10 0 -14 142 -12 190 2 22 7 40 16 40
19 0 4 10 9 23 13 26 6 97 68 97 85 0 6 4 11 10 11 5 0 13 12 16 28 4 15 10
32 14 37 17 22 31 143 18 151 -4 3 -8 18 -8 34 0 42 -36 133 -65 164 -14 15
-25 31 -25 35 0 4 -16 16 -35 27 -19 10 -35 21 -35 24 0 16 -161 51 -225 49
-16 -1 -54 -6 -82 -11z"/>
<path d="M5591 5066 c-22 -10 -23 -14 -16 -81 3 -38 9 -83 11 -100 3 -16 8
-55 11 -85 3 -30 9 -59 13 -65 4 -5 11 -54 14 -108 3 -54 10 -106 14 -115 5
-9 10 -41 11 -71 3 -65 17 -81 71 -81 50 0 70 18 70 61 0 50 -30 290 -41 325
-5 17 -9 58 -9 92 0 33 -4 64 -10 67 -5 3 -10 30 -10 59 0 29 -3 56 -7 60 -5
4 -8 11 -9 14 -4 30 -19 42 -53 41 -20 -1 -47 -7 -60 -13z"/>
<path d="M4840 4943 c-8 -2 -20 -6 -26 -8 -7 -2 -7 -25 2 -77 7 -40 13 -96 14
-124 0 -65 13 -76 81 -72 48 3 56 6 76 37 17 26 23 48 23 92 0 32 -4 61 -10
64 -5 3 -10 13 -10 22 0 9 -13 29 -30 44 -29 28 -76 37 -120 22z"/>
<path d="M4850 4586 c0 -19 5 -38 10 -41 6 -3 10 -26 10 -51 0 -71 21 -187 38
-206 31 -37 153 -18 202 31 22 23 25 33 24 99 0 40 -4 77 -10 80 -5 4 -16 20
-24 36 -8 16 -33 42 -54 58 -35 25 -47 28 -118 28 l-78 0 0 -34z"/>
<path d="M4293 4832 c-15 -11 -21 -24 -18 -37 3 -11 10 -56 15 -100 5 -44 14
-109 20 -145 5 -36 14 -91 18 -123 10 -74 40 -97 77 -61 17 17 15 67 -6 179
-5 28 -13 86 -19 130 -13 117 -21 149 -39 162 -21 16 -22 16 -48 -5z"/>
<path d="M4170 4785 c0 -40 -11 -45 -25 -12 -12 27 -53 34 -107 17 -38 -11
-38 -11 -33 -53 3 -23 11 -66 17 -95 l12 -54 50 4 c28 3 58 7 66 11 11 5 18
-2 26 -28 13 -41 2 -55 -19 -24 -14 19 -18 20 -71 7 -44 -10 -55 -16 -50 -28
3 -8 10 -51 15 -95 5 -44 11 -86 14 -92 3 -8 24 -13 57 -13 71 0 98 9 98 31 0
10 5 21 10 24 6 4 10 -5 10 -19 0 -16 6 -26 15 -26 18 0 18 13 4 100 -14 85
-26 166 -38 269 -10 79 -22 111 -42 111 -5 0 -9 -16 -9 -35z"/>
</g>
</svg>
