<?xml version="1.0" standalone="no"?>
<!DOCTYPE svg PUBLIC "-//W3C//DTD SVG 20010904//EN"
 "http://www.w3.org/TR/2001/REC-SVG-20010904/DTD/svg10.dtd">
<svg version="1.0" xmlns="http://www.w3.org/2000/svg"
 width="1024.000000pt" height="1024.000000pt" viewBox="0 0 1024.000000 1024.000000"
 preserveAspectRatio="xMidYMid meet">

<g transform="translate(0.000000,1024.000000) scale(0.100000,-0.100000)"
fill="#000000" stroke="none">
<path d="M3769 10011 c-31 -10 -21 -10 -625 -15 -269 -3 -505 -9 -524 -13 -19
-5 -57 -6 -85 -2 -27 4 -167 3 -310 -2 -143 -5 -442 -9 -664 -9 -408 0 -434
-2 -510 -38 -51 -25 -139 -119 -166 -179 -23 -49 -25 -66 -25 -193 0 -97 3
-140 11 -140 8 0 8 -4 1 -13 -16 -19 -20 -3123 -4 -3139 7 -7 12 -20 12 -30 0
-10 5 -18 10 -18 6 0 10 -8 10 -19 0 -21 82 -101 105 -101 8 0 15 -4 15 -10 0
-5 9 -10 19 -10 11 0 22 -4 25 -9 9 -13 158 -34 201 -27 53 9 432 9 722 0 238
-7 445 5 459 28 7 11 2947 11 2960 -1 33 -32 441 -42 579 -14 71 15 252 17
1550 23 1461 6 1593 10 1603 40 2 6 8 10 13 10 29 0 175 156 206 219 28 55 28
58 26 235 -1 98 -6 183 -11 190 -25 30 -32 180 -13 261 28 120 31 235 28 1441
-1 987 -5 1248 -14 1252 -7 2 -13 11 -13 20 0 10 -23 46 -51 82 -75 95 -149
150 -239 179 -42 13 -5258 15 -5301 2z m2944 -438 c50 -5 58 -16 29 -42 -30
-27 -72 -89 -72 -105 0 -8 -4 -18 -10 -21 -5 -3 -10 -16 -10 -28 0 -12 -7 -31
-15 -41 -8 -11 -15 -28 -15 -38 0 -9 -8 -37 -19 -60 -10 -24 -27 -70 -36 -103
-10 -33 -24 -74 -31 -92 -8 -17 -14 -38 -14 -46 0 -9 -4 -19 -10 -22 -5 -3
-10 -17 -10 -31 0 -13 -4 -24 -9 -24 -5 0 -11 -10 -14 -22 -8 -37 -49 -143
-57 -148 -4 -3 -11 -24 -15 -47 -4 -24 -11 -45 -16 -49 -5 -3 -9 -15 -9 -28 0
-12 -9 -40 -19 -62 -11 -22 -23 -54 -27 -70 -4 -16 -11 -35 -17 -41 -5 -7 -10
-37 -11 -65 -1 -49 -3 -53 -26 -54 -139 -6 -168 -6 -178 0 -7 4 -12 24 -12 45
0 39 -11 82 -36 138 -8 17 -14 36 -14 42 0 6 -9 33 -21 59 -45 102 -49 113
-49 132 0 10 -4 22 -10 25 -5 3 -10 14 -10 24 0 10 -7 32 -15 47 -8 16 -15 37
-15 47 0 9 -4 17 -10 17 -5 0 -10 12 -10 28 0 15 -7 36 -15 46 -8 11 -15 26
-15 33 0 7 -9 32 -19 56 -10 23 -25 57 -32 75 -13 31 -31 39 -76 33 -7 -1 -13
7 -13 17 0 19 170 202 187 202 9 0 53 -108 53 -131 0 -8 7 -24 15 -35 8 -10
15 -27 15 -37 0 -9 11 -40 25 -69 14 -28 25 -60 25 -69 0 -10 5 -21 10 -24 6
-3 10 -14 10 -24 0 -9 10 -39 23 -67 13 -27 29 -69 37 -94 7 -25 17 -49 21
-55 4 -5 10 -26 14 -45 12 -55 45 -95 45 -55 0 8 11 38 25 67 14 28 25 57 25
64 0 6 7 25 15 40 8 16 15 38 15 50 0 11 9 39 20 62 11 23 23 56 27 72 3 17
10 33 14 36 5 3 9 12 9 21 0 8 8 27 19 41 18 26 36 95 32 120 -1 6 3 12 9 12
5 0 10 9 10 20 0 18 17 57 30 70 13 13 38 136 29 145 -13 13 -11 53 4 58 16 6
161 7 220 0z m735 -8 c353 -1 435 -4 442 -15 7 -12 -3 -47 -31 -102 -5 -10 -9
-24 -9 -31 0 -27 -32 -77 -49 -77 -9 0 -26 7 -38 15 -21 15 -257 39 -276 28
-7 -4 -309 -5 -382 -1 -33 2 -42 -2 -52 -22 -20 -41 -41 -93 -47 -120 -3 -14
-10 -46 -17 -72 -7 -27 -9 -51 -6 -55 4 -3 115 -7 246 -7 180 -1 243 2 252 12
19 18 49 15 49 -5 0 -21 -23 -90 -33 -99 -4 -4 -7 -18 -7 -31 0 -12 -4 -23 -9
-23 -5 0 -12 -16 -15 -35 -7 -37 -30 -47 -54 -22 -13 12 -337 26 -462 19 l-55
-3 -19 -67 c-11 -37 -22 -71 -26 -77 -3 -5 -15 -39 -25 -75 -10 -36 -22 -69
-27 -75 -4 -5 -8 -22 -8 -37 0 -15 -4 -28 -10 -28 -15 0 -12 -47 3 -53 7 -2
162 -4 344 -3 329 1 332 1 355 24 30 27 63 30 55 5 -10 -34 -30 -89 -56 -150
-19 -47 -31 -63 -46 -64 -32 -1 -194 -1 -592 0 -258 1 -373 5 -373 13 0 5 22
31 48 57 27 25 51 55 55 66 12 41 52 150 58 160 4 6 10 26 13 45 4 19 11 45
17 58 5 12 13 32 18 45 5 12 17 49 26 82 9 33 21 68 26 77 5 10 9 27 9 37 0
11 4 22 9 25 5 3 12 18 15 33 4 16 15 51 25 78 10 28 31 93 47 145 15 52 31
100 35 105 4 6 10 26 14 45 4 19 12 41 17 50 7 11 5 27 -6 54 -9 21 -16 44
-16 51 0 14 96 35 120 27 8 -3 210 -6 448 -7z m795 7 c50 -2 57 -11 31 -39
-39 -44 -64 -79 -64 -90 0 -12 -21 -66 -41 -105 -5 -10 -9 -27 -9 -38 0 -11
-4 -20 -10 -20 -5 0 -10 -12 -10 -26 0 -14 -6 -38 -14 -52 -21 -41 -48 -108
-51 -127 -3 -23 -18 -71 -25 -80 -4 -5 -10 -25 -13 -42 -4 -18 -16 -52 -27
-75 -11 -23 -20 -50 -20 -60 0 -10 -4 -18 -10 -18 -5 0 -10 -8 -10 -17 0 -19
-24 -98 -46 -148 -7 -17 -18 -51 -23 -75 -6 -25 -19 -64 -31 -87 -22 -45 -26
-88 -10 -98 15 -9 12 -42 -5 -49 -8 -3 -69 -5 -135 -5 -138 0 -143 3 -80 68
25 26 40 50 40 66 0 14 5 25 10 25 6 0 10 9 10 21 0 17 22 81 60 174 4 11 16
47 26 80 10 33 22 64 26 69 4 6 8 19 8 30 0 11 15 59 34 106 40 104 66 182 66
204 0 9 4 16 8 16 5 0 17 26 26 58 22 72 35 106 57 157 29 66 32 90 14 126
-15 28 -15 34 -3 43 14 10 94 13 221 8z m431 -21 c3 -5 -8 -19 -24 -32 -16
-13 -30 -28 -30 -33 0 -5 -6 -17 -14 -25 -7 -9 -26 -54 -41 -101 -15 -47 -31
-94 -36 -105 -16 -44 -28 -81 -34 -109 -3 -15 -14 -47 -24 -70 -28 -63 -51
-130 -51 -149 0 -9 -4 -17 -10 -17 -5 0 -10 -11 -10 -24 0 -14 -4 -27 -9 -30
-5 -3 -12 -26 -16 -51 -3 -25 -15 -62 -25 -83 -40 -80 -82 -231 -64 -233 5 0
151 -2 324 -4 l315 -3 48 26 c26 14 50 22 53 19 6 -6 -19 -92 -36 -127 -4 -9
-11 -30 -15 -49 -7 -31 -19 -42 -53 -46 -10 -1 -25 -5 -35 -9 -10 -5 -23 -3
-31 3 -10 9 -20 9 -41 -1 -20 -9 -31 -9 -45 0 -11 6 -38 9 -66 5 -27 -3 -56
-5 -64 -4 -8 1 -161 4 -339 6 -178 3 -326 7 -328 9 -3 2 16 25 40 51 25 26 48
58 52 73 3 14 15 44 26 66 10 22 19 47 19 57 0 9 7 30 15 45 8 16 15 37 15 46
0 9 4 19 9 22 5 3 11 18 14 33 2 16 21 73 42 128 20 55 41 118 46 140 6 21 14
44 19 50 5 6 16 36 24 66 22 79 56 182 66 200 5 9 12 33 15 53 4 20 11 39 16
42 5 3 9 16 9 29 0 13 5 27 10 30 15 9 12 47 -5 69 -32 43 -23 46 124 46 77 0
142 -4 145 -9z"/>
<path d="M4975 5699 c-91 -7 -185 -22 -241 -40 -17 -5 -43 -9 -57 -9 -15 0
-35 -4 -45 -10 -9 -5 -42 -14 -72 -19 -86 -16 -113 -22 -135 -31 -11 -5 -31
-11 -45 -14 -64 -13 -129 -32 -136 -39 -4 -4 -18 -7 -31 -7 -13 0 -23 -4 -23
-9 0 -5 -15 -13 -32 -16 -18 -4 -35 -10 -38 -14 -9 -11 -110 -61 -124 -61 -8
0 -16 -3 -18 -7 -4 -10 -110 -63 -125 -63 -6 0 -13 -3 -15 -8 -1 -4 -25 -19
-53 -33 -81 -42 -120 -64 -125 -69 -3 -3 -23 -18 -45 -35 -22 -16 -42 -32 -45
-35 -3 -4 -20 -15 -37 -25 -18 -11 -33 -23 -33 -27 0 -4 -5 -8 -11 -8 -6 0
-16 -6 -23 -12 -7 -7 -32 -29 -56 -48 -24 -19 -53 -44 -65 -56 -11 -11 -34
-29 -51 -40 -43 -28 -74 -54 -124 -105 -46 -46 -52 -54 -105 -124 -16 -22 -35
-46 -42 -53 -7 -7 -13 -16 -13 -20 0 -4 -12 -20 -26 -37 -14 -16 -35 -45 -46
-65 -12 -19 -24 -37 -27 -40 -8 -7 -30 -41 -38 -60 -4 -8 -9 -17 -12 -20 -9
-8 -52 -83 -58 -102 -3 -10 -9 -18 -14 -18 -5 0 -9 -4 -9 -9 0 -5 -22 -47 -50
-92 -27 -45 -50 -88 -50 -96 0 -7 -4 -13 -9 -13 -5 0 -12 -16 -15 -35 -4 -19
-11 -35 -16 -35 -6 0 -10 -11 -10 -25 0 -14 -4 -25 -10 -25 -5 0 -10 -11 -10
-25 0 -14 -4 -25 -10 -25 -5 0 -10 -8 -10 -17 0 -10 -7 -31 -15 -47 -8 -15
-15 -35 -15 -42 0 -8 -4 -14 -9 -14 -5 0 -12 -18 -16 -40 -4 -22 -11 -42 -16
-46 -5 -3 -9 -16 -9 -29 0 -13 -4 -26 -9 -29 -5 -3 -11 -20 -14 -38 -3 -18
-13 -73 -22 -123 -9 -49 -19 -103 -21 -120 -3 -16 -9 -39 -14 -50 -4 -11 -13
-54 -19 -95 -6 -41 -16 -100 -23 -130 -6 -30 -12 -102 -12 -160 0 -97 5 -137
33 -260 6 -25 10 -70 11 -101 0 -30 4 -59 9 -65 5 -5 11 -27 15 -49 13 -94 28
-183 38 -220 21 -79 60 -191 84 -243 13 -29 24 -57 24 -61 0 -5 4 -11 8 -13 9
-3 62 -113 62 -128 0 -6 3 -10 8 -10 4 0 16 -21 26 -48 11 -26 22 -49 25 -52
11 -9 61 -115 61 -128 0 -6 5 -12 10 -12 6 0 10 -5 10 -11 0 -12 101 -173 112
-177 5 -2 8 -10 8 -17 0 -7 3 -15 8 -17 4 -1 28 -28 52 -58 25 -30 47 -57 50
-60 3 -3 30 -36 60 -75 66 -85 152 -169 199 -194 11 -6 25 -17 33 -23 31 -29
96 -85 125 -106 17 -13 57 -43 89 -68 86 -65 183 -129 229 -150 22 -10 42 -20
45 -24 9 -10 115 -60 128 -60 6 0 12 -4 12 -10 0 -5 5 -10 11 -10 6 0 41 -15
77 -33 37 -19 90 -42 117 -51 28 -10 59 -22 70 -26 31 -13 106 -32 148 -37 20
-3 40 -9 43 -14 3 -5 18 -9 33 -9 15 0 31 -3 35 -8 4 -4 33 -12 64 -19 105
-22 117 -25 132 -31 16 -6 117 -30 165 -38 17 -3 39 -10 50 -15 29 -14 539 -6
595 10 25 7 70 18 100 25 30 7 62 15 70 18 8 3 51 13 95 23 44 9 88 20 97 26
10 5 29 9 42 9 14 0 27 4 30 9 3 5 23 11 43 14 59 8 137 28 147 38 6 5 19 9
29 9 11 0 88 34 173 75 85 41 156 75 159 75 2 0 29 16 59 35 30 19 60 35 66
35 5 0 10 4 10 9 0 5 8 11 18 15 17 5 53 26 62 36 3 3 30 23 60 45 30 22 60
45 65 51 6 6 44 34 85 63 82 58 236 210 279 275 27 42 44 64 98 125 18 20 33
39 33 43 0 4 6 13 13 20 6 7 21 29 31 48 11 19 30 46 42 60 28 32 94 130 94
139 0 5 9 16 20 26 11 10 20 22 20 26 0 5 20 38 45 75 25 36 45 71 45 79 0 7
6 20 13 27 13 12 27 49 57 143 7 22 24 65 37 95 39 86 41 91 59 155 9 33 19
67 22 75 3 8 11 51 18 95 7 44 18 100 24 125 7 25 14 74 17 110 2 36 8 74 13
85 37 83 46 405 16 545 -10 47 -20 112 -23 145 -2 33 -8 69 -13 80 -9 20 -10
27 -32 148 -7 37 -16 67 -20 67 -4 0 -8 10 -8 23 0 25 -32 133 -43 143 -4 4
-7 16 -7 26 0 10 -4 18 -10 18 -5 0 -10 6 -10 14 0 7 -7 27 -15 42 -8 16 -15
37 -15 47 0 9 -4 17 -10 17 -5 0 -10 8 -10 18 0 17 -50 143 -60 152 -3 3 -14
23 -25 45 -22 48 -136 229 -147 233 -5 2 -8 8 -8 13 0 8 -60 98 -85 126 -5 6
-21 26 -35 44 -14 18 -34 42 -46 54 -11 11 -41 49 -67 84 -49 67 -124 151
-135 151 -4 0 -20 11 -36 25 -16 14 -32 25 -35 25 -4 0 -29 21 -57 48 -27 26
-66 58 -87 72 -20 14 -37 28 -37 33 0 4 -6 7 -14 7 -8 0 -16 4 -18 8 -8 19
-184 142 -255 177 -43 22 -79 43 -81 48 -2 4 -12 7 -23 7 -10 0 -19 4 -19 8 0
4 -22 16 -50 27 -27 11 -50 23 -50 27 0 4 -5 8 -10 8 -6 0 -33 11 -62 25 -28
14 -58 25 -65 25 -7 0 -13 4 -13 9 0 6 -20 13 -45 17 -25 3 -45 10 -45 15 0 5
-9 9 -20 9 -10 0 -29 4 -42 9 -13 5 -59 17 -103 27 -44 9 -84 21 -89 26 -6 4
-25 8 -42 8 -18 0 -35 4 -39 10 -3 5 -32 12 -65 16 -33 4 -60 10 -60 14 0 5
-21 10 -47 13 -78 9 -176 26 -203 37 -33 12 -271 18 -385 9z m-395 -809 c0 -5
9 -10 19 -10 11 0 22 -4 25 -8 3 -5 32 -17 66 -27 33 -10 60 -22 60 -27 0 -4
7 -8 16 -8 22 0 118 -33 122 -42 2 -5 14 -8 27 -8 13 0 26 -4 29 -9 4 -5 32
-17 64 -27 31 -9 61 -21 66 -26 12 -10 86 -11 86 0 0 4 28 16 62 26 34 11 79
28 100 38 21 10 52 21 68 25 17 3 33 10 36 14 3 5 14 9 24 9 10 0 20 3 22 8 2
4 28 15 58 26 30 10 73 27 94 37 69 33 84 23 41 -27 -14 -16 -33 -46 -43 -66
-14 -30 -27 -40 -73 -57 -31 -12 -61 -21 -68 -21 -6 0 -11 -4 -11 -10 0 -5 -9
-10 -20 -10 -10 0 -34 -6 -52 -14 -18 -8 -49 -21 -68 -29 -19 -9 -64 -25 -100
-37 -36 -12 -75 -26 -88 -33 -17 -8 -32 -8 -60 2 -45 15 -153 58 -207 81 -22
10 -54 21 -72 24 -18 4 -55 18 -83 32 -27 13 -58 24 -68 24 -10 0 -26 15 -37
33 -10 17 -21 34 -24 37 -11 9 -41 68 -41 79 0 6 7 11 15 11 8 0 15 -4 15 -10z
m-288 -235 c0 -17 -13 -54 -31 -85 -18 -30 -35 -63 -38 -72 -3 -10 -9 -18 -13
-18 -4 0 -11 -12 -15 -27 -4 -16 -11 -33 -17 -40 -22 -26 -78 -126 -78 -138 0
-8 -3 -15 -7 -17 -7 -3 -30 -43 -82 -143 -20 -38 -37 -51 -83 -64 -20 -6 -49
-18 -64 -26 -16 -8 -30 -13 -32 -11 -4 4 64 132 83 156 6 8 21 35 33 60 12 25
38 72 57 105 19 33 45 80 56 105 12 25 35 64 50 87 16 23 29 45 29 50 0 5 11
25 24 44 14 20 28 48 32 63 3 14 10 26 15 26 5 0 9 7 9 15 0 8 5 15 10 15 6 0
10 6 10 13 0 7 5 18 12 25 9 9 15 0 25 -40 8 -29 14 -66 15 -83z m1708 88 c13
-27 27 -50 31 -53 4 -3 16 -25 28 -50 11 -25 37 -72 56 -105 20 -33 41 -72 48
-87 6 -16 15 -28 19 -28 4 0 8 -9 8 -20 0 -11 4 -20 9 -20 5 0 11 -8 14 -17 6
-18 48 -94 57 -103 5 -5 23 -37 79 -145 20 -38 39 -71 44 -73 4 -2 7 -8 7 -13
0 -12 -37 -12 -45 1 -3 6 -13 10 -22 10 -35 0 -91 34 -107 64 -9 17 -20 38
-25 46 -5 8 -17 33 -27 55 -11 22 -22 42 -26 43 -5 2 -8 10 -8 18 0 8 -4 14
-9 14 -5 0 -17 20 -28 45 -10 25 -21 45 -25 45 -5 0 -8 7 -8 15 0 8 -4 15 -10
15 -5 0 -10 9 -10 19 0 11 -4 22 -9 25 -5 3 -18 23 -29 43 -10 21 -34 65 -51
97 -27 50 -31 63 -22 85 6 14 11 47 13 74 1 26 7 47 12 47 6 0 22 -21 36 -47z
m-833 -327 c21 -8 72 -26 113 -41 41 -15 84 -30 95 -34 11 -5 36 -14 55 -20
87 -31 125 -47 128 -53 2 -5 12 -8 21 -8 10 0 32 -5 50 -11 26 -9 31 -16 31
-42 0 -76 -18 -91 -74 -62 -15 8 -35 15 -42 15 -8 0 -22 4 -32 9 -9 5 -39 17
-67 26 -51 17 -87 31 -115 45 -9 4 -30 11 -48 14 -17 4 -34 12 -37 17 -4 5
-19 9 -36 9 -16 0 -29 5 -29 10 0 6 -9 10 -21 10 -11 0 -29 5 -39 10 -13 7
-21 7 -25 0 -3 -5 -17 -10 -31 -10 -13 0 -24 -4 -24 -10 0 -5 -12 -10 -27 -10
-16 0 -37 -7 -47 -15 -11 -8 -30 -15 -42 -15 -12 0 -24 -3 -26 -7 -1 -5 -37
-20 -78 -35 -125 -44 -144 -51 -177 -65 -52 -22 -60 -18 -66 35 -3 26 -1 51 3
56 12 12 150 66 170 66 8 0 24 7 34 15 11 8 28 15 38 15 10 0 26 4 36 9 43 23
92 41 110 41 11 0 22 3 24 8 4 10 87 39 115 41 13 0 40 -5 60 -13z m-783 -272
c3 -9 6 -32 6 -53 0 -36 -2 -38 -53 -59 -29 -12 -62 -22 -75 -22 -12 0 -22 -4
-22 -10 0 -5 -9 -10 -19 -10 -17 0 -114 -36 -161 -59 -8 -4 -42 -16 -75 -26
-33 -10 -64 -22 -69 -27 -6 -4 -19 -8 -31 -8 -12 0 -26 -5 -32 -11 -14 -14
-194 -31 -206 -20 -13 12 93 97 138 111 40 12 97 35 125 50 9 4 31 11 50 15
19 4 41 11 50 15 25 12 62 27 115 45 28 9 59 20 70 25 11 5 43 16 70 26 28 9
54 21 60 26 15 14 52 9 59 -8z m1532 1 c16 -8 37 -15 46 -15 9 0 20 -4 23 -10
3 -5 17 -10 31 -10 13 0 24 -3 24 -7 0 -5 30 -17 66 -28 36 -11 68 -23 70 -27
3 -5 13 -8 23 -8 10 0 32 -7 47 -15 16 -8 37 -15 47 -15 9 0 17 -4 17 -10 0
-5 7 -10 16 -10 34 0 163 -53 191 -78 17 -15 43 -37 59 -49 15 -13 26 -23 24
-24 -3 0 -36 -2 -75 -3 -68 -2 -176 22 -199 45 -6 5 -19 9 -30 9 -22 0 -147
49 -156 61 -3 4 -24 10 -47 14 -24 4 -45 11 -49 16 -3 5 -16 9 -29 9 -13 0
-26 4 -29 9 -3 4 -24 11 -46 15 -22 3 -40 11 -40 16 0 6 -8 10 -17 10 -10 0
-27 7 -38 16 -16 12 -18 18 -7 34 6 11 12 31 12 45 0 30 22 33 66 10z m-1825
-306 c24 -22 55 -48 69 -57 30 -20 70 -55 118 -99 18 -18 37 -33 41 -33 4 0
34 -25 66 -55 31 -30 61 -55 66 -55 24 0 48 -46 54 -103 4 -34 12 -68 18 -75
5 -7 7 -15 4 -18 -6 -6 -69 38 -102 72 -11 11 -38 33 -59 50 -22 16 -49 38
-61 49 -49 46 -149 131 -164 139 -8 5 -25 19 -37 30 -12 12 -56 48 -97 81 -42
33 -76 63 -76 66 -1 5 93 46 110 48 3 1 25 -17 50 -40z m2177 14 c29 -12 44
-33 24 -33 -5 0 -22 -12 -40 -27 -44 -39 -121 -105 -144 -123 -10 -8 -31 -25
-46 -37 -15 -13 -30 -23 -34 -23 -5 0 -8 -6 -8 -13 0 -7 -12 -20 -27 -29 -16
-9 -37 -25 -48 -35 -58 -52 -144 -123 -150 -123 -4 0 -22 -16 -42 -36 -19 -20
-37 -33 -41 -30 -3 4 -1 27 6 51 7 25 12 57 12 72 0 27 9 38 94 106 21 18 48
41 60 52 32 30 87 76 131 110 21 17 68 56 103 87 70 62 74 62 150 31z m-2583
-105 c19 -29 35 -63 35 -75 0 -13 4 -23 9 -23 4 0 11 -21 15 -47 3 -27 13 -84
21 -128 8 -44 19 -111 25 -148 5 -38 12 -72 15 -76 2 -5 6 -29 6 -55 1 -25 6
-46 10 -46 4 0 11 -36 15 -80 3 -44 11 -83 15 -86 5 -3 9 -20 9 -37 0 -18 9
-81 20 -142 11 -60 16 -113 11 -118 -4 -4 -17 -8 -27 -7 -10 0 -31 1 -46 2
-29 0 -37 21 -59 163 -6 39 -15 93 -19 120 -5 28 -16 91 -25 140 -9 50 -20
113 -25 140 -4 28 -15 93 -25 145 -9 52 -18 113 -21 135 -3 22 -10 50 -16 61
-9 20 -7 76 8 172 3 23 8 42 10 42 2 0 19 -24 39 -52z m2914 -10 c16 -77 16
-84 -4 -183 -9 -44 -20 -107 -25 -140 -5 -33 -14 -82 -20 -110 -6 -27 -15 -88
-21 -135 -6 -47 -15 -93 -20 -103 -5 -9 -10 -40 -10 -67 -1 -28 -6 -53 -10
-56 -5 -3 -9 -22 -9 -43 0 -21 -3 -41 -7 -45 -5 -4 -9 -17 -11 -29 -1 -12 -5
-49 -10 -82 l-7 -60 -59 -2 -58 -3 5 33 c3 17 13 73 22 122 10 50 21 115 26
145 4 30 15 96 24 145 9 50 20 115 24 145 5 30 11 64 14 75 3 11 13 63 22 115
9 52 21 120 26 150 12 58 38 120 51 120 5 0 8 9 8 20 0 11 5 20 10 20 6 0 10
7 10 15 0 8 4 15 8 15 5 0 14 -28 21 -62z m-2983 -335 c4 -25 2 -43 -3 -43 -6
0 -18 -19 -29 -42 -10 -24 -21 -45 -24 -48 -10 -10 -76 -115 -82 -131 -4 -9
-27 -48 -52 -88 -25 -39 -46 -74 -46 -77 0 -3 -16 -30 -35 -60 -19 -30 -35
-58 -35 -62 0 -12 -56 -42 -77 -42 -10 0 -36 -9 -58 -20 -22 -11 -41 -20 -42
-20 -8 0 -1 20 10 32 7 7 16 20 20 28 8 17 30 53 37 60 5 5 25 38 49 84 9 17
19 35 24 40 4 6 30 49 59 96 28 47 59 99 70 115 10 17 21 38 24 48 4 9 10 17
15 17 5 0 9 7 9 15 0 8 5 15 10 15 6 0 10 5 10 10 0 6 15 34 33 63 18 29 36
59 41 67 7 16 25 46 41 70 10 15 16 -9 31 -127z m248 122 c15 -8 37 -15 47
-15 11 0 19 -4 19 -10 0 -5 10 -10 23 -10 12 -1 33 -7 47 -15 14 -8 35 -14 48
-15 12 0 22 -4 22 -10 0 -5 11 -10 24 -10 14 0 28 -4 31 -10 3 -5 14 -10 23
-10 9 0 30 -7 46 -15 15 -8 35 -15 42 -15 14 0 23 -4 81 -34 17 -9 40 -16 50
-16 11 0 23 -3 27 -7 4 -4 31 -15 59 -24 28 -9 52 -20 54 -25 2 -5 -18 -17
-45 -27 -26 -10 -55 -23 -65 -28 -21 -11 -95 10 -177 51 -9 4 -31 11 -50 15
-19 4 -41 11 -50 16 -8 4 -60 24 -115 44 -55 20 -109 41 -120 46 -11 5 -32 13
-47 19 -20 7 -28 16 -28 34 0 13 -3 38 -6 55 -5 26 -3 31 12 31 11 0 32 -7 48
-15z m2566 -14 c0 -17 -4 -32 -9 -35 -5 -3 -7 -15 -4 -25 6 -22 -39 -47 -137
-76 -30 -9 -72 -25 -93 -36 -22 -10 -49 -19 -61 -19 -12 0 -26 -4 -31 -9 -6
-4 -35 -16 -65 -25 -30 -9 -64 -21 -75 -26 -11 -5 -37 -16 -58 -26 -29 -13
-43 -14 -60 -6 -12 6 -46 18 -74 28 -60 20 -66 32 -23 41 17 3 33 10 36 14 3
5 14 9 25 9 10 0 27 4 37 9 9 5 51 21 92 36 41 14 82 30 90 34 9 5 31 12 50
16 19 4 41 11 50 15 23 12 60 26 115 45 28 10 68 26 90 36 39 17 66 25 93 28
7 1 12 -11 12 -28z m231 -1 c5 0 9 -4 9 -10 0 -5 21 -42 46 -81 25 -39 50 -81
55 -93 5 -11 29 -52 54 -91 25 -38 49 -80 54 -91 5 -12 29 -53 53 -90 25 -38
47 -76 51 -84 8 -17 24 -43 53 -85 33 -49 65 -107 61 -112 -2 -2 -25 6 -51 17
-26 11 -56 20 -67 20 -10 0 -19 5 -19 10 0 6 -7 10 -15 10 -8 0 -15 7 -15 15
0 8 -4 15 -10 15 -5 0 -10 7 -10 15 0 8 -4 15 -8 15 -5 0 -17 20 -28 45 -10
25 -22 45 -26 45 -4 0 -8 5 -8 11 0 6 -11 25 -24 42 -13 18 -36 54 -50 81 -15
27 -43 73 -62 103 -18 29 -34 58 -34 63 0 6 -4 10 -9 10 -5 0 -12 12 -15 26
-4 15 -14 33 -22 41 -11 11 -13 28 -8 66 7 66 27 129 32 105 2 -10 8 -18 13
-18z m-3280 -1047 c18 -20 36 -35 94 -78 22 -16 65 -51 95 -76 30 -25 66 -55
79 -65 13 -11 42 -35 65 -54 23 -19 55 -44 70 -55 51 -36 76 -69 76 -100 0
-16 5 -47 11 -68 14 -52 4 -58 -32 -19 -16 18 -33 32 -38 32 -4 0 -16 8 -27
19 -11 10 -53 44 -93 75 -89 68 -154 122 -191 159 -16 15 -32 27 -37 27 -4 0
-30 20 -58 45 -27 25 -52 45 -56 45 -3 0 -22 14 -40 30 -36 33 -72 61 -104 85
-18 13 -11 14 75 15 79 0 98 -3 111 -17z m564 8 c3 -6 8 -46 12 -91 3 -44 10
-83 15 -86 4 -3 8 -22 8 -43 0 -21 4 -51 10 -67 5 -16 19 -85 30 -154 12 -69
24 -138 27 -153 8 -43 -17 -177 -32 -171 -7 3 -16 13 -19 22 -3 9 -17 32 -30
50 -14 19 -28 54 -31 80 -3 26 -10 67 -15 92 -5 25 -16 88 -25 140 -9 52 -24
129 -32 170 -8 41 -16 86 -18 100 -2 13 -7 46 -10 72 l-7 48 55 0 c31 0 58 -4
62 -9z m679 -29 c-23 -20 -51 -44 -62 -52 -12 -9 -36 -29 -54 -46 -18 -16 -76
-64 -128 -107 -108 -90 -178 -149 -226 -192 -18 -16 -43 -38 -56 -48 l-23 -18
-14 60 -14 60 27 23 c15 13 38 33 51 46 13 12 27 22 30 22 3 0 23 18 45 40 22
22 44 40 48 40 5 0 27 17 49 38 22 20 57 51 77 67 21 17 56 47 79 67 41 37 43
37 127 37 l85 0 -41 -37z m1142 10 c18 -15 43 -36 56 -47 28 -22 101 -82 128
-105 9 -8 36 -31 60 -50 23 -19 56 -49 74 -65 17 -17 48 -43 68 -59 31 -23 36
-31 28 -46 -6 -10 -10 -32 -10 -49 0 -16 -5 -33 -10 -36 -13 -8 -55 18 -96 59
-17 17 -56 50 -87 74 -31 23 -57 46 -57 50 0 4 -12 15 -27 24 -16 9 -37 25
-48 35 -11 10 -49 43 -85 73 -36 30 -67 57 -70 60 -3 4 -33 29 -68 58 l-63 52
88 0 c81 0 90 -2 119 -28z m622 -69 c-37 -195 -58 -319 -58 -350 0 -18 -4 -33
-10 -33 -5 0 -10 -15 -10 -33 0 -66 -24 -153 -58 -210 -20 -33 -39 -54 -44
-49 -4 4 -13 36 -19 70 -9 49 -8 77 4 139 9 43 24 132 33 198 10 66 21 122 25
125 4 3 9 28 12 55 3 28 8 66 12 85 3 19 8 50 11 68 5 32 5 32 63 32 l58 0
-19 -97z m621 65 c-24 -18 -50 -40 -57 -50 -7 -10 -18 -18 -24 -18 -5 0 -31
-20 -56 -45 -25 -25 -49 -45 -53 -45 -5 0 -19 -11 -33 -25 -14 -14 -28 -25
-32 -25 -3 0 -21 -12 -39 -27 -18 -16 -56 -48 -85 -73 -29 -25 -62 -52 -74
-60 -12 -8 -25 -19 -31 -25 -5 -6 -28 -24 -50 -40 -39 -29 -54 -41 -97 -77
-28 -24 -28 -23 -22 15 16 103 27 134 53 150 14 9 42 31 61 49 20 18 62 53 94
77 32 24 66 51 75 60 9 9 35 29 56 46 22 16 45 34 51 40 7 5 31 26 54 45 23
19 47 40 54 47 7 8 45 12 105 13 l95 0 -45 -32z m-2289 -48 c0 -16 5 -50 12
-75 11 -40 10 -50 -7 -82 -11 -20 -25 -41 -30 -47 -6 -6 -16 -22 -22 -36 -7
-14 -29 -52 -48 -85 -19 -33 -38 -68 -41 -77 -4 -10 -10 -18 -14 -18 -4 0 -11
-11 -14 -25 -4 -14 -11 -25 -16 -25 -6 0 -10 -7 -10 -17 0 -9 -11 -31 -25 -49
-14 -18 -25 -36 -25 -39 0 -4 -9 -20 -20 -35 -19 -27 -25 -29 -80 -27 -33 1
-59 4 -58 7 3 5 76 133 97 170 5 8 28 46 50 83 23 38 41 72 41 78 0 5 4 9 9 9
5 0 11 8 14 18 3 9 20 42 38 72 42 74 73 128 95 169 37 69 54 78 54 31z m838
-20 c12 -27 28 -55 35 -62 7 -7 21 -31 32 -53 10 -22 32 -59 47 -82 15 -23 28
-46 28 -52 0 -5 6 -16 13 -23 6 -7 21 -30 31 -51 11 -20 23 -37 28 -37 4 0 8
-9 8 -20 0 -11 4 -20 9 -20 5 0 12 -11 15 -25 4 -14 11 -25 16 -25 6 0 10 -5
10 -12 0 -6 18 -42 40 -79 22 -37 40 -70 40 -72 0 -3 -29 -5 -64 -5 l-64 0
-31 56 c-50 92 -89 159 -123 215 -18 29 -42 70 -53 92 -11 22 -22 42 -25 45
-3 3 -10 14 -16 25 -6 11 -19 34 -29 51 -17 30 -17 35 -1 108 10 42 20 76 24
76 4 0 17 -22 30 -50z m-718 -680 c5 -8 10 -32 10 -52 l0 -38 -336 0 c-312 0
-340 2 -400 21 -72 23 -82 43 -26 54 20 4 42 10 47 15 19 15 52 17 373 16 275
-1 324 -3 332 -16z m1245 5 c17 -7 47 -19 68 -25 47 -15 41 -21 -42 -49 -63
-20 -82 -21 -557 -21 l-492 0 -11 31 c-6 18 -11 42 -11 54 l0 22 508 1 c403 0
513 -2 537 -13z m-1685 -145 c57 0 69 -3 96 -27 17 -16 64 -57 104 -93 41 -36
85 -75 97 -87 13 -13 27 -23 30 -23 3 0 18 -12 34 -27 15 -16 46 -44 69 -63
111 -95 118 -105 136 -228 l6 -44 -28 24 c-16 13 -46 40 -68 61 -21 20 -42 37
-45 37 -4 0 -35 27 -71 60 -36 33 -67 60 -70 60 -3 0 -30 24 -61 53 -30 28
-77 70 -103 91 -27 22 -66 57 -87 78 -20 21 -40 38 -44 38 -3 0 -16 10 -29 23
-13 12 -35 31 -50 41 -32 23 -34 40 -3 32 12 -3 51 -6 87 -6z m1533 -7 c-3 -7
-9 -13 -13 -13 -5 0 -39 -28 -77 -62 -38 -35 -91 -81 -118 -103 -26 -22 -67
-58 -91 -80 -24 -22 -56 -50 -71 -62 -15 -12 -55 -47 -88 -78 -82 -76 -104
-95 -112 -95 -3 0 -26 -20 -49 -44 -46 -48 -60 -43 -43 16 5 18 9 47 9 64 0
38 17 56 180 194 14 11 51 44 84 73 32 29 67 59 78 67 11 8 39 33 63 55 76 70
82 74 137 77 101 6 116 5 111 -9z"/>
<path d="M5958 3293 c7 -3 16 -2 19 1 4 3 -2 6 -13 5 -11 0 -14 -3 -6 -6z"/>
</g>
</svg>
