<?xml version="1.0" standalone="no"?>
<!DOCTYPE svg PUBLIC "-//W3C//DTD SVG 20010904//EN"
 "http://www.w3.org/TR/2001/REC-SVG-20010904/DTD/svg10.dtd">
<svg version="1.0" xmlns="http://www.w3.org/2000/svg"
 width="1024.000000pt" height="1024.000000pt" viewBox="0 0 1024.000000 1024.000000"
 preserveAspectRatio="xMidYMid meet">

<g transform="translate(0.000000,1024.000000) scale(0.100000,-0.100000)"
fill="#000000" stroke="none">
<path d="M7115 10015 c-22 -7 -65 -24 -95 -38 -30 -14 -79 -33 -107 -43 -29
-10 -53 -22 -53 -25 0 -4 -18 -10 -40 -14 -22 -4 -40 -11 -40 -16 0 -5 -8 -9
-17 -9 -10 -1 -36 -9 -58 -20 -22 -11 -48 -19 -57 -20 -10 0 -18 -4 -18 -9 0
-5 -16 -12 -35 -15 -19 -4 -35 -11 -35 -16 0 -6 -5 -10 -12 -10 -15 0 -202
-93 -206 -102 -2 -5 -8 -8 -13 -8 -9 0 -65 -36 -79 -50 -3 -3 -27 -23 -55 -45
-82 -65 -123 -105 -167 -164 -24 -31 -53 -67 -65 -80 -30 -31 -93 -126 -93
-140 0 -6 -4 -11 -9 -11 -5 0 -12 -13 -16 -30 -4 -16 -10 -30 -15 -30 -5 0
-11 -13 -15 -30 -4 -16 -10 -30 -15 -30 -5 0 -11 -13 -15 -30 -4 -16 -10 -30
-15 -30 -5 0 -11 -13 -15 -30 -4 -16 -10 -30 -15 -30 -5 0 -11 -13 -15 -30 -4
-16 -11 -30 -16 -30 -5 0 -9 -6 -9 -12 0 -7 -8 -26 -17 -43 -24 -45 -25 -225
0 -252 9 -11 17 -25 17 -31 0 -7 4 -12 9 -12 5 0 12 -8 15 -18 4 -10 19 -32
35 -48 15 -16 40 -48 54 -71 15 -23 36 -50 47 -61 28 -26 16 -48 -31 -56 -21
-3 -39 -11 -39 -16 0 -6 -6 -10 -12 -10 -7 0 -25 -7 -40 -14 -16 -8 -48 -18
-73 -22 -25 -3 -47 -10 -50 -14 -3 -5 -23 -11 -45 -15 -22 -4 -40 -11 -40 -16
0 -5 -7 -9 -16 -9 -21 0 -273 -117 -284 -132 -3 -3 -18 -10 -33 -13 -15 -4
-27 -11 -27 -15 0 -5 -13 -11 -30 -15 -16 -4 -30 -11 -30 -16 0 -5 -4 -9 -9
-9 -10 0 -161 -71 -201 -94 -14 -8 -74 -39 -135 -68 -60 -29 -112 -56 -115
-59 -3 -4 -16 -10 -30 -14 -14 -4 -27 -11 -30 -14 -7 -9 -164 -81 -177 -81 -6
0 -13 -6 -16 -12 -5 -16 -140 -14 -145 2 -2 5 -13 10 -25 10 -12 1 -40 9 -62
20 -22 11 -46 19 -52 20 -7 0 -13 4 -13 9 0 5 -13 12 -30 16 -17 4 -30 11 -30
16 0 5 -5 9 -11 9 -5 0 -31 10 -57 23 -42 20 -62 22 -197 22 -136 0 -155 -2
-200 -23 -83 -39 -180 -87 -185 -92 -6 -6 -19 -14 -112 -70 -36 -22 -85 -58
-109 -80 -24 -22 -46 -40 -50 -40 -7 0 -30 -18 -86 -67 -14 -13 -30 -23 -36
-23 -12 0 -157 -146 -157 -158 0 -5 -42 -52 -92 -104 -104 -107 -122 -127
-158 -181 -14 -20 -28 -37 -32 -37 -5 0 -8 -6 -8 -13 0 -7 -9 -20 -20 -30 -11
-9 -20 -24 -20 -32 0 -8 -4 -15 -9 -15 -10 0 -103 -187 -122 -245 -7 -22 -16
-44 -20 -50 -3 -5 -10 -32 -14 -60 -4 -27 -11 -53 -16 -56 -6 -3 -13 -38 -16
-76 -5 -63 -3 -76 18 -110 28 -47 46 -63 96 -89 21 -10 40 -21 43 -24 3 -3 28
-16 55 -30 28 -14 52 -28 55 -31 3 -3 20 -14 38 -24 17 -11 32 -26 32 -33 0
-8 -73 -87 -163 -176 -181 -179 -206 -201 -236 -211 -12 -3 -21 -11 -21 -16 0
-5 -6 -9 -14 -9 -8 0 -21 -6 -28 -14 -8 -7 -24 -17 -36 -20 -12 -4 -22 -12
-22 -17 0 -5 -6 -9 -13 -9 -8 0 -24 -9 -37 -20 -13 -11 -27 -20 -32 -20 -5 0
-19 -9 -31 -20 -12 -12 -55 -37 -97 -57 -41 -19 -82 -39 -90 -43 -9 -4 -31
-11 -50 -15 -19 -4 -39 -11 -45 -15 -5 -4 -26 -11 -45 -15 -19 -4 -41 -11 -50
-16 -30 -17 -109 -49 -119 -49 -6 0 -11 -4 -11 -9 0 -5 -13 -12 -30 -16 -16
-4 -30 -11 -30 -16 0 -5 -7 -9 -15 -9 -8 0 -15 -4 -15 -10 0 -5 -6 -10 -13
-10 -8 0 -22 -9 -32 -20 -10 -11 -22 -20 -27 -20 -16 0 -89 -63 -197 -171 -80
-79 -115 -122 -139 -171 -17 -36 -32 -71 -32 -77 0 -6 -4 -11 -9 -11 -5 0 -12
-13 -16 -30 -4 -16 -10 -30 -15 -30 -5 0 -12 -14 -15 -32 -4 -18 -11 -39 -16
-48 -66 -127 -249 -511 -249 -523 0 -9 -4 -17 -10 -17 -5 0 -10 -8 -10 -17 -1
-10 -9 -36 -20 -58 -11 -22 -19 -45 -20 -52 0 -6 -11 -33 -24 -60 -13 -26 -39
-79 -57 -118 -19 -38 -37 -71 -41 -73 -5 -2 -8 -8 -8 -13 0 -9 -15 -46 -56
-136 -8 -17 -14 -38 -14 -47 0 -9 -4 -16 -10 -16 -5 0 -10 -8 -10 -17 0 -10
-7 -31 -15 -47 -8 -16 -18 -46 -21 -67 -4 -22 -10 -39 -14 -39 -5 0 -11 -18
-15 -40 -4 -22 -11 -42 -16 -46 -5 -3 -9 -15 -9 -27 0 -12 -7 -35 -15 -51 -8
-15 -15 -34 -15 -42 0 -7 -6 -28 -14 -46 -8 -18 -22 -51 -31 -73 -9 -22 -20
-47 -24 -55 -5 -9 -12 -31 -16 -50 -4 -19 -11 -37 -16 -41 -43 -27 -43 -411 0
-438 5 -4 12 -22 16 -41 4 -19 11 -41 16 -50 4 -8 15 -32 24 -52 8 -21 22 -53
30 -72 8 -19 15 -41 15 -50 0 -9 4 -24 9 -34 6 -9 20 -51 31 -92 12 -41 28
-89 36 -107 8 -17 14 -38 14 -46 0 -9 4 -18 9 -21 5 -3 12 -21 15 -40 6 -31
23 -75 47 -118 5 -10 9 -23 9 -30 1 -7 9 -31 20 -53 11 -22 19 -45 20 -51 0
-5 11 -34 25 -62 14 -29 25 -55 25 -59 0 -13 214 -438 222 -441 5 -2 8 -9 8
-15 0 -7 33 -47 73 -89 94 -99 127 -138 127 -148 0 -11 108 -120 150 -152 59
-44 105 -45 310 -4 41 8 102 20 135 27 83 16 154 64 198 132 15 23 17 40 12
85 -3 32 -9 156 -13 278 -4 137 -11 226 -18 235 -6 8 -14 41 -18 73 -4 33 -10
64 -15 70 -5 6 -11 25 -14 41 -36 182 -60 293 -69 315 -4 8 -11 44 -17 80 -24
151 -35 205 -41 210 -4 3 -11 37 -15 75 -4 39 -10 75 -15 80 -4 6 -10 46 -14
90 -4 44 -11 84 -15 90 -5 5 -11 58 -14 118 -3 59 -9 113 -15 120 -5 6 -12 47
-15 89 -4 43 -11 86 -16 95 -6 10 -13 44 -16 75 -4 32 -11 60 -16 63 -5 4 -9
21 -9 40 0 19 -4 37 -10 40 -5 3 -9 31 -9 62 2 48 6 61 31 85 16 15 33 28 38
28 6 0 10 3 10 8 0 8 91 52 109 52 6 0 11 4 11 9 0 5 25 13 55 16 30 4 58 11
61 16 10 16 88 9 111 -10 21 -18 21 -23 25 -384 2 -276 6 -369 15 -379 9 -8
13 -48 13 -124 0 -62 5 -125 11 -141 6 -15 14 -95 18 -178 3 -82 10 -156 14
-162 4 -7 12 -54 17 -105 5 -51 14 -113 19 -138 6 -25 10 -84 11 -132 0 -49 4
-88 9 -88 5 0 12 -33 16 -73 4 -39 11 -77 15 -82 5 -6 12 -46 16 -90 4 -44 10
-85 15 -90 4 -6 11 -39 15 -75 3 -36 10 -69 14 -75 4 -5 11 -29 15 -52 4 -24
10 -43 15 -43 4 0 10 -19 14 -42 4 -23 10 -47 14 -53 4 -5 16 -35 26 -65 19
-58 40 -116 62 -165 7 -16 20 -46 28 -67 9 -20 16 -43 16 -52 0 -9 4 -16 9
-16 5 0 12 -14 16 -30 4 -17 10 -30 15 -30 5 0 11 -13 15 -30 4 -16 11 -30 16
-30 5 0 9 -6 9 -12 1 -7 9 -31 20 -53 11 -22 19 -48 20 -57 0 -10 3 -18 8 -18
4 0 13 -14 21 -30 7 -17 23 -37 35 -43 29 -17 1736 -6 1841 12 96 17 968 11
1008 -7 22 -9 46 -9 117 4 49 8 100 21 113 27 39 20 85 72 93 103 4 16 10 34
14 39 4 6 11 29 15 52 4 24 11 45 16 49 5 3 9 14 9 24 0 10 11 40 24 67 43 86
66 142 66 157 0 9 4 16 9 16 5 0 12 18 16 40 4 22 10 40 15 40 4 0 11 17 15
38 4 20 10 42 15 47 4 6 11 33 15 60 4 28 10 55 15 60 4 6 11 33 15 60 4 28
10 55 13 60 11 16 32 150 41 260 5 55 14 113 20 128 6 16 11 61 11 100 0 40 5
90 11 112 6 22 15 88 19 147 5 59 13 116 19 127 7 13 11 144 11 383 0 270 3
367 12 376 7 7 24 12 38 12 14 0 31 5 36 10 7 7 54 10 120 8 l109 -3 -3 -155
c-2 -85 -7 -159 -12 -165 -4 -5 -11 -46 -15 -90 -4 -44 -10 -84 -14 -90 -9
-14 -30 -115 -44 -210 -7 -44 -15 -84 -18 -90 -4 -5 -10 -40 -14 -77 -3 -37
-11 -70 -16 -73 -5 -4 -9 -17 -9 -30 0 -13 -6 -25 -12 -27 -10 -4 -13 -58 -13
-228 0 -170 3 -224 13 -227 6 -3 12 -15 12 -28 0 -13 5 -25 10 -27 6 -2 14
-63 19 -138 16 -231 34 -288 115 -348 45 -33 58 -37 135 -43 47 -4 113 -13
146 -19 81 -16 229 -8 250 14 9 9 21 16 26 16 29 0 97 100 127 185 30 86 48
127 69 155 10 14 29 46 43 73 13 26 28 47 31 47 4 0 10 11 13 25 4 14 10 25
15 25 5 0 12 14 16 30 4 17 10 30 15 30 5 0 11 14 15 30 4 17 11 30 16 30 5 0
9 4 9 9 0 11 69 133 80 141 12 9 70 136 70 153 0 9 4 17 9 17 6 0 13 20 17 45
3 25 10 45 14 45 4 0 11 20 14 45 4 25 11 45 15 45 5 0 12 20 15 45 4 25 11
45 15 45 5 0 11 10 14 23 3 12 15 47 27 77 11 30 32 91 46 135 14 44 29 88 35
97 5 10 9 27 9 38 0 11 4 20 9 20 6 0 13 20 17 45 3 25 10 45 14 45 4 0 11 20
14 45 4 25 11 45 15 45 5 0 12 20 15 45 4 25 11 45 17 45 5 0 9 9 9 19 0 11 6
26 13 33 8 7 19 22 25 33 7 14 30 25 72 34 57 13 71 12 169 -8 58 -12 120 -25
136 -28 17 -3 35 -9 40 -13 15 -11 161 -22 198 -14 38 7 122 100 132 145 4 16
10 29 15 29 4 0 11 17 15 37 4 21 10 40 13 43 8 6 62 140 91 226 11 34 32 86
46 117 14 31 25 65 25 76 0 12 4 21 9 21 6 0 13 20 17 45 3 25 10 45 14 45 4
0 10 18 14 40 3 23 11 49 16 58 9 16 17 50 40 162 6 25 14 54 19 65 20 47 40
135 46 200 3 39 10 74 16 80 5 5 9 47 9 95 1 47 6 105 11 130 6 25 13 69 16
98 3 28 9 52 14 52 5 0 9 9 9 20 0 20 28 66 60 99 22 23 130 105 168 126 17
11 32 23 32 27 0 4 5 8 11 8 6 0 21 8 34 18 12 9 33 24 45 32 12 8 32 23 43
33 12 11 48 40 81 65 90 72 149 121 167 137 9 8 21 15 27 15 7 0 12 3 12 8 0
4 17 18 37 32 46 31 72 52 137 112 28 26 54 48 58 48 4 0 20 12 37 28 16 15
46 43 67 63 62 57 114 122 121 149 3 14 11 31 16 38 16 20 20 178 7 247 -6 33
-15 89 -21 125 -5 36 -14 72 -19 81 -4 8 -11 46 -15 82 -4 37 -11 69 -15 72
-5 3 -11 40 -15 83 -3 42 -10 86 -15 97 -5 11 -11 36 -15 55 -22 135 -37 238
-45 320 -5 52 -16 117 -25 144 -8 27 -15 60 -15 73 0 12 -4 23 -9 23 -5 0 -12
25 -16 55 -3 30 -10 55 -15 55 -4 0 -11 20 -14 45 -4 25 -11 45 -16 45 -4 0
-11 22 -15 50 -4 27 -11 52 -16 56 -5 3 -9 16 -9 30 0 62 -70 161 -155 220
-17 11 -124 67 -240 124 -115 57 -212 106 -215 110 -3 4 -13 9 -22 13 -10 3
-64 37 -120 75 -164 110 -246 162 -257 162 -5 0 -11 3 -13 8 -1 4 -25 18 -53
32 -27 14 -55 30 -61 35 -6 6 -28 19 -50 30 -21 11 -41 22 -44 25 -3 3 -27 16
-55 28 -27 13 -71 40 -97 60 -42 31 -49 43 -59 91 -7 31 -17 62 -23 70 -6 8
-13 89 -17 190 -5 158 -22 287 -40 301 -3 3 -9 22 -13 43 -4 20 -11 37 -16 37
-4 0 -11 14 -15 30 -4 17 -10 30 -15 30 -5 0 -11 14 -15 30 -4 17 -11 30 -16
30 -5 0 -9 5 -9 12 0 6 -20 44 -45 84 -25 39 -45 75 -45 79 0 4 -13 27 -30 52
-16 24 -30 48 -30 54 0 5 -3 9 -7 9 -5 0 -19 17 -33 38 -28 42 -33 48 -61 82
-12 14 -29 36 -38 50 -21 32 -45 61 -103 124 -26 28 -48 54 -48 57 -1 24 -286
309 -309 309 -4 0 -28 18 -52 41 -52 48 -88 69 -149 86 -55 15 -74 15 -125 -2z
m55 -3235 c0 -5 -4 -10 -10 -10 -5 0 -10 5 -10 10 0 6 5 10 10 10 6 0 10 -4
10 -10z m38 -1 c-2 -6 -8 -10 -13 -10 -5 0 -11 4 -13 10 -2 6 4 11 13 11 9 0
15 -5 13 -11z m49 -26 c-3 -10 -5 -4 -5 12 0 17 2 24 5 18 2 -7 2 -21 0 -30z
m273 27 c0 -5 -5 -10 -11 -10 -5 0 -7 5 -4 10 3 6 8 10 11 10 2 0 4 -4 4 -10z
m35 0 c3 -5 1 -10 -4 -10 -6 0 -11 5 -11 10 0 6 2 10 4 10 3 0 8 -4 11 -10z
m92 -3 c3 -4 -5 -7 -20 -7 -16 0 -27 -7 -30 -17 -3 -12 -5 -10 -6 7 -1 21 3
25 24 25 14 -1 28 -5 32 -8z m-510 -59 c-3 -7 -5 -2 -5 12 0 14 2 19 5 13 2
-7 2 -19 0 -25z m211 25 c-16 -2 -40 -2 -55 0 -16 2 -3 4 27 4 30 0 43 -2 28
-4z m-328 -14 c0 -6 -7 -9 -15 -5 -9 3 -15 0 -15 -9 0 -8 -4 -15 -10 -15 -14
0 -13 13 2 28 15 15 38 16 38 1z m145 -33 c-4 -20 -11 -34 -15 -31 -4 2 -2 20
4 39 13 44 19 39 11 -8z m62 12 c-3 -8 -6 -5 -6 6 -1 11 2 17 5 13 3 -3 4 -12
1 -19z m36 -8 c3 -11 1 -20 -4 -20 -5 0 -9 9 -9 20 0 11 2 20 4 20 2 0 6 -9 9
-20z m-236 -12 c-3 -8 -6 -5 -6 6 -1 11 2 17 5 13 3 -3 4 -12 1 -19z m490 0
c-3 -8 -6 -5 -6 6 -1 11 2 17 5 13 3 -3 4 -12 1 -19z m103 18 c0 -3 -4 -8 -10
-11 -5 -3 -10 -1 -10 4 0 6 5 11 10 11 6 0 10 -2 10 -4z m-623 -38 c-3 -8 -6
-5 -6 6 -1 11 2 17 5 13 3 -3 4 -12 1 -19z m600 -10 c-3 -8 -6 -5 -6 6 -1 11
2 17 5 13 3 -3 4 -12 1 -19z m-490 -20 c-3 -7 -5 -2 -5 12 0 14 2 19 5 13 2
-7 2 -19 0 -25z m-48 -28 c0 -9 -4 -8 -9 5 -5 11 -9 27 -9 35 0 9 4 8 9 -5 5
-11 9 -27 9 -35z m78 8 c-3 -7 -5 -2 -5 12 0 14 2 19 5 13 2 -7 2 -19 0 -25z
m220 26 c-9 -9 -117 -10 -117 -1 0 4 28 7 62 7 34 0 59 -3 55 -6z m-130 -36
c-3 -8 -6 -5 -6 6 -1 11 2 17 5 13 3 -3 4 -12 1 -19z m-147 -25 c-11 -17 -11
-17 -6 0 3 10 6 24 7 30 0 9 2 9 5 0 3 -7 0 -20 -6 -30z m31 -29 c-5 -16 -10
-21 -10 -12 -1 18 10 51 15 45 2 -1 -1 -16 -5 -33z m426 14 c-3 -8 -6 -5 -6 6
-1 11 2 17 5 13 3 -3 4 -12 1 -19z m-57 2 c0 -5 -5 -10 -11 -10 -5 0 -7 5 -4
10 3 6 8 10 11 10 2 0 4 -4 4 -10z m-313 -40 c-3 -10 0 -21 7 -24 6 -2 1 -5
-11 -5 -19 -1 -20 1 -10 24 14 30 21 33 14 5z m53 10 c0 -5 -2 -10 -4 -10 -3
0 -8 5 -11 10 -3 6 -1 10 4 10 6 0 11 -4 11 -10z m513 -7 c-7 -3 -13 -11 -13
-18 0 -11 -26 -14 -111 -17 -61 -2 -113 0 -116 5 -2 4 46 7 106 7 67 0 111 4
111 10 0 6 -34 10 -81 10 -44 0 -78 3 -76 8 3 4 47 5 99 3 51 -2 87 -5 81 -8z
m-273 -13 c0 -13 -6 -20 -17 -19 -11 0 -13 3 -5 6 6 2 12 11 12 19 0 8 2 14 5
14 3 0 5 -9 5 -20z m-371 -3 c13 5 13 3 4 -7 -13 -15 -43 -7 -43 12 0 9 3 9
11 1 6 -6 19 -9 28 -6z m224 -14 c-24 -2 -62 -2 -85 0 -24 2 -5 4 42 4 47 0
66 -2 43 -4z m-3748 -1695 c-10 -31 -20 -40 -40 -36 -15 3 -15 6 5 31 26 33
44 35 35 5z m-90 -28 c-9 -15 -75 -8 -75 9 0 8 7 11 19 8 12 -3 22 1 25 10 5
13 8 12 22 -1 8 -9 12 -20 9 -26z m-365 9 c0 -5 6 -9 14 -9 9 0 12 -7 9 -20
-5 -17 0 -19 40 -17 43 3 67 17 80 47 5 11 6 9 6 -5 -2 -42 1 -45 41 -45 22 0
40 -4 40 -10 0 -9 -15 -14 -34 -11 -18 4 -46 -11 -46 -25 0 -8 10 -14 26 -14
19 0 25 -4 21 -15 -4 -8 -1 -17 5 -21 7 -4 8 -3 4 4 -4 7 -3 12 3 12 6 0 13
11 17 25 7 28 22 33 30 10 4 -10 15 -13 39 -9 18 3 36 1 39 -5 3 -5 15 -7 26
-4 14 4 20 0 20 -11 0 -10 8 -16 23 -16 18 0 19 2 7 10 -11 8 -12 12 -3 18 8
5 9 12 2 22 -8 11 -12 12 -16 3 -5 -13 -43 -19 -43 -7 0 3 7 12 15 20 8 9 15
13 15 9 0 -3 5 -3 11 1 8 4 7 9 -2 15 -7 4 -11 11 -7 14 9 9 48 -17 48 -32 0
-7 4 -13 10 -13 5 0 7 7 4 15 -5 11 1 15 21 15 15 0 42 9 60 20 21 13 44 19
66 16 18 -2 41 1 51 8 15 9 21 8 28 -4 15 -23 12 -33 -9 -27 -30 8 -48 -9 -23
-22 24 -13 77 4 100 31 15 18 52 12 52 -8 0 -8 -18 -15 -45 -20 -35 -5 -45
-11 -45 -25 0 -13 -5 -17 -17 -13 -15 5 -15 3 2 -11 14 -12 16 -19 8 -22 -7
-3 -13 -11 -13 -19 0 -24 15 -15 27 16 10 27 16 30 54 30 25 0 50 -7 61 -17
12 -10 18 -12 18 -4 0 7 4 10 9 7 14 -9 41 4 41 19 0 7 -6 16 -12 18 -7 3 -3
6 10 6 13 1 22 -5 22 -14 0 -8 5 -15 10 -15 6 0 10 4 10 9 0 5 10 13 23 17 12
4 25 11 28 16 3 5 27 10 52 11 27 1 47 7 47 13 0 16 41 25 57 12 7 -6 13 -18
13 -27 0 -9 7 -26 15 -39 9 -12 15 -27 14 -34 -2 -7 0 -23 5 -35 7 -22 7 -22
38 -3 31 19 48 18 48 -2 0 -5 -7 -7 -15 -4 -22 8 -31 -22 -13 -40 8 -9 23 -17
33 -18 28 -4 28 -20 1 -32 -20 -9 -26 -9 -30 3 -4 9 -13 12 -26 8 -23 -7 -26
5 -7 24 10 10 8 11 -8 5 -11 -4 -26 -11 -32 -17 -18 -13 2 -47 28 -47 15 0 19
-5 15 -15 -4 -12 0 -14 22 -9 15 4 29 11 32 15 6 9 32 13 68 11 14 -1 22 -8
22 -21 0 -14 5 -18 19 -14 16 4 18 -1 17 -39 -1 -37 2 -43 21 -46 12 -2 24
-10 27 -18 4 -10 -3 -14 -29 -14 -43 0 -64 30 -39 54 13 14 13 16 1 16 -9 0
-17 3 -20 8 -2 4 -2 1 -1 -5 2 -7 -1 -13 -6 -13 -6 0 -10 -8 -10 -17 -1 -16
-2 -16 -15 1 -11 15 -18 17 -27 8 -16 -16 7 -42 38 -42 18 0 24 -5 24 -23 0
-24 21 -30 48 -13 10 6 13 3 12 -10 -4 -34 0 -44 15 -44 8 0 15 -7 15 -15 0
-8 11 -22 25 -31 14 -9 25 -20 25 -24 0 -16 -30 -19 -44 -5 -8 8 -21 15 -28
15 -7 0 0 -12 17 -27 17 -15 31 -21 33 -14 2 6 10 11 18 11 8 0 14 6 14 14 0
8 7 17 16 20 14 5 16 1 10 -24 l-6 -30 22 20 c25 23 34 25 43 9 4 -6 13 -8 20
-5 11 4 12 -20 8 -124 -5 -114 -4 -130 11 -136 22 -8 20 -21 -4 -27 -24 -6
-26 -30 -5 -51 14 -13 13 -17 -3 -33 -20 -20 -27 -68 -12 -78 6 -3 10 -14 10
-23 -1 -15 -2 -15 -15 2 -11 15 -15 16 -15 5 0 -8 -16 -32 -35 -52 -34 -36
-34 -37 -15 -49 17 -11 20 -24 20 -87 0 -67 -2 -76 -26 -96 l-26 -22 26 -28
c26 -28 36 -88 17 -99 -4 -3 -11 -24 -15 -46 -5 -30 -11 -40 -25 -40 -26 0
-45 54 -25 71 17 14 19 55 3 65 -7 4 -9 22 -6 47 6 46 0 67 -19 67 -10 0 -14
-15 -14 -54 0 -30 -4 -58 -10 -61 -15 -9 -12 -44 5 -62 17 -17 12 -51 -11 -69
-8 -6 -14 -20 -14 -31 0 -11 -11 -29 -25 -39 -25 -19 -36 -74 -15 -74 6 0 10
-6 10 -13 0 -18 -60 -48 -111 -53 -24 -3 -48 -10 -54 -15 -13 -13 -36 -11 -34
4 5 44 -14 49 -43 12 -11 -14 -30 -25 -44 -25 -24 0 -34 -23 -14 -35 6 -3 10
-17 10 -31 0 -17 -5 -24 -19 -24 -11 0 -23 -5 -26 -11 -4 -6 -19 0 -40 15 -19
15 -37 26 -42 26 -4 1 -23 14 -42 30 -28 24 -32 33 -27 57 5 20 4 24 -3 13 -6
-8 -13 -11 -17 -7 -4 4 -2 13 4 19 7 7 12 21 12 33 0 11 9 38 20 60 11 22 20
47 20 57 0 25 -37 23 -52 -2 -14 -22 -37 -27 -39 -7 -10 90 -9 93 22 89 18 -3
29 0 29 7 0 7 5 9 11 6 6 -4 8 -13 5 -21 -3 -9 1 -14 14 -14 11 0 20 -9 23
-22 3 -17 5 -14 6 10 1 22 -3 32 -14 32 -11 0 -10 5 6 21 11 11 18 27 15 36
-4 10 -2 13 8 10 7 -3 13 0 13 6 -1 50 3 59 26 54 28 -7 64 28 70 67 4 30 56
66 128 87 30 10 39 17 39 35 0 30 -34 40 -65 20 -14 -9 -25 -12 -25 -7 0 18
-32 42 -50 36 -24 -8 -120 48 -120 70 0 4 -8 13 -17 20 -14 11 -15 17 -6 38
12 25 7 67 -7 67 -5 0 -14 16 -20 36 -10 29 -10 38 0 44 29 18 -26 100 -67
100 -13 0 -23 3 -23 8 0 4 -31 8 -68 9 -42 2 -71 8 -77 16 -20 27 -68 27 -107
0 -21 -14 -38 -30 -38 -35 0 -5 -8 -8 -17 -7 -33 3 -43 -1 -43 -16 0 -8 -7
-15 -15 -15 -8 0 -16 -8 -16 -17 -1 -17 -2 -17 -6 0 -2 9 -9 17 -14 17 -15 0
-10 36 6 50 8 7 15 18 15 25 0 13 40 29 49 20 2 -3 -1 -5 -7 -5 -7 0 -12 -9
-12 -21 0 -14 4 -18 13 -12 6 4 20 6 30 5 11 -2 17 3 17 15 0 24 -9 35 -42 52
-33 17 -50 11 -55 -19 -2 -12 -15 -34 -30 -48 -37 -34 -69 -95 -53 -100 7 -3
-2 -17 -22 -35 l-33 -31 30 -7 c21 -5 24 -7 10 -9 -11 -1 -24 -2 -30 -1 -5 0
-15 -11 -22 -24 -6 -14 -7 -25 -3 -25 5 0 10 5 12 12 5 14 154 19 180 6 26
-13 58 20 58 59 0 18 5 33 10 33 14 0 12 28 -2 33 -10 3 -10 7 -1 18 6 8 13
25 15 39 2 17 10 26 27 28 14 2 21 0 17 -7 -4 -5 -1 -19 6 -31 10 -16 10 -24
0 -40 -6 -11 -12 -29 -12 -40 0 -10 -9 -24 -21 -30 -28 -15 -16 -24 30 -25 32
0 37 3 33 17 -5 20 -2 21 22 12 9 -3 16 -12 16 -19 0 -7 6 -18 14 -25 8 -6 13
-17 10 -24 -3 -8 2 -16 11 -20 20 -7 75 20 75 38 0 8 9 16 19 19 17 4 20 0 18
-37 -2 -34 2 -43 23 -55 14 -7 34 -14 45 -15 11 0 21 -9 23 -18 3 -13 -1 -16
-14 -11 -12 4 -15 3 -10 -5 13 -22 -26 -26 -61 -7 -29 16 -36 17 -43 4 -8 -11
-13 -12 -30 -1 -11 6 -26 12 -34 12 -8 0 -17 6 -19 13 -3 7 -6 5 -6 -5 -1 -10
6 -18 14 -18 9 0 15 -9 15 -25 0 -25 -15 -35 -22 -15 -4 14 -78 23 -78 10 0
-5 -8 -10 -17 -10 -13 0 -15 3 -5 8 7 5 -14 9 -50 10 -35 1 -76 5 -93 8 -27 6
-28 8 -10 15 11 4 52 8 90 9 96 2 120 12 66 28 -37 12 -40 14 -28 32 6 11 20
20 29 20 10 0 18 5 18 10 0 17 -31 24 -40 10 -7 -11 -11 -11 -24 -1 -14 12
-20 10 -41 -13 -13 -15 -22 -33 -19 -41 4 -11 -1 -15 -17 -16 -13 0 -55 -2
-93 -4 -38 -1 -82 1 -98 6 -16 4 -28 4 -28 -2 0 -5 -11 -9 -25 -9 -14 0 -25
-4 -25 -10 0 -6 33 -10 79 -10 l78 0 -6 -31 -6 -31 -70 -1 c-44 0 -70 4 -73
11 -5 16 -75 15 -90 0 -6 -6 -15 -9 -19 -5 -9 10 32 47 52 47 8 0 15 5 15 11
0 11 -14 8 -92 -19 -27 -9 -48 -21 -48 -26 0 -6 16 -29 34 -50 25 -28 43 -39
65 -40 18 -1 31 -6 31 -13 0 -15 2 -15 24 -7 9 3 16 16 17 28 0 11 3 15 6 9 7
-18 33 -16 33 2 0 8 5 15 10 15 32 0 -6 -52 -46 -64 -28 -8 -38 -68 -29 -163
6 -60 5 -71 -14 -92 -12 -13 -21 -26 -21 -28 0 -7 9 -2 24 13 9 8 20 12 26 9
12 -8 -12 -35 -32 -36 -8 0 -6 -3 4 -7 13 -5 15 -11 7 -22 -8 -11 -12 -12 -15
-3 -6 13 -64 -33 -64 -51 0 -5 13 3 29 18 l29 28 -5 -45 c-3 -24 0 -53 6 -65
13 -24 4 -62 -10 -41 -15 25 -19 2 -5 -25 8 -17 16 -22 18 -14 4 10 9 9 22 -5
13 -12 14 -17 4 -18 -7 0 -23 -2 -36 -5 -26 -5 -66 26 -44 34 6 2 12 12 12 23
0 23 -45 27 -54 4 -3 -8 0 -15 6 -15 7 0 6 -5 -2 -15 -16 -19 -60 -20 -60 -1
0 19 -21 26 -43 14 -10 -5 -27 -6 -38 -3 -11 4 -30 0 -44 -9 -30 -20 -45 -20
-45 -1 0 19 -19 19 -26 0 -4 -8 -18 -15 -33 -15 -32 0 -63 -19 -43 -27 19 -7
14 -31 -9 -43 -24 -13 -41 -4 -19 10 8 6 10 10 4 10 -5 0 -20 -9 -32 -20 -16
-15 -22 -17 -22 -7 0 8 10 21 23 30 12 8 20 17 17 20 -3 3 -30 -10 -60 -29
-74 -46 -132 -46 -80 1 11 10 20 14 20 9 0 -5 4 -2 10 6 5 9 5 19 -2 27 -7 9
-7 13 0 13 15 0 25 52 12 60 -18 11 -7 44 15 49 27 5 46 33 33 48 -13 16 -38
17 -38 1 0 -8 -7 -6 -17 5 -13 13 -18 34 -18 77 0 46 -3 59 -13 55 -8 -3 -10
0 -5 8 4 6 6 24 4 39 -1 15 5 54 15 87 13 50 21 61 37 61 16 0 18 3 9 12 -8 8
-8 15 -1 24 12 15 3 37 -12 29 -14 -9 -11 16 6 49 16 31 21 151 6 160 -5 4
-12 0 -14 -6 -3 -8 -6 -6 -6 5 -1 9 5 17 13 17 20 0 30 18 18 33 -5 7 -6 21
-2 32 9 26 -4 82 -25 105 -16 18 -16 20 0 37 11 10 13 19 7 21 -6 2 -8 10 -5
18 3 8 0 14 -6 14 -6 0 -11 7 -11 15 0 8 5 15 10 15 6 0 8 11 4 25 -4 18 -1
27 10 31 20 8 21 71 2 97 -28 37 13 129 68 150 9 4 16 11 16 17 0 8 -6 8 -20
0 -16 -8 -20 -8 -20 4 0 15 -23 27 -42 22 -7 -1 -10 -1 -5 1 4 3 7 11 7 19 0
8 12 26 26 39 30 28 74 34 74 10 0 -19 20 -19 34 0 11 15 47 24 111 28 17 1
29 7 28 14 -2 7 4 10 12 7 18 -7 20 17 3 35 -11 10 -10 14 5 22 20 12 22 39 5
58 -8 9 -8 11 -2 8 14 -8 26 30 18 59 -3 12 1 26 9 33 8 6 13 21 10 32 -4 15
-2 18 11 13 9 -3 16 -10 16 -15z m-109 -12 c-10 -9 -11 -8 -5 6 3 10 9 15 12
12 3 -3 0 -11 -7 -18z m609 8 c0 -8 -7 -15 -15 -15 -26 0 -18 20 13 29 1 1 2
-6 2 -14z m809 -13 c-5 -2 -9 -8 -9 -13 0 -4 7 -6 15 -3 9 4 15 0 15 -7 0 -11
3 -11 10 1 9 13 11 13 19 1 15 -23 1 -41 -29 -41 -39 0 -60 9 -60 26 0 8 -9
14 -20 14 -25 0 -26 19 -2 26 9 3 24 9 32 13 8 4 20 3 26 -3 7 -6 8 -12 3 -14z
m-1049 -8 c0 -8 -4 -12 -10 -9 -5 3 -10 10 -10 16 0 5 5 9 10 9 6 0 10 -7 10
-16z m945 -14 c3 -5 1 -10 -4 -10 -6 0 -11 5 -11 10 0 6 2 10 4 10 3 0 8 -4
11 -10z m352 -2 c39 -17 38 -16 20 -36 -12 -13 -13 -22 -6 -32 8 -11 12 -12
16 -2 2 6 9 12 15 12 6 0 6 -6 -2 -15 -14 -17 -40 -20 -40 -5 0 16 -35 47 -53
47 -9 0 -17 -4 -17 -8 0 -5 -6 -6 -14 -3 -8 3 -12 12 -9 20 3 8 8 13 11 10 2
-3 14 1 26 9 25 18 19 18 53 3z m-1792 -9 c-4 -6 0 -16 8 -22 10 -8 14 -21 10
-39 -5 -27 -6 -27 -28 -10 -12 9 -20 23 -18 29 3 7 0 13 -6 13 -8 0 -7 6 1 20
7 11 19 20 26 20 7 0 10 -5 7 -11z m80 -9 c13 11 18 10 30 -6 8 -10 12 -27 9
-36 -3 -9 2 -28 11 -42 9 -14 15 -35 13 -47 -4 -29 -28 -37 -28 -10 0 27 -13
27 -25 0 -10 -21 -71 -49 -107 -49 -16 0 -16 2 2 20 11 11 20 30 20 43 1 25
22 57 39 57 6 0 11 14 11 30 0 17 -4 30 -10 30 -5 0 -10 8 -10 18 1 16 2 15
15 -2 12 -16 17 -17 30 -6z m505 0 c0 -5 -12 -10 -26 -10 -14 0 -23 4 -19 10
3 6 15 10 26 10 10 0 19 -4 19 -10z m1076 -16 c-8 -8 -21 -14 -28 -15 -7 0 -3
-5 10 -11 27 -13 28 -24 5 -37 -17 -9 -16 -11 4 -30 12 -12 27 -21 33 -21 13
0 13 -27 1 -35 -6 -3 -15 4 -21 15 -6 11 -19 20 -30 20 -14 0 -21 9 -26 34 -8
45 8 92 30 88 9 -2 16 2 16 8 0 6 5 8 10 5 6 -4 5 -12 -4 -21z m-573 -9 c-6
-17 -25 -15 -31 3 -2 7 5 12 17 12 14 0 19 -5 14 -15z m-653 -5 c0 -5 -7 -10
-15 -10 -8 0 -15 5 -15 10 0 6 7 10 15 10 8 0 15 -4 15 -10z m1312 -21 c9 0
22 -7 29 -15 10 -12 9 -13 -5 -8 -13 5 -15 2 -9 -12 6 -16 1 -15 -28 7 -19 14
-41 29 -49 32 -8 4 -1 5 15 2 17 -4 38 -6 47 -6z m141 -13 c4 -10 1 -13 -9 -9
-7 3 -14 9 -14 14 0 14 17 10 23 -5z m87 -60 c0 -9 -7 -12 -19 -9 -11 3 -17
11 -15 18 3 7 0 16 -5 20 -6 3 -9 11 -5 16 8 13 44 -24 44 -45z m-140 34 c13
-8 13 -10 -2 -10 -19 0 -34 -18 -23 -28 3 -3 10 0 15 8 5 8 12 11 17 6 4 -4
-1 -13 -12 -19 -11 -6 -20 -9 -21 -6 0 2 -8 -2 -17 -10 -15 -11 -17 -11 -17 1
0 22 24 68 35 68 6 0 17 -5 25 -10z m-70 -44 c0 -13 -6 -28 -13 -34 -10 -9
-13 -4 -14 23 -1 24 3 35 13 35 8 0 14 -10 14 -24z m91 -19 c-10 -9 -11 -8 -5
6 3 10 9 15 12 12 3 -3 0 -11 -7 -18z m-230 -10 c-1 -4 -1 -18 -1 -32 0 -30
-15 -33 -30 -4 -9 15 -8 24 1 35 12 14 31 15 30 1z m219 -12 c24 -14 24 -15 2
-12 -12 2 -28 9 -34 15 -16 16 2 14 32 -3z m95 -4 c-3 -6 -11 -11 -16 -11 -5
0 -4 6 3 14 14 16 24 13 13 -3z m35 -11 c0 -21 -4 -28 -14 -24 -11 4 -11 10
-2 30 14 31 16 30 16 -6z m-80 -10 c0 -5 9 -10 20 -10 27 0 38 -30 17 -42 -10
-5 -17 -20 -17 -33 0 -27 -11 -31 -41 -15 -25 14 -25 56 0 72 15 9 17 15 9 25
-7 9 -7 13 1 13 6 0 11 -4 11 -10z m-124 -16 c-4 -9 -1 -23 5 -31 20 -24 0
-27 -21 -3 -24 27 -26 42 -5 34 8 -4 15 -1 15 5 0 6 3 11 6 11 3 0 3 -7 0 -16z
m-70 -34 c8 0 14 -4 14 -9 0 -5 -13 -9 -29 -9 -23 1 -28 5 -28 24 0 20 1 21
14 8 8 -7 21 -14 29 -14z m124 7 c11 -5 9 -6 -4 -4 -11 1 -21 9 -23 17 -3 10
-2 11 4 4 4 -6 15 -14 23 -17z m260 -17 c0 -5 -4 -10 -10 -10 -5 0 -10 5 -10
10 0 6 5 10 10 10 6 0 10 -4 10 -10z m-106 -45 c22 -34 -2 -34 -27 0 -14 20
-15 25 -4 25 8 0 22 -11 31 -25z m46 -11 c0 -8 -4 -14 -10 -14 -5 0 -10 4 -10
9 0 5 -3 18 -7 28 -6 16 -5 16 10 4 9 -7 17 -20 17 -27z m35 17 c-3 -6 -11
-11 -16 -11 -5 0 -4 6 3 14 14 16 24 13 13 -3z m-205 -5 c0 -19 -17 -29 -25
-16 -3 5 -18 11 -33 11 -24 1 -23 3 8 9 19 4 38 8 43 9 4 0 7 -5 7 -13z m-142
-27 c17 -16 32 -38 31 -47 0 -11 -2 -13 -6 -4 -3 7 -16 17 -29 22 -13 5 -24
13 -23 17 3 21 -3 32 -18 36 -13 3 -14 5 -3 6 8 0 30 -13 48 -30z m398 -26
c-10 -10 -19 5 -10 18 6 11 8 11 12 0 2 -7 1 -15 -2 -18z m-326 7 c0 -5 -4
-10 -10 -10 -5 0 -10 5 -10 10 0 6 5 10 10 10 6 0 10 -4 10 -10z m35 -40 c-15
-29 -16 -30 -40 -14 -14 9 -22 21 -18 27 5 8 8 7 11 -1 5 -16 20 -15 38 3 23
23 26 18 9 -15z m334 -12 c1 -4 -6 -5 -14 -2 -18 7 -20 -12 -2 -20 6 -3 0 -4
-15 -1 -16 3 -28 1 -28 -5 0 -5 -7 -10 -15 -10 -8 0 -15 5 -15 10 0 6 7 10 15
10 8 0 15 7 15 15 0 8 6 15 14 15 8 0 17 8 21 18 7 16 8 15 15 -3 5 -11 9 -23
9 -27z m41 38 c0 -3 -4 -8 -10 -11 -5 -3 -10 -1 -10 4 0 6 5 11 10 11 6 0 10
-2 10 -4z m-485 -25 c-5 -16 -2 -18 15 -14 11 3 20 0 20 -6 0 -6 9 -11 20 -11
12 0 17 -5 14 -14 -8 -22 -43 -27 -54 -8 -5 10 -10 13 -10 8 0 -5 -6 -4 -12 2
-7 6 -17 10 -23 10 -19 1 -16 23 4 29 12 3 21 9 21 14 0 5 3 9 6 9 3 0 3 -9
-1 -19z m312 -2 c8 -3 9 -9 4 -18 -12 -19 -31 -5 -31 22 0 13 3 17 8 11 4 -6
12 -13 19 -15z m63 11 c0 -5 -7 -10 -16 -10 -8 0 -12 5 -9 10 3 6 10 10 16 10
5 0 9 -4 9 -10z m-110 -30 c0 -5 -4 -10 -10 -10 -5 0 -10 5 -10 10 0 6 5 10
10 10 6 0 10 -4 10 -10z m210 -19 c0 -6 -4 -13 -10 -16 -5 -3 -10 1 -10 9 0 9
5 16 10 16 6 0 10 -4 10 -9z m-150 -11 c0 -5 -7 -10 -15 -10 -8 0 -15 5 -15
10 0 6 7 10 15 10 8 0 15 -4 15 -10z m-176 -26 c4 -9 4 -19 2 -21 -8 -8 -26 8
-26 23 0 19 16 18 24 -2z m275 -25 c-7 -4 -16 -5 -19 -2 -3 3 1 8 8 10 6 3 13
12 13 21 1 14 2 13 6 -2 3 -10 -1 -22 -8 -27z m-63 -25 c-18 -18 -20 -30 -6
-39 13 -8 13 -35 0 -35 -5 0 -16 12 -24 27 -13 25 -12 30 13 62 20 26 27 30
29 18 2 -9 -4 -24 -12 -33z m-46 15 c0 -5 -4 -9 -10 -9 -5 0 -10 7 -10 16 0 8
5 12 10 9 6 -3 10 -10 10 -16z m160 6 c0 -9 -6 -12 -15 -9 -8 4 -15 10 -15 15
0 5 7 9 15 9 8 0 15 -7 15 -15z m-45 -36 c-10 -15 -25 -10 -19 6 4 8 10 12 15
9 5 -3 7 -10 4 -15z m-165 -5 c0 -2 -9 -4 -21 -4 -11 0 -18 4 -14 10 5 8 35 3
35 -6z m235 -4 c-8 -24 20 -29 29 -5 3 8 10 15 16 15 7 0 5 -7 -4 -15 -8 -9
-14 -21 -12 -28 1 -7 1 -9 -1 -4 -3 4 -13 7 -23 7 -10 0 -28 9 -41 20 l-24 20
28 -6 c17 -4 27 -2 27 5 0 6 3 11 6 11 3 0 2 -9 -1 -20z m-205 -33 c0 -21 42
-55 47 -39 7 19 37 14 52 -9 10 -17 10 -23 1 -29 -15 -9 -4 -30 15 -30 9 0 12
6 9 15 -4 8 -1 15 5 15 10 0 16 -33 12 -66 0 -5 9 -21 21 -34 l22 -23 -22 5
c-12 4 -25 2 -28 -3 -3 -5 -10 -7 -15 -4 -5 4 -9 1 -9 -4 0 -6 -4 -11 -10 -11
-5 0 -10 7 -10 15 0 8 7 15 15 15 22 0 18 34 -5 55 -11 10 -20 26 -20 37 0 10
-4 18 -10 18 -5 0 -10 6 -10 13 0 8 -16 12 -48 12 -42 0 -48 3 -44 18 2 9 9
17 14 17 6 0 8 7 4 15 -3 8 -1 15 4 15 6 0 10 -6 10 -13z m120 -23 c0 -23 -1
-24 -16 -10 -8 9 -12 20 -9 26 12 19 25 10 25 -16z m-160 6 c0 -5 -5 -10 -11
-10 -5 0 -7 5 -4 10 3 6 8 10 11 10 2 0 4 -4 4 -10z m300 -20 c0 -5 7 -10 15
-10 8 0 15 -7 15 -15 0 -13 -6 -11 -30 7 -34 25 -36 28 -15 28 8 0 15 -4 15
-10z m-15 -30 c3 -5 1 -10 -4 -10 -6 0 -11 5 -11 10 0 6 2 10 4 10 3 0 8 -4
11 -10z m-202 -59 c14 8 17 6 17 -10 0 -10 -5 -21 -10 -23 -6 -2 -2 -13 10
-25 11 -13 23 -37 27 -55 6 -29 5 -31 -9 -20 -9 7 -19 24 -23 39 -7 30 -31 57
-39 44 -3 -5 -15 -11 -27 -14 -17 -5 -20 -2 -16 14 4 16 1 18 -18 13 -15 -4
-24 0 -28 10 -5 12 0 16 23 16 22 0 30 5 30 18 0 31 12 34 29 8 13 -19 20 -22
34 -15z m262 19 c3 -5 2 -10 -4 -10 -5 0 -13 5 -16 10 -3 6 -2 10 4 10 5 0 13
-4 16 -10z m-1525 -10 c0 -5 -4 -10 -10 -10 -5 0 -10 5 -10 10 0 6 5 10 10 10
6 0 10 -4 10 -10z m1437 -26 c-3 -3 -12 -4 -19 -1 -8 3 -5 6 6 6 11 1 17 -2
13 -5z m-1195 -79 c-3 -26 -9 -35 -22 -35 -24 0 -31 30 -12 53 24 28 38 21 34
-18z m-295 -31 c-10 -33 -51 -73 -62 -62 -6 5 57 98 67 98 3 0 1 -16 -5 -36z
m211 26 c12 0 22 -4 22 -10 0 -5 -9 -10 -19 -10 -11 0 -23 -5 -26 -10 -8 -13
-22 -5 -36 22 -10 19 -9 20 12 15 13 -4 34 -7 47 -7z m1002 -10 c0 -5 -4 -10
-10 -10 -5 0 -10 5 -10 10 0 6 5 10 10 10 6 0 10 -4 10 -10z m101 -40 c5 0 9
-7 9 -15 0 -8 -7 -15 -16 -15 -9 0 -12 -5 -8 -12 5 -8 13 -4 25 11 11 13 20
17 24 11 4 -6 0 -19 -9 -29 -16 -17 -14 -20 20 -46 35 -26 36 -29 17 -36 -31
-11 -36 -27 -13 -39 11 -6 18 -16 14 -21 -4 -7 -10 -7 -17 0 -13 13 -27 14
-27 2 0 -5 8 -12 18 -15 11 -4 18 -15 18 -29 -1 -14 4 -21 13 -19 7 2 22 -5
32 -14 10 -9 22 -13 28 -10 22 14 20 -16 -3 -41 l-25 -27 31 -15 c17 -8 33
-23 36 -33 2 -10 9 -18 14 -18 5 0 6 -5 3 -11 -4 -6 -14 -8 -22 -5 -8 3 -28
-3 -44 -15 -34 -24 -58 -19 -67 13 l-5 22 -8 -22 c-5 -12 -13 -22 -19 -22 -6
0 -8 4 -5 10 3 5 1 37 -6 70 -9 44 -9 67 -1 85 9 19 7 27 -7 44 -18 21 -48 30
-36 11 3 -5 2 -10 -2 -10 -9 0 -73 56 -73 63 0 2 18 -1 40 -6 35 -10 73 -1 43
10 -17 6 -16 28 1 42 18 15 17 51 -1 44 -8 -3 -13 2 -13 13 0 9 -7 26 -17 36
-15 17 -15 18 0 18 10 0 17 7 17 16 0 11 5 14 16 10 9 -3 20 -6 25 -6z m79 0
c0 -5 -7 -10 -16 -10 -8 0 -12 5 -9 10 3 6 10 10 16 10 5 0 9 -4 9 -10z
m-1090 -15 c10 -12 10 -15 -4 -15 -9 0 -16 7 -16 15 0 8 2 15 4 15 2 0 9 -7
16 -15z m-250 -4 c0 -10 -25 -21 -48 -21 -12 1 -10 5 8 15 29 17 40 18 40 6z
m1370 -6 c0 -8 -7 -15 -15 -15 -13 0 -14 3 -3 15 16 18 18 18 18 0z m-227 -15
c3 -11 1 -23 -4 -26 -5 -3 -9 6 -9 20 0 31 6 34 13 6z m-786 -12 c-3 -8 -6 -5
-6 6 -1 11 2 17 5 13 3 -3 4 -12 1 -19z m-1287 2 c0 -5 -4 -10 -10 -10 -5 0
-10 5 -10 10 0 6 5 10 10 10 6 0 10 -4 10 -10z m2037 -22 c-3 -8 -6 -5 -6 6
-1 11 2 17 5 13 3 -3 4 -12 1 -19z m223 8 c0 -3 -4 -8 -10 -11 -5 -3 -10 -1
-10 4 0 6 5 11 10 11 6 0 10 -2 10 -4z m-920 -47 c0 -11 -4 -17 -10 -14 -5 3
-10 13 -10 21 0 8 5 14 10 14 6 0 10 -9 10 -21z m984 -81 c-7 -12 -23 -10 -38
4 -21 20 3 38 25 19 10 -8 16 -18 13 -23z m-264 -3 c0 -8 -7 -15 -15 -15 -8 0
-15 7 -15 15 0 8 7 15 15 15 8 0 15 -7 15 -15z m15 -35 c3 -6 -4 -10 -17 -10
-18 0 -20 2 -8 10 19 12 18 12 25 0z m-1212 -7 c-7 -2 -21 -2 -30 0 -10 3 -4
5 12 5 17 0 24 -2 18 -5z m1164 1 c-3 -3 -12 -4 -19 -1 -8 3 -5 6 6 6 11 1 17
-2 13 -5z m-1127 -51 c0 -5 22 -9 49 -9 28 -1 60 -9 72 -17 11 -9 28 -13 35
-10 8 3 14 -1 14 -10 0 -10 15 -17 45 -21 24 -4 47 -11 50 -17 10 -14 23 -11
29 9 4 13 4 13 3 -3 -1 -11 2 -25 6 -32 4 -6 2 -15 -3 -18 -18 -11 -60 4 -60
21 0 14 -3 14 -15 4 -12 -10 -15 -10 -15 1 0 12 -2 12 -9 0 -7 -10 -13 -11
-31 -1 -41 22 -130 2 -182 -40 -20 -16 -26 -90 -7 -90 6 0 9 -9 6 -20 -3 -11
-1 -20 3 -20 8 0 23 -34 25 -53 0 -4 6 -11 12 -15 10 -7 10 -12 -2 -28 -19
-25 -19 -44 0 -44 8 0 15 6 15 14 0 8 7 16 15 20 8 3 15 15 15 26 0 11 5 20
11 20 5 0 7 4 4 10 -3 5 0 7 7 5 8 -3 21 8 31 25 10 17 23 28 28 25 11 -8 81
44 74 55 -3 5 -1 11 5 15 6 4 10 -6 10 -25 0 -17 6 -33 14 -36 17 -7 18 -64 2
-64 -6 -1 -1 -9 10 -18 17 -14 19 -21 10 -33 -12 -15 -49 -19 -62 -6 -4 4 -16
7 -28 7 -19 0 -19 0 2 -20 12 -11 29 -20 38 -20 11 0 15 -6 11 -19 -3 -14 -1
-18 9 -14 7 3 20 -2 28 -10 14 -13 12 -16 -12 -23 -15 -4 -31 -6 -35 -5 -5 1
-30 -5 -56 -13 -38 -11 -50 -11 -64 -1 -9 7 -17 17 -17 23 0 15 -22 21 -43 10
-12 -6 -15 -16 -11 -33 5 -22 3 -25 -19 -25 -29 0 -43 36 -23 60 13 15 11 50
-4 50 -4 0 -13 -7 -20 -15 -7 -8 -21 -15 -30 -15 -10 0 -21 -6 -24 -12 -3 -9
-9 -7 -17 7 -7 11 -28 36 -47 55 -48 48 -65 77 -58 96 4 9 1 22 -4 30 -6 7
-10 18 -9 26 4 19 -11 58 -22 58 -6 0 -8 9 -4 19 3 11 1 22 -5 26 -18 11 -11
41 10 41 11 0 20 -6 20 -13 0 -7 4 -13 9 -13 21 0 41 13 41 26 0 8 7 11 18 8
13 -5 14 -4 3 4 -17 12 -7 46 12 39 6 -2 11 -10 9 -17 -2 -7 3 -17 10 -21 22
-14 29 -10 18 11 -18 33 16 80 35 49 5 -6 13 -3 22 10 14 20 43 29 43 14z
m-110 -23 c0 -5 -5 -10 -11 -10 -5 0 -7 5 -4 10 3 6 8 10 11 10 2 0 4 -4 4
-10z m630 0 c0 -5 -4 -10 -10 -10 -5 0 -10 5 -10 10 0 6 5 10 10 10 6 0 10 -4
10 -10z m66 -6 c-3 -9 -6 -21 -6 -27 0 -8 -3 -8 -10 -1 -12 12 -3 44 12 44 6
0 7 -7 4 -16z m-36 -14 c0 -5 -4 -10 -10 -10 -5 0 -10 5 -10 10 0 6 5 10 10
10 6 0 10 -4 10 -10z m-67 -19 c-5 -3 -4 -16 3 -29 8 -16 13 -19 16 -10 3 7 8
10 12 7 10 -9 -4 -37 -22 -44 -10 -4 -23 2 -34 17 -22 28 -23 58 -3 58 8 0 15
5 15 11 0 5 5 7 11 3 6 -4 7 -9 2 -13z m-113 -41 c0 -5 -4 -10 -10 -10 -5 0
-10 5 -10 10 0 6 5 10 10 10 6 0 10 -4 10 -10z m899 -26 c2 -2 2 -6 -1 -9 -9
-9 -88 7 -88 17 0 8 80 2 89 -8z m-1169 -40 c0 -10 -7 -14 -22 -12 -32 5 -35
28 -4 28 17 0 26 -5 26 -16z m381 -1 c13 -15 11 -16 -11 -10 -14 4 -31 7 -37
7 -7 0 -13 5 -13 10 0 16 46 11 61 -7z m-730 -66 c-8 -8 -11 -3 -11 19 1 25 2
27 11 11 8 -14 8 -22 0 -30z m314 3 c3 -5 2 -10 -4 -10 -5 0 -13 5 -16 10 -3
6 -2 10 4 10 5 0 13 -4 16 -10z m1321 -30 c8 0 14 -6 14 -14 0 -8 6 -17 13
-19 7 -3 5 -6 -5 -6 -10 -1 -18 5 -18 13 0 8 -7 16 -15 20 -8 3 -15 11 -14 18
0 10 2 10 6 1 2 -7 11 -13 19 -13z m-1616 -10 c0 -5 -2 -10 -4 -10 -3 0 -8 5
-11 10 -3 6 -1 10 4 10 6 0 11 -4 11 -10z m1435 -45 c-1 -56 13 -84 35 -70 6
4 17 1 25 -5 13 -10 15 -8 15 14 0 14 5 26 10 26 6 0 10 -72 10 -195 0 -123
-4 -195 -10 -195 -5 0 -11 26 -11 58 -1 31 -4 47 -6 35 -2 -13 -10 -23 -17
-23 -8 0 -19 -7 -26 -15 -8 -9 -8 -15 -2 -15 14 0 11 -43 -3 -52 -6 -5 -6 -8
3 -8 6 0 12 -11 12 -24 0 -13 7 -26 15 -30 21 -8 19 -70 -2 -103 -10 -15 -12
-24 -6 -20 9 6 11 3 7 -7 -8 -22 -105 -16 -129 7 -21 22 -25 115 -4 128 12 7
11 9 -2 9 -12 0 -15 10 -13 48 2 26 4 75 6 110 1 34 6 62 11 62 5 0 7 6 4 13
-2 6 -10 11 -17 9 -6 -1 -10 5 -8 15 2 10 11 19 21 21 12 2 15 -1 11 -12 -4
-11 -1 -16 10 -16 9 0 16 -7 16 -15 0 -8 -7 -15 -15 -15 -8 0 -15 -7 -15 -15
0 -8 6 -15 13 -15 17 0 37 63 30 91 -5 17 -11 20 -34 15 -21 -4 -29 -2 -29 9
0 18 40 31 50 15 5 -9 9 -9 14 -1 17 27 89 7 92 -26 7 -90 7 -90 13 -33 3 30
4 72 2 93 -3 32 -6 38 -25 35 -13 -2 -22 -11 -24 -25 -3 -17 -10 -21 -34 -21
-16 1 -32 7 -35 15 -7 18 -33 17 -33 -2 0 -8 -4 -15 -10 -15 -15 0 -11 81 5
110 11 21 15 22 20 8 7 -17 13 -43 15 -68 1 -9 6 -5 12 10 6 14 10 30 9 35 -5
20 -8 90 -4 98 2 4 10 7 17 7 9 0 12 -16 11 -55z m134 36 c6 -10 8 -21 4 -24
-3 -4 -6 -34 -7 -68 -1 -39 -6 -64 -13 -66 -9 -3 -12 20 -12 86 0 89 8 110 28
72z m-63 -6 c9 -8 11 -15 5 -15 -6 0 -11 -9 -11 -20 0 -11 -4 -20 -10 -20 -5
0 -10 16 -10 35 0 39 4 42 26 20z m144 -56 c0 -5 -9 -9 -20 -9 -19 0 -27 20
-13 33 7 8 33 -11 33 -24z m38 -51 c-1 -24 -3 -37 -6 -30 -7 22 -41 13 -48
-13 -7 -27 -44 -36 -44 -10 0 9 6 12 15 9 9 -4 15 0 15 10 0 9 -4 16 -10 16
-15 0 -12 19 4 36 19 18 36 18 36 -1 0 -9 6 -12 16 -8 8 3 13 12 10 19 -3 8
-1 14 4 14 6 0 9 -19 8 -42z m-498 -58 c0 -11 -28 -9 -47 3 -10 6 -10 12 -1
26 11 17 12 17 29 0 11 -11 19 -23 19 -29z m-1260 30 c0 -5 -5 -10 -11 -10 -5
0 -7 5 -4 10 3 6 8 10 11 10 2 0 4 -4 4 -10z m1570 -24 c0 -3 -4 -8 -10 -11
-5 -3 -10 -1 -10 4 0 6 5 11 10 11 6 0 10 -2 10 -4z m-1570 -30 c0 -3 -4 -8
-10 -11 -5 -3 -10 -1 -10 4 0 6 5 11 10 11 6 0 10 -2 10 -4z m1774 -19 c6 -27
-13 -105 -22 -91 -4 5 -15 10 -25 10 -13 2 -16 -3 -12 -17 4 -12 2 -19 -7 -19
-10 0 -9 -3 2 -10 9 -5 19 -5 26 1 8 7 14 6 19 -1 10 -16 3 -20 -34 -23 -34
-2 -44 -27 -11 -27 13 0 24 -10 30 -25 5 -14 15 -25 22 -25 9 0 8 -3 -2 -10
-12 -7 -12 -12 -2 -22 20 -20 14 -28 -23 -28 -24 0 -35 -5 -35 -15 0 -8 5 -15
10 -15 6 0 10 5 10 10 0 6 7 10 15 10 17 0 19 -14 5 -40 -8 -15 -5 -19 15 -24
37 -10 30 -23 -10 -18 -25 3 -36 0 -41 -12 -3 -9 -15 -16 -25 -16 -18 0 -19 5
-14 52 4 30 13 57 22 63 9 7 13 17 9 23 -4 7 -1 12 9 12 9 0 13 5 10 11 -4 6
-13 8 -21 5 -18 -7 -27 10 -26 46 1 29 0 29 -18 13 -15 -13 -17 -22 -10 -36 7
-12 7 -20 0 -24 -18 -11 -30 45 -30 142 0 115 6 122 96 123 56 0 62 -2 68 -23z
m-1316 -45 c2 -7 -6 -12 -17 -12 -21 0 -27 11 -14 24 9 9 26 2 31 -12z m65 11
c-7 -2 -21 -2 -30 0 -10 3 -4 5 12 5 17 0 24 -2 18 -5z m-183 -19 c0 -17 -22
-14 -28 4 -2 7 3 12 12 12 9 0 16 -7 16 -16z m44 -79 c3 -9 0 -15 -9 -15 -8 0
-15 7 -15 15 0 8 4 15 9 15 5 0 11 -7 15 -15z m96 7 c0 -13 -35 -39 -48 -34
-18 6 -14 30 6 35 29 8 42 7 42 -1z m630 4 c0 -3 -4 -8 -10 -11 -5 -3 -10 -1
-10 4 0 6 5 11 10 11 6 0 10 -2 10 -4z m10 -56 c0 -5 -7 -7 -15 -4 -8 4 -15 8
-15 10 0 2 7 4 15 4 8 0 15 -4 15 -10z m654 -5 c-7 -16 -24 -21 -24 -6 0 8 7
13 27 20 1 1 0 -6 -3 -14z m-2344 1 c0 -2 -7 -9 -15 -16 -13 -11 -14 -10 -9 4
5 14 24 23 24 12z m2140 -37 c0 -14 -17 -10 -23 5 -4 10 -1 13 9 9 7 -3 14 -9
14 -14z m-920 6 c0 -3 -9 -14 -21 -26 -26 -26 -39 -16 -14 11 17 19 35 26 35
15z m-1244 -42 c-10 -10 -19 5 -10 18 6 11 8 11 12 0 2 -7 1 -15 -2 -18z m84
6 c0 -5 -4 -9 -10 -9 -5 0 -10 7 -10 16 0 8 5 12 10 9 6 -3 10 -10 10 -16z
m2080 -25 c0 -8 -4 -14 -9 -14 -11 0 -22 26 -14 34 9 9 23 -3 23 -20z m-2190
1 c0 -8 -2 -15 -4 -15 -2 0 -11 -3 -19 -6 -9 -3 -16 3 -20 15 -4 17 0 21 19
21 15 0 24 -6 24 -15z m94 9 c17 -7 22 -34 6 -34 -5 0 -10 -12 -10 -27 0 -20
-3 -24 -11 -16 -8 8 -16 6 -31 -9 -22 -22 -32 -20 -22 5 3 9 16 19 27 23 29 9
38 24 26 46 -11 20 -9 21 15 12z m-34 -19 c0 -8 -7 -15 -15 -15 -16 0 -20 12
-8 23 11 12 23 8 23 -8z m90 5 c0 -5 -7 -10 -15 -10 -8 0 -15 5 -15 10 0 6 7
10 15 10 8 0 15 -4 15 -10z m2118 -27 c-5 -7 -7 -17 -3 -24 4 -6 1 -15 -6 -20
-22 -14 -33 -11 -20 5 7 8 13 28 13 44 1 24 4 27 13 18 9 -7 10 -15 3 -23z
m-2262 -7 c14 -15 19 -36 8 -36 -10 0 -34 28 -34 39 0 15 9 14 26 -3z m2390
-13 c-10 -10 -19 5 -10 18 6 11 8 11 12 0 2 -7 1 -15 -2 -18z m-2451 7 c-3 -5
-14 -10 -23 -10 -15 0 -15 2 -2 10 20 13 33 13 25 0z m267 -8 c-7 -2 -12 -8
-12 -14 0 -5 -7 -16 -15 -24 -12 -12 -15 -13 -15 -2 0 22 30 59 43 51 8 -5 8
-8 -1 -11z m1121 -16 c4 -10 1 -13 -7 -10 -19 7 -27 -22 -14 -51 9 -19 9 -28
0 -37 -15 -15 -16 -68 -1 -68 8 0 8 -68 0 -97 -1 -2 -10 -3 -22 -3 -19 0 -20
4 -16 48 3 26 7 59 10 75 2 15 1 30 -4 33 -5 2 -4 15 1 27 5 12 11 39 15 60 6
37 28 50 38 23z m-1396 -12 c-3 -3 -12 -4 -19 -1 -8 3 -5 6 6 6 11 1 17 -2 13
-5z m967 -6 c49 -46 110 -81 161 -92 17 -4 45 -20 62 -37 32 -29 32 -30 13
-49 -11 -11 -26 -20 -34 -20 -8 0 -16 -15 -19 -35 -3 -19 -13 -42 -22 -51 -15
-15 -17 -15 -35 1 -11 10 -20 24 -20 31 0 7 -6 14 -12 16 -7 3 -13 13 -13 24
0 10 -8 20 -18 22 -17 3 -18 0 -12 -30 4 -18 12 -36 18 -40 6 -4 8 -10 4 -15
-4 -4 -19 6 -33 22 -18 21 -23 36 -19 55 4 19 3 21 -4 10 -9 -13 -12 -13 -23
1 -12 16 -68 35 -68 24 0 -2 16 -11 35 -19 29 -12 35 -20 34 -43 -1 -21 -3
-23 -6 -7 -5 25 -69 50 -100 40 -12 -4 -25 -1 -32 8 -7 8 -19 12 -27 9 -9 -3
-14 1 -14 14 0 21 52 46 76 36 8 -3 14 -1 14 4 0 5 13 8 28 5 40 -5 59 19 38
50 -12 16 -16 18 -16 7 0 -20 -46 -23 -112 -8 -33 8 -52 8 -67 -1 -28 -14 -27
1 2 28 32 30 76 45 93 31 10 -9 15 -8 19 2 7 18 92 23 109 7z m1318 -86 c2
-61 0 -82 -9 -82 -10 0 -13 25 -13 92 0 115 17 107 22 -10z m-1940 73 c0 -6 4
-20 9 -32 11 -30 3 -50 -25 -57 -12 -3 -28 -17 -36 -31 -7 -14 -17 -25 -21
-25 -4 0 -15 -7 -24 -16 -15 -15 -15 -14 -10 12 5 20 4 25 -3 16 -7 -11 -10
-8 -14 11 -4 19 1 28 18 36 12 5 37 30 56 55 31 42 49 53 50 31z m1167 -27
c-7 -14 -8 -23 -1 -30 6 -6 8 -16 5 -23 -9 -24 -43 16 -43 51 0 28 3 31 25 26
21 -4 23 -7 14 -24z m-1350 -25 c-7 -8 -13 -22 -14 -31 -2 -23 -55 -80 -55
-59 0 9 4 18 9 21 5 3 12 18 16 33 7 31 35 63 48 56 4 -3 2 -12 -4 -20z m-129
-3 c-6 -11 -18 -20 -27 -20 -14 0 -14 3 3 19 25 26 37 26 24 1z m2404 9 c-3
-6 -1 -15 6 -19 10 -6 9 -12 -3 -30 -9 -13 -17 -17 -22 -11 -3 6 -1 11 6 11 9
0 10 3 2 11 -12 12 -6 49 9 49 5 0 6 -5 2 -11z m-814 -14 c0 -10 -9 -15 -27
-14 -17 1 -21 3 -10 6 9 2 17 9 17 14 0 5 5 9 10 9 6 0 10 -7 10 -15z m733 -2
c21 -4 47 -27 47 -42 0 -14 -90 -15 -91 -1 -1 6 -1 19 -1 30 0 30 1 32 15 23
6 -4 20 -9 30 -10z m-2173 -13 c0 -5 -4 -10 -10 -10 -5 0 -10 5 -10 10 0 6 5
10 10 10 6 0 10 -4 10 -10z m-147 -47 c-7 -2 -21 -2 -30 0 -10 3 -4 5 12 5 17
0 24 -2 18 -5z m1462 -4 c12 -19 -3 -22 -27 -5 l-22 16 21 0 c12 0 25 -5 28
-11z m301 -44 c-7 -37 -20 -45 -30 -20 -3 9 0 15 9 15 10 0 15 10 15 27 0 14
3 24 6 20 4 -3 3 -22 0 -42z m-1586 21 c0 -8 -31 -36 -40 -36 -15 0 1 29 18
33 10 3 18 5 20 6 1 0 2 -1 2 -3z m1495 -16 c3 -5 -1 -10 -9 -10 -9 0 -16 5
-16 10 0 6 4 10 9 10 6 0 13 -4 16 -10z m-978 -40 c7 -17 7 -32 2 -36 -5 -3
-9 4 -9 15 0 11 -4 23 -10 26 -12 7 -13 25 -2 25 4 0 13 -13 19 -30z m1469 13
c18 -17 26 -55 13 -67 -3 -4 -14 8 -22 26 -9 18 -17 29 -17 25 0 -5 -5 -5 -10
-2 -8 5 -7 11 1 21 14 17 12 18 35 -3z m121 -5 c-3 -8 -6 -5 -6 6 -1 11 2 17
5 13 3 -3 4 -12 1 -19z m-2293 3 c3 -4 -1 -17 -9 -27 -14 -18 -14 -18 -15 9 0
26 13 36 24 18z m181 -10 c-3 -6 -11 -11 -16 -11 -5 0 -4 6 3 14 14 16 24 13
13 -3z m685 15 c0 -11 -19 -15 -25 -6 -3 5 1 10 9 10 9 0 16 -2 16 -4z m150
-6 c0 -5 -4 -10 -10 -10 -5 0 -10 5 -10 10 0 6 5 10 10 10 6 0 10 -4 10 -10z
m1210 0 c0 -5 -4 -10 -10 -10 -5 0 -10 5 -10 10 0 6 5 10 10 10 6 0 10 -4 10
-10z m150 -5 c0 -8 7 -15 15 -15 8 0 15 -7 15 -15 0 -17 -16 -20 -25 -5 -3 5
-12 7 -20 4 -8 -4 -13 -10 -10 -14 7 -11 -5 -40 -15 -40 -14 0 -22 38 -15 70
5 23 12 30 31 30 15 0 24 -6 24 -15z m-1123 -21 c2 -13 1 -15 -4 -4 -3 8 -11
19 -17 23 -7 6 -6 7 4 4 8 -2 16 -12 17 -23z m-1127 3 c0 -8 -9 -24 -20 -37
-11 -13 -20 -18 -20 -12 0 6 7 17 15 26 8 8 15 19 15 25 0 6 2 11 5 11 3 0 5
-6 5 -13z m1910 -22 c22 -7 27 -24 8 -26 -24 -2 -40 2 -70 21 l-30 18 35 -3
c20 -2 45 -6 57 -10z m-2160 1 c0 -3 -4 -8 -10 -11 -5 -3 -10 -1 -10 4 0 6 5
11 10 11 6 0 10 -2 10 -4z m970 -16 c0 -5 15 -10 33 -11 17 0 26 -3 20 -6 -7
-2 -13 -11 -13 -19 0 -19 -7 -18 -46 7 -19 11 -32 25 -28 30 7 12 34 12 34 -1z
m128 -2 c16 -16 15 -28 -3 -28 -8 0 -15 2 -15 4 0 2 -3 11 -6 20 -7 19 7 21
24 4z m-415 -50 c-9 -17 17 -46 37 -41 18 5 19 3 10 -21 -13 -36 -13 -43 2
-28 7 7 21 12 33 12 12 0 25 4 31 10 14 14 52 1 57 -22 5 -16 2 -19 -14 -15
-10 3 -19 1 -19 -4 0 -5 -13 -15 -29 -24 -22 -11 -28 -20 -24 -35 3 -11 9 -20
12 -20 4 0 24 -34 45 -75 21 -41 42 -77 47 -80 14 -9 11 -28 -4 -22 -10 4 -12
-3 -9 -24 5 -37 -23 -41 -32 -4 -4 14 -11 25 -16 25 -6 0 -10 6 -10 14 0 8 -3
16 -7 18 -9 4 -53 91 -53 105 0 20 -36 42 -58 36 -12 -3 -22 -9 -22 -13 0 -8
-34 -22 -57 -24 -6 -1 -15 -5 -19 -9 -4 -4 -12 -7 -18 -7 -6 1 -1 9 12 19 12
11 22 23 22 28 0 4 10 14 21 21 16 10 18 17 10 25 -14 14 -14 27 -1 27 6 0 10
-7 10 -15 0 -22 28 -18 35 5 4 12 0 31 -9 45 -21 32 -23 78 -6 110 13 24 15
24 21 8 4 -10 5 -21 2 -25z m991 27 c3 -8 1 -15 -4 -15 -6 0 -10 7 -10 15 0 8
2 15 4 15 2 0 6 -7 10 -15z m406 -13 c0 -13 -12 -22 -22 -16 -10 6 -1 24 13
24 5 0 9 -4 9 -8z m-990 -6 c0 -2 -7 -9 -15 -16 -12 -10 -15 -10 -15 4 0 9 7
16 15 16 8 0 15 -2 15 -4z m50 -11 c0 -8 7 -15 15 -15 8 0 15 -7 15 -15 0 -8
-7 -15 -15 -15 -8 0 -15 5 -15 12 0 6 -7 20 -17 30 -15 17 -15 18 0 18 10 0
17 -7 17 -15z m-580 -25 c0 -5 -4 -10 -10 -10 -5 0 -10 5 -10 10 0 6 5 10 10
10 6 0 10 -4 10 -10z m422 -21 c18 -14 25 -25 21 -39 -5 -19 -8 -19 -27 -6
-11 7 -20 21 -18 30 2 11 -5 16 -21 16 -14 0 -27 7 -31 15 -4 12 0 14 22 9 15
-4 39 -15 54 -25z m468 -35 c0 -8 4 -13 9 -9 6 3 14 -3 20 -12 6 -10 11 -12
11 -5 0 6 7 12 15 12 10 0 15 -10 15 -29 0 -16 10 -39 25 -55 14 -15 25 -31
25 -36 0 -5 7 -7 15 -4 9 4 15 0 15 -10 0 -9 -4 -16 -10 -16 -5 0 -10 -7 -10
-15 0 -8 5 -15 12 -15 9 0 9 -3 0 -12 -7 -7 -12 -20 -12 -30 0 -10 -7 -18 -17
-18 -13 0 -14 3 -5 12 13 13 16 38 4 38 -4 0 -16 -16 -26 -35 -17 -31 -46 -48
-46 -27 0 4 -11 20 -25 36 -14 16 -22 32 -19 35 3 3 10 -2 15 -12 12 -21 29
-22 29 -2 0 8 -4 15 -10 15 -5 0 -12 23 -16 51 -5 34 -15 59 -31 75 -13 13
-19 24 -13 24 5 0 10 5 10 10 0 6 -6 10 -14 10 -9 0 -12 7 -9 20 6 23 43 27
43 4z m-1113 -23 c-10 -27 -44 -57 -53 -48 -4 3 56 76 63 77 1 0 -4 -13 -10
-29z m-353 -35 c-7 -17 -34 -22 -34 -6 0 6 7 10 15 10 8 0 15 5 15 12 0 6 2 9
5 6 3 -3 3 -13 -1 -22z m1396 -12 c0 -16 -16 -19 -25 -4 -8 13 4 32 16 25 5
-4 9 -13 9 -21z m-1425 -34 c-3 -5 -12 -10 -18 -10 -7 0 -6 4 3 10 19 12 23
12 15 0z m1468 -2 c-16 -21 -21 -54 -11 -72 13 -24 -27 -21 -54 4 l-21 19 24
24 c32 32 83 52 62 25z m-1403 -28 c-8 -5 -19 -10 -25 -10 -5 0 -3 5 5 10 8 5
20 10 25 10 6 0 3 -5 -5 -10z m670 -21 c0 -5 -7 -9 -15 -9 -9 0 -12 6 -9 15 6
15 24 11 24 -6z m-840 -29 c0 -5 -5 -10 -11 -10 -5 0 -7 5 -4 10 3 6 8 10 11
10 2 0 4 -4 4 -10z m830 -1 c0 -8 5 -8 15 1 9 7 15 8 15 2 0 -5 -7 -12 -15
-16 -18 -7 -20 -46 -2 -47 10 0 10 -2 0 -6 -15 -6 -17 -33 -3 -33 13 0 100
-86 100 -99 0 -6 6 -11 14 -11 8 0 16 -7 20 -15 3 -8 13 -14 23 -14 17 1 17 2
1 6 -19 5 -25 43 -8 43 6 0 10 -4 10 -10 0 -5 7 -10 15 -10 9 0 18 -8 22 -17
3 -10 30 -51 60 -90 35 -49 48 -73 38 -73 -8 0 -15 5 -15 11 0 6 -7 8 -17 5
-21 -9 -35 14 -20 33 10 12 8 14 -11 9 -14 -4 -20 -2 -15 5 4 6 0 8 -11 4 -10
-4 -23 1 -34 12 -54 58 -72 80 -72 90 0 6 -5 11 -11 11 -7 0 -21 10 -33 23
-12 13 -30 26 -40 30 -10 4 -20 16 -23 27 -3 11 -9 20 -14 20 -5 0 -9 12 -9
28 0 48 -4 72 -12 72 -4 0 -8 5 -8 10 0 6 9 10 20 10 11 0 20 -5 20 -11z m-49
-25 c22 -20 25 -39 5 -31 -8 3 -16 1 -18 -4 -4 -12 -58 32 -58 47 0 17 49 8
71 -12z m99 -25 c0 -5 -4 -9 -10 -9 -5 0 -10 7 -10 16 0 8 5 12 10 9 6 -3 10
-10 10 -16z m1330 17 c0 -2 -7 -7 -16 -10 -8 -3 -12 -2 -9 4 6 10 25 14 25 6z
m-80 -16 c0 -5 -4 -10 -10 -10 -5 0 -10 5 -10 10 0 6 5 10 10 10 6 0 10 -4 10
-10z m-1330 -30 c0 -5 -2 -10 -4 -10 -3 0 -8 5 -11 10 -3 6 -1 10 4 10 6 0 11
-4 11 -10z m110 -14 c0 -2 -7 -6 -15 -10 -8 -3 -15 -1 -15 4 0 6 7 10 15 10 8
0 15 -2 15 -4z m670 -16 c0 -5 -4 -10 -10 -10 -5 0 -10 5 -10 10 0 6 5 10 10
10 6 0 10 -4 10 -10z m140 -14 c0 -3 -4 -8 -10 -11 -5 -3 -10 -1 -10 4 0 6 5
11 10 11 6 0 10 -2 10 -4z m-1228 -41 c-6 -34 -12 -32 -12 6 0 16 4 28 9 25 4
-3 6 -17 3 -31z m1773 25 c-3 -5 -10 -10 -16 -10 -5 0 -9 5 -9 10 0 6 7 10 16
10 8 0 12 -4 9 -10z m-53 -32 c-7 -7 -12 -8 -12 -2 0 14 12 26 19 19 2 -3 -1
-11 -7 -17z m83 -26 c-6 -15 -8 -14 -16 6 -11 29 0 52 13 28 5 -10 7 -25 3
-34z m-1305 22 c0 -2 -9 -4 -21 -4 -11 0 -18 4 -14 10 5 8 35 3 35 -6z m-649
-57 c-10 -9 -11 -8 -5 6 3 10 9 15 12 12 3 -3 0 -11 -7 -18z m1961 -33 c-2
-10 -4 -30 -6 -44 -2 -14 -4 -30 -4 -36 -1 -7 -10 -15 -19 -19 -15 -5 -16 -4
-5 6 14 15 16 33 2 24 -5 -3 -10 -2 -10 4 0 5 5 13 10 16 6 3 10 22 10 41 0
24 4 34 13 31 6 -2 11 -13 9 -23z m8 -134 c0 -5 -7 -10 -15 -10 -8 0 -15 5
-15 10 0 6 7 10 15 10 8 0 15 -4 15 -10z m-2090 -186 c0 -2 -12 -4 -27 -4 -21
0 -24 3 -14 9 13 8 41 5 41 -5z"/>
<path d="M3678 4744 c-9 -10 -34 -20 -55 -23 -45 -7 -54 -36 -12 -36 27 -1 50
-18 62 -45 4 -8 5 2 2 22 -5 31 -3 37 10 32 8 -3 15 -1 15 4 0 6 7 18 17 27
14 14 14 18 2 26 -19 12 -22 11 -41 -7z"/>
<path d="M3122 4729 c2 -7 10 -15 17 -17 8 -3 12 1 9 9 -2 7 -10 15 -17 17 -8
3 -12 -1 -9 -9z"/>
<path d="M3233 4725 c-7 -8 -13 -19 -13 -25 0 -13 -17 -13 -25 0 -6 10 -35 3
-35 -9 0 -3 6 -14 14 -23 18 -24 50 -12 66 25 7 18 15 35 18 40 7 13 -12 7
-25 -8z"/>
<path d="M4104 4705 c-4 -8 -14 -15 -24 -15 -28 0 -50 -11 -50 -25 0 -9 8 -11
22 -7 18 4 20 2 15 -17 -4 -17 -2 -21 10 -17 8 3 19 6 24 6 5 0 9 16 7 36 -1
22 3 39 12 44 11 7 11 10 2 10 -7 0 -15 -7 -18 -15z"/>
<path d="M3707 4651 c-4 -18 -14 -30 -27 -34 -13 -3 -19 -10 -15 -16 3 -6 11
-9 16 -5 6 3 21 7 35 9 39 4 50 20 34 50 -18 33 -36 32 -43 -4z"/>
<path d="M3862 4664 c-7 -8 -8 -14 -3 -14 10 0 25 19 20 25 -2 1 -10 -3 -17
-11z"/>
<path d="M3905 4670 c-3 -5 -2 -10 4 -10 5 0 13 5 16 10 3 6 2 10 -4 10 -5 0
-13 -4 -16 -10z"/>
<path d="M3244 4646 c-9 -23 -1 -28 30 -20 24 6 37 24 17 24 -5 0 -16 3 -25 6
-10 4 -18 0 -22 -10z"/>
<path d="M3421 4651 c-7 -5 -11 -15 -9 -22 3 -10 8 -7 17 9 13 24 12 26 -8 13z"/>
<path d="M3935 4631 c5 -16 3 -20 -9 -15 -9 3 -16 1 -16 -5 0 -6 -8 -11 -17
-12 -12 0 -8 -4 10 -11 15 -5 25 -14 21 -19 -3 -5 0 -9 5 -9 6 0 11 7 11 15 0
8 6 15 14 15 11 0 33 30 24 34 -2 1 -14 7 -26 14 -22 12 -23 12 -17 -7z"/>
<path d="M3820 4610 c0 -5 5 -10 11 -10 5 0 7 5 4 10 -3 6 -8 10 -11 10 -2 0
-4 -4 -4 -10z"/>
<path d="M3330 4595 c0 -8 5 -15 10 -15 6 0 10 7 10 15 0 8 -4 15 -10 15 -5 0
-10 -7 -10 -15z"/>
<path d="M3540 4585 c0 -8 5 -15 10 -15 6 0 10 7 10 15 0 8 -4 15 -10 15 -5 0
-10 -7 -10 -15z"/>
<path d="M4000 4585 c-10 -13 -9 -19 6 -36 18 -20 18 -21 -1 -35 -18 -14 -18
-14 2 -33 21 -20 21 -19 52 6 17 14 31 32 31 40 0 8 -4 12 -8 9 -4 -2 -14 -1
-22 5 -13 7 -12 9 3 9 9 0 17 5 17 10 0 6 8 10 17 10 14 0 13 3 -6 16 -16 12
-26 13 -33 6 -7 -7 -17 -8 -28 -2 -13 7 -22 5 -30 -5z m50 -69 c0 -2 -7 -7
-16 -10 -8 -3 -12 -2 -9 4 6 10 25 14 25 6z"/>
<path d="M3870 4552 c0 -10 27 -42 36 -42 8 0 4 7 -16 30 -11 13 -20 18 -20
12z"/>
<path d="M3942 4538 c-16 -16 -15 -28 3 -28 8 0 15 9 15 20 0 23 -2 24 -18 8z"/>
<path d="M4416 4494 c-3 -8 -1 -14 4 -14 6 0 10 -7 10 -15 0 -17 16 -20 25 -5
3 5 -3 18 -14 29 -16 16 -21 17 -25 5z"/>
<path d="M4075 4450 c3 -5 8 -10 11 -10 2 0 4 5 4 10 0 6 -5 10 -11 10 -5 0
-7 -4 -4 -10z"/>
<path d="M4400 4440 c0 -5 5 -10 11 -10 5 0 7 5 4 10 -3 6 -8 10 -11 10 -2 0
-4 -4 -4 -10z"/>
<path d="M4717 4159 c4 -14 0 -19 -13 -19 -16 0 -17 -2 -4 -11 11 -8 12 -12 3
-16 -7 -2 -13 -11 -13 -20 0 -25 25 -8 28 20 2 15 8 27 13 27 14 0 11 27 -5
33 -10 4 -12 0 -9 -14z"/>
<path d="M4607 4122 c3 -7 13 -10 23 -7 10 3 21 1 25 -5 3 -5 11 -10 17 -10 6
0 3 9 -6 19 -19 21 -66 24 -59 3z"/>
<path d="M3680 4093 c1 -18 28 -44 35 -34 3 6 0 18 -9 26 -16 16 -26 19 -26 8z"/>
<path d="M3590 3989 c0 -5 5 -7 10 -4 6 3 10 8 10 11 0 2 -4 4 -10 4 -5 0 -10
-5 -10 -11z"/>
<path d="M3935 3790 c-3 -6 1 -7 9 -4 18 7 21 14 7 14 -6 0 -13 -4 -16 -10z"/>
<path d="M3420 3770 c0 -5 5 -10 11 -10 5 0 7 5 4 10 -3 6 -8 10 -11 10 -2 0
-4 -4 -4 -10z"/>
<path d="M3300 3500 c0 -5 5 -10 10 -10 6 0 10 5 10 10 0 6 -4 10 -10 10 -5 0
-10 -4 -10 -10z"/>
<path d="M3203 3153 c-18 -7 -16 -23 2 -23 8 0 15 7 15 15 0 8 -1 15 -2 14 -2
0 -9 -3 -15 -6z"/>
<path d="M3242 3120 c0 -14 2 -19 5 -12 2 6 2 18 0 25 -3 6 -5 1 -5 -13z"/>
<path d="M3175 3070 c-3 -5 -1 -10 4 -10 6 0 11 5 11 10 0 6 -2 10 -4 10 -3 0
-8 -4 -11 -10z"/>
<path d="M4210 3050 c13 -11 29 -20 36 -20 7 0 10 8 7 20 -4 14 -14 20 -36 20
l-30 0 23 -20z"/>
<path d="M2962 4698 c-7 -7 -12 -16 -12 -21 0 -5 7 -1 16 8 9 9 14 18 12 20
-2 3 -10 -1 -16 -7z"/>
<path d="M2905 4610 c-3 -5 1 -10 9 -10 9 0 16 5 16 10 0 6 -4 10 -9 10 -6 0
-13 -4 -16 -10z"/>
<path d="M4774 4485 c-4 -14 -4 -29 0 -32 3 -4 6 1 6 10 0 10 4 17 9 17 5 0
11 7 15 15 3 9 0 15 -9 15 -8 0 -17 -11 -21 -25z"/>
<path d="M3603 3545 c-16 -18 -16 -22 1 -28 9 -4 14 2 14 19 0 13 -1 24 -2 24
0 -1 -7 -7 -13 -15z"/>
<path d="M3870 3310 c0 -5 7 -10 16 -10 8 0 12 5 9 10 -3 6 -10 10 -16 10 -5
0 -9 -4 -9 -10z"/>
<path d="M3810 3285 c-7 -8 -21 -15 -31 -15 -11 0 -19 -7 -19 -15 0 -8 2 -15
5 -15 12 0 54 32 59 46 7 18 2 18 -14 -1z"/>
<path d="M3525 3240 c-3 -5 -1 -10 4 -10 6 0 11 5 11 10 0 6 -2 10 -4 10 -3 0
-8 -4 -11 -10z"/>
<path d="M3586 3241 c-3 -5 3 -20 14 -32 20 -25 24 -20 14 19 -7 23 -19 29
-28 13z"/>
<path d="M3710 3165 c0 -8 4 -15 9 -15 5 0 11 7 15 15 3 9 0 15 -9 15 -8 0
-15 -7 -15 -15z"/>
<path d="M4800 2709 c0 -5 5 -7 10 -4 6 3 10 8 10 11 0 2 -4 4 -10 4 -5 0 -10
-5 -10 -11z"/>
<path d="M4770 2675 c0 -8 7 -15 15 -15 8 0 15 -6 15 -12 0 -9 3 -8 10 2 5 9
5 19 -2 27 -14 18 -38 16 -38 -2z"/>
<path d="M5084 3072 c4 -7 1 -12 -8 -12 -8 0 -18 -4 -21 -10 -3 -5 3 -10 13
-10 23 0 37 26 20 36 -7 4 -8 3 -4 -4z"/>
<path d="M3625 2630 c3 -5 8 -10 11 -10 2 0 4 5 4 10 0 6 -5 10 -11 10 -5 0
-7 -4 -4 -10z"/>
<path d="M3763 2603 c-18 -7 -16 -33 2 -33 8 0 15 -6 15 -12 0 -7 5 -5 11 5
18 31 3 53 -28 40z"/>
<path d="M4990 2640 c0 -5 5 -10 10 -10 6 0 10 5 10 10 0 6 -4 10 -10 10 -5 0
-10 -4 -10 -10z"/>
<path d="M3150 2131 c0 -10 19 -25 25 -20 1 2 -3 10 -11 17 -8 7 -14 8 -14 3z"/>
</g>
</svg>
