<?xml version="1.0" standalone="no"?>
<!DOCTYPE svg PUBLIC "-//W3C//DTD SVG 20010904//EN"
 "http://www.w3.org/TR/2001/REC-SVG-20010904/DTD/svg10.dtd">
<svg version="1.0" xmlns="http://www.w3.org/2000/svg"
 width="1024.000000pt" height="1024.000000pt" viewBox="0 0 1024.000000 1024.000000"
 preserveAspectRatio="xMidYMid meet">

<g transform="translate(0.000000,1024.000000) scale(0.100000,-0.100000)"
fill="#000000" stroke="none">
<path d="M3349 10147 c-90 -38 -170 -92 -235 -159 -73 -75 -253 -314 -312
-413 -23 -38 -45 -74 -49 -80 -19 -23 -74 -117 -88 -151 -17 -41 -20 -101 -6
-137 8 -21 54 -72 199 -223 8 -8 22 -19 33 -24 10 -6 19 -15 19 -20 0 -15
-163 -99 -252 -129 -88 -31 -176 -76 -318 -166 -48 -30 -147 -79 -221 -108
-355 -143 -408 -170 -514 -265 -27 -25 -62 -53 -77 -62 -48 -29 -153 -127
-199 -186 -89 -113 -113 -141 -203 -234 -51 -52 -100 -106 -109 -119 -9 -14
-61 -70 -115 -125 -54 -56 -125 -135 -158 -176 -32 -41 -78 -93 -101 -115 -23
-22 -63 -68 -90 -102 -26 -34 -79 -97 -118 -141 -108 -123 -185 -222 -212
-276 -38 -74 -39 -138 -8 -316 15 -85 31 -193 35 -240 8 -88 49 -259 98 -415
16 -50 39 -136 52 -190 35 -155 87 -346 141 -515 26 -85 58 -189 69 -230 12
-41 30 -100 41 -130 11 -30 29 -86 40 -124 25 -86 49 -132 91 -175 48 -49 85
-61 187 -61 129 0 207 26 260 87 52 58 70 118 77 253 3 58 17 153 30 212 20
89 24 134 24 275 0 146 -3 180 -24 258 -13 50 -30 115 -36 145 -19 88 1 358
38 505 11 44 22 125 26 180 3 55 10 116 16 135 5 19 10 107 10 195 1 93 6 183
14 215 l13 55 169 0 169 0 -2 -395 c-2 -217 -5 -663 -8 -990 l-6 -595 47 -190
c33 -139 58 -214 89 -280 24 -49 58 -121 75 -160 36 -82 90 -141 140 -155 56
-16 317 -12 402 5 63 13 190 15 918 12 465 -2 886 -6 935 -10 113 -8 231 -29
236 -42 2 -5 -11 -25 -30 -45 -18 -19 -51 -63 -74 -97 -23 -35 -81 -111 -129
-170 -48 -60 -121 -153 -162 -208 -42 -55 -105 -136 -142 -180 -132 -159 -173
-243 -174 -355 -1 -76 45 -345 100 -585 22 -93 42 -186 45 -205 4 -19 13 -55
21 -79 8 -24 37 -156 65 -293 53 -263 91 -396 192 -667 55 -149 65 -169 114
-222 73 -78 113 -93 240 -87 110 5 151 20 216 84 65 62 87 105 102 195 7 46
30 149 49 228 l36 145 0 240 c0 175 -4 260 -15 311 -8 39 -15 118 -15 177 0
59 -4 129 -9 155 -14 68 -23 424 -15 565 l7 118 76 -4 c50 -2 96 -12 136 -28
50 -20 60 -29 66 -54 3 -17 2 -39 -2 -50 -11 -27 -9 -1377 2 -1449 5 -33 11
-91 14 -130 5 -70 33 -244 61 -383 7 -40 14 -87 14 -105 0 -37 34 -199 50
-244 22 -57 100 -205 140 -263 22 -32 57 -72 77 -87 l36 -28 650 -3 c481 -2
658 1 685 9 53 18 872 25 973 9 120 -19 253 -24 293 -10 68 22 115 115 146
287 6 34 26 110 44 170 67 217 96 368 96 510 1 59 7 137 15 173 8 36 15 97 15
135 0 39 6 88 12 110 7 26 14 221 20 540 10 624 17 818 27 828 5 5 24 12 44
16 52 12 215 -21 254 -52 25 -19 31 -75 22 -179 -6 -57 -10 -364 -10 -683 0
-338 -3 -597 -9 -620 -5 -22 -14 -114 -20 -205 -10 -140 -9 -180 5 -265 9 -55
21 -138 26 -185 13 -111 43 -221 74 -269 51 -81 135 -121 256 -121 81 0 113
11 157 53 43 41 57 68 83 164 12 43 32 104 45 136 23 55 32 87 73 277 10 47
33 126 50 175 18 50 62 207 97 350 36 143 87 330 114 415 72 227 140 516 140
592 0 19 -6 55 -14 80 -15 51 -156 288 -245 413 -32 44 -79 112 -105 150 -26
39 -66 93 -88 120 -37 46 -246 321 -294 387 -12 16 -46 55 -76 87 -30 32 -83
96 -119 141 -151 194 -339 427 -361 446 -26 24 -186 131 -364 243 -64 41 -138
93 -163 115 -81 71 -221 154 -330 197 -131 51 -211 98 -234 137 -34 60 -57
212 -57 388 0 147 -4 182 -35 341 -40 202 -64 303 -75 318 -4 6 -17 36 -29 68
-35 95 -86 189 -151 275 -38 51 -160 139 -253 182 -73 34 -248 80 -303 80 -24
0 -423 397 -537 535 -41 50 -141 155 -222 235 -80 80 -170 174 -198 210 -29
36 -69 83 -91 105 -21 22 -65 74 -96 115 -95 123 -391 408 -500 480 -91 61
-238 140 -290 155 -95 28 -163 88 -206 178 -27 58 -27 58 -7 80 34 39 103 153
113 188 27 94 4 213 -71 367 -45 93 -61 114 -157 211 -185 185 -424 349 -717
488 l-80 38 -145 3 c-132 2 -150 0 -201 -21z m741 -2534 c0 -3 -6 -14 -13 -22
-11 -12 -101 -255 -123 -329 -2 -8 -15 -12 -30 -10 -24 3 -30 14 -68 121 -23
65 -48 122 -55 126 -11 7 -8 15 10 40 12 17 25 31 29 31 3 0 23 -47 44 -105
22 -58 40 -104 42 -102 7 6 77 211 80 232 1 11 3 21 3 23 2 5 81 1 81 -5z
m330 -10 c-1 -42 -13 -47 -128 -44 l-110 2 -11 -32 c-6 -17 -11 -36 -11 -42 0
-5 33 -8 80 -5 76 3 80 2 74 -17 -14 -46 -18 -48 -100 -46 l-79 2 -18 -51
c-10 -29 -16 -54 -13 -57 10 -11 178 -13 197 -2 22 11 22 11 8 -30 l-11 -31
-149 0 -150 0 21 28 c22 30 112 285 109 311 -1 9 -1 19 0 24 0 4 66 7 146 7
131 0 145 -2 145 -17z m120 14 c0 -2 -7 -18 -15 -34 -28 -56 -108 -288 -108
-310 1 -20 -4 -23 -38 -23 -39 0 -47 7 -30 26 5 5 21 47 36 94 16 47 41 116
56 153 15 38 25 75 22 83 -4 11 5 14 36 14 23 0 41 -2 41 -3z m105 -14 c-4
-10 -26 -74 -50 -143 -24 -69 -47 -133 -51 -143 -6 -18 0 -19 104 -15 108 3
112 2 106 -17 -13 -43 -22 -45 -159 -45 -72 0 -135 3 -138 7 -4 3 -2 11 3 18
11 13 121 320 119 332 -3 19 3 23 37 23 30 0 35 -3 29 -17z m1000 -829 c17 -7
43 -53 75 -135 15 -38 23 -87 26 -164 4 -64 17 -154 31 -215 27 -114 27 -153
-3 -335 -21 -133 -31 -606 -14 -685 7 -30 12 -101 12 -158 l-1 -103 -63 -59
c-70 -66 -199 -138 -293 -165 -33 -10 -72 -24 -87 -31 -15 -8 -29 -11 -31 -7
-3 5 -8 51 -12 103 -4 69 -2 117 9 175 10 50 16 136 16 230 1 86 7 184 15 230
11 58 15 164 15 392 0 317 -2 340 -49 588 -5 28 -11 113 -13 190 l-3 139 25 7
c32 9 323 11 345 3z m1252 -2451 l1 -58 -9 50 c-11 55 -14 59 -27 52 -13 -9
10 -170 26 -175 8 -2 12 9 13 35 l2 38 6 -35 c4 -21 12 -35 20 -35 8 0 38 39
65 87 32 55 57 87 66 85 10 -1 23 -36 41 -105 l26 -102 -33 0 c-34 0 -54 15
-32 23 20 7 -12 33 -49 40 -25 5 -35 2 -42 -12 -6 -10 -7 -21 -4 -25 3 -3 -11
-6 -33 -6 -21 0 -48 -3 -59 -6 -19 -5 -20 -1 -17 36 5 51 -5 62 -47 54 -31 -6
-33 -9 -28 -38 3 -17 8 -38 12 -47 5 -13 -1 -18 -30 -21 -27 -3 -34 -1 -30 9
7 20 -15 166 -27 181 -8 9 -4 12 15 12 14 0 32 3 40 6 11 4 13 -1 10 -20 -3
-14 -3 -36 1 -49 5 -20 10 -22 41 -19 38 5 42 14 26 70 -9 31 -9 32 22 32 l32
0 2 -57z m356 6 c18 -8 27 -26 42 -85 10 -41 21 -74 25 -74 11 0 39 90 33 106
-5 12 -2 13 21 3 21 -10 24 -14 13 -21 -8 -4 -29 -44 -48 -88 -18 -44 -38 -79
-43 -77 -6 2 -21 40 -32 85 -12 44 -24 87 -26 94 -6 16 -49 -78 -51 -109 -2
-23 -21 -31 -32 -13 -3 6 -2 10 2 10 13 0 76 158 68 170 -8 13 -2 13 28 -1z
m-573 -30 c18 -33 7 -62 -33 -88 -32 -21 -37 -29 -32 -50 4 -14 11 -29 17 -32
12 -7 4 -13 -36 -29 -20 -7 -26 -7 -24 3 3 15 -38 124 -58 155 -9 13 -14 25
-12 26 19 14 92 34 125 35 33 1 45 -4 53 -20z m821 -99 c32 -23 59 -48 59 -56
0 -8 5 -12 10 -9 6 3 10 2 10 -4 0 -23 -21 -20 -30 3 -9 25 -30 36 -30 16 0
-5 -5 -10 -12 -10 -9 0 -9 3 0 12 17 17 15 28 -5 27 -25 -1 -116 -126 -108
-147 5 -14 10 -12 28 13 12 16 35 43 50 60 19 20 15 10 -12 -27 -23 -31 -41
-62 -41 -68 0 -6 -14 -2 -30 10 -29 21 -30 22 -12 38 21 19 102 126 102 135 0
3 -13 8 -30 12 -29 6 -37 15 -23 28 10 10 9 10 74 -33z m-1166 -50 c3 -5 -10
-16 -28 -24 -49 -20 -53 -33 -21 -67 l29 -30 17 21 c10 12 23 18 29 14 8 -5 4
-13 -12 -25 l-24 -18 29 -30 c17 -17 34 -31 39 -31 5 0 16 18 24 40 17 42 27
49 36 26 3 -8 -20 -38 -55 -72 -34 -33 -58 -54 -54 -47 3 6 -23 42 -62 82
l-68 71 50 50 c53 52 61 57 71 40z m1255 -87 c-8 -3 -24 -10 -35 -15 -20 -9
-20 -9 -1 6 11 9 27 16 35 15 14 0 14 -1 1 -6z m70 -13 c0 -5 -7 -10 -15 -10
-8 0 -15 5 -15 10 0 6 7 10 15 10 8 0 15 -4 15 -10z m-50 -14 c0 -2 -12 -12
-27 -21 l-28 -18 19 21 c17 20 36 29 36 18z m-390 -20 c0 -39 -71 -117 -433
-479 -355 -354 -446 -437 -483 -437 -1 0 7 21 18 48 16 37 106 132 412 440
263 265 404 400 431 412 41 19 55 23 55 16z m-972 -89 c35 -20 68 -37 73 -37
13 0 11 -7 -8 -36 -9 -14 -19 -21 -22 -17 -10 14 -60 43 -74 43 -11 0 -37 -38
-37 -55 0 -2 18 -14 40 -26 22 -13 40 -25 40 -29 0 -14 -33 -51 -39 -42 -9 14
-144 95 -158 95 -8 0 -8 8 3 29 l14 28 40 -25 c22 -14 42 -25 45 -25 2 0 12
14 20 31 15 29 15 32 -2 45 -10 8 -28 17 -40 20 -27 7 -27 8 -7 40 14 21 19
23 33 11 9 -7 44 -30 79 -50z m1274 40 c19 17 19 17 7 -10 -10 -22 -10 -33 -1
-48 8 -12 9 -19 2 -19 -12 0 -41 61 -39 82 1 7 3 5 6 -5 5 -18 5 -18 25 0z
m130 -29 c-6 -7 -25 -22 -44 -32 -36 -20 -30 -12 16 22 32 25 44 28 28 10z
m28 -32 c0 -3 -4 -8 -10 -11 -5 -3 -10 -1 -10 4 0 6 5 11 10 11 6 0 10 -2 10
-4z m-52 -37 c-16 -11 -65 -12 -71 -1 -3 4 15 7 40 8 27 1 39 -2 31 -7z m-262
-56 c-15 -30 -89 -113 -196 -222 l-172 -174 -26 27 -26 26 174 176 c154 155
221 209 263 213 4 1 -4 -20 -17 -46z m424 43 c0 -2 -7 -9 -15 -16 -13 -11 -14
-10 -9 4 5 14 24 23 24 12z m-60 -26 c-20 -13 -33 -13 -25 0 3 6 14 10 23 10
15 0 15 -2 2 -10z m-14 -64 c-51 -61 -29 -67 28 -6 52 56 60 56 16 0 -16 -21
-30 -40 -30 -43 0 -3 26 -9 58 -12 95 -12 122 -53 47 -73 -25 -6 -68 -23 -95
-36 l-51 -25 -10 26 c-5 14 -12 30 -16 36 -3 6 -1 7 6 3 7 -4 42 5 79 21 64
27 65 28 37 34 -17 4 -47 7 -68 8 -53 1 -56 22 -10 75 49 57 57 51 9 -8z m-71
25 c-21 -12 -32 -15 -37 -7 -8 12 15 24 47 25 16 1 14 -3 -10 -18z m-1585 -28
c0 -4 -10 -17 -21 -30 -17 -17 -19 -24 -8 -27 83 -28 156 -45 171 -40 16 5 17
2 9 -18 -5 -13 -12 -32 -16 -43 -4 -12 -9 -15 -13 -8 -6 9 -129 51 -167 57 -5
0 -8 -14 -6 -31 2 -25 -2 -33 -13 -33 -9 0 -16 3 -16 7 0 10 41 157 47 166 5
9 33 9 33 0z m1472 -115 c-14 -31 -128 -151 -416 -438 -217 -217 -410 -403
-428 -412 -54 -29 -61 -23 -34 30 33 63 796 826 852 852 22 9 41 16 42 14 2
-1 -5 -22 -16 -46z m-677 -370 c-178 -186 -296 -298 -333 -317 -24 -12 -46
-20 -49 -18 -2 3 3 22 12 43 10 25 79 102 193 216 l177 178 25 -25 24 -25 -49
-52z m878 -321 c32 -43 56 -81 53 -84 -3 -4 -33 1 -66 10 -33 10 -62 17 -65
17 -3 0 12 -24 34 -52 22 -29 36 -57 32 -61 -5 -5 -50 5 -101 22 -50 17 -96
29 -101 25 -15 -9 -10 5 13 36 12 17 24 26 27 21 7 -11 111 -52 111 -44 0 3
-16 27 -35 53 -30 41 -43 70 -32 70 2 0 30 -9 62 -20 32 -11 60 -18 62 -16 9
8 -63 95 -74 91 -10 -3 -10 0 0 15 8 14 13 16 16 8 2 -7 31 -48 64 -91z
m-1473 23 c23 -33 38 -65 34 -72 -5 -7 -3 -8 6 -3 8 5 11 3 8 -5 -9 -28 -28
-22 -28 9 0 17 -3 31 -7 31 -11 -1 -123 -74 -146 -95 -10 -9 -20 -15 -21 -13
-36 54 -44 74 -26 63 6 -4 45 15 87 41 68 43 74 48 58 60 -10 7 -22 15 -28 17
-12 4 -1 27 13 27 5 0 28 -27 50 -60z m153 -180 c33 -37 36 -87 7 -121 l-21
-24 16 32 c8 18 15 42 15 54 0 16 -7 11 -33 -27 -18 -26 -40 -50 -48 -52 -7
-3 -2 8 12 24 38 41 52 72 45 100 -10 39 -47 31 -94 -20 -49 -53 -59 -81 -38
-105 9 -10 16 -24 16 -32 1 -10 5 -8 15 5 15 20 15 20 14 0 0 -10 -7 -46 -14
-79 -12 -49 -14 -53 -12 -21 1 28 -3 41 -13 44 -19 6 -60 43 -60 54 0 4 6 8
14 8 24 0 27 15 10 49 -20 41 -5 90 39 127 40 34 90 28 130 -16z m1111 -15
c32 -15 66 -68 66 -103 0 -33 -38 -80 -74 -92 -31 -10 -42 -9 -74 7 -42 21
-77 80 -68 117 7 29 54 76 76 76 21 0 86 -64 102 -101 15 -35 28 -37 28 -6 0
32 -34 78 -72 99 -41 21 -28 24 16 3z m-1010 -66 c25 -12 43 -39 26 -39 -6 0
-10 5 -10 10 0 6 -4 10 -10 10 -5 0 -10 -9 -10 -21 0 -15 5 -19 18 -15 10 4
27 0 38 -8 19 -15 18 -16 -8 -41 -33 -30 -34 -33 -12 -31 16 1 20 -9 26 -64 5
-39 -36 -47 -127 -26 -71 17 -105 35 -105 57 0 14 51 60 61 54 4 -3 11 0 15 6
4 8 3 9 -4 5 -7 -4 -12 -1 -12 8 0 20 17 30 23 14 3 -8 6 -6 6 5 1 10 9 17 21
17 22 0 44 34 36 56 -7 17 -4 17 28 3z m820 -55 c9 -8 16 -19 16 -24 0 -17
-12 -40 -21 -40 -6 0 -5 9 1 21 14 25 -2 49 -33 49 -18 0 -19 -2 -5 -17 8 -10
18 -30 22 -45 4 -17 13 -28 24 -28 9 -1 32 -14 51 -29 32 -28 32 -30 13 -40
-28 -15 -24 -16 -72 24 -23 19 -46 32 -52 29 -12 -8 -1 -54 18 -75 13 -15 13
-17 -3 -22 -10 -2 -26 -8 -36 -12 -10 -4 -17 -4 -15 1 5 16 -64 174 -76 174
-23 1 100 49 126 50 15 0 34 -7 42 -16z m-1164 -14 c0 -5 -4 -10 -9 -10 -6 0
-13 5 -16 10 -3 6 1 10 9 10 9 0 16 -4 16 -10z m202 -32 c-6 -6 -7 0 -4 19 5
21 7 23 10 9 2 -10 0 -22 -6 -28z m-232 -10 c0 -30 -23 -16 -24 14 -1 21 1 24
11 16 7 -6 13 -19 13 -30z m534 -65 c-24 -48 -41 -90 -38 -95 3 -4 1 -8 -4 -8
-20 0 -20 14 -2 40 11 16 20 31 20 34 0 3 11 28 24 56 22 46 23 60 4 60 -4 0
-22 -27 -39 -61 -16 -34 -33 -59 -35 -56 -3 3 4 20 15 38 27 43 26 52 -1 43
-27 -8 -21 0 24 31 25 17 38 20 53 13 20 -9 20 -12 -21 -95z m-604 77 c0 -5
-4 -10 -10 -10 -5 0 -10 5 -10 10 0 6 5 10 10 10 6 0 10 -4 10 -10z m137 -3
c12 4 46 -37 37 -46 -3 -3 -14 5 -25 19 -20 24 -20 24 -14 3 8 -30 -11 -30
-35 -1 -21 26 -17 42 8 29 9 -4 22 -6 29 -4z m-174 -39 c9 -21 12 -38 7 -38
-8 0 -30 53 -30 73 0 15 6 6 23 -35z m864 10 c29 -27 39 -79 23 -119 -41 -98
-190 -68 -190 39 0 93 101 142 167 80z m221 16 c26 -18 27 -64 2 -72 -12 -4
-13 -2 -2 9 22 24 9 59 -22 59 -11 0 14 -81 30 -97 10 -12 29 -33 41 -47 l21
-26 -24 -6 c-28 -7 -49 7 -70 48 -21 40 -52 38 -56 -4 -2 -23 -6 -11 -13 40
-6 39 -7 72 -3 72 4 0 8 -13 8 -29 0 -36 8 -41 38 -30 25 10 30 50 8 68 -16
14 -91 10 -91 -4 0 -6 4 -45 9 -88 8 -77 9 -79 32 -74 14 2 27 0 30 -4 3 -5
-1 -9 -8 -9 -7 0 -23 -3 -35 -6 -21 -6 -23 -3 -23 32 0 22 -6 68 -14 102 -14
69 -14 68 39 75 62 8 81 7 103 -9z m-999 -24 c16 0 14 -15 -4 -30 -12 -10 -15
-10 -15 4 0 9 -4 16 -10 16 -5 0 -10 10 -10 23 1 20 2 21 14 5 7 -10 18 -18
25 -18z m218 -2 c-8 -24 -12 -28 -15 -15 -2 10 2 24 8 32 19 22 20 18 7 -17z
m-163 -43 c6 -18 -2 -45 -15 -45 -5 0 -17 -15 -26 -34 -15 -32 -15 -36 1 -51
9 -9 16 -21 16 -26 0 -12 -61 -49 -72 -43 -4 3 -7 24 -6 47 1 23 -2 62 -6 87
l-7 45 15 -33 c9 -18 12 -40 9 -50 -4 -12 -3 -14 5 -7 6 6 15 26 20 45 6 25
14 34 25 32 12 -2 17 4 17 23 0 27 14 34 24 10z m71 -48 c7 10 17 15 21 11 9
-10 -16 -68 -30 -68 -6 -1 -22 -24 -36 -53 -15 -31 -39 -61 -59 -75 -46 -30
-52 -19 -13 21 17 18 37 48 43 67 7 19 20 43 30 53 11 10 20 28 20 40 1 18 2
19 6 4 5 -18 5 -18 18 0z m65 -7 c0 -5 -2 -10 -4 -10 -3 0 -8 5 -11 10 -3 6
-1 10 4 10 6 0 11 -4 11 -10z m20 -51 c0 -10 -12 -11 -34 -3 -25 10 -19 22 9
16 14 -2 25 -8 25 -13z m113 -107 c-4 -18 -8 -20 -19 -11 -16 13 -19 33 -4 24
6 -3 10 2 10 11 0 12 3 15 10 8 5 -5 7 -19 3 -32z m-373 -2 c0 -5 -2 -10 -4
-10 -3 0 -8 5 -11 10 -3 6 -1 10 4 10 6 0 11 -4 11 -10z m400 -20 c0 -5 -2
-10 -4 -10 -3 0 -8 5 -11 10 -3 6 -1 10 4 10 6 0 11 -4 11 -10z m-35 -20 c3
-5 1 -10 -4 -10 -6 0 -11 5 -11 10 0 6 2 10 4 10 3 0 8 -4 11 -10z m61 -47
c-7 -7 -26 7 -26 19 0 6 6 6 15 -2 9 -7 13 -15 11 -17z m-27 -66 c4 1 12 -7
19 -18 10 -15 10 -19 0 -19 -12 0 -98 102 -98 116 0 3 16 -14 36 -38 21 -23
40 -42 43 -41z m-249 43 c0 -5 -4 -10 -9 -10 -11 0 -21 -38 -14 -56 9 -24 23
-16 23 14 0 15 5 34 11 42 8 12 9 9 5 -12 -8 -36 2 -62 19 -48 9 8 14 3 18
-20 4 -20 11 -28 21 -24 9 3 17 -5 24 -23 5 -15 28 -52 50 -82 40 -52 48 -77
19 -53 -8 7 -16 9 -19 6 -3 -3 -5 3 -4 13 0 10 -5 17 -11 16 -7 -2 -12 0 -12
5 3 20 -2 33 -11 27 -6 -4 -17 -2 -25 5 -11 9 -12 7 -8 -12 5 -18 -1 -14 -26
17 -18 22 -34 41 -36 43 -2 2 1 -13 5 -33 5 -21 13 -42 19 -48 13 -13 14 -37
2 -37 -5 0 -12 8 -15 18 -4 9 -14 27 -24 39 -17 23 -17 23 -16 -22 1 -43 -8
-57 -21 -35 -3 5 -11 7 -19 4 -7 -3 -18 7 -25 22 -9 20 -15 24 -23 16 -8 -8
-15 -9 -25 -1 -10 9 -13 7 -13 -5 0 -10 -4 -14 -10 -11 -5 3 -10 15 -10 25 0
15 -6 19 -22 17 -19 -2 -24 3 -26 32 -2 19 -1 45 3 58 5 21 8 23 21 12 16 -13
23 -8 38 26 3 6 12 1 20 -9 17 -21 17 -20 32 39 4 17 6 36 5 43 -1 8 13 12 44
12 25 0 45 -4 45 -10z m-122 -26 c-7 -15 -14 -22 -16 -16 -5 15 -34 3 -54 -22
-10 -12 -18 -16 -18 -10 0 18 69 73 92 74 4 0 2 -12 -4 -26z m175 1 c-7 -21
-13 -19 -13 6 0 11 4 18 10 14 5 -3 7 -12 3 -20z m57 -33 c0 -21 7 -32 25 -40
28 -13 30 -10 14 20 -6 11 -8 22 -6 25 6 6 77 -57 77 -68 0 -4 13 -29 30 -56
33 -54 48 -103 31 -103 -16 0 -37 43 -23 48 17 5 -37 81 -69 98 -26 13 -28 13
-22 -3 6 -15 4 -16 -9 -5 -13 10 -17 10 -22 -4 -6 -15 -9 -15 -23 6 -17 25
-26 110 -12 110 5 0 9 -13 9 -28z m270 -75 c0 -4 0 -11 0 -15 0 -9 -47 -8 -57
1 -21 21 -18 1 4 -33 19 -28 29 -36 34 -28 14 21 27 -4 22 -39 -4 -24 -11 -33
-24 -33 -11 0 -19 5 -19 10 0 6 -9 19 -21 31 -14 14 -22 37 -25 70 l-3 49 45
-3 c24 -1 44 -6 44 -10z m-155 -113 c14 -9 25 -22 25 -29 0 -19 -34 -7 -61 21
-19 20 -20 24 -5 24 9 0 28 -7 41 -16z m575 -167 c0 -7 -9 -29 -20 -50 -26
-47 -25 -57 3 -58 19 -1 20 -2 2 -6 -10 -3 -29 -12 -41 -19 -24 -16 -54 -9
-54 12 0 11 5 11 25 2 29 -13 43 -5 26 15 -8 11 -6 18 9 32 12 11 20 31 20 52
0 23 5 33 15 33 8 0 15 -6 15 -13z m-85 -65 c1 -12 -4 -22 -11 -22 -14 0 -27
28 -18 41 10 16 27 4 29 -19z m165 -2 c0 -17 -3 -19 -17 -11 -47 27 -49 31
-15 31 26 0 32 -4 32 -20z m-230 -30 c0 -21 -5 -30 -16 -30 -8 0 -12 5 -9 10
3 6 -1 10 -9 10 -14 0 -14 3 -4 20 19 30 38 25 38 -10z m157 24 c-3 -3 -12 -4
-19 -1 -8 3 -5 6 6 6 11 1 17 -2 13 -5z m153 -23 c1 10 5 9 14 -4 14 -18 93
-30 102 -16 2 3 19 5 39 2 19 -2 44 1 55 7 11 6 21 6 25 1 6 -11 -12 -17 -78
-27 -35 -5 -46 -9 -38 -17 8 -8 17 -8 31 1 11 7 21 8 25 2 3 -5 -3 -14 -14
-19 -15 -8 -28 -7 -53 7 -18 9 -35 19 -38 22 -3 3 -9 5 -15 6 -33 2 -95 18
-95 24 0 15 14 19 27 9 10 -9 13 -8 13 2z m-169 -55 c-28 -15 -64 -10 -39 5 7
5 24 9 38 8 l25 0 -24 -13z m-154 -22 c-3 -3 -12 -4 -19 -1 -8 3 -5 6 6 6 11
1 17 -2 13 -5z m47 0 c9 -3 16 -10 16 -15 0 -6 -10 -5 -22 1 l-23 11 22 -17
c20 -15 21 -17 7 -32 -15 -14 -17 -14 -26 1 -5 9 -16 17 -25 17 -11 0 -9 5 8
20 28 23 24 21 43 14z m116 -4 c0 -5 -2 -10 -4 -10 -3 0 -8 5 -11 10 -3 6 -1
10 4 10 6 0 11 -4 11 -10z m-58 -18 c-20 -6 -14 -22 9 -22 11 0 18 -4 14 -9
-3 -6 3 -15 12 -21 15 -9 13 -10 -11 -5 -24 5 -27 3 -22 -11 5 -14 4 -15 -9
-4 -12 10 -13 15 -4 21 9 5 8 11 -4 24 -13 13 -14 19 -4 30 6 7 16 10 22 7 5
-3 4 -7 -3 -10z m43 -2 c3 -5 1 -10 -4 -10 -6 0 -11 5 -11 10 0 6 2 10 4 10 3
0 8 -4 11 -10z m112 -6 c-3 -3 -12 -4 -19 -1 -8 3 -5 6 6 6 11 1 17 -2 13 -5z
m-313 -29 c-4 -9 0 -15 10 -15 9 0 16 5 16 11 0 5 5 7 10 4 15 -9 2 -25 -20
-25 -21 0 -34 15 -25 30 9 15 15 12 9 -5z m281 5 c-3 -5 -10 -10 -16 -10 -5 0
-9 5 -9 10 0 6 7 10 16 10 8 0 12 -4 9 -10z m-995 -200 c0 -11 -4 -20 -10 -20
-5 0 -10 9 -10 20 0 11 5 20 10 20 6 0 10 -9 10 -20z m64 -4 c-7 -19 -34 -15
-34 5 0 12 6 16 19 12 11 -3 17 -11 15 -17z m49 4 c-3 -11 -9 -20 -14 -20 -5
0 -9 9 -9 20 0 11 6 20 14 20 9 0 12 -7 9 -20z m187 16 c0 -2 3 -11 6 -20 4
-12 0 -16 -15 -16 -14 0 -21 6 -21 20 0 11 7 20 15 20 8 0 15 -2 15 -4z m43
-16 c3 -11 1 -20 -4 -20 -5 0 -9 9 -9 20 0 11 2 20 4 20 2 0 6 -9 9 -20z m57
0 c0 -11 -4 -20 -10 -20 -5 0 -10 9 -10 20 0 11 5 20 10 20 6 0 10 -9 10 -20z
m57 0 c1 -11 -4 -20 -10 -20 -7 0 -13 9 -14 20 -1 11 4 20 10 20 7 0 13 -9 14
-20z m57 4 c8 -22 8 -24 -7 -24 -7 0 -13 9 -14 20 -2 24 12 27 21 4z m49 -4
c-3 -11 -9 -20 -14 -20 -5 0 -9 9 -9 20 0 11 6 20 14 20 9 0 12 -7 9 -20z m72
0 c0 -8 -8 -16 -17 -18 -13 -2 -18 3 -18 18 0 15 5 20 18 18 9 -2 17 -10 17
-18z m178 1 c3 -15 0 -19 -14 -18 -22 1 -21 0 -13 21 8 22 21 20 27 -3z m67
-7 c0 -7 -9 -12 -20 -11 -12 1 -20 8 -20 18 0 12 6 16 20 12 11 -3 20 -11 20
-19z m58 3 c2 -12 -3 -17 -17 -17 -15 0 -21 6 -21 21 0 25 33 22 38 -4z m175
3 c-3 -11 -7 -20 -8 -20 -1 0 -5 9 -8 20 -3 12 0 20 8 20 8 0 11 -8 8 -20z
m60 12 c3 7 6 4 6 -7 1 -14 -5 -21 -19 -21 -13 0 -20 7 -20 19 0 16 3 17 14 8
11 -9 15 -9 19 1z m50 -12 c-3 -11 -9 -20 -14 -20 -10 0 -12 24 -2 33 13 13
21 7 16 -13z m185 13 c-10 -2 -18 -8 -18 -13 0 -5 8 -11 18 -13 15 -4 15 -5 0
-6 -9 0 -20 4 -23 9 -9 15 4 30 23 29 15 -1 15 -2 0 -6z m72 -13 c0 -11 -7
-20 -15 -20 -8 0 -15 8 -15 18 0 14 2 15 10 2 8 -13 10 -12 10 3 0 9 2 17 5
17 3 0 5 -9 5 -20z m60 2 c0 -10 -7 -19 -15 -19 -8 0 -15 9 -15 19 0 10 7 18
15 18 8 0 15 -8 15 -18z m47 -2 c1 -11 -4 -20 -10 -20 -7 0 -13 9 -14 20 -1
11 4 20 10 20 7 0 13 -9 14 -20z m49 0 c0 -11 -6 -20 -12 -20 -10 0 -12 15 -5
38 4 11 17 -2 17 -18z m69 0 c0 -8 -8 -16 -17 -18 -13 -2 -18 3 -18 18 0 15 5
20 18 18 9 -2 17 -10 17 -18z"/>
<path d="M4025 7598 c-33 -104 -95 -263 -101 -263 -5 0 -24 44 -44 97 -38 104
-46 119 -55 96 -9 -24 79 -252 99 -256 9 -2 18 2 20 10 8 24 104 293 111 311
5 12 2 17 -9 17 -9 0 -18 -6 -21 -12z"/>
<path d="M4100 7439 c-30 -89 -56 -166 -58 -170 -2 -5 52 -9 121 -9 102 0 126
3 131 15 5 13 -10 15 -99 15 -57 0 -106 3 -108 8 -3 4 5 36 17 72 l22 65 79 0
c71 0 94 6 95 26 0 3 -35 5 -77 5 l-78 -1 2 27 c1 15 8 40 15 55 l13 28 113 0
c85 -1 112 2 112 12 0 10 -29 13 -123 13 l-122 0 -55 -161z"/>
<path d="M4480 7597 c0 -5 -104 -293 -115 -321 -6 -14 -4 -17 10 -15 17 4 28
30 101 243 13 37 28 74 35 82 9 11 7 14 -10 14 -11 0 -21 -2 -21 -3z"/>
<path d="M4544 7447 c-28 -84 -54 -160 -58 -169 -8 -17 2 -18 117 -18 73 0
128 4 132 10 4 6 -11 10 -37 11 -184 4 -173 3 -170 24 2 11 25 82 51 158 39
112 45 137 32 137 -12 -1 -30 -43 -67 -153z"/>
<path d="M7045 4350 c-4 -6 -4 -23 -1 -38 5 -19 4 -23 -3 -12 -6 8 -11 12 -13
10 -21 -33 -36 -68 -31 -74 3 -3 17 -6 30 -6 18 0 23 6 24 28 l1 27 8 -30 c13
-50 29 -85 40 -85 13 0 13 -1 -11 93 -21 86 -32 106 -44 87z"/>
<path d="M6730 4339 c0 -32 23 -155 31 -163 17 -18 19 1 7 87 -8 59 -16 87
-25 87 -7 0 -13 -5 -13 -11z"/>
<path d="M7244 4304 c3 -11 15 -59 27 -107 15 -60 25 -85 32 -78 13 13 -33
193 -52 199 -9 3 -11 -2 -7 -14z"/>
<path d="M6592 4303 c-36 -5 -37 -15 -6 -75 l14 -27 35 17 c19 9 38 27 41 40
7 26 -11 53 -35 50 -9 0 -31 -3 -49 -5z m56 -43 c-2 -7 -10 1 -17 16 -12 27
-11 28 4 12 10 -9 16 -21 13 -28z"/>
<path d="M6533 4282 c-8 -5 -2 -30 20 -84 36 -85 41 -93 56 -84 6 4 -3 38 -25
89 -41 95 -36 88 -51 79z"/>
<path d="M6236 4071 c-9 -14 115 -144 127 -132 6 6 -10 32 -48 75 -59 66 -69
74 -79 57z"/>
<path d="M6144 3959 c-7 -13 -4 -15 83 -64 62 -36 83 -42 83 -26 0 7 -82 60
-152 98 -4 2 -10 -2 -14 -8z"/>
<path d="M6075 3850 c-8 -14 149 -109 161 -97 11 11 -5 25 -77 66 -79 46 -76
45 -84 31z"/>
<path d="M7760 3650 c-36 -15 -66 -35 -68 -44 -2 -9 0 -16 5 -15 23 2 157 66
161 77 6 19 -27 13 -98 -18z"/>
<path d="M6014 3689 c-3 -6 -4 -12 -3 -14 7 -6 153 -55 166 -55 13 0 19 30 6
30 -5 0 -43 11 -85 24 -48 15 -80 21 -84 15z"/>
<path d="M7619 2942 c9 -17 140 -66 150 -57 10 10 -17 25 -87 49 -63 22 -71
23 -63 8z"/>
<path d="M7535 2860 c-3 -6 0 -12 7 -15 105 -35 164 -52 167 -49 10 10 -28 33
-88 53 -74 24 -78 25 -86 11z"/>
<path d="M6168 2924 c-63 -40 -84 -64 -57 -64 16 0 149 89 149 100 0 18 -25 9
-92 -36z"/>
<path d="M6305 2818 c-31 -18 -45 -35 -57 -68 -12 -36 -2 -54 14 -25 6 10 29
38 51 62 38 41 34 55 -8 31z"/>
<path d="M7417 2763 c-4 -3 -7 -20 -7 -36 0 -22 12 -41 44 -73 46 -46 75 -55
97 -28 27 33 -55 144 -106 144 -12 0 -25 -3 -28 -7z"/>
<path d="M7390 2694 c0 -37 22 -69 62 -90 36 -19 51 -10 19 13 -13 8 -36 36
-52 61 -29 45 -29 45 -29 16z"/>
<path d="M7235 2650 c-9 -14 23 -82 37 -78 23 8 32 35 20 62 -12 26 -45 35
-57 16z"/>
<path d="M7194 2623 c36 -96 63 -153 74 -153 17 0 16 6 -20 92 -18 43 -39 78
-47 78 -8 0 -11 -6 -7 -17z"/>
<path d="M7310 2574 c0 -13 58 -53 75 -53 17 0 16 3 -9 24 -28 22 -66 39 -66
29z"/>
<path d="M6794 2565 c-27 -66 -13 -145 26 -145 39 0 72 98 51 153 -16 42 -58
37 -77 -8z"/>
<path d="M6753 2555 c-13 -27 -14 -43 -7 -72 14 -55 29 -51 29 10 0 28 4 62 8
75 14 36 -11 26 -30 -13z"/>
<path d="M6885 2538 c0 -29 -4 -66 -8 -83 -8 -29 -8 -29 12 -11 29 26 36 77
17 115 -9 17 -18 31 -19 31 -1 0 -2 -24 -2 -52z"/>
<path d="M7090 2504 c0 -14 35 -64 48 -69 23 -9 25 1 6 30 -16 25 -54 52 -54
39z"/>
<path d="M6146 2178 c-20 -28 -20 -36 -2 -54 20 -19 23 -18 28 14 3 15 7 33 9
41 7 23 -18 23 -35 -1z"/>
<path d="M7005 1370 c-3 -5 -1 -10 4 -10 6 0 11 5 11 10 0 6 -2 10 -4 10 -3 0
-8 -4 -11 -10z"/>
</g>
</svg>
